<svg enable-background="new 0 0 1134.113 1267.705" height="1267.705" viewBox="0 0 1134.113 1267.705" width="1134.113" xmlns="http://www.w3.org/2000/svg"><g clip-rule="evenodd" fill-rule="evenodd"><path d="m1088.356 1040.139c16.761-150.73-217.891-176.313-506.572-171.643-247.333 4-302.049 51.57-383.82 148.715-55.514 65.951-155.155 71.285-155.155 131.951 0 78.668 232.919 4.787 449.983 18.121 104.992 6.449 152.325 65.881 245.659 56.576 74.405-7.418 41.313-36.695 158-78.025 100.58-35.625 183.18-27.224 191.905-105.695z" fill="#cf3a23"/><path d="m1088.356 1040.139c16.761-150.73-217.964-179.643-506.572-171.643-57.782 1.602 153.62 134.059 114.78 148.715-31.599 11.924-204.113 19.289-288.113 0-77.021-17.686-157.729 57.879-178.268 85.289-70.232 93.723 93.568-28.48 302.268 32.666 104.667 30.666 112.666 97.998 206 88.693 74.405-7.418 41.313-36.695 158-78.025 100.58-35.625 183.18-27.224 191.905-105.695z" fill="#dd6031"/><path d="m1018.127 1062.459c-16.729-3.953-1.916-18.959 3.192-40.584s-1.421-41.674 15.309-37.723c16.729 3.953 26.148 24.686 21.039 46.311-5.108 21.623-22.811 35.948-39.54 31.996z" fill="#fff"/><g fill="#dd6031"><ellipse cx="426.118" cy="999.084" rx="30.333" ry="13.586"/><ellipse cx="463.117" cy="974.5" rx="18" ry="4.666"/><ellipse cx="193.451" cy="1152.167" rx="14.333" ry="9.668"/></g><ellipse cx="973.534" cy="1076.282" fill="#fff" rx="19.25" ry="16.17"/><ellipse cx="688.903" cy="1184.828" fill="#cf3a23" rx="41.64" ry="18.65" transform="matrix(.9474 .32 -.32 .9474 415.3789 -158.1498)"/><ellipse cx="747.824" cy="1169.109" fill="#cf3a23" rx="24.71" ry="6.406" transform="matrix(.9474 .32 -.32 .9474 413.4394 -177.8295)"/><path d="m556.778 49.699 309.674 38.134 5.333 40.667 136.763 178.538-309.833 14.795-145.285-213.213z" fill="#fdd84e"/><path d="m575.785 141.166 127.999 186.333-298.665-25.439-8.053-1.274z" fill="#cca941"/><path d="m556.778 49.699h-13.579l-.747 58.8-156.668 191.5 11.282.787 178.719-159.62-22.355-32.546z" fill="#bf8c3a"/><path d="m813.863 207.883c10.525 9.109 43.421 31.45 61.725 14.567 0 0-27.622 30.257-33.479 37.024-10.618 12.268-38.254 5.747-61.725-14.567-23.47-20.313-33.887-46.727-23.268-58.996 3.688-4.26 33.479-37.024 33.479-37.024-11.311 14.613 7.949 45.737 23.268 58.996z" fill="#712012"/><ellipse cx="833.09" cy="185.669" fill="#cf3a23" rx="29.38" ry="56.205" transform="matrix(.6544 -.7561 .7561 .6544 147.5009 694.0775)"/><path d="m441.784 937.831 254.78 79.38 256.352-71.709 55.632-638.464-309.833 14.795-312.931-21.834z" fill="#cca941"/><path d="m925.784 925.499-227.069 60 5.108-638.271 276.961-14.729z" fill="#fdd84e"/><path d="m912.101 828.471-176.539 38.817v-74.123l125.556-31.998-.602-62.002-122.748 27.334 3.35-280.666 202.819-16.248-6.063 75.961-138.025 19.406-.595 113.547 129.813-22.623z" fill="#fff"/><path d="m498.064 828.471 176.54 38.817v-74.123l-2.207-66.666-3.35-280.666-61.929-4.681 3.198 83.8 2.802 264.881-120.158-25.321z" fill="#fff"/><circle cx="525.453" cy="908.501" fill="#712012" r="38.333"/><path d="m555.535 910.253c-.275 19.303-7.029 33.945-24.716 36.245-.802.104-4.784 9.755-5.034 21.755-.246 11.81 5.991 25.75 5 25.75-21.171 0-47.5 4.5-46.75-7.5.078-1.24-2.5-5-3.75-36.25-.943-23.566 7.256-47.694 7.464-48.802 3.1-16.521 17.359-24.948 36.036-24.948 17.5 0 32 16.25 31.75 33.75z" fill="#cf3a23"/><path d="m504.785 914.503c-8.834 11.308-7.255 36.104-11 34.334s-7-25.667 2-42.667c3.962-7.483 11.667-22.333 21.333-18.333 16.695 6.909-3.999 16-12.333 26.666z" fill="#dd6031"/></g></svg>