<?xml version="1.0" encoding="utf-8"?>
<!-- Generator: Adobe Illustrator 16.0.0, SVG Export Plug-In . SVG Version: 6.00 Build 0)  -->
<!DOCTYPE svg PUBLIC "-//W3C//DTD SVG 1.1//EN" "http://www.w3.org/Graphics/SVG/1.1/DTD/svg11.dtd">
<svg version="1.1" xmlns="http://www.w3.org/2000/svg" xmlns:xlink="http://www.w3.org/1999/xlink" x="0px" y="0px"
	 width="1134.113px" height="1267.705px" viewBox="0 0 1134.113 1267.705" enable-background="new 0 0 1134.113 1267.705"
	 xml:space="preserve">
<g id="Layer_3">
	<path fill-rule="evenodd" clip-rule="evenodd" fill="#CF3A23" d="M1088.356,1040.139
		c16.761-150.73-217.891-176.313-506.572-171.643c-247.333,4-302.049,51.57-383.82,148.715
		c-55.514,65.951-155.155,71.285-155.155,131.951c0,78.668,232.919,4.787,449.983,18.121
		c104.992,6.449,152.325,65.881,245.659,56.576c74.405-7.418,41.313-36.695,158-78.025
		C997.031,1110.209,1079.631,1118.61,1088.356,1040.139z"/>
</g>
<g id="Layer_4">
	<path fill-rule="evenodd" clip-rule="evenodd" fill="#DD6031" d="M1088.356,1040.139
		c16.761-150.73-217.964-179.643-506.572-171.643c-57.782,1.602,153.62,134.059,114.78,148.715
		c-31.599,11.924-204.113,19.289-288.113,0c-77.021-17.686-157.729,57.879-178.268,85.289
		c-70.232,93.723,93.568-28.48,302.268,32.666c104.667,30.666,112.666,97.998,206,88.693c74.405-7.418,41.313-36.695,158-78.025
		C997.031,1110.209,1079.631,1118.61,1088.356,1040.139z"/>
	<path fill-rule="evenodd" clip-rule="evenodd" fill="#FFFFFF" d="M1018.127,1062.459c-16.729-3.953-1.916-18.959,3.192-40.584
		s-1.421-41.674,15.309-37.723c16.729,3.953,26.148,24.686,21.039,46.311C1052.559,1052.086,1034.856,1066.411,1018.127,1062.459z"
		/>
	<ellipse fill-rule="evenodd" clip-rule="evenodd" fill="#DD6031" cx="426.118" cy="999.084" rx="30.333" ry="13.586"/>
	<ellipse fill-rule="evenodd" clip-rule="evenodd" fill="#DD6031" cx="463.117" cy="974.5" rx="18" ry="4.666"/>
	<ellipse fill-rule="evenodd" clip-rule="evenodd" fill="#DD6031" cx="193.451" cy="1152.167" rx="14.333" ry="9.668"/>
	<ellipse fill-rule="evenodd" clip-rule="evenodd" fill="#FFFFFF" cx="973.534" cy="1076.282" rx="19.25" ry="16.17"/>
	
		<ellipse transform="matrix(0.9474 0.32 -0.32 0.9474 415.3789 -158.1498)" fill-rule="evenodd" clip-rule="evenodd" fill="#CF3A23" cx="688.903" cy="1184.828" rx="41.64" ry="18.65"/>
	
		<ellipse transform="matrix(0.9474 0.32 -0.32 0.9474 413.4394 -177.8295)" fill-rule="evenodd" clip-rule="evenodd" fill="#CF3A23" cx="747.824" cy="1169.109" rx="24.71" ry="6.406"/>
</g>
<g id="Juice_Box">
	<polygon fill-rule="evenodd" clip-rule="evenodd" fill="#FDD84E" points="556.778,49.699 866.452,87.833 871.785,128.5 
		1008.548,307.038 698.715,321.833 553.43,108.62 	"/>
	<polygon fill-rule="evenodd" clip-rule="evenodd" fill="#CCA941" points="575.785,141.166 703.784,327.499 405.119,302.06 
		397.066,300.786 	"/>
	<polygon fill-rule="evenodd" clip-rule="evenodd" fill="#BF8C3A" points="556.778,49.699 543.199,49.699 542.452,108.499 
		385.784,299.999 397.066,300.786 575.785,141.166 553.43,108.62 	"/>
	<path fill-rule="evenodd" clip-rule="evenodd" fill="#712012" d="M813.863,207.883c10.525,9.109,43.421,31.45,61.725,14.567
		c0,0-27.622,30.257-33.479,37.024c-10.618,12.268-38.254,5.747-61.725-14.567c-23.47-20.313-33.887-46.727-23.268-58.996
		c3.688-4.26,33.479-37.024,33.479-37.024C779.284,163.5,798.544,194.624,813.863,207.883z"/>
	
		<ellipse transform="matrix(0.6544 -0.7561 0.7561 0.6544 147.5009 694.0775)" fill-rule="evenodd" clip-rule="evenodd" fill="#CF3A23" cx="833.09" cy="185.669" rx="29.38" ry="56.205"/>
	<polygon fill-rule="evenodd" clip-rule="evenodd" fill="#CCA941" points="441.784,937.831 696.564,1017.211 952.916,945.502 
		1008.548,307.038 698.715,321.833 385.784,299.999 	"/>
	<polygon fill-rule="evenodd" clip-rule="evenodd" fill="#FDD84E" points="925.784,925.499 698.715,985.499 703.823,347.228 
		980.784,332.499 	"/>
</g>
<g id="Layer_5">
	<polygon fill-rule="evenodd" clip-rule="evenodd" fill="#FFFFFF" points="912.101,828.471 735.562,867.288 735.562,793.165 
		861.118,761.167 860.516,699.165 737.768,726.499 741.118,445.833 943.937,429.585 937.874,505.546 799.849,524.952 
		799.254,638.499 929.067,615.876 	"/>
	<polygon fill-rule="evenodd" clip-rule="evenodd" fill="#FFFFFF" points="498.064,828.471 674.604,867.288 674.604,793.165 
		672.397,726.499 669.047,445.833 607.118,441.152 610.316,524.952 613.118,789.833 492.96,764.512 	"/>
</g>
<g id="Layer_7" display="none">
	<path display="inline" fill-rule="evenodd" clip-rule="evenodd" fill="#CF3A23" d="M522.784,463.976
		c0-12.605,4.69-22.824,10.476-22.824h12.222c5.785,0,10.477,10.218,10.477,22.824v523.701c0,12.604-4.691,22.822-10.477,22.822
		H533.26c-5.785,0-10.476-10.219-10.476-22.822V463.976z"/>
</g>
<g id="Layer_8">
	<circle fill-rule="evenodd" clip-rule="evenodd" fill="#712012" cx="525.453" cy="908.501" r="38.333"/>
	<path fill-rule="evenodd" clip-rule="evenodd" fill="#CF3A23" d="M555.535,910.253c-0.275,19.303-7.029,33.945-24.716,36.245
		c-0.802,0.104-4.784,9.755-5.034,21.755c-0.246,11.81,5.991,25.75,5,25.75c-21.171,0-47.5,4.5-46.75-7.5
		c0.078-1.24-2.5-5-3.75-36.25c-0.943-23.566,7.256-47.694,7.464-48.802c3.1-16.521,17.359-24.948,36.036-24.948
		C541.285,876.503,555.785,892.753,555.535,910.253z"/>
	<path fill-rule="evenodd" clip-rule="evenodd" fill="#DD6031" d="M504.785,914.503c-8.834,11.308-7.255,36.104-11,34.334
		c-3.745-1.77-7-25.667,2-42.667c3.962-7.483,11.667-22.333,21.333-18.333C533.813,894.746,513.119,903.837,504.785,914.503z"/>
</g>
<g id="Layer_6" display="none">
	<path display="inline" fill-rule="evenodd" clip-rule="evenodd" fill="#050402" d="M320.163,164.053c0,0,2.622,1.591-9.045,11.19
		s-16.18,9.564-16.18,9.564l234.217,284.69c0,0,10.176,3.002,18.736-4.331s8.062-14.511,8.062-14.511L320.163,164.053z"/>
	<path display="inline" fill-rule="evenodd" clip-rule="evenodd" fill="#050402" d="M986.548,974.045L825.138,777.85
		c0,0-4.854-1.775-17.854,3.648c-12.117,5.057-10.377,13.453-10.377,13.453l164.416,199.848l31.461,6.199L986.548,974.045z"/>
	<g display="inline">
		<polygon fill="#712012" points="114.639,433.747 55.424,535.769 256.285,670.225 320.286,571.203 		"/>
		<path fill="#CF3A23" d="M73.976,438.484c0,0,54.014-76.945,94.73-122.133c40.718-45.188,126.231-131.543,126.231-131.543
			l168.63,204.97c0,0-81.065,64.081-108.205,91.267c-27.14,27.186-86.915,104.721-86.915,104.721L73.976,438.484z"/>
	</g>
</g>
</svg>
