<?xml version="1.0" encoding="UTF-8" standalone="no"?>
<svg id="svg3376" xmlns:rdf="http://www.w3.org/1999/02/22-rdf-syntax-ns#" xmlns="http://www.w3.org/2000/svg" height="705" viewBox="0 0 2830.3125 705" width="2830" version="1.1" xmlns:cc="http://creativecommons.org/ns#" xmlns:dc="http://purl.org/dc/elements/1.1/">
<path id="path3386" d="m1074 704.7c-0.2825-0.2985-20.11-0.5941-44.06-0.6568s-52.41-0.5055-63.24-0.9839-30.36-1.094-43.39-1.368c-13.04-0.274-24.22-0.6732-24.84-0.887-0.6258-0.2138-2.825-0.3306-4.888-0.2596-2.062 0.071-7.115-0.4034-11.23-1.054-4.303-0.681-13.46-1.077-21.56-0.9317-16 0.2859-56.87-1.309-86.74-3.384-11.09-0.7703-26.48-1.64-34.22-1.933-7.734-0.2927-19.01-1.139-25.06-1.88-6.05-0.7416-19.76-1.984-30.47-2.761-10.71-0.7772-23.06-1.814-27.44-2.304-4.383-0.4898-14.93-1.536-23.44-2.325-19.06-1.767-29.12-2.872-47.81-5.25-7.992-1.017-20.86-2.48-28.59-3.253-7.734-0.7723-16.17-1.803-18.75-2.291-2.578-0.4877-10.17-1.557-16.88-2.377-6.703-0.8197-14.9-1.912-18.22-2.428-3.32-0.5155-11.76-1.534-18.75-2.264-16.93-1.767-36.75-4.16-38.49-4.65-0.7734-0.2172-11.95-1.918-24.84-3.78s-31.24-4.787-40.78-6.501c-9.539-1.714-20.51-3.63-24.38-4.257-3.867-0.6279-11.46-2.137-16.88-3.354-21.2-4.765-31.98-7.037-39.96-8.425-13.03-2.266-37.75-7.812-40.02-8.978-13.97-7.189-15.91-16.08-3.141-14.41 6.202 0.8116 34.06 6.381 41.4 8.278 19.87 5.132 85.51 16.78 138.3 24.54 1.805 0.2653 10.45 1.551 19.22 2.858 8.766 1.306 19.1 2.756 22.97 3.222 3.867 0.4654 13.57 1.692 21.56 2.726 7.992 1.034 22.34 2.762 31.88 3.84 9.539 1.078 22.62 2.575 29.06 3.327 26.79 3.124 37.25 4.257 59.53 6.449 12.89 1.268 29.34 2.758 36.56 3.311 7.219 0.5526 19.88 1.619 28.12 2.369 8.25 0.7503 20.91 1.814 28.12 2.364 7.219 0.5501 19.88 1.601 28.12 2.336 8.25 0.7347 21.96 1.771 30.47 2.303 8.508 0.5319 21.8 1.382 29.53 1.89 25.39 1.666 54.87 2.822 82.03 3.218 14.7 0.214 27.35 0.6066 28.12 0.8723 2.909 0.9995 79.75 1.852 174.8 1.939 102.4 0.0941 114-0.008 150.5-1.335 12.12-0.4407 32.16-1.04 44.53-1.331 23.66-0.5567 50.44-1.542 93.28-3.433 14.18-0.6258 28.95-1.077 32.81-1.004 3.867 0.0737 18-0.5088 31.41-1.294 13.41-0.7854 30.49-1.788 37.97-2.227 7.477-0.4396 14.93-0.5912 16.57-0.3368 1.637 0.2544 4.379 0.002 6.094-0.5618 1.715-0.5634 9.024-1.253 16.24-1.533 18.89-0.7325 52.57-2.364 58.59-2.839 2.836-0.2235 14.86-0.792 26.72-1.263 11.86-0.4712 28.31-1.51 36.56-2.309 8.25-0.7988 22.38-1.901 31.41-2.45 15.74-0.9574 32-2.122 72.66-5.203 10.31-0.7816 25.71-1.842 34.22-2.357 15.44-0.9339 29.62-2.048 47.34-3.719 5.156-0.4861 16.97-1.531 26.25-2.323 20.09-1.713 56.95-5.185 74.06-6.975 4.641-0.4856 15.19-1.559 23.44-2.385 17.35-1.738 29.4-3.119 53.91-6.179 4.383-0.5473 11.77-1.353 16.41-1.79 4.641-0.4372 13.71-1.452 20.16-2.256 12.27-1.529 46.83-5.417 68.44-7.699 13.53-1.429 19.56-2.182 36.56-4.574 5.93-0.8337 14.2-1.918 18.39-2.41 4.183-0.492 10.3-1.327 13.59-1.855 3.294-0.5283 10.21-1.354 15.36-1.836 5.156-0.4813 12.96-1.322 17.34-1.869 6.823-0.851 41.23-4.629 54.38-5.971 3.833-0.3913 12.35-1.546 42.66-5.784 5.672-0.7932 16.85-2.297 24.84-3.342 7.992-1.045 23.6-3.219 34.69-4.831s22.69-3.072 25.78-3.244c3.094-0.1724 10.9-1.348 17.34-2.614 10.58-2.077 36.54-6.174 51.09-8.062 12.21-1.585 45.07-6.553 46.3-7 0.716-0.2606 6.833-1.281 13.59-2.267 24.35-3.552 52.23-8.333 55.6-9.535 3.046-1.085 4.934-7.821 2.792-9.963-1.46-1.46-2.698-1.421-18.68 0.5907-9.412 1.185-21.96 2.754-27.89 3.485-5.93 0.7319-14.58 1.955-19.22 2.718-9.666 1.589-31.25 4.406-54.38 7.098-8.766 1.02-16.57 2.041-17.34 2.27-0.7734 0.2283-5.203 0.8472-9.844 1.375-11.11 1.265-34.58 4.42-49.22 6.617-6.445 0.9674-16.78 2.418-22.97 3.223-6.188 0.8054-17.37 2.275-24.84 3.267-7.477 0.9914-17.81 2.264-22.97 2.828-5.156 0.5638-12.12 1.418-15.47 1.898-3.352 0.4803-9.68 1.31-14.06 1.843-4.383 0.5334-12.82 1.599-18.75 2.367-5.93 0.7684-16.24 1.851-22.91 2.407-6.668 0.5553-12.43 1.201-12.81 1.436-0.3792 0.2344-8.001 1.243-16.94 2.241-30.33 3.388-34.05 3.815-44.84 5.146-5.93 0.7316-15.21 1.802-20.62 2.378-5.414 0.5765-12.59 1.458-15.94 1.96-3.352 0.5014-14.74 1.722-25.31 2.712-10.57 0.9904-25.76 2.464-33.75 3.275-7.992 0.811-22.97 2.326-33.28 3.367-21.05 2.124-28.89 2.957-47.81 5.073-31.7 3.545-86.99 8.649-116.7 10.77-7.992 0.5713-18.54 1.452-23.44 1.958-4.898 0.5057-23.25 1.759-40.78 2.785s-33.56 2.081-35.62 2.345c-2.062 0.2637-14.09 1.1-26.72 1.858-32.64 1.959-50.51 3.186-54.84 3.764-2.062 0.2757-10.08 0.8901-17.81 1.365-7.734 0.4752-25.24 1.71-38.91 2.744-22.82 1.727-49.88 3.688-79.69 5.777-21.52 1.507-63.83 3.601-102.7 5.08-21.14 0.8051-42.87 1.88-48.28 2.388-14.21 1.335-87.61 3.742-113.4 3.72-12.12-0.0102-24.48 0.3914-27.47 0.8924-2.991 0.501-6.366 0.5748-7.5 0.164s-33.18-0.8098-71.22-0.8868c-64.67-0.1308-69.69-0.2578-77.34-1.956-4.5-0.9987-11.34-2.321-15.21-2.938-9.15-1.46-17.59-3.543-20.58-5.078-1.312-0.6734-7.659-3.012-14.1-5.196-6.445-2.184-13.2-4.735-15-5.668-1.805-0.9331-6.867-3.26-11.25-5.171s-15.12-7.026-23.86-11.37c-22.29-11.07-29.51-13.88-44.29-17.21-7.119-1.604-14.63-3.502-16.69-4.219-2.062-0.717-6.411-1.76-9.663-2.318-8.995-1.543-222.2-2.755-251-1.427-12.28 0.5682-143.8 1.497-270.5 1.91-87.42 0.285-84.79 0.432-90.28-5.055-5.438-5.438-3.763-29.1 2.119-29.94 3.213-0.4561 3.817 1.189 3.833 10.44l0.0143 8.251 3.516 1.516c1.934 0.8341 6.047 1.521 9.141 1.526s35.37-0.1019 71.72-0.2378c227.5-0.8501 514.6-0.0604 523.7 1.441 5.095 0.8356 10.32 1.626 11.61 1.755 1.289 0.1299 3.398 0.6561 4.688 1.169 1.289 0.5131 7.406 2.102 13.59 3.531 10.71 2.473 21.19 6.092 28.79 9.942 6.869 3.479 10.18 1.282 19.75-13.12 4.074-6.129 3.919-6.625-3.122-9.99-17.63-8.428-13.24-17.84 10.58-22.65 5.699-1.152 5.344-3.351-2.427-15.03-4.712-7.081-5.458-7.149-12.43-1.135-9.03 7.789-19.97 13.6-34.32 18.22-7.124 2.294-13.88 4.666-15.01 5.272-1.603 0.858-30.76 2.051-43.46 1.778-0.5663-0.0122-1.693 1.665-2.503 3.728-0.9419 2.398-2.092 3.778-3.189 3.828-0.9438 0.0429-9.521 0.1484-19.06 0.2344-15.2 0.137-17.66 0.3717-19.92 1.9-2.495 1.692-2.74 1.693-8.246 0.044-8.177-2.449-8.821-4.449-5.137-15.95 1.019-3.178-1.439-4.566-10.45-5.901-12.38-1.835-12.04-2.051-12.04 7.505 0 12.42-0.8357 12.8-29.06 13.05-22.75 0.2083-20.8 0.3885-22.11-2.05-0.8349-1.56-3.538-23.43-3.653-29.56-0.0482-2.573-3.024-4.051-8.155-4.051-2.854 0-7.72-0.6562-10.82-1.458-3.095-0.802-6.953-1.329-8.573-1.172l-2.946 0.2862 0.2324 9.844c0.1278 5.414 0.6549 12.93 1.171 16.7 1.596 11.66 0.0432 12.5-22.56 12.17-8.471-0.1221-18.02 0.1205-21.22 0.539l-5.82 0.7609-1.836-3.019c-2.069-3.403-2.674-8.043-3.414-26.22-0.8601-21.11-0.006-19.74-13.58-21.89-15.43-2.443-16.26-2.092-15.45 6.533 0.2349 2.514 1.12 11.67 1.966 20.34 2.296 23.52 1.694 24.08-25.95 24.07-27-0.008-26.01 0.7695-27.18-21.42-0.9655-18.35-2.663-35.95-3.557-36.9-0.9318-0.9848-17.74-2.804-22.64-2.45l-4.219 0.3052 0.2518 10.31c0.1385 5.672 0.6986 13.69 1.245 17.81 4.304 32.51 2.703 34.66-25.31 33.94-27.78-0.7104-25.06 2.603-29.95-36.48-4.336-34.65-3.276-33.55-32.32-33.55h-5.352l0.5631 19.92c0.3097 10.96 0.9497 23.29 1.422 27.4 1.846 16.07 0.6469 22.87-4.063 23.04-0.6445 0.0232-10.38 0.395-21.64 0.8265-32.78 1.256-30.28 4.705-32.52-44.93-1.316-29.27 0.6972-26.39-18.69-26.7-9.309-0.1458-14.7-0.7194-20.2-2.148-4.125-1.072-10.88-2.228-15-2.568-4.125-0.3401-12.35-1.448-18.28-2.462-11.72-2.004-33.11-1.705-36.13 0.5052-1.167 0.8536-1.486 3.037-1.519 10.43-0.0556 12.16-1.388 14.67-5.997 11.3-1.549-1.132-1.89-2.841-2.289-11.48l-0.4688-10.15-14.93-0.259c-17.96-0.3117-16.3-1.848-16.91 15.6-0.5488 15.54-0.6578 16.07-3.348 16.07-3.702 0-4.881-3.904-5.382-17.82-0.5777-16.06 7.825-14.14-61.79-14.16-70.36-0.0181-86.42-0.9393-94.83-5.44-1.029-0.5508-7.72-3.059-14.87-5.573-34.34-12.08-62.52-36.77-75.42-66.06-2.041-4.639-5.352-11.21-7.357-14.61-3.981-6.744-6.808-16.28-8.92-30.08-0.7496-4.898-1.794-10.38-2.322-12.19-3.471-11.88-3.254-37.69 0.4423-52.5 0.8367-3.352 1.874-8.625 2.305-11.72 1.623-11.65 3.212-16.54 7.736-23.81 1.411-2.266 3.226-6.108 4.033-8.537 0.8069-2.429 2.55-5.427 3.873-6.661s3.387-4.142 4.585-6.463c5.206-10.08 32.2-34.49 45.81-41.44 2.096-1.07 5.298-2.921 7.114-4.115s5.412-2.634 7.99-3.2c2.578-0.5666 7.281-2.289 10.45-3.827 4.393-2.132 7.958-3.017 15-3.723 5.08-0.5094 11.98-1.316 15.33-1.792 6.188-0.8796 32.33-1.506 99.8-2.392 25.87-0.3398 37.66-0.8128 38.1-1.529 0.3526-0.5706 0.9128-3.085 1.245-5.588 1.129-8.514 6.043-8.056 7.575 0.7067 1.164 6.657 1.986 6.963 17.76 6.6l11.2-0.2574 2.201-4.176c4.898-9.296 8.47-9.671 10.03-1.053 1.118 6.187-3.317 5.649 48.81 5.92 66.19 0.3438 59.58 4.423 60.95-37.64 0.2588-7.992 0.7138-17.3 1.011-20.68 0.4596-5.222 0.2367-6.66-1.484-9.577-4.646-7.875-2.416-8.622 24.84-8.32 34.57 0.383 33.84-0.2273 31.77 26.39-0.7414 9.534-1.443 23.87-1.559 31.87l-0.2107 14.53 2.344-0.1621c1.289-0.0892 6.352-0.6482 11.25-1.242 4.898-0.5941 11.16-1.315 13.9-1.601 6.953-0.7244 7.627-4.212 9.448-48.85 0.611-14.98 1.008-18.38 2.301-19.67 1.834-1.834 49.59-2.2 51.4-0.394 2.744 2.744 3.652 14.51 2.586 33.48-0.5794 10.31-0.9107 21.28-0.7361 24.38l0.3174 5.625 6.094 0.2629c19.32 0.8336 19.31 0.8436 20.06-31.64 0.8114-35.54-1.391-32.85 26.84-32.85 26.97 0 27 0.0233 25.27 22.03-2.307 29.32-1.659 38.29 2.705 37.44 3.696-0.7221 22.19-5.353 22.51-5.634 2.002-1.795 3.634-39.32 1.977-45.47-2.018-7.495 3.383-13.76 9.758-11.31 1.609 0.6168 10.49 1.378 19.79 1.698 20.3 0.6976 20.34 0.7112 23.44 7.254l2.437 5.152-0.6568 17.83c-0.7542 20.48-0.9057 20.11 7.014 16.99 2.678-1.055 5.833-1.919 7.011-1.919 10.27 0 12.34-3.016 13.18-19.22 1.359-26.1 0.6646-25.31 23.14-26.17 10.03-0.3815 19.71-1.259 23.14-2.097 7.574-1.851 8.036-1.615 11.42 5.854 3.417 7.535 3.508 9.101 0.6423 10.98-6.116 4.007-3.897 24.09 2.661 24.09 18.98 0 21.56-1.962 22.33-16.96 1.129-22.14-0.2372-21.06 26.52-20.87 20.99 0.1528 23.81 0.6676 23.82 4.342 0.004 1.142 0.8444 3.342 1.869 4.889 1.252 1.891 1.865 4.4 1.869 7.658 0.0113 8.825 1.314 9.42 11.9 5.436 23.21-8.735 64.13-2.398 90.81 14.06l3.793 2.34 3.5-2.885c9.967-8.216 9.102-10.81-5.929-17.76-16.79-7.769-18.46-10.68-7.969-13.88 2.062-0.6283 7.336-2.917 11.72-5.086 9.053-4.48 8.946-4.224 6.123-14.72-3.4-12.65-3.995-12.89-17.37-7.072-30.64 13.32-21.77 12.72-188.9 12.85-130.7 0.1061-158 0.6313-160.7 3.095-1.787 1.617-2.02 1.627-3.639 0.1624-1.955-1.769-323-1.572-324.8 0.1996-0.4636 0.4636-1.047 5.852-1.297 11.97-0.5952 14.59-0.7755 15.35-3.618 15.35-3.818 0-4.997-3.14-5.717-15.23-0.8112-13.62-0.0351-12.98-15.83-13.08-15.36-0.0934-14.53-0.7632-15.22 12.29-0.599 11.35-1.729 13.56-5.816 11.38-2.092-1.119-2.581-3.166-3.428-14.35-0.7707-10.18 0.8068-9.616-24.78-8.793-22.21 0.7138-22 0.7828-23.56-7.569-3.556-19.01 19.05-37.43 53.1-43.28 3.094-0.5309 8.789-1.585 12.66-2.342 3.867-0.7571 10.72-1.832 15.23-2.388 20.27-2.499 25.21-3.187 34.45-4.795 5.414-0.942 12.59-1.98 15.94-2.306 9.3-0.9051 26.79-3.211 35.16-4.635 14.25-2.425 45.08-6.709 54.38-7.555 3.609-0.3286 11.84-1.374 18.28-2.323 6.445-0.9491 14.88-1.994 18.75-2.321 3.867-0.3276 9.352-0.9816 12.19-1.453 2.836-0.4717 9.797-1.286 15.47-1.809 5.672-0.523 15.59-1.579 22.03-2.346 19.81-2.358 41.05-4.333 55.78-5.185 7.734-0.4476 17.65-1.278 22.03-1.844 21.57-2.789 48.05-5.756 62.81-7.038 50.75-4.407 62.08-5.31 78.28-6.238 9.797-0.5611 26.09-1.18 36.2-1.375 10.12-0.1955 22.75-0.7652 28.07-1.266 5.323-0.5009 9.964-0.7343 10.31-0.5188 0.3488 0.2156 3.945-0.2415 7.991-1.016 4.046-0.7742 7.991-1.165 8.765-0.8673 3.434 1.318 84.17-1.236 106.3-3.362 5.048-0.4855 16.02-0.8829 24.38-0.8831 8.359-0.0001965 25.96-0.7166 39.1-1.592 30.49-2.03 181.8-2.156 209.5-0.1754 9.281 0.6622 25.52 1.089 36.09 0.9494 10.57-0.14 28.08 0.2359 38.91 0.8354s29.6 1.199 41.72 1.333c31.77 0.3503 118.2 4.539 127 6.157 2.578 0.4717 12.28 1.093 21.56 1.38 9.281 0.2875 21.52 0.9187 27.19 1.403 5.672 0.4839 15.79 0.8966 22.49 0.9173 6.698 0.02064 14.08 0.2462 16.41 0.5012 2.326 0.255 15.62 0.9034 29.54 1.441 24.07 0.9292 43.86 2.337 73.12 5.199 7.219 0.7062 21.56 1.922 31.88 2.702 10.31 0.7798 28.88 2.268 41.25 3.306 12.38 1.039 27.77 2.32 34.22 2.848 6.445 0.5277 17.84 1.568 25.31 2.313 7.477 0.7444 18.45 1.604 24.38 1.91 5.93 0.3059 13.73 0.9534 17.34 1.439 5.94 0.7989 42.53 4.109 57.66 5.216 3.352 0.2453 16.85 1.263 30 2.262 22.38 1.7 32.04 2.482 57.66 4.662 5.672 0.4828 16.22 1.129 23.44 1.436 7.219 0.307 17.55 1.148 22.97 1.869 5.414 0.7209 23.34 2.603 39.84 4.181 16.5 1.579 38.44 3.711 48.75 4.737 10.31 1.027 21.28 2.079 24.38 2.339 3.094 0.26 13.43 1.3 22.97 2.312 9.539 1.011 26.84 2.701 38.44 3.754s24.47 2.312 28.59 2.796c10.66 1.252 31.41 3.496 47.81 5.171 7.734 0.7899 19.76 2.283 26.72 3.318 6.961 1.035 20.04 2.681 29.06 3.658 9.023 0.9767 21.05 2.441 26.72 3.255 5.672 0.8134 13.69 1.921 17.81 2.461 4.125 0.5402 10.08 1.384 13.23 1.875 3.153 0.4911 7.794 0.896 10.31 0.8999 2.519 0.0039 7.311 0.4503 10.65 0.9919 3.339 0.5417 12.83 1.789 21.09 2.771 8.263 0.9823 19.66 2.426 25.34 3.209 5.672 0.7827 18.96 2.51 29.53 3.839s23.23 3.071 28.12 3.871c4.898 0.8002 12.91 1.844 17.81 2.319 4.898 0.4753 11.44 1.536 14.53 2.358 3.094 0.8215 8.367 1.603 11.72 1.737 30.78 1.231 44.06 11.45 44.06 33.89 0 6.884 1.111 8.1 14.84 16.24 7.977 4.731 13.41 9.426 24.3 21l3.984 4.235 0.1017 46.68c0.056 25.68 0.3724 49.16 0.7031 52.2l0.6015 5.51 22.03-0.0506c12.12-0.0278 23.09-0.0758 24.38-0.1064 1.289-0.0306 20.48 0.1111 42.66 0.3151 43.66 0.4016 45.04 0.2714 39.09-3.671-9.906-6.556-3.131-12.27 6.95-5.864 19.62 12.47 20.32 13.91 10.94 22.39-11.82 10.67-18.07 11.92-18.07 3.587v-3.414l-17.58-0.6143c-9.668-0.3379-38.95-0.6155-65.08-0.617l-47.5-0.003-1.806-2.48-1.806-2.48-8.35 3.805c-26.33 12-31.79 14.37-40.27 17.52-5.133 1.903-12.5 4.653-16.36 6.111-3.867 1.458-14.82 5.541-24.33 9.073-9.517 3.532-17.32 6.844-17.34 7.36-0.059 1.486 31.68 15.59 44.96 19.97 5.608 1.852 28.89 13.33 43.12 21.27 4.125 2.299 10.58 5.652 14.33 7.45 11.03 5.276 10.48 2.23 10.53 58.54 0.044 50.36 0.01 50.74-4.621 50.74-1.895 0-4.993 1.879-10.75 6.519-8.923 7.196-18.69 13.31-24.58 15.38-2.107 0.7411-7.043 3.606-10.97 6.365-3.926 2.76-8.488 5.773-10.14 6.695l-2.999 1.677 2.424 2.541c4.294 4.501 4.728 7.105 2.518 15.11-4.066 14.73-5.972 16.32-22.69 18.86-6.329 0.9635-15.73 2.412-20.88 3.219-5.156 0.8068-13.59 2.106-18.75 2.887-5.156 0.7812-11.48 1.832-14.06 2.334-10.56 2.058-21.92 3.973-27.66 4.663-3.352 0.4025-8.836 1.207-12.19 1.787-3.352 0.5806-9.258 1.451-13.12 1.934-3.867 0.4831-10.62 1.523-15 2.311-4.383 0.7882-9.656 1.446-11.72 1.463-2.062 0.0163-7.758 0.8623-12.66 1.88-4.898 1.018-10.88 1.856-13.3 1.863-2.417 0.007-7.269 0.6869-10.78 1.511-11.12 2.609-25.75 4.787-81.39 12.11-9.797 1.29-21.4 2.964-25.78 3.72-4.383 0.7561-11.98 1.824-16.88 2.373-4.898 0.5491-11.02 1.381-13.59 1.849-2.578 0.4676-11.44 1.529-19.69 2.359-17.95 1.806-26.78 2.847-43.59 5.141-6.961 0.9495-16.24 1.993-20.62 2.319-4.383 0.3261-10.92 0.9944-14.53 1.485-3.609 0.4906-12.05 1.523-18.75 2.294-6.703 0.7712-18.09 2.238-25.31 3.26-20.13 2.85-35.46 4.691-51.24 6.156-7.913 0.7346-17.34 1.783-20.95 2.33-3.609 0.5468-10.15 1.365-14.53 1.819-18.06 1.869-69.52 8.095-78.28 9.471-3.094 0.4861-10.9 1.295-17.34 1.799-23.89 1.865-33.87 2.791-34.54 3.205-1.14 0.7045-40.37 4.973-69.99 7.615-29.4 2.622-36.49 3.222-50.16 4.238-7.477 0.5561-20.1 1.618-28.06 2.359-7.955 0.7414-17.53 1.348-21.28 1.348-3.749 0-11.58 0.5985-17.41 1.33-5.827 0.7315-15.87 1.593-22.31 1.915-6.445 0.3218-14.88 1.01-18.75 1.53-3.867 0.5195-15.26 1.334-25.31 1.809-50.88 2.407-59.91 2.912-64.36 3.603-2.656 0.4124-7.685 0.406-11.18-0.0143-4.757-0.5728-7.354-0.4217-10.37 0.6034-3.213 1.091-11 1.391-38.51 1.486-34.93 0.1198-43.58 0.4173-105.7 3.636-34.78 1.801-64.22 3.008-115.8 4.748-50.03 1.688-122.1 3.866-138.3 4.183-8.766 0.1709-31.12 0.609-49.69 0.9736-18.56 0.3646-33.98 0.4186-34.26 0.12zm218.5-50.73c9.023-0.2394 35.12-0.8782 58-1.42 22.88-0.5414 41.96-1.211 42.41-1.488 0.448-0.2769 20.54-1.314 44.65-2.304 24.11-0.9906 49.96-2.226 57.43-2.745 7.477-0.5193 20.13-1.191 28.12-1.493 7.992-0.302 17.48-0.9417 21.09-1.422 3.609-0.4798 16.27-1.499 28.12-2.265 28.6-1.847 46.72-3.183 58.12-4.287 21.51-2.082 56.28-3.696 59.53-2.764 5.255 1.507 14.35 1.088 20.77-0.9561 5.547-1.767 15.91-3.071 32.66-4.114 28.22-1.756 26.24-0.7018 26.3-13.95 0.029-5.783 0.4025-18.09 0.8295-27.36 0.9764-21.18 2.1-19.25-11.2-19.25-13.31 0-12.16-2.079-11.2 20.18 1.079 25.1-2.286 28.32-35.2 33.74-24.31 3.999-22.97 6.034-22.97-34.74v-33.19l-2.109-1.374c-1.362-0.8874-6.791-1.725-15.32-2.363-18.49-1.383-44.37-8.287-55.7-14.85-2.32-1.346-6.961-3.875-10.31-5.621-7.294-3.8-14.05-8.842-22.94-17.13-13.73-12.79-25.66-17.7-42.9-17.64-3.467 0.0118-6.82-0.2973-7.45-0.6868-1.059-0.6543-82.59-0.9624-341.7-1.291l-100.4-0.1275-9.256 2.488c-37.29 10.02-40.86 12.6-35.44 25.53 12.83 30.63 13.64 32.09 17.66 32.09 3.321 0 5.214-1.876 6.622-6.562 0.3873-1.289 1.925-4.279 3.416-6.645 1.492-2.365 2.712-5.206 2.712-6.311 0-1.302 3.456-5.471 9.802-11.82 17.61-17.63 34.05-23.1 65.2-21.69 11.15 0.5049 244.4 1.699 302.8 1.55 44.45-0.1131 61.01 2.056 77.34 10.13 5.156 2.548 13.17 6.381 17.81 8.516 4.641 2.135 12.48 6.183 17.42 8.996 12.98 7.386 35.98 16.06 53.36 20.12 4.898 1.144 11.65 2.91 15 3.923 6.11 1.848 15.45 3.08 31.65 4.177 4.775 0.3233 9.293 1.053 10.04 1.621 4.297 3.268 10.24 43.16 7.625 51.16-0.827 2.528-1.504 6.035-1.504 7.791 0 6.062-2.566 7.01-22.03 8.135-7.734 0.4473-24.4 1.467-37.03 2.266-12.63 0.7988-31.62 1.898-42.19 2.443-10.57 0.5447-25.03 1.417-32.13 1.938-7.103 0.5214-25.88 1.553-41.72 2.291-15.84 0.7389-45.26 2.18-65.37 3.203-59.71 3.037-49.78 2.651-134.1 5.208-43.66 1.325-58.84 1.568-119.5 1.911-67.14 0.3796-71.75 0.1884-75.32-3.124-1.11-1.028-3.917-2.349-6.238-2.935-8.513-2.149-22.17-9.219-26.05-13.48-4.403-4.843-12.67-18.11-13.93-22.35-1.67-5.623-2.101-5.809-11.23-4.832l-7.275 0.7787-6.407 13.69c-7.958 17-7.735 17.55 9.557 23.49 2.848 0.9781 10.45 3.825 16.9 6.326 23.41 9.083 24.17 9.24 48.28 9.961 11.86 0.3547 27.05 0.9374 33.75 1.295 12.54 0.6689 111.9 0.4172 141.1-0.3574zm26.72-21.16c45.03-1.57 64.35-2.378 106.9-4.467 21.66-1.064 55.62-2.619 75.47-3.455 19.85-0.8366 51.28-2.336 69.84-3.333 30.44-1.634 43.31-2.458 88.59-5.676 15.93-1.132 14.83-0.4654 15.59-9.451 1.573-18.61-1.713-34.06-7.419-34.89-1.659-0.242-9.345-1.347-17.08-2.456-28.72-4.117-63.93-15.31-85.31-27.12-17.32-9.564-20.91-11.36-26.5-13.24-3.23-1.09-8.082-3.643-10.78-5.674-2.7-2.031-6.596-4.127-8.658-4.658-2.062-0.5308-6.281-1.731-9.375-2.666-12.79-3.869-14.35-3.927-118-4.375-185-0.8013-241.5-0.6795-248.6 0.5365-3.609 0.6183-9.727 1.494-13.59 1.946-19.73 2.307-21.89 3.287-30.3 13.75-2.81 3.496-6.476 7.622-8.147 9.168-8.228 7.616-11.47 21.01-6.568 27.17 6.842 8.61 5.338 17.3-4.574 26.45l-4.261 3.929 1.757 4.977c6.914 19.58 30.79 33.43 58.08 33.69 6.76 0.0629 18.2 0.4418 25.42 0.8421 17.19 0.9531 120.4 0.3064 157.5-0.9867zm-125.4-8.116c-3.672-0.9595-1.082-5.687 4.22-7.703 2.014-0.7658 3.706-2.901 2.298-2.901-5.901 0-31.25-11.58-33.52-15.31-4.591-7.549 1.417-8.99 11.08-2.659 13.47 8.826 25.64 13.11 24.16 8.502-2.649-8.271 2.104-10.94 9.176-5.151 2.149 1.759 7.072 4.982 10.94 7.161 16.58 9.346 19.2 15.93 5.843 14.72-2.956-0.2672-7.272-0.1482-9.593 0.2644-22.37 3.978-21.53 3.873-24.61 3.068zm-76.26-4.402c-0.855-2.228 0.9431-3.918 6.712-6.31 6.881-2.852 5.418-4.893-7.652-10.67-2.893-1.279-7.22-3.705-9.616-5.389-2.396-1.685-5.93-3.86-7.852-4.833-5.185-2.625-5.672-8.058-0.7216-8.058 1.666 0 10.69 4.939 15 8.209 3.26 2.474 21.54 10.87 22.21 10.2 0.3011-0.3011 0.013-2.455-0.6395-4.787-1.841-6.576 2.021-9.628 6.269-4.955 2.445 2.69 10.6 18.37 10.6 20.38 0 3.805-2.413 5.142-10.47 5.803-4.296 0.3522-11.28 0.9333-15.53 1.291-6.67 0.5627-7.798 0.4424-8.308-0.8866zm449.2-5.215c-1.102-3.472 2.465-8.137 9.95-13.02 3.934-2.564 7.482-5.194 7.884-5.843 0.804-1.301-6.047-1.031-70.82 2.79-8.502 0.5016-17.45 0.5143-21.56 0.0308-3.867-0.4546-16.5-1.278-28.06-1.829-22.37-1.066-24.79-1.411-35.51-5.077-12.12-4.146-19.54-9.26-21.7-14.96-2.366-6.244 2.017-8.311 6.941-3.274 4.726 4.835 13.49 9.337 22.08 11.34 12.74 2.975 15.91 3.422 24.84 3.511 4.641 0.0462 16.24 0.8439 25.78 1.773 15.09 1.469 18.56 1.532 26.72 0.4855 5.156-0.6616 18.45-1.459 29.53-1.772 35.25-0.9956 42.19-2.334 32.94-6.348-3.074-1.333-7.556-4.309-9.96-6.612-8.377-8.027-3.507-12.56 7.731-7.192 11.29 5.388 14.6 6.828 26.01 11.31 6.701 2.63 14.49 5.383 17.31 6.118 9.3 2.422 9.532 6.462 0.5007 8.736-2.259 0.5688-5.535 1.877-7.28 2.906-1.745 1.03-6.369 2.689-10.28 3.689-7.961 2.036-13.57 4.669-23.13 10.85-7.197 4.656-9.059 5.104-9.921 2.388zm-207-5c-1.561-1.561-1.405-6.157 0.3867-11.42 2.025-5.944 1.574-6.087-6.936-2.197-4.034 1.844-14.27 5.381-22.75 7.861l-15.42 4.508-18.28-0.0117c-18.92-0.0121-30.6-1.527-37.03-4.805-1.547-0.7883-4.922-2.195-7.5-3.127-15.08-5.447-20.36-9.241-18.28-13.13 1.895-3.54 10.63-1.904 17.4 3.26 1.633 1.246 4.187 2.535 5.676 2.866 1.488 0.3308 5.238 1.388 8.331 2.349 23.78 7.386 55.51 4.371 82.97-7.884 11.22-5.006 12.28-7.138 3.588-7.189-7.691-0.0447-18.56-2.162-19.61-3.822-2.912-4.598-1.033-5.018 23.25-5.191 28.15-0.2013 27.89-0.474 18.22 18.96-3.098 6.225-5.927 12.55-6.286 14.06-1.23 5.159-5.038 7.578-7.715 4.901zm-221.8-25.75c-1.24-1.24-0.5667-3.058 2.734-7.382 4.577-5.996 4.366-6.076-17.44-6.554-20.2-0.4432-22.01-0.6648-22.82-2.791-1.388-3.616 2.016-4.509 14.73-3.866 13.14 0.6648 29.67-0.1314 29.67-1.429 0-0.444-1.266-2.554-2.812-4.69-3.982-5.497-3.462-10.16 1.132-10.16 1.526 0 18.86 16.91 20.69 20.19 1.307 2.336-0.9681 4.811-5.617 6.111-2.856 0.7983-6.043 2.706-8.755 5.24-5.07 4.738-9.883 6.966-11.52 5.332zm131.4-4.804c-3.415-2.944-8.399-6.527-11.08-7.964-8.862-4.755-4.136-9.436 6.03-5.972 10.16 3.461 1.69-8.033-9.796-13.3-16.25-7.449-38.03 0.9428-39.64 15.28-0.8202 7.276-5.221 9.506-9.08 4.601-4.76-6.051 0.4554-15.03 15.29-26.32 17.73-13.49 47.24-6.919 56.65 12.61 2.02 4.193 3.129 3.858 7.115-2.144 3.541-5.333 6.835-7.67 9.415-6.68 2.239 0.8593 1.757 4.079-1.269 8.478-1.504 2.187-3.438 6.27-4.297 9.075-5.728 18.7-9.297 20.98-19.33 12.33zm169.5-11.29c-3.26-3.602-0.6813-5.929 8.549-7.714 12.89-2.493 3.27-8.818-21.82-14.34-6.188-1.362-13.15-2.936-15.47-3.497-9.047-2.187-37.67-2.239-47.15-0.0852-25 5.683-25.98 5.777-25.98 2.494 0-3.182 3.761-5.344 12.87-7.402 4.005-0.9046 9.603-2.343 12.44-3.197 7.553-2.274 39.09-2.722 49.81-0.7067 22.02 4.137 27.12 5.308 33.16 7.604 11.24 4.277 11.35 4.243 7.914-2.484-8.519-16.7 8.89-8.44 17.92 8.5 1.667 3.128 5.501 8.093 8.52 11.03 7.961 7.755 7.06 11.91-2.126 9.786-6.472-1.494-17.03-1.364-25.82 0.3176-9.443 1.807-10.95 1.771-12.83-0.308zm-350-9.14c-0.7465-1.945 0.3138-2.837 11.41-9.599 14.16-8.629 13.54-8.047 11.02-10.44-4.828-4.566-1.51-8.98 6.194-8.238 2.394 0.2305 7.854 0.0239 12.13-0.4591 11.38-1.285 13.41 1.547 7.454 10.43-1.676 2.5-3.77 5.872-4.653 7.494-2.986 5.482-7.3 4.572-7.3-1.54 0-3.818-4.046-4.002-9.15-0.4162-1.413 0.9928-5.311 3.297-8.663 5.121s-8.414 4.616-11.25 6.204c-5.963 3.341-6.425 3.433-7.189 1.443zm718.3 65.21c18.66-1.178 17.56-0.1128 17.17-16.66-0.3388-14.26-0.5418-14.63-7.589-13.72-5.093 0.6571-7.238-0.4944-7.238-3.886 0-2.865 3.329-5.095 7.605-5.095 7.234 0 10.92-8.869 6.837-16.45l-1.743-3.237-16.9 0.0695c-22.08 0.0908-25.44 0.5872-25.02 3.694 0.7795 5.722-0.9378 40.14-2.096 42.02-0.3435 0.5557-0.044 2.4 0.6645 4.098 0.709 1.698 1.585 4.67 1.947 6.604l0.6583 3.516 5.348-0.004c2.942-0.002 12.1-0.4292 20.35-0.9498zm-774.4-13.25c7.901-13.36 7.983-13.91 2.363-16.16-5.786-2.315-8.246-1.978-10.1 1.384-0.8784 1.591-3.601 6.109-6.05 10.04-5.841 9.375-5.802 10.9 0.3518 13.76 6.326 2.931 6.394 2.885 13.44-9.02zm843.3 8.227c9.023-0.8031 21.26-1.894 27.19-2.424 5.93-0.5299 17.95-1.597 26.72-2.371 18.3-1.616 35.28-3.24 68.44-6.546 25.18-2.511 35.84-3.623 77.34-8.071 14.7-1.575 30.52-3.226 35.16-3.669 4.641-0.4431 14.98-1.662 22.97-2.708 7.992-1.046 20.86-2.562 28.59-3.368 7.734-0.8061 23.98-2.713 36.09-4.237 12.12-1.524 31.52-3.808 43.12-5.075s29.53-3.391 39.84-4.72 30.35-3.91 44.53-5.737c75.58-9.735 65.62-4.271 65.62-36.01 0-25.6 0.6227-29.09 5.203-29.09 3.823 0 4.357 3.575 4.161 27.86-0.1032 12.78-0.1428 23.97-0.088 24.87 0.1213 1.999 4.366 2.155 16.12 0.5934 12.56-1.669 11.09 2.977 12.99-40.89 1.022-23.59 1.706-28.37 4.059-28.37 3.311 0 3.492 1.739 3.492 33.5 0 27.55 0.1746 31.32 1.474 31.81 0.8103 0.311 9.564-0.5235 19.45-1.855 9.889-1.331 22.2-2.918 27.35-3.527 20.74-2.448 58.9-8.302 59.77-9.168 1.131-1.131 0.095-5.959-5.364-24.98-2.22-7.734-6.646-23.34-9.836-34.69-7.271-25.86-10.97-38.75-13.17-45.94-3.453-11.25-11.21-40.81-14.59-55.62-1.987-8.692-2.342-8.789-13.33-3.626-5.001 2.349-18.35 7.907-29.68 12.35-11.32 4.444-21.12 8.528-21.78 9.075-0.9062 0.7521-1.26 7.066-1.448 25.87-0.225 22.43-0.4093 24.98-1.877 25.9-5.401 3.405-6.963-9.245-4.817-39.01 0.7569-10.5-5.083-10.69-21.49-0.6837-1.652 1.008-3.902 1.834-4.999 1.836-3.849 0.007-4.059 1.426-4.319 29.14-0.2477 26.47-0.2622 26.64-2.268 26.93-4.479 0.6383-5.011-2.118-5.027-26.04-0.019-28.81 1.663-27.47-22.14-17.7-7.668 3.147-19.22 7.524-25.66 9.725-6.445 2.201-17.84 6.191-25.31 8.867-7.477 2.676-16.55 5.864-20.16 7.085-8.878 3.004-17.84 6.18-29.06 10.29-5.156 1.891-17.16 5.924-26.68 8.962-9.517 3.038-18.65 6.163-20.3 6.945-1.647 0.7814-3.549 1.421-4.227 1.421-0.6783 0-2.935 0.5786-5.015 1.286-2.08 0.7071-6.945 2.026-10.81 2.931-3.867 0.9048-9.726 2.857-13.02 4.339s-6.732 2.694-7.641 2.694c-1.806 0-27.17 7.038-38.4 10.66-3.867 1.246-9.562 2.913-12.66 3.706-14.9 3.818-39.17 10.19-45.47 11.94-11.48 3.187-12.87 3.506-30.47 7.029-9.281 1.858-18.98 4.054-21.56 4.88-2.578 0.8265-5.472 1.45-6.43 1.385-0.9583-0.0647-8.763 1.586-17.34 3.669-8.581 2.082-17.71 4.147-20.29 4.588-2.578 0.441-9.75 1.902-15.94 3.247-27.48 5.971-43.65 8.849-73.59 13.09-4.898 0.6946-9.961 1.658-11.25 2.14-1.289 0.4823-8.883 1.591-16.88 2.464-36.81 4.021-33.04 2.5-34.61 13.96-1.931 14.06-1.706 14.2 19.14 11.91 4.641-0.5111 14.13-1.34 21.09-1.842 6.961-0.502 16.24-1.348 20.62-1.879 4.383-0.5316 15.35-1.786 24.38-2.787 28.54-3.166 107-15.14 117.5-17.94 4.761-1.267 3.511-2.752-5.084-6.036-13.25-5.063-11.86-11.89 1.547-7.575 11.15 3.594 19.4 5.283 25.76 5.275 15.4-0.0198 13.67 9.972-3.307 19.16-2.578 1.394-7.43 4.415-10.78 6.713-13.41 9.197-23.82 6.36-12.24-3.336 7.531-6.305 7.44-6.306-25.73-0.1638-15.54 2.877-23.12 4.048-37.5 5.788-4.641 0.5619-12.45 1.604-17.34 2.315-21.17 3.074-49.98 6.53-70.78 8.492-3.094 0.2918-11.45 1.346-18.56 2.342-7.115 0.9962-16.49 1.811-20.83 1.811-10.1 0-10.12 0.0415-9.275 14.77 0.9518 16.57-1.589 15.82 40.69 12.06zm274.2-60.97c-1.308-0.9568-1.514-1.986-1.018-5.092 0.6935-4.337-0.2001-4.81-5.588-2.959-1.495 0.5136-8.202 1.338-14.91 1.832-6.703 0.4941-14.5 1.33-17.33 1.857-4.233 0.7891-5.392 0.7105-6.547-0.4436-2.395-2.395-0.029-4.47 6.621-5.806 3.304-0.664 8.684-2.094 11.96-3.178 3.272-1.084 10.02-2.872 15-3.974 10.62-2.351 11.22-3.424 3.895-6.992-5.419-2.639-7.245-6.093-4.449-8.414 1.609-1.335 8.54 0.3855 15.23 3.781 2.578 1.308 7.829 2.865 11.67 3.459 9.579 1.483 11.7 2.622 12.07 6.491 0.4116 4.286-7.236 11.65-18.09 17.42-5.852 3.112-6.731 3.32-8.515 2.015zm69-27.21c-3.825-4.609 0.8205-7.676 17.11-11.3 6.085-1.353 14.99-3.881 19.79-5.618 4.798-1.737 15.43-5.094 23.62-7.46 8.196-2.366 18.49-5.341 22.87-6.611 29.95-8.678 79.83-24.13 92.34-28.6 4.125-1.475 14.67-4.999 23.44-7.832 19.18-6.199 38.97-13.41 40.22-14.66 1.313-1.313 0.595-1.726-6.365-3.656-12.91-3.581-13.99-10.84-1.288-8.679 11.43 1.946 26.61 3.274 35.56 3.111 15.99-0.2918 14.76 16.19-1.989 26.54-0.5467 0.3378-2.759 3.225-4.916 6.415-10.38 15.35-17.39 9.369-8.738-7.454 5.096-9.904 5.323-9.622-4.84-6.008-4.55 1.618-11.65 3.944-15.77 5.17-4.125 1.225-9.609 3.09-12.19 4.144-2.578 1.054-11.02 3.871-18.75 6.259-7.734 2.388-15.83 5.356-17.98 6.594-2.154 1.239-4.758 2.252-5.785 2.252-2.533 0-24.49 6.23-42.8 12.14-8.25 2.665-21.75 6.757-30 9.094s-16.69 4.886-18.75 5.665c-2.062 0.7792-8.812 2.686-15 4.237s-18.65 4.882-27.68 7.402c-9.038 2.52-17.16 4.582-18.05 4.582-0.8884 0-5.268 1.266-9.732 2.812-8.991 3.115-12.65 3.488-14.34 1.458zm-495.7 71.63c-1.959-3.317-3.918-4.209-4.71-2.145-0.385 1.003 0.3027 2.306 1.978 3.748 3.3 2.839 4.826 1.943 2.732-1.603zm12.37-3.949c1.389-7.516 0.1421-17.93-2.213-18.49-1.465-0.344-3.037-2.143-4.688-5.364-2.71-5.287-14.33-16.71-19.83-19.49-1.805-0.9113-3.981-2.27-4.837-3.019-2.316-2.027-3.016 1.178-2.162 9.905 0.6969 7.123 0.7048 7.139 1.977 4.104 2.2-5.246 5.022-3.13 5.022 3.765 0 6.65 3.345 11.16 5.026 6.782 1.568-4.085 5.286-0.0486 5.286 5.737 0 6.165 4.981 9.984 6.677 5.119 1.923-5.516 6.448-4.265 6.448 1.784 0 9.667 2.111 15.54 3.291 9.157zm-23.39-1.077c0.8397-3.346 0.1511-6.336-1.727-7.5-2.098-1.3-3.454 0.5109-3.475 4.639-0.024 4.865 4.126 7.147 5.202 2.861zm-643.8-15.77c7.648-3.6 8.54-10.14 2.038-14.94-5.638-4.157-26.2-4.649-33.73-0.8067-2.031 1.036-4.87 1.889-6.308 1.895-9.53 0.0405-18.81 5.066-14.1 7.638 14.26 7.789 41.78 11.07 52.1 6.211zm-611.8-10.2c0.9186-1.486-2.468-4.752-4.599-4.435-2.46 0.366-2.906 2.048-1.038 3.917 1.725 1.725 4.721 2 5.636 0.5185zm20.01 0.1482c2.003-1.268-15.46-17.94-21.83-20.85-2.96-1.349-3.097-2.947-0.4044-4.734l2.025-1.344-2.202-2.051c-4.434-4.131-5.6-2.945-5.584 5.683 0.0172 9.264-0.2101 8.89 7.77 12.77 3.508 1.705 8.293 4.961 10.63 7.236 4.151 4.034 6.919 4.982 9.596 3.287zm72.3-1.3c0-1.868-4.656-4.733-5.812-3.577-1.527 1.527 0.877 4.875 3.501 4.875 1.344 0 2.311-0.5434 2.311-1.298zm83.44-1.012c0-1.812-3.409-3.687-4.245-2.334-1.006 1.627 0.3077 3.708 2.34 3.708 1.047 0 1.904-0.6179 1.904-1.373zm-61.49-4.375c-5.429-7.835-26.52-26.11-30.15-26.12-3.427-0.0141 2.217 8.16 9.06 13.12 2.49 1.805 7.162 5.18 10.38 7.5 3.222 2.32 7.388 5.556 9.258 7.191 4.363 3.813 4.858 3.234 1.446-1.689zm164.4 2.695c0.2984-1.55-9.853-11.89-23.26-23.7-5.844-5.148-8.224-3.759-3.044 1.776 1.517 1.621 3.35 3.832 4.072 4.914 1.18 1.765 3.952 4.219 13.74 12.15 1.676 1.359 3.047 2.978 3.047 3.598 0 3.218 4.855 4.341 5.448 1.26zm142.2 1.198c0.9866-1.596-3.118-7.519-5.211-7.519-1.273 0-1.064 5.994 0.2545 7.312 1.358 1.358 4.173 1.475 4.957 0.2069zm15.9 0.0638c0.5483-0.8872-7.894-8.857-8.617-8.134-0.6871 0.687 0.6695 4.01 2.681 6.567 1.891 2.404 4.924 3.204 5.936 1.567zm-82.45-7.205c-7.6-7.1-18.2-13.5-18.2-11.2 0 1.214 10.53 10.63 15.96 14.28 8.519 5.721 9.958 3.755 2.318-3.165zm-154.2 5.417c0-3.321-29.28-27.52-31.1-25.7-1.046 1.046 0.5198 4.903 1.99 4.903 0.4551 0 3.975 3.059 7.822 6.797 8.107 7.878 21.28 16.54 21.28 14zm1081-7.342 0.2696-7.49-4.531-6.029c-2.492-3.316-6.621-8.786-9.176-12.16-5.318-7.017-17.51-18.72-19.51-18.72-2.06 0-2.555 3.721-1.875 14.1l0.6224 9.497 3.369 2.151c1.853 1.183 4.421 3.287 5.706 4.674 1.285 1.388 3.816 3.363 5.625 4.39s4.343 3.298 5.632 5.048 3.556 3.695 5.037 4.321c1.505 0.6366 3.227 2.413 3.902 4.025 2.849 6.804 4.591 5.453 4.924-3.818zm-841.4-3.719c-1.46-1.816-4.554-5.991-6.874-9.277-4.553-6.449-17.01-18.27-19.25-18.27-4.595 0-1.499 7.259 5.869 13.76 3.985 3.517 8.565 7.66 10.18 9.207 10.32 9.889 12.08 11.25 12.41 9.556 0.1775-0.9218-0.8722-3.162-2.333-4.978zm-348.3 2.379c-0.5229-1.569-5.279-4.154-6.109-3.321-0.8944 0.8976 3.122 4.332 5.066 4.332 0.7593 0 1.229-0.4552 1.043-1.012zm274.5-3.442c-0.5137-3.719-1.259-4.994-4.521-7.734-2.148-1.805-6.189-5.327-8.98-7.828-5.72-5.126-15.74-11.86-17.65-11.86-4.986 0 5.809 14.22 16.84 22.19 2.675 1.932 6.522 4.902 8.549 6.6 5.29 4.433 6.518 4.142 5.757-1.365zm129.9 2.717c25.27-3.198 40.13-12.34 72.84-44.86 19.75-19.63 25.1-22.8 48.49-28.76 8.828-2.25 45.26-2.387 321.5-1.202 185.5 0.795 173.7 0.4136 178.7 5.813 1.289 1.409 5.508 4.911 9.375 7.784 3.867 2.872 10.04 8.061 13.72 11.53 19.22 18.13 53.9 30.49 83.32 29.68l10.31-0.2834 0.2562-16.69c0.227-14.79 0.051-17.15-1.552-20.78-1.656-3.744-1.685-4.263-0.3429-6.179 1.446-2.064 1.155-100.5-0.3081-104.3-0.8464-2.206-39.1-2.531-355.2-3.025-178-0.2779-300.4-0.817-302.3-1.332-1.805-0.4758-5.063-1.39-7.24-2.033-3.662-1.08-4.126-1.011-6.187 0.9255l-2.228 2.093-55.69 0.2034-55.69 0.2034 0.2065 19.69c0.4664 44.47 6.404 145.1 8.839 149.7 1.829 3.519 19.38 4.323 39.31 1.801zm-467-5.998c-0.1448-10.73-1.227-16.35-3.506-18.21-1.153-0.942-3.243-3.674-4.646-6.07-2.933-5.012-27.91-29.22-29.57-28.66-6.345 2.135 0.1801 28.03 8.472 33.63 3.948 2.664 11.64 9.408 17.08 14.99 11.73 12.02 12.27 12.21 12.17 4.33zm1278-0.5154c9.198-8.861 14.44-15.61 29.62-38.16 13.99-20.77 15.19-22.15 17.42-19.92 1.874 1.874 0.2259 5.708-6.831 15.89-14.63 21.11-18.71 26.83-21.58 30.28-1.718 2.062-4.824 5.786-6.903 8.274-7.156 8.566 0.799 8.899 10.89 0.4554 8.966-7.502 28.24-32.37 36.92-47.64 4.757-8.365 7.209-11.25 9.561-11.25 4.746 0 1.647 6.21-15.67 31.41-8.732 12.71-10.96 15.5-18.54 23.24-7.365 7.525-8.571 10.81-2.885 7.867 4.903-2.541 28.81-27.02 34.05-34.88 2.749-4.115 6.354-9.169 8.011-11.23 1.657-2.062 4.175-6.07 5.595-8.906 4.01-8.005 8.011-10.99 9.507-7.092 0.6922 1.804-4.344 12.06-8.774 17.87-1.966 2.578-4.592 6.375-5.837 8.438-3.722 6.167-13.15 17.34-20.89 24.76-10.88 10.43-9.103 13.11 3.203 4.836 14.06-9.453 32.02-30.52 43.28-50.78 3.932-7.073 6.493-9.754 8.56-8.961 3.494 1.341-0.9691 10.21-15.66 31.14-4.712 6.708-23.77 28.2-25.65 28.92-3.138 1.204-1.377 3.469 2.211 2.844 11.65-2.031 34.18-26.58 49.92-54.41 4.356-7.699 6.775-10.22 8.984-9.376 2.386 0.9155 1.176 4.767-4.634 14.75-8.953 15.38-12.08 19.75-22.87 31.95-11.62 13.15-11.48 12.93-8.317 12.93 9.725 0 44.1-39.28 48.4-55.3 0.6196-2.312 2.146-6.109 3.392-8.438s6.16-11.64 10.92-20.7c10.11-19.22 9.779-18.69 11.52-18.69 3.204 0-1.239 10.45-11.96 28.12-3.409 5.62-4.173 7.644-3.806 10.09 1.027 6.831-16.17 38.69-25.23 46.73-11.3 10.03-15.26 18.15-6.912 14.17 3.884-1.852 27.9-25.05 31.75-30.68 1.59-2.32 4.696-6.442 6.902-9.16 6.898-8.498 10.4-17.03 4.805-11.7-10.87 10.35 1.726-13.42 13.92-26.28 2.553-2.692 5.554-6.792 6.67-9.113 2.236-4.65 7.345-11.25 8.708-11.25 3.04 0-0.9204 7.422-8.048 15.09-2.202 2.367-5.166 6.679-6.588 9.581l-2.584 5.277 2.195 1.778 2.195 1.778-3.698 8.13c-2.034 4.471-5.871 11-8.527 14.51-2.656 3.511-5.692 8.03-6.746 10.04-2.423 4.625-13.12 16.58-19.07 21.32-8.358 6.655-7.871 9.143 1.412 7.216 13.94-2.894 35.95-28.45 44.74-51.95 3.635-9.716 9.96-15.3 11.03-9.736 0.3885 2.017-5.094 15.95-7.458 18.96-0.955 1.214-1.736 2.583-1.736 3.042 0 1.52-11.39 19.41-15.4 24.18-4.579 5.452-7.101 9.022-7.101 10.05 0 8.45 39.75-34.27 42.11-45.25 1.637-7.632 21.21-44.29 23.93-44.81 3.767-0.7255 3.241 2.195-2.252 12.51-5.04 9.465-5.399 10.53-4.275 12.63 1.524 2.848 1.015 4.258-5.097 14.11-2.602 4.196-4.731 7.98-4.731 8.41 0 1.194-10.2 14.58-17.45 22.88-11.42 13.1-13.35 16.5-9.332 16.5 12.19 0 54.9-47.51 54.9-61.07 0-1.128 1.371-4.195 3.047-6.816l3.047-4.765 0.3012 3.277c0.1656 1.802 0.693 3.678 1.172 4.167 4.681 4.788-10.87 30.11-29.83 48.58-11.72 11.42-12.32 13.28-3.516 10.91 2.773-0.7459 6.071-3.266 12.66-9.67 4.898-4.764 11.44-10.88 14.53-13.59 11.8-10.34 18.99-19.48 24.85-31.59 5.584-11.54 6.668-12.72 12.53-13.68 1.139-0.1863 4.203-4.561 8.737-12.47 7.147-12.47 9.181-15.33 10.2-14.31 1.779 1.779-5.255 15.79-10.97 21.85-1.481 1.571-2.693 3.271-2.693 3.777s-2.446 4.705-5.437 9.33c-2.99 4.626-5.713 9.133-6.051 10.02-2.318 6.06-10.8 16.25-24.24 29.13-16.35 15.67-17.34 17.19-10.46 16.16 14.59-2.187 51.47-40.87 59.24-62.13 1.676-4.583 4.361-5.402 5.31-1.62 2.005 7.989-14.97 33.18-33.14 49.18-11.13 9.801-11.19 11.16-0.3514 7.938 6.315-1.875 17.39-11.5 24.33-21.14 11.11-15.44 19.45-28.96 22.96-37.2 3.979-9.353 6.334-11.78 8.914-9.204 1.96 1.96-1.784 13.99-7.18 23.07-6.136 10.32-14.24 22.87-16.05 24.84-2.052 2.238-5.658 8.113-5.663 9.228-0.01 1.093 8.684-6.196 15.47-12.98 16.83-16.82 24.24-26.84 26.7-36.09 0.8204-3.086 2.445-5.478 6.049-8.906 2.71-2.578 9.009-10.91 14-18.52 8.352-12.73 11.84-16.33 11.84-12.22 0 1.8-6.221 11.69-14.21 22.57-4.001 5.456-5.927 9.247-7.858 15.47-2.666 8.594-3.596 10-17.18 25.97-3.288 3.867-9.515 10.68-13.84 15.14-8.666 8.945-9.53 10.68-4.811 9.662 13.64-2.944 38.25-28.21 52.58-53.95 3.934-7.074 6.496-9.754 8.562-8.961 4.691 1.8-7.227 22.48-24.56 42.63-11.39 13.24-11.71 13.9-6.202 12.86 6.336-1.189 41.93-37.94 46.23-47.73 0.9336-2.125 2.378-5.459 3.209-7.408 2.983-6.994 7.789-5.178 6.637 2.507-0.964 6.429-5.855 13.21-21.61 29.98-24.72 26.31-13.18 23.24 18.09-4.808 9.529-8.547 15.17-16.89 19.86-29.41 3.803-10.13 6.029-12.66 8.975-10.22 6.487 5.383-7.924 29.83-26.93 45.68-8.193 6.834-8.938 8.29-3.75 7.335 15.05-2.771 43.71-33.37 49.5-52.85 1.485-4.999 4.86-7.342 7.202-5 4.405 4.405-5.856 22.54-22.43 39.63-10.96 11.3-10.98 11.91-0.3531 8.751 7.507-2.229 26.45-21.13 35.54-35.46 2.522-3.976 3.367-6.666 5.426-17.26 0.6057-3.118 5.061-2.499 6.697 0.9306 3.038 6.37-10.01 28.41-22.74 38.43-4.819 3.79-4.993 5.812-0.4483 5.202 6.768-0.9077 25.86-22.28 37.44-41.93 8.134-13.79 12.02-17.26 13.63-12.18 1.138 3.585-12.36 24.67-25.91 40.46-4.997 5.826-5.543 7.34-2.648 7.34 8.23 0 32.61-26.92 42.19-46.57 4.712-9.672 7.638-12.25 9.851-8.664 2.266 3.667-8.316 21.54-22.01 37.16-7.482 8.538-9.18 11.43-5.93 10.11 0.9024-0.3675 3.417-1.29 5.588-2.051 9.323-3.266 33.08-36.44 33.08-46.19 0-3.451 4.613-5.609 6.964-3.257 3.472 3.472-0.4246 12.47-12.83 29.61-3.737 5.164-7.373 10.2-8.081 11.19-1.179 1.648-1.071 1.797 1.294 1.797 5.086 0 28.31-27.29 34.39-40.41 2.988-6.449 4.725-7.748 7.135-5.337 3.364 3.363-0.2624 10.43-13.63 26.57-8.751 10.57-9.43 12.4-4.165 11.24 2.003-0.4399 6.2-4.329 15.02-13.92 14.93-16.23 15.88-17.44 17.98-22.97 1.428-3.763 2.04-4.398 4.239-4.398 7.079 0 4.381 7.405-7.148 19.62-7.128 7.555-9.923 11.47-8.913 12.48 2.697 2.697 23.2-20.94 30.38-35.03 3.018-5.921 9.552-6.555 9.552-0.9271 0 1.277-16.03 23.38-17.71 24.42-0.5726 0.3539-1.041 1.262-1.041 2.018 0 5.047 19.57-14.88 28.61-29.14 4.789-7.549 6.924-8.822 8.829-5.264 1.147 2.144-2.806 8.638-12.52 20.57-7.46 9.162-7.329 9.742 1.526 6.727 9.462-3.221 11.71-5.059 17.23-14.06 4.402-7.187 5.703-10.09 7.42-16.55 1.062-3.997 6.583-3.829 7.602 0.2311 0.406 1.618-0.5526 4.658-3.225 10.23-5.796 12.08-3.172 11.85 8.949-0.7726 7.21-7.51 11.52-13.84 11.52-16.93 0-3.471 3.729-5.148 6.123-2.754 2.94 2.94 1.142 7.575-7.116 18.35-3.143 4.102-0.1204 3.081 3.958-1.336 1.988-2.153 4.949-6.055 6.58-8.672 5.678-9.106 10.93-13.16 12.33-9.512 0.2826 0.7363-1.351 4.217-3.63 7.734-4.832 7.459-4.916 7.802-1.912 7.802 3.561 0 7.226-3.816 11.65-12.13 5.766-10.84 10.26-9.995 7.204 1.349-0.7475 2.776-0.7085 2.76 2.977-1.172 3.649-3.893 6.139-4.932 7.304-3.047 1.606 2.598 8.906-0.4436 8.906-3.71 0-0.9508-1.051-3.985-2.335-6.744-3.603-7.739-2.476-16.76 2.481-19.86 4.102-2.562 0.3559-4.943-17.96-11.41-4.898-1.731-14.39-5.427-21.09-8.213-6.703-2.786-18.52-7.514-26.25-10.51-7.734-2.993-19.76-7.686-26.72-10.43-14.32-5.645-29.75-11.21-52.97-19.12-8.766-2.983-18.26-6.282-21.09-7.331-28.86-10.68-91.09-31.34-121.9-40.46-4.898-1.452-17.54-5.252-28.09-8.444-19.68-5.954-24.18-7.195-54.88-15.14-9.797-2.536-22.24-5.839-27.66-7.339-27.8-7.707-59.06-14.46-132.2-28.54-3.867-0.745-12.3-2.264-18.75-3.375-6.445-1.111-16.15-2.815-21.56-3.786-10.09-1.81-26.24-4.209-33.75-5.014-5.069-0.5428-13.38-2.071-21.25-3.909-3.178-0.7421-8.241-1.357-11.25-1.366s-9.205-0.6283-13.77-1.376c-4.563-0.748-15.32-2.021-23.91-2.829-8.585-0.808-20.88-2.06-27.33-2.783-42.57-4.774-39.47-5.81-35.27 11.77 3.638 15.23 6.212 29.06 6.705 36.02 0.1828 2.578 2.853 20.09 5.933 38.91 7.84 47.9 9.942 76.48 9.964 135.5 0.017 45.17-2.058 74.76-8.495 121.2-2.725 19.66-1.428 19.49 10.9-1.435 1.881-3.192 4.636-4.114 4.636-1.551 0 2.394-8.343 17.08-14.22 25.02-3.305 4.469-5.624 8.648-5.982 10.78-0.3217 1.916-1.182 6.524-1.911 10.24-2.126 10.83-1.332 11.56 3.807 3.527 1.824-2.852 5.354-7.809 7.844-11.02 2.49-3.207 6.757-10.36 9.483-15.89 5.261-10.68 6.666-12.51 8.934-11.64 3.509 1.347-4.313 21.03-11.6 29.2-3.297 3.694-7.812 10.32-10.22 15-1.061 2.062-4.492 6.618-7.626 10.12-9.908 11.08-6.595 14.01 4.146 3.658zm24.84-65.43c0-0.3067 2.742-6.611 6.094-14.01 3.352-7.398 6.094-13.83 6.094-14.3 0-1.873 3.359-3.965 4.513-2.812 3.195 3.195-10.7 31.67-15.46 31.67-0.6835 0-1.243-0.251-1.243-0.5577zm25.53-1.552c-2.274-2.795 4.254-12.42 7.193-10.6 1.708 1.056 1.182 3.25-1.826 7.623-3.032 4.406-3.841 4.856-5.366 2.981zm70.1-7.244c0-0.5648 2.073-5.336 4.607-10.6 2.534-5.266 5.463-11.58 6.51-14.03 1.749-4.093 4.834-6.197 4.811-3.281-0.014 1.778-4.222 10.45-9.545 19.68-4.668 8.087-6.383 10.3-6.383 8.236zm-37.5-1.463c0.012-4.143 11.04-30 12.9-30.26 2.862-0.4096 2.78 2.653-0.2926 10.82-3.2 8.501-12.62 23.03-12.61 19.45zm23.44-9.155c0-1.695 7.32-16.69 9.126-18.7 3.946-4.382 4.137 0.9701 0.306 8.559-4.156 8.232-9.432 13.91-9.432 10.14zm-44.78-6.334c0.5022-5.225 2.117-7.907 3.146-5.225 0.756 1.97-1.384 9.968-2.667 9.968-0.5585 0-0.7514-1.91-0.4793-4.743zm192.9-10.86c0-1.457 10.51-20.02 11.33-20.02 3.292 0 0.212 8.744-5.866 16.65-2.664 3.466-5.464 5.192-5.464 3.368zm-238.1-4.534c-1.478-1.781 0.077-6.111 2.194-6.111 3.674 0 4.595 6.796 0.9904 7.311-1.076 0.1538-2.51-0.386-3.185-1.2zm28.34-0.2337c-1.419-0.495-1.543-5.307-0.2014-7.814 2.316-4.328 6.29-0.3462 4.572 4.581-1.025 2.939-2.367 3.932-4.371 3.233zm276.3-1.893c0-0.3867 0.9105-2.18 2.019-3.984 2.378-3.871 3.451-2.365 1.292 1.811-1.352 2.615-3.319 3.906-3.311 2.173zm-247-2c-2.078-2.078 0.7575-8.955 3.529-8.559 3.751 0.5364 2.604 9.184-1.219 9.184-0.9272 0-1.967-0.2812-2.311-0.625zm30.32-6.394c-1.404-1.692-0.5569-5.695 1.361-6.431 2.078-0.7973 4.436 2.019 3.691 4.409-1.056 3.386-3.206 4.247-5.052 2.023zm31.96-0.7104c-1.605-4.338 2.215-9.63 5.176-7.172 1.586 1.316 1.692 6.622 0.1625 8.151-1.798 1.798-4.494 1.304-5.339-0.9795zm32.72-3.977c-1.873-2.257-0.4015-6.106 2.334-6.106 2.444 0 4.025 3.272 2.943 6.092-0.6941 1.809-3.781 1.817-5.277 0.0143zm33.78-1.842c-2.287-2.756 0.7382-7.121 4.054-5.849 2.874 1.103 1.333 7.21-1.82 7.21-0.6071 0-1.612-0.6125-2.234-1.361zm179.9-1.101c-1.933-2.33 4.336-13.82 7.761-14.23 3.621-0.4283 3.787 1.752 0.6024 7.911-3.92 7.582-6.006 9.158-8.364 6.318zm-150.6-1.908c-1.646-0.664-1.461-4.535 0.2854-5.984 2.287-1.898 5.713 1.842 4.229 4.616-1.047 1.956-2.195 2.304-4.514 1.368zm171.8-3.772c-2.829-2.829 1.165-11.8 5.477-12.31 3.171-0.3715 3.408 2.318 0.7486 8.521-2.031 4.737-4.049 5.965-6.226 3.788zm-140.9-2.474c-1.751-2.11-0.2754-4.528 2.562-4.199 1.921 0.2228 2.458 0.7972 2.458 2.629 0 2.729-3.222 3.737-5.02 1.57zm166.1-5.008c-0.7048-1.837 3.195-9.561 5.555-11 4.3-2.627 4.373 4.694 0.097 9.775-2.622 3.116-4.75 3.578-5.652 1.227zm-133.4-1.733c-1.377-1.659-0.4211-3.267 1.942-3.267 1.16 0 1.82 0.643 1.82 1.775 0 2.269-2.346 3.199-3.762 1.492zm157-3.9c-1.138-1.138-0.6481-5.689 0.7363-6.838 1.841-1.528 4.637-0.8666 5.034 1.191 0.65 3.376-3.742 7.674-5.77 5.646zm-125.6-1.875c-2.621-2.621 3.456-7.448 6.351-5.046 1.759 1.46 1.003 3.276-1.916 4.606-2.69 1.226-3.563 1.312-4.436 0.4395zm150.6-6.466c-0.875-2.28 1.267-6.034 3.443-6.034 2.643 0 3.318 2.357 1.478 5.163-1.732 2.643-4.082 3.058-4.922 0.8705zm-110.8-2.177c-1.606-1.017-1.037-4.226 0.8062-4.548 2.507-0.4384 4.332 1.377 3.204 3.187-1.251 2.007-2.382 2.391-4.01 1.361zm139-5.194c-0.8702-2.268 0.2983-4.288 2.48-4.288 1.591 0 1.91 0.4908 1.67 2.57-0.3327 2.883-3.241 4.087-4.15 1.718zm-90.65-5.818c-1.347-1.347-0.5919-3.989 1.312-4.594 2.653-0.8421 4.422 0.9482 3.065 3.103-1.113 1.768-3.342 2.527-4.377 1.491zm108.5-1.319c-0.9473-1.533 1.908-4.09 3.769-3.376 0.8515 0.3268 1.407 1.334 1.235 2.238-0.3628 1.903-4.017 2.735-5.004 1.138zm27.26-11.14c-0.2929-0.4741 0.1487-1.543 0.9816-2.376 1.966-1.966 4.834-0.1482 3.087 1.956-1.221 1.471-3.288 1.684-4.069 0.4199zm-1269 180.9c4.121-1.567-6.342-34.71-10.96-34.71-7.237 0-10.75 11.56-5.997 19.72 2.244 3.851 5.214 9.006 6.602 11.45 2.704 4.773 5.021 5.565 10.35 3.539zm-469.8-1.251c3.398-8.856-3.406-26.94-14.33-38.09-20.84-21.27-29.15-25.54-24.81-12.76 1.124 3.31 1.341 6.175 0.8804 11.6-0.8153 9.595 0.005 11.34 7.706 16.37 3.51 2.293 11.23 8.644 17.16 14.11 10.78 9.943 12.51 11.08 13.4 8.776zm81.14-3.532c0.9705-9.703-2.195-14.73-22.76-36.16-12.04-12.55-12.2-12.54-11.34 0.7821 0.8353 12.89 1.081 13.55 6.731 18.12 2.502 2.024 9.128 7.615 14.72 12.43 10.87 9.347 12.15 9.833 12.65 4.831zm80.27-0.6392c1.889-13.73-3.712-23.16-27.91-46.96-7.539-7.416-7.653-7.233-6.262 9.978 1.233 15.26 1.585 16.4 5.712 18.53 1.574 0.814 6.097 4.516 10.05 8.228 17.92 16.82 17.53 16.6 18.41 10.23zm121.3-9.132c0.1634-3.094-0.1601-9.633-0.7188-14.53-0.5587-4.898-1.633-20.93-2.387-35.62-0.7539-14.7-1.79-33.89-2.303-42.66-3.166-54.09-4.131-155.6-2.099-220.8 1.979-63.46 3.563-56.51-12.17-53.44-13.62 2.651-15.13 3.698-14.71 10.16 0.1573 2.406-0.0221 8.382-0.3988 13.28-1.119 14.55-1.521 123.8-0.6185 168.3 1.102 54.3 2.524 83.17 6.994 142 0.7636 10.05 1.65 21.75 1.969 25.98 0.8321 11.04 4.567 13.48 20.05 13.08l6.094-0.1574 0.2971-5.625zm41.82-5.238c-0.1458-14.2-0.9184-16.57-7.549-23.14-3.263-3.234-7.59-8.297-9.616-11.25-3.641-5.308-14.05-15.21-15.98-15.21-0.9197 0-1.385 2.111-1.239 5.625 1.104 26.66-0.1631 24.05 19.89 40.88 14.66 12.3 14.59 12.29 14.5 3.099zm-78.65 5.665c0.8198-1.326-1.194-4.214-7.306-10.47-3.537-3.623-5.333-6.308-5.767-8.623-0.3468-1.849-0.943-3.362-1.325-3.362-0.3818 0-4.67-3.396-9.529-7.546-9.99-8.533-10.36-8.47-9.603 1.601l0.4367 5.774 8.302 4.956c5.036 3.006 10.98 7.651 15.1 11.8 6.683 6.728 8.483 7.818 9.687 5.869zm915.7-7.224c0.4126-2.337 0.3876-6.855-0.134-24.26-0.2269-7.572-12.22-23.68-27.64-37.13-7.468-6.511-7.661-6.17-7.404 13.03l0.2092 15.6 11.67 11.15c6.417 6.134 13.8 14.08 16.41 17.67 5.225 7.184 6.226 7.755 6.9 3.938zm827-1.964c1.888-3.651 5.004-15.84 5.761-22.53 0.7424-6.562 1.531-8.106 3.712-7.269 1.744 0.6691 1.624 4.13-0.4919 14.18-5.022 23.86 2.495 14.31 8.848-11.25 1.405-5.653 2.534-8.438 3.422-8.438 2.008 0 1.532 9.925-0.8545 17.81-2.201 7.274-2.495 9.844-1.126 9.844 1.644 0 3.873-5.618 8.037-20.26 4.491-15.79 5.468-18.18 7.434-18.18 2.522 0 2.455 1.933-0.4424 12.79-1.603 6.007-2.787 12.02-2.631 13.36l0.2835 2.441 2.445-2.402c1.703-1.674 2.933-4.517 4.053-9.375 3.633-15.75 8.077-25.52 10.5-23.1 0.377 0.377-0.2272 4.37-1.342 8.873-2.509 10.13-2.855 13.54-1.422 14.02 1.928 0.6491 3.992-3.814 6.813-14.73 2.882-11.15 3.978-13.33 5.805-11.5 0.8042 0.8042 0.8066 2.087 0.01 5.109-2.458 9.322-1.103 13.03 2.519 6.888 1.211-2.052 2.68-3.321 3.844-3.321 4.62 0 4.992-2.553 4.746-32.59-0.3855-47.07-0.1444-44.22-4.015-47.54-7.268-6.236-83.51-43.93-100.3-49.57-1.06-0.3569-3.057 0.6931-5.75 3.023-2.269 1.964-5.652 4.514-7.518 5.667-3.663 2.264-5.037 5.425-3.559 8.186 0.5098 0.9525 2.455 7.425 4.323 14.38 1.868 6.959 4.447 16.03 5.732 20.15 1.285 4.125 4.809 16.57 7.832 27.66 29.13 106.9 28.9 106.2 33.3 97.64zm-1787-1.129c0.3347-0.5415 0.1542-6.131-0.4011-12.42-2.632-29.82-6.65-90.43-7.221-108.9-0.2069-6.703-0.7272-20.2-1.156-30-0.7964-18.19-0.8176-153.4-0.0284-181.4 0.2458-8.718 0.0596-15.98-0.4266-16.64-1.933-2.618-24.46 0.7272-26.15 3.883-2.779 5.193-3.335 186.7-0.7418 242 3.111 66.31 5.237 97.98 6.673 99.42 2.622 2.622 28.17 6.205 29.45 4.131zm-294.1-12.7c0-1.709-0.6339-4.905-1.409-7.101-1.116-3.164-1.196-4.783-0.3835-7.8 1.444-5.362 0.3105-13.06-2.345-15.92-1.18-1.273-3.144-3.943-4.363-5.933-5.98-9.758-27.93-32.98-29.98-31.72-1.304 0.8057-0.5603 33.27 0.8182 35.74 0.3996 0.7141 6.474 6.67 13.5 13.23 7.025 6.565 14.97 14.56 17.66 17.77 5.25 6.27 6.506 6.603 6.506 1.727zm170.4-6.15c-0.6798-11.92-7.489-22.3-24.91-37.95-8.306-7.465-8.617-7.332-8.617 3.667 0 13.08 0.3562 14.11 6.267 18.03 2.795 1.855 9.583 8.169 15.08 14.03 12.41 13.22 12.81 13.29 12.18 2.226zm38.56 4.861c0.4992-0.9327 0.7501-2.937 0.5576-4.453-1.055-8.31-4.848-76.09-5.637-100.7-0.1899-5.93-0.573-14.16-0.8514-18.28-2.022-29.97-2.628-77.43-1.011-79.21 1.463-1.616 1.512-2.19 0.4165-4.835-1.51-3.645-1.53-5.766-0.634-66.59 0.4368-29.65 0.3759-48.66-0.157-48.99-1.634-1.01-23.94 1.394-25.28 2.725-2.95 2.911-3.789 162-1.089 206.3 0.503 8.25 1.361 26.6 1.906 40.78 0.9692 25.19 3.285 62.14 4.275 68.19 0.6414 3.922 2.82 5.023 11.61 5.866 12.66 1.214 14.91 1.107 15.9-0.7535zm127.3-8.297c-0.5818-8.244-0.677-8.502-6.896-18.73-6.7-10.9-23.7-28.5-27.7-28.5-0.9358 0-0.4111 19.52 0.6804 25.31 1.059 5.621 30.46 32.16 33.52 30.26 0.4924-0.3043 0.6278-3.927 0.3133-8.383zm-85.75-7.537c-0.859-11.83-1.261-14.02-2.717-14.81-2.779-1.524-10.55-9.827-15.79-16.88-13.02-17.51-16.02-17.85-15.63-1.782 0.3493 14.54-0.4532 13.05 18.17 33.74 17.59 19.54 17.41 19.54 15.97-0.266zm-162.4 4.115c-0.0939-13.34-1.306-15.12-25.89-37.85-12.7-11.75-12.52-11.72-12.47-1.939 0.0615 11.65 1.064 15.52 4.768 18.41 5.253 4.097 17.77 15.1 24.93 21.92 7.807 7.435 8.713 7.378 8.657-0.5467zm1181-4.5c0.6826-5.333 1.883-14.13 2.667-19.54 0.7841-5.414 1.88-14.7 2.436-20.62 8.423-89.85 6.88-157.6-5.315-233.4-8.882-55.23-9.873-52.11-8.188 25.78 0.1116 5.156 0.4362 19.5 0.7214 31.88 0.7165 31.09 1.682 83.6 2.043 111.1 0.1659 12.63 0.6497 38.37 1.075 57.19 0.4256 18.82 0.6353 37.17 0.4662 40.78-0.851 18.15 2.031 23 4.094 6.884zm-1144 7.7c2.709-0.7757 2.656 3.416 0.4717-36.88-0.7756-14.31-1.837-42.58-2.359-62.81-0.5221-20.23-1.14-40.8-1.374-45.7-1.015-21.3-0.2646-134.7 0.9939-150.2 0.9339-11.52 0.1508-12.23-12.56-11.41-14.87 0.9629-13.85-1.048-14.7 29-0.2756 9.797-0.7224 20.85-0.9927 24.57-2.981 40.97 1.903 247.7 5.947 251.7 1.924 1.924 19.59 3.2 24.57 1.774zm-83.52-8.761c0.4432-1.166 0.4586-6.123 0.0344-11.02-4.79-55.24-6.922-188.8-3.951-247.5 0.3781-7.477 0.695-18.02 0.7043-23.44l0.0169-9.844-7.5-0.2832c-4.464-0.1686-9.967 0.2975-13.59 1.151-3.352 0.789-7.242 1.66-8.645 1.935-4.88 0.9571-4.926 1.374-5.25 47.49-0.2935 41.74-0.2532 42.89 1.641 46.6 2.435 4.773 2.426 5.824-0.0763 9.005-2.183 2.775-2.186 3.565-0.2904 90.03 0.8162 37.24 3.445 91.82 4.537 94.22 1.819 3.993 30.92 5.459 32.37 1.631zm371.3-6.553c-0.032-11.06-1.024-14.32-5.894-19.35-2.299-2.377-6.992-8.54-10.43-13.7-15.76-23.64-18.97-23.21-16.54 2.187l0.7463 7.812 6.46 6.54c3.553 3.597 8.463 8.078 10.91 9.957 2.448 1.88 6.35 5.863 8.671 8.851 5.559 7.158 6.101 6.953 6.074-2.3zm-462.6 4.4c1.209-1.209 1.449-2.572 1.031-5.859-0.5131-4.034-0.7254-9.335-2.049-51.16-1.984-62.71-2.423-174-0.8327-211.1 0.7847-18.27 1.2-17.67-10.84-15.76-13.8 2.194-29.07 3.195-31.78 2.083-2.668-1.095-64.03-1.155-161.8-0.1575-96.81 0.9876-93.32 0.8953-97.85 2.589-2.256 0.8435-4.946 1.534-5.978 1.534-5.49 0-18.89 4.133-23.47 7.238-2.689 1.824-6.361 3.731-8.161 4.239-1.8 0.5077-4.469 1.93-5.931 3.161s-3.214 2.237-3.892 2.237c-0.6781 0-3.282 1.803-5.787 4.006s-6.137 5.178-8.071 6.611-4.205 3.954-5.047 5.603c-0.8419 1.649-3.162 4.782-5.155 6.962s-3.625 4.376-3.625 4.88c0 0.5041-2.25 3.221-4.999 6.037-6.87 7.037-16.56 26.33-16.56 32.97 0 3.11-2.777 13.55-4.48 16.84-0.8002 1.547-1.827 6.609-2.282 11.25-0.4549 4.641-1.004 9.703-1.221 11.25-1.92 13.72 0.4268 38.99 4.761 51.24 1.885 5.331 4.608 13.14 6.051 17.36 3.2 9.354 8.45 19.52 12.57 24.36 1.69 1.981 3.813 5.04 4.718 6.799 3.99 7.751 24.46 25.47 37.27 32.27 26.52 14.07 41.06 16.53 97.76 16.56 18.56 0.008 43.66 0.436 55.78 0.9503s44.81 1.114 72.66 1.333c27.84 0.2189 55.9 0.8921 62.34 1.496 41.6 3.898 52.7 4.332 54.88 2.149zm-58.6-20.7c-1.805-0.1906-13.62-1.576-26.25-3.079-45.64-5.429-90.85-7.067-103.6-3.753-14.97 3.891-58.59 2.928-58.59-1.293 0-3.86 1.546-4.234 16.89-4.085 9.457 0.0914 16.36-0.303 19.82-1.132 19.85-4.759 154.8 4.457 161.3 11.02 2.484 2.484-0.7154 3.258-9.595 2.32zm-256-20.8c-23.57-4.711-34.05-10.34-39.65-21.29-6.503-12.72 3.374-18.7 11.32-6.85 5.985 8.93 14.99 14.65 29.27 18.61 3.867 1.072 10.6 2.939 14.95 4.149 8.385 2.329 10.66 4.095 8.551 6.637-1.782 2.147-9.368 1.758-24.44-1.255zm208.6 1.64c-9.281-0.4243-24.89-1.414-34.69-2.2-25.89-2.076-59.78-4.174-68.44-4.236-8.508-0.0611-13.88-2.013-14.34-5.207-0.5381-3.757 1.834-4.478 10.9-3.316 4.542 0.5825 15.82 1.068 25.07 1.08 9.246 0.0113 25.25 0.6452 35.56 1.409 10.31 0.7635 30.14 1.806 44.06 2.317 77.37 2.838 75.47 2.718 75.47 4.759 0 1.923-4.348 2.745-14.52 2.745-7.32 0-11.72 0.4182-13.42 1.276-3.414 1.721-24.32 2.35-45.66 1.374zm-247.8-168.3c-4.241-7.579 40.05-37.76 46.28-31.53 1.956 1.956 0.1054 3.991-5.629 6.19-6.84 2.623-19.89 11.38-28.65 19.22-8.985 8.044-10.5 8.814-12 6.123zm-22.65-8.737c-3.059-5.716 11.46-22.85 26.59-31.38 4.561-2.572 9.413-5.57 10.78-6.662 1.368-1.092 3.964-2.208 5.769-2.48 1.805-0.2718 5.286-1.274 7.737-2.227 4.654-1.81 7.732-1.172 7.732 1.602 0 1.45-1.357 2.196-13.44 7.388-17.02 7.316-28.45 16.07-36.22 27.74-5.503 8.267-7.158 9.38-8.956 6.02zm16.36-3.178c-0.3142-1.252-0.3055-3.113 0.01923-4.137 2.512-7.913 46.72-33.15 49.68-28.36 1.156 1.87-0.8123 3.555-9.102 7.788-13.02 6.651-25.14 14.86-31.38 21.26-6.02 6.171-8.322 7.033-9.221 3.451zm1662 208.9c3.923-15.63-4.08-34.33-22.35-52.2-12.53-12.26-12.48-12.28-12.36 5.642l0.096 14.22 12.59 12.47c6.926 6.861 14.25 14.69 16.27 17.4 4.181 5.598 4.884 5.901 5.745 2.469zm-1086-13.3c-0.3329-5.027-0.6163-11.67-0.6298-14.77-0.0275-6.303-8.879-20.68-22.87-37.14-9.57-11.26-10.29-10.5-9.481 9.949 0.9433 23.7 0.8618 23.33 5.949 27.08 2.414 1.778 9.03 7.908 14.7 13.62 12.95 13.04 13.12 13.06 12.33 1.259zm-81.57-2.812c-0.3287-3.48-0.6006-7.624-0.6043-9.209-0.0137-5.9-33.15-42.35-36.58-40.24-1.006 0.6218-1.059 9.543-0.1143 19.16l0.5936 6.038 5.156 3.023c2.906 1.704 10.46 8.375 17.32 15.29 14.31 14.43 15.06 14.74 14.23 5.94zm247-5.952c-0.3718-13.11-0.2211-12.68-7.9-22.34-22.04-27.74-27.29-30.49-26.38-13.83 0.8834 16.07 2.692 19.39 19.39 35.57 15.89 15.39 15.3 15.37 14.88 0.6067zm-335.4 8.74c3.815-6.172-3.052-36.51-9.963-44.01-2.27-2.465-5.419-6.38-6.997-8.7-3.808-5.598-17.43-18.75-19.43-18.75-1.425 0-1.547 1.511-1.28 15.84l0.2961 15.84 3.89 3.614c4.754 4.417 21.93 24.12 27.45 31.51 3.932 5.251 5.102 6.157 6.025 4.664zm250.9-6.334c0-8.048-1.515-12.54-5.483-16.24-1.485-1.388-3.662-4.411-4.838-6.718-3.965-7.784-20.26-26.23-23.17-26.23-1.365 0-1.527 6.913-0.3993 17.04l0.697 6.263 8.91 8.737c4.901 4.805 11.84 12.22 15.42 16.47 8.175 9.717 8.87 9.77 8.87 0.673zm162.7-21.3c-0.3966-9.684-1.098-16.78-1.748-17.7-5.023-7.061-12.97-17.08-16.5-20.78-15.73-16.54-14.66-16.81-14.33 3.613 0.3 18.58-0.4755 16.77 12.8 29.96 5.195 5.161 11.34 12 13.66 15.2 6.586 9.076 6.887 8.57 6.115-10.28zm841.3-9.43c-0.2532-22.9-1.092-24.62-21.69-44.56-13.76-13.32-13.41-13.44-13.29 4.386l0.097 14.2 14.04 13.84c7.722 7.61 15.18 15.22 16.58 16.92 3.448 4.181 4.356 3.166 4.268-4.776zm-1168-8.5c0-12.27-0.2112-12.89-4.796-13.98-1.396-0.3326-4.289-2.816-6.719-5.767-20.83-25.3-30.65-25.98-25.5-1.767 0.5204 2.444 34.84 34.4 36.1 33.62 0.5082-0.314 0.9096-5.659 0.9096-12.11zm161.9-5.838c-0.4144-11.07-0.814-13.91-2.242-15.91-0.9557-1.341-3.214-4.884-5.019-7.873-4.061-6.724-24.76-28.54-26.23-27.64-1.034 0.6389-0.5705 25.92 0.5757 31.42 0.2845 1.364 5.436 7.233 12.37 14.09 6.533 6.462 13.51 13.74 15.5 16.17 5.167 6.307 5.631 5.366 5.046-10.25zm-81.51-1.329c0.4321-16.47-3.285-23.36-22.69-42.02-9.156-8.805-9.322-8.654-8.84 8.031 0.4394 15.2-0.2268 13.76 11.13 23.99 4.921 4.432 11.04 11.03 13.59 14.67 5.99 8.528 6.464 8.202 6.802-4.679zm166.4 3.021c-0.2964-3.941-1.055-6.915-2.067-8.101-0.8791-1.031-3.824-5.195-6.545-9.253-7.385-11.01-23.01-26.54-25.02-24.87-5.722 4.749-0.2919 22.94 8.839 29.61 3.969 2.899 10.94 8.874 15.49 13.28 9.377 9.081 10.04 9.034 9.312-0.6628zm-335.5-2.107c2.592-12.96-10.97-41.65-28.01-59.26-8.412-8.692-8.434-8.665-8.434 10.1v15.74l5.156 4.286c7.407 6.157 17.14 16.21 21.72 22.45 7.758 10.55 8.663 11.18 9.562 6.687zm413.9-21.7c-0.3803-11.43-1.359-13.24-14.14-26.1-16.55-16.67-18.53-17.32-18.53-6.122 0 12.49 0.1147 12.74 9.667 20.94 4.681 4.017 9.377 8.342 10.44 9.61 3.484 4.17 11.03 11.29 11.96 11.29 0.5579 0 0.7912-3.758 0.5966-9.609zm-326-1.968-0.3222-8.11-7.35-11.02c-6.979-10.46-23.29-29.1-27.37-31.29-3.106-1.662-3.597 0.5572-3.032 13.71 0.699 16.28 0.6064 15.99 5.958 18.7 6.633 3.361 17.49 12.31 24.37 20.07 7.494 8.467 8.164 8.288 7.753-2.071zm246.5-10.1c0-13.78-4.076-21.24-22.36-40.92-12.72-13.69-12.33-13.8-12.33 3.546 0 16.3 0.6075 18.47 6.654 23.69 2.27 1.962 7.081 6.257 10.69 9.544 19.46 17.72 17.34 17.22 17.34 4.139zm920.7 8.296c1.794-68.84 0.4133-75.44-19.87-94.98-15.11-14.55-14.87-14.6-14.87 2.74v13.16l4.922 4.647c2.707 2.556 8.779 7.728 13.49 11.49 4.715 3.766 9.42 8.235 10.46 9.932 6.932 11.35 1.674 18.17-5.569 7.219-5.09-7.692-20.19-21.02-22.06-19.47-6.342 5.263 0.2081 39.22 8.801 45.63 3.5 2.61 10.15 8.568 14.78 13.24 9.033 9.115 9.834 9.63 9.918 6.385zm-1009-33.2c-8.429-12.8-21.88-28.02-27.3-30.89l-2.578-1.362v11.34 11.34l4.431 6.262c2.437 3.444 9.715 11.54 16.17 17.98l11.74 11.72 0.2634-10.93c0.2627-10.9 0.2561-10.94-2.727-15.47zm-78.6 13.7c0-13.56-0.3248-14.19-15.02-29.33-16.02-16.5-16.72-16.4-15.4 2.302l0.6699 9.448 14.17 14.28c16.5 16.6 15.6 16.4 15.6 3.3zm-168.5-11c-0.4765-17.56-0.6118-18.64-2.626-20.86-1.168-1.289-2.397-3.251-2.731-4.36-0.3342-1.109-2.305-4.642-4.38-7.852-3.277-5.07-7.136-9.441-22.15-25.09-4.455-4.643-4.651-3.903-4.56 17.22 0.0939 21.79-0.8612 18.98 8.508 25.04 5.151 3.327 13.94 14.37 21.38 26.88 6.811 11.44 7.155 10.87 6.562-10.97zm714 7.604c0.2148-0.1862-4.004-0.2887-9.375-0.2277-6.452 0.0733-8.811 0.351-6.953 0.8184 2.59 0.6516 15.43 0.1871 16.33-0.5907zm91.48 0.6527c3.138-0.649 2.449-0.7825-4.219-0.8176-5.24-0.0276-7.327 0.234-6.094 0.7638 2.377 1.021 5.554 1.038 10.31 0.0538zm43.83-0.2168c0.6459-0.4102-7.896-0.7457-18.98-0.7457-13.31 0-19.68 0.3075-18.75 0.906 1.672 1.077 36.01 0.9316 37.73-0.1602zm48.44-0.4363c0.2148-0.186-4.215-0.2961-9.844-0.2447-6.363 0.0581-9.348 0.3681-7.891 0.8195 2.163 0.6701 16.85 0.1942 17.73-0.5748zm312.4-2.54c1.133-6.959-0.041-36.63-1.494-37.73-2.389-1.807-54.78-2.254-266.2-2.271-112.9-0.008-226.4-0.192-252.2-0.4068-117-0.9753-263-0.7621-264.3 0.3861-1.62 1.345-1.98 38.53-0.4012 41.48 0.9278 1.734 11.51 2.435 16.51 1.094l2.086-0.5591-2.086-1.753c-3.296-2.77-0.6526-3.638 11.04-3.628 5.672 0.006 34.78-0.2227 64.69-0.5064 61.11-0.5797 252.1-1.284 443.9-1.637 130.3-0.2397 148.6-0.4636 138.8-1.691-2.836-0.352-9.375-0.4318-14.53-0.1772-7.344 0.3626-10.16 0.1322-13.01-1.063-4.622-1.943-79.58-2.304-87.73-0.4218-3.691 0.852-6.118 0.8468-10.62-0.0229-6.265-1.211-31.3-1.791-50.36-1.167-12.33 0.4034-15.94-0.1187-15.94-2.304 0-4.109 282.7-4.047 286.8 0.0624 2.835 2.835-0.5987 3.18-36.05 3.627-19.59 0.247-39 0.794-43.12 1.216l-7.5 0.7665 12.19 0.6987c6.703 0.3843 21.34 0.7004 32.52 0.7025 21.24 0.004 25.14 0.5747 25.14 3.675 0 3.252-0.9906 3.284-90.46 2.942-177.8-0.6789-188.6-0.5738-179.6 1.75 1.241 0.3223 69.58 0.5297 151.9 0.4608l149.6-0.1253 0.5537-3.401zm-739.2-9.301c-3.056-2.235 0.1731-3.227 12.76-3.92 17.82-0.9817 59.76 0.3611 59.76 1.913 0 2.244-69.56 4.169-72.52 2.007zm78.15 11.5c0.9934-0.642-0.2451-0.9088-4.219-0.9088-3.094 0-6.258 0.4089-7.031 0.9088-0.9934 0.642 0.2451 0.9088 4.219 0.9088 3.094 0 6.258-0.4089 7.031-0.9088zm-134.7-2.221c0.8595-2.24-1.009-19.35-2.296-21.02-5.306-6.892-13.3-15.05-18.1-18.48-3.16-2.255-6.533-4.971-7.497-6.035-4.106-4.537-4.592-3.11-4.296 12.6l0.1591 8.438 3.916 4.079c2.154 2.243 7.08 6.565 10.95 9.603 3.867 3.039 8.881 7.004 11.14 8.812 4.546 3.635 5.302 3.886 6.024 2.004zm-324.9-12c0-15.79-2.486-19.57-24.13-36.71-12.73-10.08-13.37-10.1-13.37-0.3233 0 9.478 1.912 13.06 12.06 22.59 4.45 4.178 11.65 11.85 16 17.06 9.494 11.36 9.437 11.38 9.437-2.618zm1945-4.621c7.707-7.707-1.51-23.43-10.18-17.36-4.208 2.948-2.57 15.38 2.425 18.4 3.604 2.184 4.669 2.041 7.751-1.04zm-1698-9.3c-0.0223-6.103-0.473-9.855-1.373-11.43-0.7369-1.289-1.355-3.421-1.373-4.738-0.0402-2.897-4.282-9.693-8.453-13.54-1.676-1.547-4.64-4.922-6.587-7.5-5.66-7.496-14.76-16.66-15.86-15.98-3.248 2.007-0.8215 34.54 2.659 35.65 1.046 0.3321 8.101 6.678 15.68 14.1 15.83 15.52 15.35 15.41 15.31 3.445zm-166.6-5.492c0.8126-13.62-7.31-26.27-24.53-38.2-4.972-3.445-4.914-3.54-5.362 8.928l-0.3786 10.54 13.79 13.9c16.45 16.59 15.79 16.39 16.48 4.838zm81.65 6.134c0.9445-4.723 0.6751-12.03-0.5251-14.24-0.6111-1.126-1.356-3.521-1.655-5.322-0.4579-2.755-1.218-3.594-4.789-5.29-3.08-1.462-6.071-4.293-10.9-10.32-14.89-18.57-14.36-18.38-15.35-5.369-0.8487 11.22-0.1814 13 7.714 20.56 3.264 3.126 9.943 9.554 14.84 14.28 10.11 9.764 9.876 9.638 10.66 5.696zm164.5-17.99c0.4628-12.31-8.412-25.79-25.36-38.54-5.91-4.445-5.97-4.414-6.647 3.442-1.155 13.41-0.5813 15.14 7.62 23.02 24.14 23.19 23.97 23.11 24.39 12.08zm1654 0.8972c10.55-3.792 22.32-8.481 26.16-10.42 3.841-1.938 9.115-4.154 11.72-4.924 4.13-1.221 42.66-17.66 46.45-19.82 1.352-0.7695 1.637-52.87 0.5006-91.45l-0.3013-10.23-5.022-4.365c-9.793-8.514-17.47-13.92-33.03-23.27-16.92-10.17-18.84-10.82-30.11-10.32l-6.562 0.294-1.036 5.156c-0.9983 4.968-7.692 33.69-13.98 60-1.664 6.961-5.564 22.78-8.665 35.16-19.55 78.02-18.36 70.84-12.68 76.61 5.525 5.609 3.83 5.763 26.56-2.409zm-1981 0.7244c1.829-4.767 0.5757-19.86-1.778-21.4-1.291-0.8458-3.452-3.32-4.803-5.498s-6.517-8.186-11.48-13.35c-4.964-5.165-10.52-11.25-12.35-13.53-4.641-5.778-5.218-4.794-5.836 9.948-0.6855 16.35 0.8972 19.11 18.65 32.48 3.154 2.376 7.98 6.237 10.73 8.58 5.519 4.711 6.053 4.927 6.878 2.778zm-87.66-12.11c-0.155-15.81 0.4323-14.74-17.78-32.68-18.2-17.93-17.67-17.81-17.85-4.137l-0.134 9.988 10.87 11.54c5.981 6.347 12.84 14.28 15.25 17.63 9.29 12.95 9.792 12.82 9.643-2.344zm2026 8.037c0-4.284 5.049-33.06 6.098-34.76 0.2112-0.3417 1.062-3.96 1.891-8.041 1.611-7.927 10.81-46.01 15.61-64.61 1.596-6.188 4.503-18.21 6.46-26.72 1.957-8.508 4.643-19.77 5.969-25.04 3.913-15.52 4.295-14.75-7.924-16.14-14.92-1.698-22.41-2.669-35.6-4.617-6.961-1.028-16.88-2.347-22.03-2.932-8.807-0.9992-26.54-3.299-32.81-4.255-5.725-0.8728-5.625-1.394-5.625 29.46 0 29.6-0.3011 31.82-4.01 29.5-2.645-1.651-3.749-11.46-3.857-34.28-0.107-22.49-0.6095-25.77-4.052-26.45-25.01-4.933-24.64-5.232-24.64 19.89 0 22.06-0.5087 24.61-4.593 23.04-2.887-1.108-3.376-4.75-3.376-25.17 0-25.01 6.67-21.04-45-26.82-30.71-3.434-62.12-7.276-121.9-14.91-24.06-3.073-29.16-3.703-37.97-4.694-18.29-2.056-44.66-4.722-56.25-5.686-11.58-0.9633-27.58-2.679-44.06-4.728-16.53-2.054-23.26-2.739-40.78-4.152-19.93-1.607-31-2.627-51.09-4.706-7.219-0.747-16.92-1.376-21.56-1.397-4.641-0.02137-12.87-0.6636-18.28-1.427-15.58-2.198-108.9-8.425-116.7-7.785-4.541 0.3735-4.882 1.404-5.057 15.31-0.065 5.156-0.5402 12.96-1.056 17.34-2.376 20.18-0.5889 22.74 17.36 24.82 32.08 3.717 43.69 5.27 62.34 8.339 11.09 1.824 24.8 3.98 30.47 4.79 32.03 4.576 90.72 16.52 124.2 25.29 2.836 0.7419 12.12 3.016 20.62 5.054 32.2 7.713 67.72 17.05 84.41 22.2 26.69 8.231 89.54 28.68 105.4 34.31 4.641 1.644 12.87 4.348 18.28 6.009 5.414 1.661 14.48 4.716 20.16 6.789 5.672 2.073 24.85 9.099 42.61 15.61 38.39 14.08 34.48 14.47 34.88-3.473 0.3337-15.09 0.9813-17.55 4.62-17.55 3.077 0 3.668 3.159 3.668 19.6 0 18.58-1.322 16.32 13.14 22.42 15.72 6.633 15.22 6.851 15.65-6.85 0.6499-21.01 1.957-28.62 4.916-28.62 2.666 0 2.858 1.576 2.858 23.49 0 24.12-1.856 20.89 16.13 28.03 12.76 5.065 32.81 14.65 37.23 17.79 1.496 1.065 3.076 1.948 3.512 1.962 0.436 0.0139 2.269 1.268 4.074 2.787 3.286 2.766 5.625 3.574 5.625 1.943zm-49.45-81.31c-2.262-0.9126-1.135-3.952 2.673-7.211 4.891-4.187 4.56-4.596-6.441-7.968-5.018-1.538-16.93-5.207-26.47-8.153-9.539-2.947-19.88-6.104-22.97-7.016-3.094-0.912-18.07-5.554-33.28-10.32-44.97-14.08-48.07-15.02-52.97-16.06-9.444-2.004-11.04-11.1-1.944-11.1 3.406 0 54.53 15.1 62.36 18.41 1.834 0.7775 6.289 2.197 9.898 3.154s11.62 3.281 17.81 5.165c6.188 1.884 16.73 5.026 23.44 6.982 6.703 1.956 18.3 5.537 25.78 7.956 7.477 2.42 14.33 4.63 15.23 4.911 2.718 0.8471 1.897-1.709-1.745-5.439-9.093-9.312-4.913-19.4 4.42-10.67 2.481 2.32 5.092 4.219 5.803 4.219 1.743 0 21.95 21.66 23.15 24.81 2.264 5.956 0.1354 6.821-17.13 6.965-7.109 0.0592-14.7 0.5178-16.88 1.019-4.202 0.9697-8.818 1.114-10.75 0.3363zm-265.4-65.83c-2.022-1.282-0.8613-4.084 2.677-6.459 4.214-2.829 4.378-3.478 1.201-4.752-3.644-1.461-27.64-7-40.58-9.367-25.19-4.607-42.42-7.871-52.97-10.03-12.4-2.539-48.46-9.389-54.38-10.33-2.062-0.3282-9.024-1.586-15.47-2.795-6.445-1.209-19.31-3.489-28.59-5.068-9.281-1.578-21.3-3.713-26.72-4.744-5.414-1.031-14.48-2.741-20.16-3.8-5.672-1.059-13.27-2.532-16.88-3.273-3.609-0.7411-9.727-1.786-13.59-2.321-3.867-0.5357-8.297-1.362-9.844-1.837-1.547-0.4749-6.398-1.56-10.78-2.411-8.921-1.732-12.19-3.35-12.19-6.035 0-4.221 3.871-4.46 23.44-1.446 4.898 0.7546 12.28 1.817 16.41 2.362 10.2 1.346 15.54 2.34 24.38 4.534 4.125 1.024 13.41 2.759 20.62 3.854 19.03 2.888 22.93 3.526 37.5 6.125 7.219 1.288 22.2 3.859 33.28 5.712 11.09 1.853 23.95 4.188 28.59 5.189 11.14 2.403 20.82 4.334 30 5.985 11.2 2.015 34.72 6.468 60 11.36 12.38 2.394 25.43 4.566 29.02 4.826l6.52 0.4726-1.62-2.226c-9.507-13.07-7.828-14.74 5.995-5.976 5.286 3.352 9.982 6.094 10.43 6.094 1.882 0 23.22 15.31 23.77 17.06 0.8326 2.623-1.384 4.563-5.788 5.066-2.005 0.2292-12.02 1.462-22.26 2.741-21.03 2.625-20.31 2.576-22.02 1.494zm-502.5 139.5c1.809-1.809 1.945-2.679 1.43-9.141-0.3131-3.928-0.8423-31.82-1.176-61.98s-0.8718-60.75-1.196-67.97l-0.5891-13.12-11.25-0.5332c-26.69-1.265-57.18 10.39-73.59 28.14-9.531 10.3-24.13 19.79-36.08 23.44-11.4 3.483-25.29 3.822-153.3 3.742-289-0.1803-303.2-0.0618-314.3 2.626-5.302 1.287-6.666 1.334-8.609 0.2935-2.027-1.085-3.062-0.9341-8.476 1.233-9.33 3.735-12.96 2.23-5.444-2.26 5.401-3.228 2.044-3.402-7.401-0.3843-4.55 1.454-8.542 2.374-8.872 2.044-1.455-1.455 1.003-3.807 6.655-6.37 10.67-4.837 4.8-6.609-7.492-2.264-11.34 4.009-15.34 2.117-4.62-2.183 8.095-3.246 11.09-7.274 3.643-4.903-16.65 5.302-18.24 5.595-18.24 3.344 0-1.589 3.746-3.713 8.266-4.687 3.378-0.7278 4.953-3.026 2.93-4.276-1.744-1.078-5.756-0.2143-13.94 2.999-11.13 4.372-13.04 1.187-2.323-3.877 3.302-1.56 6.003-3.272 6.003-3.804 0-2.954-7.742-1.826-16.5 2.406-4.97 2.401-7.875 2.933-7.875 1.44 0-1.463 4.367-4.408 9.819-6.62 3.679-1.493 5.181-2.61 5.181-3.851 0-3.113-3.962-3.108-11.07 0.0141-11.25 4.936-14.51 2.609-3.876-2.761 6.619-3.341 7.209-4.163 4.34-6.043-2.427-1.59-11.63-0.3392-16.42 2.232-1.204 0.6461-2.469 0.8951-2.811 0.5534-0.6654-0.6654 0.7954-1.858 5.399-4.409 5.848-3.24 2.444-6.869-4.871-5.195-5.103 1.168-5.994 0.7392-4.264-2.051 2.282-3.681-2.2-4.856-9.076-2.379-5.829 2.1-7.155 1.032-3.047-2.454 2.074-1.76 2.079-1.814 0.2896-3.197-2.87-2.219-5.987-1.692-14.81 2.499-4.52 2.148-8.482 3.643-8.803 3.322-1.283-1.283 0.7352-3.522 5.229-5.799 2.602-1.319 4.732-2.804 4.732-3.302 0-3.204-12.67-1.122-20.32 3.339-6.173 3.599-7.37 1.451-1.708-3.067 7.101-5.666 1.555-5.48-9.809 0.3285-4.684 2.394-8.769 4.1-9.079 3.79-1.059-1.059 0.5733-3.524 3.397-5.131 3.38-1.923 3.899-4.392 0.7253-3.45-1.16 0.3445-4.219 1.785-6.797 3.2-6.316 3.468-9.336 4.135-10.79 2.385-1.612-1.943-5.27-1.745-7.415 0.4007-2.343 2.343-2.695 6.224-3.366 37.11-0.3026 13.92-0.7266 31.64-0.9423 39.38-1.153 41.33-1.448 75.32-0.6595 75.81 0.8636 0.5337 273.3 1.3 583.3 1.641 88.95 0.0978 168.3 0.4632 176.2 0.8119 7.992 0.3488 16.11 0.7061 18.05 0.7941 2.489 0.1132 4.1-0.4242 5.515-1.839zm-958.1-15c0.0128-12.94 0.1201-12.68-10.98-26.44-4.948-6.135-8.996-11.5-8.996-11.92 0-0.9174-9.862-8.328-11.08-8.328-1.882 0-2.791 17.6-1.135 21.95 1.429 3.759 10.7 15.29 27.45 34.15 3.98 4.481 4.729 2.995 4.741-9.411zm84.83 0.8962c0.4244-12.82-4.401-21.16-23.33-40.31-11.7-11.9-11.2-12.1-11.2 3.7v12.6l9.609 10.02c5.285 5.509 12.24 12.88 15.46 16.37 7.916 8.606 9.067 8.306 9.423-2.448zm-167 5.326c1.823-7.263-2.282-15.99-14.44-30.68-11.92-14.41-14.22-14.47-14.24-0.3759-0.0172 11.05 0.0229 11.13 8.486 17.97 3.689 2.981 9.246 7.684 12.35 10.45 6.432 5.739 7.015 5.935 7.844 2.632zm1088-20.39v-17.05l-14.39-15.75c-21.36-23.38-20.29-23.35-20.29-0.5669 0 20.77-0.062 20.61 11.8 31.38 5.079 4.61 11.92 11.02 15.2 14.25 7.74 7.605 7.682 7.699 7.678-12.25zm-842.3 0.4c0-8.976-0.9724-11.3-7.883-18.83-1.657-1.805-4.11-4.758-5.452-6.562-14.29-19.22-17.57-19.57-17.57-1.875 0 15.39-1.905 12.39 16.85 26.52 2.836 2.137 6.755 5.284 8.71 6.995 4.743 4.151 5.353 3.438 5.353-6.253zm-325.3-1.731v-9.044l-5.156-8.641c-2.836-4.752-5.156-9.07-5.156-9.594 0-2.195-20.84-22.63-23.07-22.63h-2.238v12.58 12.58l3.984 3.393c2.191 1.866 6.043 5.801 8.558 8.745 20.58 24.08 23.08 25.45 23.08 12.6zm-88.49-0.7551c2.386-9.505-5.428-23.51-23.76-42.59-11.46-11.92-11.66-11.87-11.29 2.886l0.2665 10.7 3.342 1.572c1.838 0.8643 5 3.609 7.027 6.099 15.52 19.07 23.29 25.85 24.42 21.34zm167.6-6.573c1.491-3.886 0.5938-19.77-1.209-21.4-0.978-0.8851-2.229-3.376-2.779-5.536-1.074-4.213-4.502-8.713-14.25-18.71-8.684-8.904-9.27-8.671-9.504 3.769-0.2993 15.94-0.2551 16.18 3.701 19.91 1.936 1.826 7.668 7.849 12.74 13.38 9.57 10.45 10.36 11.05 11.31 8.58zm82.87-16.8c0.4054-13.84-1.413-17.35-17.68-34.1-14.11-14.53-14.05-14.53-14.71 2.358l-0.4517 11.59 3.378 1.411c1.858 0.7762 4.116 2.569 5.017 3.985 11.85 18.6 24.12 26 24.45 14.75zm84.56-2.286c0.0138-9.388-0.0909-9.902-2.536-12.45-1.403-1.464-4.461-5.769-6.797-9.566-4.904-7.973-23.21-27.72-23.84-25.73-5.413 16.97-1.633 26.8 17.72 46.1 15.9 15.86 15.44 15.81 15.46 1.653zm79.69-7.461c0.0202-12.4-22.28-42.84-29.39-40.11-8.728 3.349-2.455 20.62 13.35 36.76 16.37 16.72 16.02 16.64 16.04 3.359zm-325.5-4.594c-1.417-17.28-32.96-54.29-34.81-40.83-2.026 14.78-0.7362 18.16 10.1 26.53 2.802 2.162 9.23 8.793 14.29 14.74l9.191 10.81 0.8162-3.132c0.4489-1.722 0.6326-5.369 0.4083-8.104zm1166-28.4c-0.6229-29.07-1.15-39.63-2.062-41.29-5.388-9.764-28.61-35.1-31.24-34.08-3.07 1.178-1.62 32.22 1.695 36.29 1.438 1.764 5.209 6.793 8.382 11.18 3.172 4.383 9.048 11.42 13.06 15.65 7.897 8.319 9.366 11.41 7.227 15.22-2.434 4.337-5.372 3.234-10.17-3.819-2.33-3.425-6.134-8.311-8.455-10.86-2.32-2.546-5.397-6.177-6.837-8.069-4.545-5.971-5.034-4.995-5.242 10.46l-0.1872 13.9 7.144 5.982c3.929 3.29 8.042 7.266 9.14 8.836 2.325 3.324 17.77 20.28 18.14 19.92 0.1367-0.1367-0.128-17.83-0.5884-39.31zm-1255 28c0.8878-13.03-4.188-23.14-21.18-42.21-12.77-14.34-13.01-14.26-13.03 4.054l-0.0143 12.67 10.86 10.77c5.976 5.921 13.15 13.82 15.94 17.56 6.495 8.692 6.635 8.638 7.417-2.842zm169.5-12.91c1.46-10.15-2.203-19.77-11.93-31.35-3.466-4.125-7.601-9.293-9.189-11.48-5.608-7.74-7.231-4.446-7.248 14.71l-0.008 8.852 12.89 12.42c14.39 13.87 14.47 13.91 15.49 6.848zm82.01-9.505c0.57-9.168-6.955-26.44-12.44-28.54-0.7004-0.2688-3.415-3.306-6.034-6.75-11.17-14.69-13.5-14.34-13.97 2.112-0.3831 13.51 0.2564 15.39 7.109 20.83 2.457 1.95 8.594 7.539 13.64 12.42 10.55 10.21 11.05 10.21 11.69-0.0637zm84.03-3.346c0.1409-10.89-3.167-16.13-24.21-38.33-8.826-9.312-8.581-9.438-9.398 4.87l-0.6448 11.29 16.22 16.11c18.14 18.01 17.88 17.93 18.03 6.058zm80.07-3.242c0.3048-6.93-0.8526-10.12-5.682-15.66-1.541-1.769-4.249-5.478-6.018-8.243-3.901-6.098-15.03-18.07-16.8-18.07-1.66 0-2.06 2.18-2.579 14.06l-0.4297 9.844 7.884 7.742c17.87 17.54 23.2 19.88 23.62 10.33zm-325.7 2.7c2.6-9.9-3.9-24.7-18-41-15.3-17.7-15-17.7-15.8-1.6l-0.5871 10.95 13.58 13.35c7.469 7.341 14.76 14.93 16.19 16.86 3.024 4.07 3.832 4.316 4.611 1.406zm-89.08-14.44c1.163-19.01 2.787-15.67-21.7-44.71-9.4-11.15-9.949-10.99-11.25 3.17-1.225 13.32-1.397 12.7 5.843 21.09 3.129 3.629 9.908 11.95 15.06 18.49 11.45 14.52 11.28 14.49 12.05 1.957zm993.9 1.248 79.69-0.3078 6.343-2.504c8.832-3.486 13.32-6.499 20.38-13.66 3.352-3.405 8.625-7.657 11.72-9.45 3.094-1.793 9.8-6.011 14.9-9.375 11.84-7.804 11.82-7.794 20.72-11.62 16.33-7.017 30.33-9.447 46.4-8.052 12.87 1.118 13.13 1.048 13.13-3.478v-3.33l-3.516 0.7673c-1.934 0.422-5.203 0.6773-7.266 0.5674-11.1-0.5916-29.1 0.0669-36.09 1.32-4.383 0.7856-10.41 1.792-13.39 2.236-2.98 0.4444-8.042 1.626-11.25 2.626s-8.152 2.472-10.99 3.271c-19.08 5.375-27.65 8.673-38.44 14.79-1.805 1.023-5.18 2.762-7.5 3.864-6.616 3.143-17.54 8.54-21.85 10.79-12.47 6.52-28.16 11.25-39.55 11.91-28.1 1.643-363.4 2.132-367.6 0.5367-1.453-0.5523-7.614-2.015-13.69-3.25-15.39-3.127-18.16-4.508-32.26-16.06-5.007-4.103-9.282-10.68-10.74-16.53-2.226-8.909-15.35-5.582-17.21 4.365-0.331 1.765-2.277 5.674-4.324 8.688-4.406 6.486-4.65 8.914-1.148 11.4 6.111 4.339 21.44 11.76 27.68 13.39 3.723 0.9766 10.78 2.909 15.68 4.295l8.906 2.519 89.06 0.5289c48.98 0.2909 114.6 0.4242 145.8 0.2963 31.2-0.128 92.58-0.3712 136.4-0.5404zm-825.1-6.492c0.2349-1.16 0.6681-5.812 0.9627-10.34l0.5356-8.228-10.43-10.99c-15.1-16.4-17.2-17-17.2-5.1v7.387l7.138 8.791c16.18 19.93 18.72 22.33 19.5 18.45zm82.58-7.5c1.509-8.206 0.1282-20.87-2.247-20.61-1.232 0.1356-6.778-1.862-12.32-4.439-13.36-6.209-14.78-6.72-15.48-5.588-0.9397 1.52 3.845 8.746 10.95 16.54 17.3 18.98 18.09 19.56 19.09 14.1zm164.5-4.688c-0.0363-10.61-3.329-14.27-23.41-26.01-6.83-3.993-7.504-3.968-7.491 0.283 0.008 2.577 1.574 4.534 11.3 14.13 6.21 6.124 12.6 12.77 14.21 14.77 4.392 5.466 5.422 4.862 5.394-3.165zm-80.6-1.687v-6.609l-5.391-5.509c-5.774-5.901-25.32-19.96-26.63-19.15-3.071 1.898 2.373 9.695 19.81 28.37 10.91 11.69 12.22 12 12.22 2.899zm-244-1.9c1.55-7.461-22.62-46.79-28.7-46.7-8.501 0.123-6.229 13.69 4.186 25 4.191 4.549 10.85 12.18 14.8 16.95 7.743 9.356 8.664 9.806 9.714 4.754zm918.6 0.9086c1.289-0.4974 6.141-1.263 10.78-1.7 17.35-1.637 24.55-4.081 45.41-15.42 20.12-10.93 38-18.54 52.77-22.45 5.015-1.328 12.19-3.464 15.94-4.747s10.52-2.744 15.05-3.247c4.526-0.503 8.589-1.137 9.028-1.408 1.534-0.9479 21.09-3.335 27.32-3.335 8.322 0 8.802-0.6313 8.022-10.55-0.334-4.25-0.8593-13.63-1.168-20.85-0.6806-15.94 0.012-15.05-12.29-15.83-5.543-0.351-19.57-1.24-31.17-1.975-11.6-0.7354-31.85-1.778-45-2.317-13.15-0.5392-37.2-1.605-53.44-2.368-56.09-2.636-147.8-5.54-211.4-6.69-19.59-0.3546-39.42-0.7956-44.06-0.9799-4.641-0.1844-38.18-0.5862-74.54-0.8931l-66.1-0.5578-11.24 4.43c-28.11 11.08-47.73 35.19-37.68 46.32 4.315 4.776 5.658 13.79 3.356 22.53-0.238 0.9025 0.7292 1.574 2.926 2.032 1.805 0.3759 7.92 3.005 13.59 5.842 10.44 5.222 12.66 5.509 12.66 1.633 0-8.084 8.285-4.024 10.31 5.053 0.5715 2.562 1.86 5.986 2.864 7.611 5.835 9.441-5.202 14.06-24.25 10.14-3.806-0.7818-2.289-4.291 2.639-6.107 7.054-2.599 5.942-4.182-7.827-11.15-8.797-4.45-12.41-6.789-13.39-8.672-1.568-3.009-2.345-3.178-4.3-0.9375-10.94 12.54 7.525 30.58 36.77 35.94 13.83 2.535 362 3.159 368.4 0.661zm-49.46-4.639c-1.605-1.605-1.465-4.641 0.3333-7.208 2.267-3.237 1.798-3.313-18.84-3.058-20.67 0.2554-34.94-0.9951-41.72-3.658-2.32-0.9105-5.937-2.12-8.038-2.688-5.264-1.423-16.34-12.75-16.34-16.72 0-6.897 3.557-6.416 10.86 1.471 3.278 3.54 7.133 6.852 8.566 7.359 7.54 2.668 10.04 3.242 19.95 4.576 14.55 1.959 44.06 0.7408 44.06-1.819 0-0.5962-1.477-2.262-3.281-3.702-5.412-4.318-3.838-11.08 1.846-7.935 1.17 0.6481 3.856 2.129 5.969 3.291s8.391 2.988 13.95 4.059c16.67 3.209 18.38 9.114 4.651 15.99-3.186 1.594-8.191 4.524-11.12 6.509-6.186 4.189-9.203 5.171-10.84 3.532zm-167.1-4.047c-1.289-0.7215-6.984-2.452-12.66-3.846-15.63-3.842-17.03-6.275-8.438-14.73 2.836-2.791 5.156-5.792 5.156-6.669 0-3.655 2.818-7.253 5.444-6.949 2.436 0.2813 2.524 0.4935 2.524 6.064 0 7.509 0.058 7.538 8.118 4.035 24.33-10.57 25.76-39.45 2.429-49.15-7.73-3.215-2.931-7.296 6.047-5.142 26.56 6.372 26.45 46.36-0.1641 60.35-7.482 3.932-7.871 4.855-3.293 7.82 6.675 4.324 1.781 12.11-5.168 8.223zm-136.5-26.19c-0.3297-0.8592-0.3362-3.208-0.014-5.22 0.7698-4.814 0.881-4.773-15.24-5.61-14.87-0.7719-17.93-1.645-17.93-5.11 0-4.1 1.598-4.455 17.84-3.956 18.36 0.5639 17.9 0.695 17.14-4.792-0.4798-3.501-0.2733-4.498 1.147-5.536 2.887-2.111 3.781-1.585 12.34 7.251 11.07 11.43 11.4 12.57 4.468 15.45-2.044 0.8499-5.705 2.999-8.134 4.777-5.242 3.836-10.7 5.124-11.62 2.741zm69.94-1.211c0-1.565 1.115-3.684 2.918-5.544 4.721-4.871 2.437-5.365-29.2-6.317-8.772-0.264-10.28-0.7694-10.28-3.44 0-3.237 3.267-3.847 22.33-4.171 10.15-0.1722 18.59-0.3539 18.74-0.4038 0.1581-0.0499-0.3692-1.028-1.172-2.174-3.595-5.133-0.7332-10.01 3.788-6.45 2.722 2.141 17.1 7.003 23.81 8.053 5.556 0.8691 8.633 2.868 8.261 5.365-0.3517 2.355-1.024 2.718-10.6 5.731-4.125 1.297-11.3 4.501-15.94 7.119-9.789 5.523-12.66 6.028-12.66 2.231zm119.2-6.607c-0.8669-1.646-0.011-9.272 1.842-16.42 3.227-12.45 27.61-25.78 50.05-27.37 17.11-1.21 17.82-1.628 12.11-7.12-4.328-4.16-6.314-8-5.604-10.83 0.9983-3.977 4.008-2.65 12.98 5.726 4.697 4.383 11.43 9.909 14.97 12.28 8.196 5.499 8.136 5.694-4.593 14.88-5.739 4.141-12.57 9.533-15.19 11.98-5.257 4.927-6.884 5.387-8.894 2.517-2.461-3.514 1.285-8.169 14.61-18.15 5.469-4.098 4.722-5.224-3.468-5.224-28.5 0-56.97 13.83-58.87 28.59-1.19 9.256-7.052 14.64-9.95 9.141zm88.52-9.208c-4.859-4.859 12.33-13.81 32.28-16.8 2.32-0.3485 6.299-1.231 8.842-1.961s7.816-1.33 11.72-1.333c3.902-0.003 9.627-0.4231 12.72-0.9337 13.12-2.165 27.39-2.802 63.71-2.843 44.34-0.0505 43.3 0.1474 33.31-6.31-11.63-7.519-10.27-13.35 1.791-7.656 7.311 3.455 15.37 6.201 30.1 10.26 32.34 8.906 35.99 11.32 21.09 13.94-3.094 0.5423-10.69 1.866-16.88 2.942-6.188 1.076-13.15 2.554-15.47 3.284-2.32 0.7306-6.813 1.734-9.984 2.23-3.171 0.4959-7.47 1.772-9.555 2.835-7.576 3.865-9.117-0.9446-2.024-6.317 2.32-1.757 4.346-3.529 4.502-3.938 0.5545-1.455-15.66-1.997-41.06-1.371-14.18 0.3493-28.9 0.5661-32.72 0.4818-3.814-0.0843-9.72 0.2721-13.12 0.792-5.86 0.8947-12.42 1.565-37.6 3.843-15.76 1.426-28.25 4.227-33.65 7.547-5.207 3.204-5.989 3.332-8.007 1.315zm-316-10.1c-0.6187-0.6188-1.125-2.308-1.125-3.753 0-2.715 0.4174-3.187 15.88-17.94 7.278-6.942 7.709-8.341 2.793-9.06-8.392-1.227-4.698-6.093 7.106-9.359 17.23-4.767 22.25-2.686 20.35 8.424-0.622 3.627-1.131 7.823-1.131 9.323 0 7.696-6.834 6.89-8.088-0.9544-0.8863-5.543-1.142-5.373-20.97 13.94-10.63 10.35-12.6 11.59-14.81 9.377zm73.56-11.69c-4.821-4.821 18.36-15.94 47.59-22.82 14.85-3.498 14.8-3.46 12.83-8.978-2.569-7.224-0.5731-7.644 23.67-4.985 22.68 2.489 28.13 12.87 9.576 18.25-7.967 2.31-16.15 5.703-19.58 8.123-1.433 1.009-1.905 0.9126-3.047-0.6252-1.936-2.607-1.788-3.006 2.633-7.112l3.984-3.701-3.281 0.0052c-5.348 0.0084-21.6 4.034-42.19 10.45-8.773 2.735-10.26 3.333-22.63 9.11-6.266 2.925-8.401 3.435-9.553 2.282zm-130.2 63.15c9.328-11.99 9.958-17.49 2.384-20.84-9.133-4.039-11.66-2.522-19.12 11.46-4.273 8.011 11.1 16.63 16.74 9.387zm-561.9-1.441c1.213-1.963 0.8282-12.71-0.4692-13.1-0.7248-0.221-6.591-5.836-13.04-12.48-11.28-11.62-14.41-13.75-15.62-10.6-0.8744 2.279 0.6976 4.84 9.169 14.94 4.325 5.156 10.15 12.22 12.95 15.7 5.033 6.266 6.058 7.075 7.011 5.533zm161.2-12.2c-3.046-8.079-14.19-21.33-17.38-20.68-4.449 0.9036-1.573 8.978 4.277 12.01 1.839 0.9519 5.437 3.874 7.996 6.494 5.256 5.381 6.519 5.922 5.11 2.185zm80.7 0.9375c-0.0534-4.266-19.64-25.96-21.64-23.96-0.5097 0.5097-1.016 4.036-1.125 7.836l-0.1981 6.91 9.752 4.96c9.075 4.616 13.23 5.955 13.21 4.257zm173-2.102c0.6331-1.024-3.547-5.633-5.109-5.633-1.417 0-1.224 0.7748 0.9587 3.84 2.03 2.851 3.187 3.351 4.15 1.793zm-325.1-5.706c0.544-8.808-13.73-24.96-16.26-18.38-0.6532 1.702 13.48 23.36 14.93 22.88 0.5857-0.1926 1.18-2.216 1.321-4.496zm1162-7.913v-11.63l-3.841-3.553c-4.904-4.537-5.624-4.467-6.861 0.6653-1.446 5.999-3.755 5.732-4.059-0.4688-0.5152-10.51-1.176-12.7-5.118-16.97-5.882-6.381-6.355-6.031-8.205 6.084-0.5028 3.292-1.612 6.756-2.466 7.699-1.854 2.048 1.459 5.807 18.83 21.37 12.35 11.06 11.72 11.23 11.72-3.196zm-1002 3.247c-1.23-2.627-3.023-5.197-3.984-5.711-0.9606-0.5141-4.042-3.014-6.848-5.555-5.331-4.828-6.406-5.332-7.519-3.531-0.4094 0.6624 2.443 4.067 7.286 8.697 4.377 4.185 8.726 8.779 9.663 10.21 2.953 4.507 4 1.438 1.401-4.11zm67.43 4.059c-10.6-12.9-15.4-16.5-15.4-11.1 0 2.857 0.6648 3.681 6.328 7.842 7.99 5.871 11.71 7.293 8.58 3.285zm18.09-1.898c0.7041-8.332-7.879-16.86-18.72-18.59-7.918-1.266-6.28 2.199 6.44 13.62 10.64 9.548 11.85 10.04 12.28 4.975zm-165.7-2.8c0-6-9.2-15.2-15.2-15.2-4.785 0-4.516 1.151 1.847 7.912 2.965 3.15 6.783 7.311 8.484 9.247 3.748 4.264 4.872 3.808 4.885-1.979zm222.3 2.868c-3.1-5.8-7.6-7-7.6-2.2 0 2.341 0.4028 2.748 3.047 3.076 1.676 0.208 3.589 0.4456 4.252 0.5282 0.8669 0.108 0.9568-0.3101 0.3205-1.491zm-391-5.4c0-3.866-0.323-4.422-4.354-7.5-8.93-6.818-10.88-3.609-3.122 5.141 6.811 7.682 7.476 7.892 7.476 2.359zm397.2-4.496c-5.848-7.337-7.327-8.672-9.617-8.672-5.092 0-3.563 2.591 5.164 8.751 4.626 3.265 8.907 6.534 9.514 7.265 0.6061 0.7303 1.27 1.328 1.476 1.328 0.2057 0-2.736-3.902-6.537-8.672zm17.58-0.7151c0.8086-7.147 0.5536-7.488-5.607-7.488-6.38 0-6.57 1.165-1.321 8.118 4.95 6.556 6.127 6.45 6.928-0.6299zm1692 0.7767c0-5.068-3.322-10.28-9.098-14.29l-5.307-3.677-6.343 1.088c-3.489 0.5983-6.892 0.8936-7.563 0.6564-0.6707-0.2373-4.806-0.896-9.188-1.464-4.383-0.5679-10.71-1.388-14.06-1.821-3.352-0.4339-13.27-1.859-22.03-3.167-8.766-1.308-27.33-3.88-41.25-5.717-13.92-1.836-29.11-3.94-33.75-4.676-4.641-0.7351-11.6-1.575-15.47-1.866-3.867-0.2911-12.73-1.162-19.69-1.935-17.73-1.969-37.07-3.894-56.25-5.6-9.023-0.8025-19.36-1.858-22.97-2.345-3.609-0.4872-9.516-1.138-13.12-1.447-3.609-0.3088-11.2-1.136-16.88-1.838-5.672-0.702-14.95-1.535-20.62-1.85-9.336-0.5194-18-1.437-40.31-4.274-49.64-6.31-214.7-23.21-233.9-23.95-5.93-0.2289-12.47-0.8121-14.53-1.296-2.062-0.4839-7.336-1.117-11.72-1.408-4.383-0.2906-20.2-1.581-35.16-2.867-14.95-1.286-32.67-2.769-39.38-3.296-6.703-0.5264-18.52-1.581-26.25-2.344-24.12-2.379-49.84-4.511-101.2-8.393-10.31-0.7787-24.02-1.833-30.47-2.342-11.2-0.8857-26.33-1.878-58.12-3.813-7.992-0.4863-17.91-1.276-22.03-1.754-4.125-0.4785-15.09-1.145-24.38-1.48-17.02-0.6152-31.31-1.545-51.09-3.324-5.93-0.5333-18.79-1.141-28.57-1.35-9.786-0.2092-23.92-0.8286-31.41-1.376-7.487-0.5479-25.21-1.412-39.39-1.919-14.18-0.5077-29.37-1.319-33.75-1.803-4.383-0.4837-21.05-1.18-37.03-1.547-35.11-0.8062-34.31-0.7803-64.69-2.098-55.78-2.42-81.41-3.158-85.58-2.464-5.468 0.9112-12.73 0.7466-19.72-0.447-2.929-0.5003-13.69-0.9294-23.91-0.9535-10.22-0.02414-18.93-0.2574-19.35-0.5184-0.4223-0.261-44.37-0.4372-97.67-0.3916-53.29 0.04562-100.3 0.0122-104.5-0.07426-16.64-0.346-141.7 4.424-147.8 5.638-2.454 0.4861-14.9 1.095-27.66 1.353-12.76 0.2581-27.62 0.6911-33.04 0.9623-25.24 1.264-74.68 4.294-75.94 4.653-0.7734 0.2207-8.156 0.8502-16.41 1.399-8.25 0.5486-19.43 1.41-24.84 1.915-12.49 1.163-34.26 2.91-42.19 3.385-3.352 0.2006-6.727 0.615-7.5 0.9209-0.7734 0.3058-3.305 0.6783-5.625 0.8276-6.692 0.4308-25.07 3.037-26.16 3.71-0.544 0.3362-1.736 0.2316-2.649-0.2325-1.016-0.5164-5.662-0.3849-11.97 0.3389-27.96 3.206-44.67 5.036-50.62 5.543-3.609 0.3069-9.727 0.9595-13.59 1.45-13.39 1.699-29.62 3.683-49.69 6.071-11.09 1.32-25.22 3.004-31.41 3.742-6.188 0.7385-15.05 1.788-19.69 2.333-7.791 0.9143-35.14 4.52-50.62 6.675-3.609 0.5022-12.89 1.721-20.62 2.709-7.734 0.9877-18.7 2.438-24.38 3.222-5.672 0.7845-16.53 2.277-24.12 3.316-31.2 4.27-57.5 19.15-51.37 29.07 0.8171 1.322 42.35 1.52 109.7 0.5239 22.8-0.3373 256.7-1.781 259.7-1.603 8.027 0.4706 28.69-0.0797 30.62-0.8157 1.507-0.573 2.958-0.5352 4.161 0.1082 1.284 0.6871 50.91 0.8354 162.9 0.4867l161.1-0.5014 5.548-2.449c25.84-11.41 48.85-24.5 56.53-32.16 2.742-2.734 32.53-16.97 40.49-19.36 16.72-5.004 35.39-8.134 69.31-11.62 4.898-0.5033 23.67-0.7365 41.72-0.5183s57.7 0.6122 88.12 0.8755c54.61 0.4726 82.33 1.132 161.2 3.836 62.09 2.128 87.84 3.229 88.76 3.798 0.4631 0.2861 12.74 0.8966 27.29 1.357 14.55 0.46 35.31 1.293 46.14 1.85 10.83 0.5577 26.86 1.375 35.62 1.817 8.766 0.4417 27.54 1.642 41.72 2.666 14.18 1.025 33.16 2.328 42.19 2.896 23.1 1.455 42.32 2.717 58.12 3.818 34.44 2.399 55.31 3.759 72.19 4.702 10.05 0.562 23.77 1.43 30.47 1.929 6.703 0.4991 19.15 1.33 27.66 1.846 8.508 0.516 16.95 1.137 18.75 1.38 5.298 0.713 52.16 3.63 57.66 3.588 1.547-0.01165 6.398 0.5156 10.78 1.172 4.383 0.6561 12.4 1.464 17.81 1.795 16.26 0.9945 49.03 4.151 68.44 6.592 6.445 0.8109 16.36 1.86 22.03 2.332 15.59 1.297 30.66 2.778 33.28 3.271 2.43 0.4566 11.73 1.42 36.56 3.79 16.01 1.528 29.88 3.041 59.53 6.499 10.83 1.263 28.12 3.173 38.44 4.245 30.1 3.129 61.07 6.579 72.19 8.042 5.672 0.7464 19.38 2.422 30.47 3.724s27.33 3.226 36.09 4.276c8.766 1.05 19.95 2.257 24.84 2.682 4.898 0.4249 13.12 1.415 18.28 2.199 5.156 0.7847 15.07 2.136 22.03 3.002 6.961 0.8664 18.35 2.347 25.31 3.289 6.961 0.9428 17.51 2.181 23.44 2.752 5.93 0.5707 14.05 1.497 18.05 2.058 6.647 0.9325 7.669 0.8494 11.89-0.9674 5.712-2.457 15.13-2.746 16.98-0.5196 1.671 2.013 5.377 3.786 9.459 4.524 1.879 0.3399 4.996 1.873 6.926 3.407 4.432 3.522 5.126 3.495 5.126-0.1967zm-1520-0.7699c15.97-8.063 4.069-19.91-17.82-17.74-27.23 2.702-39.54 7.829-29.32 12.21 17.5 7.503 38.38 9.95 47.14 5.528zm-335.7-5.6c0-1.339-0.625-1.875-2.188-1.875-2.822 0-3.69 0.9101-2.377 2.492 1.627 1.96 4.565 1.563 4.565-0.6169zm953.5-31.64c0.015-31.07 0.1318-32.06 3.814-32.37 5.124-0.4295 26.91 1.506 30.39 2.7 2.062 0.7071 5.902 1.292 8.532 1.299 12.17 0.03473 12.74 1.18 13.27 26.73 0.484 23.35-0.9454 21.16 13.92 21.38l12.09 0.1824 0.01-25.21c0.01-32.03 7.797-27.8-57.2-31.04-29.2-1.454-84.99-4.522-110.2-6.06-8.508-0.5197-27.07-1.37-41.25-1.889-14.18-0.5194-29.16-1.165-33.28-1.434-23.23-1.517-132.1-5.617-176.2-6.639-10.83-0.2506-24.75-0.6368-30.94-0.8583-68.26-2.444-183.8-1.347-198.8 1.887-3.609 0.7819-11.41 2.279-17.34 3.326-16.45 2.907-24.62 5.754-44.8 15.61-11.65 5.695-12.43 8.285-6.042 20.17 1.406 2.618 4.245 7.964 6.307 11.88 5.378 10.21 10.99 10.79 13.62 1.402 5.453-19.48 31.72-38.48 59.5-43.05 2.062-0.3393 6.914-1.225 10.78-1.969 7.559-1.453 108.5-1.551 131.2-0.1279 5.93 0.3703 23.86 0.8937 39.84 1.163 70.66 1.191 181.7 4.717 222.7 7.071 43.77 2.515 75.49 3.837 92.34 3.849 16.31 0.01138 24.06 0.5658 45.19 3.232 7.085 0.894 8.387 2.796 6.93 10.12-0.6786 3.415-0.9618 7.293-0.6291 8.618s0.9809 9.658 1.44 18.52c0.4596 8.858 1.277 17.27 1.817 18.68 2.445 6.419 2.904 2.142 2.918-27.19zm133.1 23.63c1.423-1.715 1.507-7.911 0.4472-33.01-0.9564-22.65 1.174-20.49-21.49-21.76-22.92-1.287-20.87-3.186-19.47 18.01 0.6212 9.417 1.122 20.57 1.113 24.79-0.023 10.25-0.3092 10.05 16.53 11.46 7.658 0.6416 14.98 1.284 16.27 1.427 1.289 0.1435 3.03 0.3241 3.87 0.4014 0.8392 0.0772 2.068-0.5131 2.731-1.312zm-769.4-14.09c3.322-1.275 1.681-8.229-4.074-17.27-1.477-2.32-3.541-6.223-4.587-8.672-2.306-5.398-1.994-5.382-9.24-0.4688-6.838 4.637-7.602 6.195-5.061 10.33 1.026 1.668 2.714 5.277 3.752 8.019 3.688 9.745 9.012 11.98 19.21 8.067zm677.3-11.5c0.267-11.57-0.4671-15.15-3.109-15.15-1.821 0-2.041 24.27-0.2365 26.07 2.437 2.437 3.086 0.3186 3.345-10.92zm-11.58-6.334c-0.095-11.55-0.6879-13.5-4.093-13.5-2.967 0-3.116 0.3466-4.306 10.02-0.7667 6.231-0.1119 8.15 3.589 10.52 4.443 2.844 4.887 2.195 4.811-7.04zm-14.94-7.857c0.9954-4.532-1.238-8.93-2.658-5.231-0.6747 1.758 0.3435 8.023 1.304 8.023 0.4071 0 1.016-1.256 1.354-2.791zm-1462 513.6c-4.402-1.628-6.337-8.543-3.187-11.39 2.806-2.54 8.463-3.087 26.47-2.559 18.35 0.537 19.7 0.2892 19.67-3.614-0.0322-5.52 2.025-5.276-44.45-5.276-46.84 0-49.74-0.3405-43.87-5.152 3.566-2.925 46.31-3.723 79.82-1.491 5.683 0.3786 6.165 0.2472 8.579-2.337 3.462-3.706 6.084-3.539 8.493 0.5428 1.065 1.805 2.329 3.281 2.81 3.281 2.03 0 1.769 2.992-0.4958 5.683-2.069 2.458-2.439 3.806-2.439 8.875v5.977l-4.251 2.925c-5.732 3.944-39.88 7.231-47.16 4.539zm-225.9-22.5c-1.975-2.034-1.323-4.255 2.142-7.297 3.679-3.23 3.962-3.305 7.454-1.977 1.449 0.551 22.28 1.125 50.92 1.403 61.91 0.6009 65.84 1.084 55.21 6.776-3.988 2.133-113.7 3.172-115.7 1.095zm331.6-7.5c0-1.115 0.7116-4.284 1.581-7.044 2.637-8.366-8.677-9.009-123-6.979-102.8 1.825-205.4 1.363-213-0.9594-3.604-1.103-4.186-2.633-3.298-8.671 1.351-9.185-14.18-8.266 146.1-8.651 111.7-0.2686 183.2-0.7341 192.7-1.254 1.292-0.0708 0.7228-2.24-1.102-4.197-1.747-1.874-9.43-20.42-9.44-22.79-0.008-2 1.792-1.321 7.796 2.939 7.679 5.449 21.09 12.09 31.29 15.48 31.39 10.45 32.78 12.11 16.5 19.79-5.568 2.625-14.45 7.39-19.73 10.59-24.5 14.8-26.4 15.6-26.4 11.7zm-232.9-49.6c-104.5-1.5-108.3-1.7-108.3-6 0.04837-4.6 4.862-6.5 15-5.7 3.352 0.2543 22.76 0.8872 43.12 1.407 91.61 2.336 110.4 3.012 129.8 4.68 21.78 1.869 23.94 2.253 23.94 4.259 0 2.483-10.16 2.611-103.6 1.303zm2638-53.1c-0.7922-2.064 2.077-7.166 5.421-9.638 6.584-4.868 1.07-5.696-38.53-5.783-12.63-0.0278-25.08-0.241-27.66-0.4739-5.183-0.4682-8.583-0.4967-18.18-0.1524-5.255 0.1885-6.833-0.1021-8.438-1.554-3.834-3.47-1.1-8.19 4.729-8.164 1.728 0.007 21.97 0.2883 44.98 0.6234 44.5 0.648 46.91 0.4645 44.83-3.416-4.232-7.907 1.002-8.844 17.66-3.162 21.2 7.232 22.7 9.986 8.635 15.85-8.658 3.608-8.119 3.279-22.75 13.88-5.204 3.77-9.7 4.605-10.7 1.987zm0-46.2c-3.776-0.6524-6.737-4.732-5.335-7.351 1.296-2.421 7.622-4.246 11.64-3.358 1.633 0.3606 10.77 0.5495 20.31 0.4199 9.539-0.1296 18.35-0.2292 19.57-0.2212 6.539 0.0425 8.288 8.293 2.245 10.59-2.553 0.9707-42.74 0.9039-48.44-0.0805zm-89.75-2.527c-3.152-1.325-4.066-3.107-3.255-6.339 0.8441-3.363 4.863-4.096 17.44-3.179 5.93 0.4326 17.21 0.7007 25.06 0.5959 17.79-0.2374 24.1 2.799 17.88 8.613-2.567 2.402-51.52 2.666-57.13 0.3082zm58.23-16.71c-0.8127-0.9792-0.9917-3.02-0.5754-6.562l0.6043-5.141h-24.73c-26.7 0-29.67-0.5626-29.67-5.625 0-4.973 2.475-5.37 30.47-4.88 28.58 0.5 30.44 0.1846 24-4.079-5.537-3.664-6.198-9.791-1.056-9.791 4.092 0 30.03 14.12 30.03 16.34 0 2.313-7.985 9.957-15.83 15.15-2.261 1.498-5.214 3.459-6.562 4.359-3.02 2.015-5.138 2.086-6.683 0.2242zm85.32-26.23c-0.902-2.372-0.2615-4.892 2.074-8.158 2.45-3.427 2.571-3.419-68.49-4.328l-50.01-0.6392-1.744-2.155c-1.815-2.242-1.575-4.582 0.6554-6.399 0.9419-0.7676 17.62-0.9284 61.28-0.5907 32.99 0.2552 59.98 0.1806 59.98-0.1658s-0.9492-2.286-2.109-4.31c-3.878-6.765 0.5359-9.322 8.912-5.164 24.3 12.06 25.22 13.76 12.17 22.44-3.473 2.311-8.837 5.914-11.92 8.006-6.552 4.447-9.514 4.847-10.8 1.46zm-166.7-3.469c-1.44-1.44-1.436-4.028 0.011-6.345 2.181-3.493-13.83-5.01-38.64-3.663-11.98 0.6508-14.48-0.0707-15.6-4.506-1.454-5.795 0.779-6.217 28.83-5.452 27.78 0.7579 28.57 0.5988 22.85-4.638-8.369-7.665 1.245-10.92 11.47-3.89 2.504 1.722 6.344 4.046 8.535 5.163 6.539 3.336 7.618 9.531 2.252 12.93-1.41 0.8928-5.061 3.851-8.114 6.574-5.64 5.031-9.221 6.211-11.61 3.826zm46.62-28.95c-1.236-1.236-1.712-2.52-1.302-3.516 1.743-4.234 1.499-4.345-11.28-5.122-6.703-0.4076-17.88-0.5045-24.84-0.2153-6.961 0.2892-13.88 0.5297-15.36 0.5343-3.578 0.0112-6.363-2.585-6.008-5.601 0.5517-4.692 2.444-4.938 33.24-4.309 30.78 0.6287 31.02 0.5877 26.08-4.499-3.914-4.03-3.986-4.743-0.7801-7.714 3.19-2.957 5.993-2.914 8.84 0.134 1.25 1.338 4.171 3.504 6.492 4.812 17.27 9.74 19 14.56 7.031 19.61-19.96 8.425-19.65 8.342-22.1 5.887zm56.8-7.254c-5.214-0.3286-8.204-2.347-7.782-5.255 0.5805-4.008 3.383-4.393 30.28-4.157 13.92 0.1222 26.84-0.1068 28.71-0.509 5.495-1.181 11.91 3.394 9.724 6.933-2.25 3.64-29.44 4.973-60.93 2.988zm-2722-137.3c-2.429-0.8904-2.515-6.39-0.1338-8.546 2.78-2.516 6.999-2.818 22.21-1.592 10.61 0.8551 15.63 0.8937 18.93 0.1457 2.474-0.5598 19.48-1.452 37.78-1.984 40.17-1.166 65.26-2.45 83.44-4.27 23.98-2.402 54.99-3.687 57.82-2.397 4.673 2.129 0.837 3.589-12.35 4.701-16.98 1.432-40.04 3.805-41.72 4.294-4.361 1.266-20.61 2.434-45.47 3.267-15.47 0.5184-31.18 1.207-34.92 1.53-7.229 0.6249-9.382 2.242-2.985 2.242 4.248 0 7.793 1.48 6.922 2.89-0.658 1.065-86.59 0.7947-89.52-0.2812zm342.2-7.6c0-0.6527 1.688-4.074 3.75-7.604 5.579-9.547 5.636-9.512-13.98-8.637-7.52 0.3356-33.29 0.7944-57.27 1.02-23.98 0.2253-54.14 0.6356-67.03 0.9119-81.5 1.8-212 2.1-213.5 0.6-0.541-0.5-1.365-3-1.832-5.4-2.518-13.4-2.881-13.3 33.01-12.2 11.6 0.3535 30.59 0.215 42.19-0.3077s39.87-1.388 62.81-1.924c22.95-0.5355 47.2-1.189 53.91-1.453 6.703-0.2636 46.99-0.6428 89.53-0.8426 88.99-0.418 83.77 0.0778 77-7.322-1.996-2.18-4.482-5.651-5.525-7.713s-2.786-4.554-3.872-5.536c-2.859-2.586-2.768-8.058 0.1346-8.057 2.395 0.00077 15.52 7.565 22.66 13.06 2.619 2.015 11.15 7.292 18.96 11.73 18.93 10.75 19.05 10.96 9.785 16.18-2.361 1.331-7.083 4.063-10.49 6.069-3.409 2.007-9.793 5.114-14.19 6.904-4.392 1.791-11.14 5.152-15 7.47-6.965 4.186-11.02 5.301-11.02 3.028zm-335.8-54.9c-8.224-0.8151-10.56-3.701-5.281-6.54 7.01-3.772 184.9 0.1862 186.2 4.144 0.6732 2.019-162.9 4.185-180.9 2.396z"/>
</svg>
