<svg width="100" height="100" viewBox="0 0 100 100" fill="none" xmlns="http://www.w3.org/2000/svg">
<path d="M65.625 29.4444C65.625 29.4444 41.875 35.3819 53.2639 48.4722C56.6319 52.3264 52.3958 55.7986 52.3958 55.7986C52.3958 55.7986 60.9028 51.4583 56.9444 45.9028C53.2639 40.7986 50.4861 38.2639 65.625 29.4444ZM50.1041 33.6111C64.1666 22.5 56.9444 15.2778 56.9444 15.2778C59.8611 26.7361 46.6666 30.2083 41.9097 37.3611C38.6458 42.2222 43.5069 47.4653 50 53.4722C47.5347 47.5694 38.8194 42.5 50.1041 33.6111ZM40.868 68.9931C30.1736 71.9792 47.3958 78.125 60.9722 72.3264C59.6528 71.8056 58.368 71.1806 57.1528 70.4514C52.4305 71.5278 47.5694 71.7361 42.7778 71.0764C38.2291 70.5208 40.868 68.9931 40.868 68.9931ZM59.3403 63.1597C53.2639 64.4792 46.9791 64.7917 40.7986 64.0625C36.25 63.6111 39.2361 61.3889 39.2361 61.3889C27.4305 65.3125 45.7639 69.7222 62.1528 64.9306C61.1458 64.5486 60.1736 63.8889 59.3403 63.1597ZM71.2153 74.6181C71.2153 74.6181 73.1944 76.25 69.0972 77.5C61.1805 79.8611 36.3541 80.5903 29.4791 77.6042C27.0139 76.5278 31.6666 75.0347 33.125 74.7222C33.9236 74.5139 34.7222 74.4444 35.5208 74.4444C32.7778 72.5694 17.7083 78.2639 27.9166 79.8611C55.5903 84.375 78.4028 77.7778 71.2153 74.6181ZM61.7014 57.7431C62.7083 57.0833 63.7847 56.5278 64.8958 56.0417C64.8958 56.0417 59.6528 56.9444 54.4097 57.4306C48.8541 57.9861 43.2639 58.0556 37.7083 57.6389C29.5486 56.5625 42.1875 53.4722 42.1875 53.4722C38.368 53.4722 34.618 54.375 31.2153 56.0764C24.0972 59.5486 48.9236 61.1111 61.7014 57.7431ZM64.8264 66.1458C64.7569 66.2847 64.6875 66.3889 64.5486 66.4931C81.9444 61.9444 75.5555 50.3819 67.2222 53.2639C66.7708 53.4722 66.3889 53.75 66.1458 54.1319C66.6319 53.9583 67.118 53.8194 67.6389 53.7153C71.8055 52.8819 77.7778 59.375 64.8264 66.1458ZM65.2778 82.1528C54.8264 83.9583 44.1319 84.0972 33.6111 82.6389C33.6111 82.6389 35.2083 83.9583 43.368 84.4792C55.868 85.2778 75.0694 84.0278 75.5208 78.125C75.625 78.1597 74.7222 80.3819 65.2778 82.1528Z" fill="black"/>
<path d="M65.625 29.4444C65.625 29.4444 41.875 35.3819 53.2639 48.4722C56.6319 52.3264 52.3958 55.7986 52.3958 55.7986C52.3958 55.7986 60.9028 51.4583 56.9444 45.9028C53.2639 40.7986 50.4861 38.2639 65.625 29.4444ZM50.1041 33.6111C64.1666 22.5 56.9444 15.2778 56.9444 15.2778C59.8611 26.7361 46.6666 30.2083 41.9097 37.3611C38.6458 42.2222 43.5069 47.4653 50 53.4722C47.5347 47.5694 38.8194 42.5 50.1041 33.6111ZM40.868 68.9931C30.1736 71.9792 47.3958 78.125 60.9722 72.3264C59.6528 71.8056 58.368 71.1806 57.1528 70.4514C52.4305 71.5278 47.5694 71.7361 42.7778 71.0764C38.2291 70.5208 40.868 68.9931 40.868 68.9931ZM59.3403 63.1597C53.2639 64.4792 46.9791 64.7917 40.7986 64.0625C36.25 63.6111 39.2361 61.3889 39.2361 61.3889C27.4305 65.3125 45.7639 69.7222 62.1528 64.9306C61.1458 64.5486 60.1736 63.8889 59.3403 63.1597ZM71.2153 74.6181C71.2153 74.6181 73.1944 76.25 69.0972 77.5C61.1805 79.8611 36.3541 80.5903 29.4791 77.6042C27.0139 76.5278 31.6666 75.0347 33.125 74.7222C33.9236 74.5139 34.7222 74.4444 35.5208 74.4444C32.7778 72.5694 17.7083 78.2639 27.9166 79.8611C55.5903 84.375 78.4028 77.7778 71.2153 74.6181ZM61.7014 57.7431C62.7083 57.0833 63.7847 56.5278 64.8958 56.0417C64.8958 56.0417 59.6528 56.9444 54.4097 57.4306C48.8541 57.9861 43.2639 58.0556 37.7083 57.6389C29.5486 56.5625 42.1875 53.4722 42.1875 53.4722C38.368 53.4722 34.618 54.375 31.2153 56.0764C24.0972 59.5486 48.9236 61.1111 61.7014 57.7431ZM64.8264 66.1458C64.7569 66.2847 64.6875 66.3889 64.5486 66.4931C81.9444 61.9444 75.5555 50.3819 67.2222 53.2639C66.7708 53.4722 66.3889 53.75 66.1458 54.1319C66.6319 53.9583 67.118 53.8194 67.6389 53.7153C71.8055 52.8819 77.7778 59.375 64.8264 66.1458ZM65.2778 82.1528C54.8264 83.9583 44.1319 84.0972 33.6111 82.6389C33.6111 82.6389 35.2083 83.9583 43.368 84.4792C55.868 85.2778 75.0694 84.0278 75.5208 78.125C75.625 78.1597 74.7222 80.3819 65.2778 82.1528Z" fill="url(#paint0_linear_188_1500)"/>
<rect x="0.5" y="0.5" width="99" height="99" rx="24.5" stroke="black"/>
<rect x="0.5" y="0.5" width="99" height="99" rx="24.5" stroke="url(#paint1_linear_188_1500)"/>
<defs>
<linearGradient id="paint0_linear_188_1500" x1="24.4121" y1="15.2778" x2="90.1236" y2="34.199" gradientUnits="userSpaceOnUse">
<stop stop-color="#FEB54E"/>
<stop offset="0.565625" stop-color="#F5921A"/>
<stop offset="1" stop-color="#D47307"/>
</linearGradient>
<linearGradient id="paint1_linear_188_1500" x1="0" y1="0" x2="120.652" y2="47.1298" gradientUnits="userSpaceOnUse">
<stop stop-color="#FEB54E"/>
<stop offset="0.565625" stop-color="#F5921A"/>
<stop offset="1" stop-color="#D47307"/>
</linearGradient>
</defs>
</svg>
