<svg xmlns="http://www.w3.org/2000/svg" viewBox="0 0 553.97 131.17"><defs><style>.a{fill:#1e363f;}.b{fill:#34ea63;}.c{fill:#ffa33e;}.d{fill:#ef3f65;}</style></defs><title>gemnasium_lineal_bright-back</title><path class="a" d="M51.26,128A9.87,9.87,0,0,1,48,121c0-5.45,6.32-7.78,6.62-7.3,2.53,5.64,7,9,15.18,9,8,0,12.55-4.09,14.3-12.16l1.07-5.26a18.37,18.37,0,0,1-15.57,7.59c-10.31,0-18.48-7.49-18.48-19.94,0-13.42,10-27,25.49-27,6.52,0,12.55,3,15.47,8.27,1.85-5.35,5-7.49,9.92-7.49,2.72,0,4.86,1.17,4.86,1.66l-9.15,42.61C94.55,126.22,86.48,134,69.35,134,59.82,134,54.47,131.18,51.26,128ZM88.33,91.2l1.36-6.62A11,11,0,0,0,78.6,76.7c-8.76,0-14.3,7.59-14.3,15.08,0,6.52,4.57,10.51,10.12,10.51A14.18,14.18,0,0,0,88.33,91.2Z" transform="translate(-2.96 -2.83)"/><path class="a" d="M107.3,95.48c0-17.22,13.23-29.58,29.87-29.58,12.06,0,18.78,5.64,18.78,13.91,0,9.73-6.23,15.57-27.34,15.57-2.92,0-6.13-.2-9.73-.39v.29c0,6.61,4.09,10.7,11.58,10.7a16.91,16.91,0,0,0,14-6.91c.2-.29,5.84.68,5.84,5.16,0,2.53-.78,3.89-2.63,5.84-3.6,3.5-9.24,5.64-17.42,5.64C114.7,115.71,107.3,107.15,107.3,95.48Zm13.33-8.86c2.53.2,4.77.29,6.81.29,13.23,0,16.93-3,16.93-6.71,0-2.53-2.63-5.06-7.78-5.06C129.39,75.14,123.46,80.11,120.63,86.62Z" transform="translate(-2.96 -2.83)"/><path class="a" d="M219.1,107.06c0-2.72.78-6.32,2.33-11.67,1.17-4.48,2-8.17,2-10.22,0-4.86-2.82-7.78-7-7.78s-7.2,1.85-10.22,6.32L201,108.42c-1.07,5-3.11,6.52-6.62,6.52h-1.46c-3.6,0-6.72-1.46-5.64-6.52l4.28-20.24c1.36-6.42-1.36-10.8-6.42-10.8-4.28,0-7.1,1.85-10.22,6.23l-5.26,24.81c-1.07,5.06-3.11,6.52-6.61,6.52H161.6c-3.7,0-6.71-1.46-5.64-6.52l8.66-40.86c.1-.29,1.65-.88,3.79-.88,3.8,0,7.49,2,7.59,8.08,3.89-5.64,9.34-8.86,15.86-8.86,6.91,0,12.26,4,13.82,10.31,3.89-6,9.53-10.31,17.51-10.31,9,0,14.69,6.62,14.69,15.37,0,3.41-1.17,8.07-2.72,13.91-1.36,4.77-2.34,8.56-2.34,10.51,0,2.72,1.36,3.79,3.89,4.18.29,0-.78,5.64-8.27,5.64C222,115.52,219.1,112.21,219.1,107.06Z" transform="translate(-2.96 -2.83)"/><path class="a" d="M260.85,75.14c3.8-5.74,9.34-9.24,16.34-9.24,9.73,0,15.37,6.32,15.37,15.37,0,3.41-1.17,8.07-2.82,13.91-1.26,4.77-2.24,8.56-2.24,10.51,0,2.72,1.26,3.79,3.89,4.18.2,0-.78,5.64-8.27,5.64-6.42,0-9.44-3.31-9.44-8.47,0-2.72.88-6.32,2.34-11.67,1.26-4.48,2.14-8.17,2.14-10.22,0-4.86-2.72-7.78-7.69-7.78-4.77,0-7.88,2.24-10.9,6.91l-5.06,24.13c-1.07,4.86-2.82,6.52-6.32,6.52h-1.46c-3.7,0-7-1.46-5.93-6.52l8.66-40.86c.1-.29,1.65-.88,3.79-.88C257.15,66.68,260.95,68.82,260.85,75.14Z" transform="translate(-2.96 -2.83)"/><path class="a" d="M331.68,105.79a19.91,19.91,0,0,1-17.13,9.92c-10.22,0-18-7.2-18-19.46,0-15.18,10.8-30.35,26.08-30.35,6.61,0,12.45,3.11,15.28,8.56,1.85-5.55,5-7.78,10-7.78,2.72,0,4.86,1.17,4.86,1.66l-7.39,34.44c-1.17,5.25-.2,7.2,3.5,7.88.1.1-.58,4.86-7.59,4.86S331.49,111.73,331.68,105.79Zm2.43-14.11,1.36-6.61c-1.65-5.16-5.06-8.47-11-8.47-9,0-14.59,9-14.59,17.71,0,6.52,4.18,10.51,9.63,10.51C326.53,104.82,332.56,99.17,334.12,91.68Z" transform="translate(-2.96 -2.83)"/><path class="a" d="M353.87,109.49a8.16,8.16,0,0,1-2.72-5.55c0-4.09,4.28-6.42,4.67-6A20.68,20.68,0,0,0,371.68,106c4.77,0,7.3-1.95,7.3-4.77,0-2.63-2.82-3.79-7.69-5.55-6.62-2.53-13.82-5.35-13.82-14,0-9.15,7.1-15.67,19.36-15.67,7.69,0,13.91,2.53,17.51,6a7.26,7.26,0,0,1,2.34,5.26c0,4.57-4.77,6.71-5.16,6.23a17.74,17.74,0,0,0-14.2-7.88c-4.67,0-7.1,2.24-7.1,4.77,0,2.72,2.92,3.89,8.56,6,7.2,2.72,14.2,5.74,14.2,13.91,0,9.14-7.1,15.27-19.94,15.27C364.09,115.62,357.38,113,353.87,109.49Z" transform="translate(-2.96 -2.83)"/><path class="a" d="M398.34,102.39l6.22-29.09c1.07-5,2.82-6.62,6.32-6.62h1.46c3.7,0,7,1.46,5.94,6.62L412,102.77c-1.07,5.25-.2,7.3,3.79,7.88.1.1-.68,4.86-8,4.86C398.93,115.52,396.69,110.07,398.34,102.39Zm9.82-49.13a7.61,7.61,0,0,1,8-8c4.86,0,7.59,2.43,7.59,5.94a7.66,7.66,0,0,1-8,8C410.89,59.19,408.17,56.76,408.17,53.25Z" transform="translate(-2.96 -2.83)"/><path class="a" d="M453.41,106.57c-3.89,5.74-9.44,9.14-16.34,9.14-11.87,0-17-8.66-14.3-21.69l4.38-20.72c1.07-5.06,2.92-6.62,6.32-6.62H435c3.6,0,7,1.46,5.84,6.62L436.58,93c-1.46,6.62,1.07,11.29,7.2,11.29,4.77,0,7.88-2.34,10.9-7l5.06-24c1.07-5.06,2.82-6.62,6.32-6.62h1.46c3.7,0,7,1.46,5.93,6.62l-6.23,29.48c-1.17,5.25-.29,7.2,3.41,7.88.2.1-.58,4.86-7.59,4.86C456.52,115.52,453.51,112,453.41,106.57Z" transform="translate(-2.96 -2.83)"/><path class="a" d="M538.16,107.06c0-2.72.78-6.32,2.33-11.67,1.17-4.48,2-8.17,2-10.22,0-4.86-2.82-7.78-7-7.78s-7.2,1.85-10.22,6.32l-5.25,24.71c-1.07,5-3.11,6.52-6.62,6.52H512c-3.6,0-6.72-1.46-5.64-6.52l4.28-20.24c1.36-6.42-1.36-10.8-6.42-10.8-4.28,0-7.1,1.85-10.22,6.23l-5.26,24.81c-1.07,5.06-3.11,6.52-6.61,6.52h-1.46c-3.7,0-6.71-1.46-5.64-6.52l8.66-40.86c.1-.29,1.65-.88,3.79-.88,3.8,0,7.49,2,7.59,8.08,3.89-5.64,9.34-8.86,15.86-8.86,6.91,0,12.26,4,13.82,10.31,3.89-6,9.53-10.31,17.51-10.31,9,0,14.69,6.62,14.69,15.37,0,3.41-1.17,8.07-2.72,13.91-1.36,4.77-2.34,8.56-2.34,10.51,0,2.72,1.36,3.79,3.89,4.18.29,0-.78,5.64-8.27,5.64C541.08,115.52,538.16,112.21,538.16,107.06Z" transform="translate(-2.96 -2.83)"/><path class="a" d="M3,16.91V37.36C3,46.18,10.56,55.8,19.37,55.8H23.3c7,19.26,26.9,10.89,26.9,10.89C34.3,66.24,40,54.19,46.6,55.8H64.75C73.58,55.8,80,46.18,80,37.36V16.91C80,8.08,73.58,2.83,64.75,2.83H19.38C10.56,2.83,3,8.08,3,16.91Z" transform="translate(-2.96 -2.83)"/><circle class="b" cx="21.06" cy="27.02" r="5.29"/><circle class="c" cx="38.52" cy="27.02" r="5.29"/><circle class="d" cx="55.98" cy="27.02" r="5.29"/></svg>