<?xml version="1.0" encoding="UTF-8"?>
<svg width="1280px" height="640px" viewBox="0 0 1280 640" version="1.1" xmlns="http://www.w3.org/2000/svg" xmlns:xlink="http://www.w3.org/1999/xlink">
    <!-- Generator: Sketch 61.2 (89653) - https://sketch.com -->
    <title>cover</title>
    <desc>Created with Sketch.</desc>
    <g id="cover" stroke="none" stroke-width="1" fill="none" fill-rule="evenodd">
        <g id="Group-3" transform="translate(83.000000, 94.000000)">
            <g id="Man" transform="translate(0.000000, 19.645805)">
                <g id="Group-2" transform="translate(35.500000, 34.645805)" stroke="#D8D8D8" stroke-linecap="square" stroke-width="4">
                    <line x1="29.5" y1="26.7083901" x2="95.5" y2="85.7083901" id="Line"></line>
                </g>
                <circle id="Oval" stroke="#D8D8D8" stroke-width="4" stroke-linecap="square" cx="36" cy="36" r="36"></circle>
                <g id="1-468" transform="translate(17.000000, 13.000000)">
                    <path d="M9,26 C6,26 5,19 5,12 C5,6 10,0 19,0 C28,0 33,6 33,12 C33,19 32,26 29,26" id="Path" fill="#F1B31C" fill-rule="nonzero"></path>
                    <path d="M0.1,49 L0.1,45.2 C0.1,40.2 5.1,36.2 10.1,36.2 C16.1,41.2 22.1,41.2 28.1,36.2 C33.1,36.2 38.1,40.2 38.1,45.2 L38.1,49 L0.1,49 Z" id="Path" fill="#D9614F" fill-rule="nonzero"></path>
                    <path d="M24.9,18 C24.9,19.1 24,20 22.9,20 C21.8,20 20.9,19.1 20.9,18 C20.9,16.9 21.8,16 22.9,16 C24,16 24.9,16.9 24.9,18" id="Path" fill="#040404" fill-rule="nonzero"></path>
                    <path d="M16.9,18 C16.9,19.1 16,20 14.9,20 C13.8,20 12.9,19.1 12.9,18 C12.9,16.9 13.8,16 14.9,16 C16,16 16.9,16.9 16.9,18" id="Path" fill="#040404" fill-rule="nonzero"></path>
                    <path d="M7.9,19 C7.8,27 12,33 18.9,33 C26,33 30,27 30,19 C30,14 27,9 27,9 C19,9 17,12 11,10 C11,10 8,14 7.9,19 Z" id="Path" fill="#FCEA2B" fill-rule="nonzero"></path>
                    <path d="M15.9,26.2 C18,27 20,27 21.9,26.2" id="Path" stroke="#040404" stroke-width="2" stroke-linecap="round" stroke-linejoin="round"></path>
                    <path d="M9,26 C6,26 5,19 5,12 C5,6 10,0 19,0 C28,0 33,6 33,12 C33,19 32,26 29,26" id="Path" stroke="#040404" stroke-width="2" stroke-linecap="round" stroke-linejoin="round"></path>
                    <path d="M0,48 L0,45 C0,40 5,36 10,36 C16,41 22,41 28,36 C33,36 38,40 38,45 L38,48" id="Path" stroke="#040404" stroke-width="2" stroke-linecap="round" stroke-linejoin="round"></path>
                    <path d="M24.9,18 C24.9,19.1 24,20 22.9,20 C21.8,20 20.9,19.1 20.9,18 C20.9,16.9 21.8,16 22.9,16 C24,16 24.9,16.9 24.9,18" id="Path" fill="#040404" fill-rule="nonzero"></path>
                    <path d="M16.9,18 C16.9,19.1 16,20 14.9,20 C13.8,20 12.9,19.1 12.9,18 C12.9,16.9 13.8,16 14.9,16 C16,16 16.9,16.9 16.9,18" id="Path" fill="#040404" fill-rule="nonzero"></path>
                    <path d="M7.9,19 C7.8,27 12.8,33 18.9,33 C24.9,33 30,27 30,19 C30,14 27,8 27,8 C19,8 17,11 11,9 C11,9 8,14 7.9,19 Z" id="Path" stroke="#040404" stroke-width="2" stroke-linejoin="round"></path>
                    <path d="M15.9,26.2 C18,27 20,27 21.9,26.2" id="Path" stroke="#040404" stroke-width="2" stroke-linecap="round" stroke-linejoin="round"></path>
                </g>
            </g>
            <g id="Man" transform="translate(226.500000, 224.645805)">
                <line x1="177.5" y1="81.354195" x2="127.5" y2="58.354195" id="Line" stroke="#D8D8D8" stroke-width="4" stroke-linecap="square"></line>
                <circle id="Oval" stroke="#D8D8D8" stroke-width="4" stroke-linecap="square" cx="210.5" cy="96" r="36"></circle>
                <g id="1-468" transform="translate(190.500000, 72.000000)">
                    <path d="M9,26 C6,26 5,19 5,12 C5,6 10,0 19,0 C28,0 33,6 33,12 C33,19 32,26 29,26" id="Path" fill="#F1B31C" fill-rule="nonzero"></path>
                    <path d="M0.1,49 L0.1,45.2 C0.1,40.2 5.1,36.2 10.1,36.2 C16.1,41.2 22.1,41.2 28.1,36.2 C33.1,36.2 38.1,40.2 38.1,45.2 L38.1,49 L0.1,49 Z" id="Path" fill="#E4805A" fill-rule="nonzero"></path>
                    <path d="M24.9,18 C24.9,19.1 24,20 22.9,20 C21.8,20 20.9,19.1 20.9,18 C20.9,16.9 21.8,16 22.9,16 C24,16 24.9,16.9 24.9,18" id="Path" fill="#040404" fill-rule="nonzero"></path>
                    <path d="M16.9,18 C16.9,19.1 16,20 14.9,20 C13.8,20 12.9,19.1 12.9,18 C12.9,16.9 13.8,16 14.9,16 C16,16 16.9,16.9 16.9,18" id="Path" fill="#040404" fill-rule="nonzero"></path>
                    <path d="M7.9,19 C7.8,27 12,33 18.9,33 C26,33 30,27 30,19 C30,14 27,9 27,9 C19,9 17,12 11,10 C11,10 8,14 7.9,19 Z" id="Path" fill="#FCEA2B" fill-rule="nonzero"></path>
                    <path d="M15.9,26.2 C18,27 20,27 21.9,26.2" id="Path" stroke="#040404" stroke-width="2" stroke-linecap="round" stroke-linejoin="round"></path>
                    <path d="M9,26 C6,26 5,19 5,12 C5,6 10,0 19,0 C28,0 33,6 33,12 C33,19 32,26 29,26" id="Path" stroke="#040404" stroke-width="2" stroke-linecap="round" stroke-linejoin="round"></path>
                    <path d="M0,48 L0,45 C0,40 5,36 10,36 C16,41 22,41 28,36 C33,36 38,40 38,45 L38,48" id="Path" stroke="#040404" stroke-width="2" stroke-linecap="round" stroke-linejoin="round"></path>
                    <path d="M24.9,18 C24.9,19.1 24,20 22.9,20 C21.8,20 20.9,19.1 20.9,18 C20.9,16.9 21.8,16 22.9,16 C24,16 24.9,16.9 24.9,18" id="Path" fill="#040404" fill-rule="nonzero"></path>
                    <path d="M16.9,18 C16.9,19.1 16,20 14.9,20 C13.8,20 12.9,19.1 12.9,18 C12.9,16.9 13.8,16 14.9,16 C16,16 16.9,16.9 16.9,18" id="Path" fill="#040404" fill-rule="nonzero"></path>
                    <path d="M7.9,19 C7.8,27 12.8,33 18.9,33 C24.9,33 30,27 30,19 C30,14 27,8 27,8 C19,8 17,11 11,9 C11,9 8,14 7.9,19 Z" id="Path" stroke="#040404" stroke-width="2" stroke-linejoin="round"></path>
                    <path d="M15.9,26.2 C18,27 20,27 21.9,26.2" id="Path" stroke="#040404" stroke-width="2" stroke-linecap="round" stroke-linejoin="round"></path>
                </g>
            </g>
            <g id="Men" transform="translate(56.000000, 224.645805)">
                <line x1="64" y1="100.354195" x2="77" y2="88.354195" id="Line" stroke="#D8D8D8" stroke-width="4" stroke-linecap="square"></line>
                <circle id="Oval" stroke="#D8D8D8" stroke-width="4" stroke-linecap="square" cx="36" cy="124" r="36"></circle>
                <g id="1-468" transform="translate(17.000000, 100.000000)">
                    <path d="M9,26 C6,26 5,19 5,12 C5,6 10,0 19,0 C28,0 33,6 33,12 C33,19 32,26 29,26" id="Path" fill="#F1B31C" fill-rule="nonzero"></path>
                    <path d="M0.1,49 L0.1,45.2 C0.1,40.2 5.1,36.2 10.1,36.2 C16.1,41.2 22.1,41.2 28.1,36.2 C33.1,36.2 38.1,40.2 38.1,45.2 L38.1,49 L0.1,49 Z" id="Path" fill="#92D3F5" fill-rule="nonzero"></path>
                    <path d="M24.9,18 C24.9,19.1 24,20 22.9,20 C21.8,20 20.9,19.1 20.9,18 C20.9,16.9 21.8,16 22.9,16 C24,16 24.9,16.9 24.9,18" id="Path" fill="#040404" fill-rule="nonzero"></path>
                    <path d="M16.9,18 C16.9,19.1 16,20 14.9,20 C13.8,20 12.9,19.1 12.9,18 C12.9,16.9 13.8,16 14.9,16 C16,16 16.9,16.9 16.9,18" id="Path" fill="#040404" fill-rule="nonzero"></path>
                    <path d="M7.9,19 C7.8,27 12,33 18.9,33 C26,33 30,27 30,19 C30,14 27,9 27,9 C19,9 17,12 11,10 C11,10 8,14 7.9,19 Z" id="Path" fill="#FCEA2B" fill-rule="nonzero"></path>
                    <path d="M15.9,26.2 C18,27 20,27 21.9,26.2" id="Path" stroke="#040404" stroke-width="2" stroke-linecap="round" stroke-linejoin="round"></path>
                    <path d="M9,26 C6,26 5,19 5,12 C5,6 10,0 19,0 C28,0 33,6 33,12 C33,19 32,26 29,26" id="Path" stroke="#040404" stroke-width="2" stroke-linecap="round" stroke-linejoin="round"></path>
                    <path d="M0,48 L0,45 C0,40 5,36 10,36 C16,41 22,41 28,36 C33,36 38,40 38,45 L38,48" id="Path" stroke="#040404" stroke-width="2" stroke-linecap="round" stroke-linejoin="round"></path>
                    <path d="M24.9,18 C24.9,19.1 24,20 22.9,20 C21.8,20 20.9,19.1 20.9,18 C20.9,16.9 21.8,16 22.9,16 C24,16 24.9,16.9 24.9,18" id="Path" fill="#040404" fill-rule="nonzero"></path>
                    <path d="M16.9,18 C16.9,19.1 16,20 14.9,20 C13.8,20 12.9,19.1 12.9,18 C12.9,16.9 13.8,16 14.9,16 C16,16 16.9,16.9 16.9,18" id="Path" fill="#040404" fill-rule="nonzero"></path>
                    <path d="M7.9,19 C7.8,27 12.8,33 18.9,33 C24.9,33 30,27 30,19 C30,14 27,8 27,8 C19,8 17,11 11,9 C11,9 8,14 7.9,19 Z" id="Path" stroke="#040404" stroke-width="2" stroke-linejoin="round"></path>
                    <path d="M15.9,26.2 C18,27 20,27 21.9,26.2" id="Path" stroke="#040404" stroke-width="2" stroke-linecap="round" stroke-linejoin="round"></path>
                </g>
            </g>
            <g id="Women" transform="translate(227.000000, 226.645805)">
                <line x1="34" y1="154.354195" x2="29" y2="130.354195" id="Line" stroke="#D8D8D8" stroke-width="4" stroke-linecap="square"></line>
                <circle id="Oval" stroke="#D8D8D8" stroke-width="4" stroke-linecap="square" cx="41" cy="190" r="36"></circle>
                <g id="1-467" transform="translate(20.000000, 164.000000)">
                    <path d="M35.6,34.7 C38.5,31.6 39.3,27.9 37.6,23.9 C35.2,18.2 34.6,18.3 34.2,11.1 C34.2,6.9 31,3.4 26.8,3.1 C26.8,3.1 24.2,0.1 18.8,0.1 C12.4,0.1 6.6,3.6 5.1,9.1 C3.6,14.7 5.4,16.9 3.8,21.1 C2,25.8 -2,29.5 2.5,35 C5.3,38.5 11.7,42.1 19.7,42.1 C25.7,42 32.6,37.9 35.6,34.7 Z" id="Path" fill="#F1B31C" fill-rule="nonzero"></path>
                    <path d="M1,48.9 L1,45 C1,40 4.8,36 9.8,36 C15.8,41 21.8,41 27.8,36 C32.8,36 37,40 37,45 L37,48.9 L1,48.9 Z" id="Path" fill="#FDE071" fill-rule="nonzero"></path>
                    <path d="M8,20 C8,28 12.8,32.9 18.8,32.9 C24.8,32.9 30,28 30,20 C30,16 29,14 29,14 C27,12 25,10 25,10 C25,10 13,12 9,14 C9,14 8,16 8,20 Z" id="Path" fill="#FCEA2B" fill-rule="nonzero"></path>
                    <path d="M1,48 L1,44.9 C1,39.9 4.8,35.9 9.8,35.9 C15.8,40.9 21.8,40.9 27.8,35.9 C32.8,35.9 37,39.9 37,44.9 L37,48" id="Path" stroke="#040404" stroke-width="2" stroke-linecap="round" stroke-linejoin="round"></path>
                    <path d="M25,19 C25,20.1 24.1,21 23,21 C21.9,21 21,20.1 21,19 C21,17.9 21.9,17 23,17 C24.1,17 25,17.9 25,19" id="Path" fill="#040404" fill-rule="nonzero"></path>
                    <path d="M17,19 C17,20.1 16.1,21 15,21 C13.9,21 13,20.1 13,19 C13,17.9 13.9,17 15,17 C16.1,17 17,17.9 17,19" id="Path" fill="#040404" fill-rule="nonzero"></path>
                    <path d="M8,20 C8,28 12.8,32.9 18.8,32.9 C24.8,32.9 30,28 30,20 C30,16 29,14 29,14 C27,12 25,10 25,10 C25,10 13,12 9,14 C9,14 8,16 8,20 Z" id="Path" stroke="#040404" stroke-width="2" stroke-linejoin="round"></path>
                    <path d="M15.8,26.2 C17.7,27.2 19.9,27.2 21.8,26.2" id="Path" stroke="#040404" stroke-width="2" stroke-linecap="round" stroke-linejoin="round"></path>
                    <path d="M3,34 C-1,28 1.2,25.7 3.1,21 C4.7,16.8 2.9,14.5 4.4,9 C5.9,3.5 11.7,0 18.1,0 C23.5,0 26.1,3 26.1,3 C30.3,3.4 33.5,6.9 33.5,11 C33.9,18.2 34.5,18.2 36.9,23.8 C38.7,27.9 37.9,30.6 35,33.9" id="Path" stroke="#040404" stroke-width="2" stroke-linecap="round" stroke-linejoin="round"></path>
                </g>
            </g>
            <g id="Women" transform="translate(225.000000, 0.000000)">
                <line x1="64" y1="70" x2="53" y2="98" id="Line" stroke="#D8D8D8" stroke-width="4" stroke-linecap="square"></line>
                <circle id="Oval" stroke="#D8D8D8" stroke-width="4" stroke-linecap="square" cx="77" cy="36" r="36"></circle>
                <g id="1-467" transform="translate(58.000000, 12.000000)">
                    <path d="M35.6,34.7 C38.5,31.6 39.3,27.9 37.6,23.9 C35.2,18.2 34.6,18.3 34.2,11.1 C34.2,6.9 31,3.4 26.8,3.1 C26.8,3.1 24.2,0.1 18.8,0.1 C12.4,0.1 6.6,3.6 5.1,9.1 C3.6,14.7 5.4,16.9 3.8,21.1 C2,25.8 -2,29.5 2.5,35 C5.3,38.5 11.7,42.1 19.7,42.1 C25.7,42 32.6,37.9 35.6,34.7 Z" id="Path" fill="#F1B31C" fill-rule="nonzero"></path>
                    <path d="M1,48.9 L1,45 C1,40 4.8,36 9.8,36 C15.8,41 21.8,41 27.8,36 C32.8,36 37,40 37,45 L37,48.9 L1,48.9 Z" id="Path" fill="#92D3F5" fill-rule="nonzero"></path>
                    <path d="M8,20 C8,28 12.8,32.9 18.8,32.9 C24.8,32.9 30,28 30,20 C30,16 29,14 29,14 C27,12 25,10 25,10 C25,10 13,12 9,14 C9,14 8,16 8,20 Z" id="Path" fill="#FCEA2B" fill-rule="nonzero"></path>
                    <path d="M1,48 L1,44.9 C1,39.9 4.8,35.9 9.8,35.9 C15.8,40.9 21.8,40.9 27.8,35.9 C32.8,35.9 37,39.9 37,44.9 L37,48" id="Path" stroke="#040404" stroke-width="2" stroke-linecap="round" stroke-linejoin="round"></path>
                    <path d="M25,19 C25,20.1 24.1,21 23,21 C21.9,21 21,20.1 21,19 C21,17.9 21.9,17 23,17 C24.1,17 25,17.9 25,19" id="Path" fill="#040404" fill-rule="nonzero"></path>
                    <path d="M17,19 C17,20.1 16.1,21 15,21 C13.9,21 13,20.1 13,19 C13,17.9 13.9,17 15,17 C16.1,17 17,17.9 17,19" id="Path" fill="#040404" fill-rule="nonzero"></path>
                    <path d="M8,20 C8,28 12.8,32.9 18.8,32.9 C24.8,32.9 30,28 30,20 C30,16 29,14 29,14 C27,12 25,10 25,10 C25,10 13,12 9,14 C9,14 8,16 8,20 Z" id="Path" stroke="#040404" stroke-width="2" stroke-linejoin="round"></path>
                    <path d="M15.8,26.2 C17.7,27.2 19.9,27.2 21.8,26.2" id="Path" stroke="#040404" stroke-width="2" stroke-linecap="round" stroke-linejoin="round"></path>
                    <path d="M3,34 C-1,28 1.2,25.7 3.1,21 C4.7,16.8 2.9,14.5 4.4,9 C5.9,3.5 11.7,0 18.1,0 C23.5,0 26.1,3 26.1,3 C30.3,3.4 33.5,6.9 33.5,11 C33.9,18.2 34.5,18.2 36.9,23.8 C38.7,27.9 37.9,30.6 35,33.9" id="Path" stroke="#040404" stroke-width="2" stroke-linecap="round" stroke-linejoin="round"></path>
                </g>
            </g>
            <g id="Women" transform="translate(225.000000, 98.000000)">
                <line x1="144" y1="54" x2="126" y2="63" id="Line" stroke="#D8D8D8" stroke-width="4" stroke-linecap="square"></line>
                <circle id="Oval" stroke="#D8D8D8" stroke-width="4" stroke-linecap="square" cx="177" cy="36.645805" r="36"></circle>
                <g id="1-467" transform="translate(158.000000, 12.645805)">
                    <path d="M35.6,34.7 C38.5,31.6 39.3,27.9 37.6,23.9 C35.2,18.2 34.6,18.3 34.2,11.1 C34.2,6.9 31,3.4 26.8,3.1 C26.8,3.1 24.2,0.1 18.8,0.1 C12.4,0.1 6.6,3.6 5.1,9.1 C3.6,14.7 5.4,16.9 3.8,21.1 C2,25.8 -2,29.5 2.5,35 C5.3,38.5 11.7,42.1 19.7,42.1 C25.7,42 32.6,37.9 35.6,34.7 Z" id="Path" fill="#F1B31C" fill-rule="nonzero"></path>
                    <path d="M1,48.9 L1,45 C1,40 4.8,36 9.8,36 C15.8,41 21.8,41 27.8,36 C32.8,36 37,40 37,45 L37,48.9 L1,48.9 Z" id="Path" fill="#D9614F" fill-rule="nonzero"></path>
                    <path d="M8,20 C8,28 12.8,32.9 18.8,32.9 C24.8,32.9 30,28 30,20 C30,16 29,14 29,14 C27,12 25,10 25,10 C25,10 13,12 9,14 C9,14 8,16 8,20 Z" id="Path" fill="#FCEA2B" fill-rule="nonzero"></path>
                    <path d="M1,48 L1,44.9 C1,39.9 4.8,35.9 9.8,35.9 C15.8,40.9 21.8,40.9 27.8,35.9 C32.8,35.9 37,39.9 37,44.9 L37,48" id="Path" stroke="#040404" stroke-width="2" stroke-linecap="round" stroke-linejoin="round"></path>
                    <path d="M25,19 C25,20.1 24.1,21 23,21 C21.9,21 21,20.1 21,19 C21,17.9 21.9,17 23,17 C24.1,17 25,17.9 25,19" id="Path" fill="#040404" fill-rule="nonzero"></path>
                    <path d="M17,19 C17,20.1 16.1,21 15,21 C13.9,21 13,20.1 13,19 C13,17.9 13.9,17 15,17 C16.1,17 17,17.9 17,19" id="Path" fill="#040404" fill-rule="nonzero"></path>
                    <path d="M8,20 C8,28 12.8,32.9 18.8,32.9 C24.8,32.9 30,28 30,20 C30,16 29,14 29,14 C27,12 25,10 25,10 C25,10 13,12 9,14 C9,14 8,16 8,20 Z" id="Path" stroke="#040404" stroke-width="2" stroke-linejoin="round"></path>
                    <path d="M15.8,26.2 C17.7,27.2 19.9,27.2 21.8,26.2" id="Path" stroke="#040404" stroke-width="2" stroke-linecap="round" stroke-linejoin="round"></path>
                    <path d="M3,34 C-1,28 1.2,25.7 3.1,21 C4.7,16.8 2.9,14.5 4.4,9 C5.9,3.5 11.7,0 18.1,0 C23.5,0 26.1,3 26.1,3 C30.3,3.4 33.5,6.9 33.5,11 C33.9,18.2 34.5,18.2 36.9,23.8 C38.7,27.9 37.9,30.6 35,33.9" id="Path" stroke="#040404" stroke-width="2" stroke-linecap="round" stroke-linejoin="round"></path>
                </g>
            </g>
            <g id="JuiceShop" transform="translate(109.000000, 99.645805)">
                <circle id="Oval" stroke="#D8D8D8" stroke-width="4" fill="#FFFFFF" cx="125" cy="125" r="125"></circle>
                <g id="logo" transform="translate(47.000000, 37.000000)">
                    <g id="Layer_3" transform="translate(0.000000, 122.000000)" fill="#CF3A23">
                        <path d="M156.753714,26.1159385 C159.264665,3.38012849 124.111646,-0.478759777 80.8645878,0.225653631 C43.8118387,0.829005587 35.6148807,8.00436872 23.3648359,22.6575251 C15.0483302,32.6054413 0.121195611,33.4100112 0.121195611,42.5607486 C0.121195611,54.4268715 35.0145954,43.2828101 67.532771,45.2940838 C83.2615344,46.266838 90.3524513,55.2314413 104.33474,53.8278939 C115.48129,52.7089777 110.523805,48.2928939 128.004587,42.0587598 C143.072392,36.6851564 155.446629,37.9523464 156.753714,26.1159385 Z" id="Path"></path>
                    </g>
                    <g id="Layer_4" transform="translate(21.000000, 122.000000)">
                        <path d="M135.754573,26.1159385 C138.256764,3.38012849 103.215491,-0.981050279 60.130213,0.225653631 C51.5041405,0.467296089 83.0636048,20.4468436 77.2653172,22.6575251 C72.5480132,24.4561173 46.7940022,25.5670391 34.2539363,22.6575251 C22.7557409,19.9898045 10.7071262,31.3878771 7.64093085,35.5223464 C-2.84375851,49.6593352 21.6093699,31.2264804 52.7654621,40.4496201 C68.3908321,45.0752179 69.5849748,55.2314413 83.5184808,53.8278939 C94.6261427,52.7089777 89.6859539,48.2928939 107.105748,42.0587598 C122.120984,36.6851564 134.452048,37.9523464 135.754573,26.1159385 Z" id="Path" fill="#DD6031"></path>
                        <path d="M125.270332,29.4826425 C122.772918,28.8863799 124.984299,26.622905 125.746854,23.3610335 C126.509409,20.099162 125.534718,17.0750112 128.032281,17.6709721 C130.529695,18.2672346 131.935824,21.3945587 131.17312,24.6564302 C130.410564,27.918 127.767745,30.0787542 125.270332,29.4826425 Z" id="Path" fill="#FFFFFF"></path>
                        <ellipse id="Oval" fill="#DD6031" cx="36.8913809" cy="19.9232849" rx="4.52830735" ry="2.04928492"></ellipse>
                        <ellipse id="Oval" fill="#DD6031" cx="42.4148321" cy="16.2150838" rx="2.68715697" ry="1"></ellipse>
                        <ellipse id="Oval" fill="#DD6031" cx="2.15733919" cy="43.0140168" rx="2.13972338" ry="1.45830168"></ellipse>
                        <ellipse id="Oval" fill="#FFFFFF" cx="118.613199" cy="31.567676" rx="2.87376509" ry="2.43905028"></ellipse>
                        <ellipse id="Oval" fill="#CF3A23" transform="translate(76.121281, 47.937098) rotate(18.663247) translate(-76.121281, -47.937098) " cx="76.1212814" cy="47.9370983" rx="6.22280836" ry="2.81018843"></ellipse>
                        <ellipse id="Oval" fill="#CF3A23" transform="translate(84.916098, 45.566353) rotate(18.663247) translate(-84.916098, -45.566353) " cx="84.9160976" cy="45.5663534" rx="3.69273513" ry="1"></ellipse>
                    </g>
                    <g id="Juice_Box" transform="translate(52.000000, 0.000000)">
                        <polygon id="Path" fill="#FDD84E" points="25.6015288 0.104597523 71.7548654 5.81092363 72.5496875 11.8962848 92.9326346 38.6124974 46.755601 40.8264035 25.1025481 8.92146543"></polygon>
                        <polygon id="Path" fill="#CCA941" points="28.4343029 13.7916099 47.5110769 41.674257 2.99850481 37.8675955 1.79829808 37.6769556"></polygon>
                        <polygon id="Path" fill="#BF8C3A" points="25.6015288 0.104597523 23.5777356 0.104597523 23.4664038 8.90335913 0.116846154 37.5591899 1.79829808 37.6769556 28.4343029 13.7916099 25.1025481 8.92146543"></polygon>
                        <path d="M63.9170817,23.7750619 C65.4857115,25.1381218 70.3884808,28.4812023 73.1164808,25.9548504 C73.1164808,25.9548504 68.9997404,30.4824716 68.1268221,31.4950774 C66.5443317,33.3308462 62.4255048,32.3550516 58.9274231,29.315289 C55.4294904,26.275676 53.8769567,22.3231166 55.4595962,20.4871981 C56.00925,19.8497368 60.4492548,14.9469711 60.4492548,14.9469711 C58.7634808,17.1336429 61.6339615,21.791001 63.9170817,23.7750619 Z" id="Path" fill="#712012"></path>
                        <ellipse id="Oval" fill="#CF3A23" transform="translate(66.778073, 20.452623) rotate(-49.124009) translate(-66.778073, -20.452623) " cx="66.7780728" cy="20.4526233" rx="4.38870548" ry="8.39085407"></ellipse>
                        <polygon id="Path" fill="#CCA941" points="8.463 133.003607 46.4350192 144.881935 84.6413269 134.151486 92.9326346 38.6124974 46.755601 40.8264035 0.116846154 37.5591899"></polygon>
                        <polygon id="Path" fill="#FDD84E" points="80.5976154 131.158261 46.755601 140.136589 47.5168894 44.6264809 88.7947308 42.422451"></polygon>
                    </g>
                    <g id="Layer_5" transform="translate(67.000000, 57.000000)" fill="#FFFFFF">
                        <polygon id="Path" points="63.2010354 60.0571435 36.6420708 65.8929567 36.6420708 54.74918 55.5310265 49.9385467 55.4404602 40.6170615 36.9739469 44.7265011 37.4779292 2.53070159 67.9905221 0.0879498861 67.0783894 11.5080547 46.3135664 14.4255854 46.2240531 31.4964328 65.7534425 28.0952528"></polygon>
                        <polygon id="Path" points="0.912283186 60.0571435 27.4713982 65.8929567 27.4713982 54.74918 27.1393717 44.7265011 26.6353894 2.53070159 17.3186372 1.82695216 17.7997522 14.4255854 18.221292 54.2482415 0.144424779 50.4414396"></polygon>
                    </g>
                    <g id="Layer_7" transform="translate(72.000000, 59.000000)">
                        <path d="M0.117090909,3.42692881 C0.117090909,1.54686102 0.817545455,0.0226711864 1.68168831,0.0226711864 L3.50705195,0.0226711864 C4.37104545,0.0226711864 5.0717987,1.54671186 5.0717987,3.42692881 L5.0717987,81.5382644 C5.0717987,83.4181831 4.37119481,84.9422237 3.50705195,84.9422237 L1.68168831,84.9422237 C0.817694805,84.9422237 0.117090909,83.4180339 0.117090909,81.5382644 L0.117090909,3.42692881 Z" id="Path" fill="#CF3A23"></path>
                        <path d="M41.0445455,53.1749695 C41.0445455,52.3735729 41.745,51.7238644 42.6091429,51.7238644 L44.4345065,51.7238644 C45.2985,51.7238644 45.9992532,52.3734237 45.9992532,53.1749695 L45.9992532,78.0810576 L45.9992532,80.3763661 L45.9992532,86.4738712 C45.9992532,87.2752678 45.2986494,87.9251254 44.4345065,87.9251254 L42.6091429,87.9251254 C41.7451494,87.9251254 41.0445455,87.2752678 41.0445455,86.4738712 L41.0445455,81.7603525 L41.0445455,79.6471593 L41.0445455,53.1749695 Z" id="Path" fill="#DD6031"></path>
                    </g>
                    <g id="Layer_6" transform="translate(2.000000, 17.000000)">
                        <path d="M39.8592569,0.00791517324 C39.8592569,0.00791517324 40.2533955,0.245519713 38.4996141,1.67906213 C36.7458326,3.11260454 36.0674392,3.10737754 36.0674392,3.10737754 L71.2748987,45.6238053 C71.2748987,45.6238053 72.8045533,46.0721326 74.091291,44.9770012 C75.3780288,43.8818698 75.3031695,42.8098865 75.3031695,42.8098865 L39.8592569,0.00791517324 Z" id="Path" fill="#050402"></path>
                        <path d="M140.030136,120.974462 L115.767013,91.6741338 C115.767013,91.6741338 115.03736,91.4090502 113.083203,92.2189367 C111.261777,92.9741637 111.523334,94.2280466 111.523334,94.2280466 L136.238319,124.073925 L140.967531,124.999701 L140.030136,120.974462 Z" id="Path" fill="#050402"></path>
                        <g id="Group" transform="translate(0.000000, 2.986858)" fill-rule="nonzero">
                            <polygon id="Path" fill="#712012" points="8.96492431 37.2979391 0.0637356077 52.5341995 30.2571269 72.6142473 39.8777463 57.8260155"></polygon>
                            <path d="M2.85246908,38.0053763 C2.85246908,38.0053763 10.9718443,26.5141876 17.0922665,19.765681 C23.2129893,13.0171744 36.0672889,0.120669056 36.0672889,0.120669056 L61.4157217,30.7314815 C61.4157217,30.7314815 49.2300448,40.3015233 45.1503646,44.3615591 C41.0706844,48.421595 32.0853166,60.0008961 32.0853166,60.0008961 L2.85246908,38.0053763 Z" id="Path" fill="#CF3A23"></path>
                        </g>
                    </g>
                </g>
            </g>
        </g>
        <g id="Group-4" transform="translate(654.000000, 234.000000)" fill-rule="nonzero">
            <g id="MultiJuicer" transform="translate(2.406250, 0.515625)">
                <path d="M16.40625,74.484375 L16.40625,44.71875 C16.40625,40.0625 16.078125,33.53125 15.421875,25.125 L15.421875,25.125 L15.84375,25.125 L29.859375,74.484375 L47.484375,74.484375 L61.3125,25.21875 L61.734375,25.21875 C61.359375,32.65625 61.1484375,37.328125 61.1015625,39.234375 C61.0546875,41.140625 61.03125,42.875 61.03125,44.4375 L61.03125,44.4375 L61.03125,74.484375 L78.046875,74.484375 L78.046875,5.953125 L53.34375,5.953125 L39.328125,54.609375 L38.953125,54.609375 L24.65625,5.953125 L0,5.953125 L0,74.484375 L16.40625,74.484375 Z M110.15625,75.421875 C113.84375,75.421875 117.054688,74.7734375 119.789062,73.4765625 C122.523438,72.1796875 124.65625,70.3125 126.1875,67.875 L126.1875,67.875 L127.265625,67.875 L129.5625,74.484375 L143.390625,74.484375 L143.390625,21.375 L125.0625,21.375 L125.0625,44.625 C125.0625,50.53125 124.390625,54.7265625 123.046875,57.2109375 C121.703125,59.6953125 119.453125,60.9375 116.296875,60.9375 C114.046875,60.9375 112.429688,60.046875 111.445312,58.265625 C110.460938,56.484375 109.96875,53.859375 109.96875,50.390625 L109.96875,50.390625 L109.96875,21.375 L91.640625,21.375 L91.640625,55.96875 C91.640625,62.15625 93.265625,66.9453125 96.515625,70.3359375 C99.765625,73.7265625 104.3125,75.421875 110.15625,75.421875 Z M174.375,74.484375 L174.375,1.546875 L156.046875,1.546875 L156.046875,74.484375 L174.375,74.484375 Z M207.046875,75.421875 C210.046875,75.421875 212.664062,75.1953125 214.898438,74.7421875 C217.132812,74.2890625 219.484375,73.53125 221.953125,72.46875 L221.953125,72.46875 L221.953125,59.109375 C218.515625,60.328125 215.5625,60.9375 213.09375,60.9375 C209.78125,60.9375 208.125,59.21875 208.125,55.78125 L208.125,55.78125 L208.125,35.109375 L221.15625,35.109375 L221.15625,21.375 L208.125,21.375 L208.125,10.734375 L196.125,10.734375 L191.390625,21.890625 L183.234375,27.65625 L183.234375,35.109375 L189.65625,35.109375 L189.65625,57 C189.65625,63.25 191.015625,67.8828125 193.734375,70.8984375 C196.453125,73.9140625 200.890625,75.421875 207.046875,75.421875 Z M240.5625,16.21875 C247.09375,16.21875 250.359375,13.53125 250.359375,8.15625 C250.359375,5.46875 249.578125,3.4375 248.015625,2.0625 C246.453125,0.6875 243.96875,0 240.5625,0 C237.15625,0 234.6875,0.671875 233.15625,2.015625 C231.625,3.359375 230.859375,5.40625 230.859375,8.15625 C230.859375,13.53125 234.09375,16.21875 240.5625,16.21875 Z M249.65625,74.484375 L249.65625,21.375 L231.328125,21.375 L231.328125,74.484375 L249.65625,74.484375 Z" id="Multi" fill="#CF3A23"></path>
                <path d="M258.140625,96 C266.265625,96 272.359375,93.6171875 276.421875,88.8515625 C280.484375,84.0859375 282.515625,77.0625 282.515625,67.78125 L282.515625,67.78125 L282.515625,5.953125 L263.90625,5.953125 L263.90625,69.375 C263.90625,73.84375 263.25,77 261.9375,78.84375 C260.625,80.6875 258.4375,81.609375 255.375,81.609375 C254.0625,81.609375 252.84375,81.4921875 251.71875,81.2578125 C250.59375,81.0234375 249.53125,80.8125 248.53125,80.625 L248.53125,80.625 L248.53125,95.015625 C251.5625,95.671875 254.765625,96 258.140625,96 Z M314.671875,75.421875 C318.359375,75.421875 321.570312,74.7734375 324.304688,73.4765625 C327.039062,72.1796875 329.171875,70.3125 330.703125,67.875 L330.703125,67.875 L331.78125,67.875 L334.078125,74.484375 L347.90625,74.484375 L347.90625,21.375 L329.578125,21.375 L329.578125,44.625 C329.578125,50.53125 328.90625,54.7265625 327.5625,57.2109375 C326.21875,59.6953125 323.96875,60.9375 320.8125,60.9375 C318.5625,60.9375 316.945312,60.046875 315.960938,58.265625 C314.976562,56.484375 314.484375,53.859375 314.484375,50.390625 L314.484375,50.390625 L314.484375,21.375 L296.15625,21.375 L296.15625,55.96875 C296.15625,62.15625 297.78125,66.9453125 301.03125,70.3359375 C304.28125,73.7265625 308.828125,75.421875 314.671875,75.421875 Z M369.890625,16.21875 C376.421875,16.21875 379.6875,13.53125 379.6875,8.15625 C379.6875,5.46875 378.90625,3.4375 377.34375,2.0625 C375.78125,0.6875 373.296875,0 369.890625,0 C366.484375,0 364.015625,0.671875 362.484375,2.015625 C360.953125,3.359375 360.1875,5.40625 360.1875,8.15625 C360.1875,13.53125 363.421875,16.21875 369.890625,16.21875 Z M378.984375,74.484375 L378.984375,21.375 L360.65625,21.375 L360.65625,74.484375 L378.984375,74.484375 Z M415.96875,75.421875 C422.59375,75.421875 428.265625,73.859375 432.984375,70.734375 L432.984375,70.734375 L432.984375,56.15625 C428.046875,59.28125 422.890625,60.84375 417.515625,60.84375 C411.234375,60.84375 408.09375,56.59375 408.09375,48.09375 C408.09375,43.875 408.90625,40.609375 410.53125,38.296875 C412.15625,35.984375 414.453125,34.828125 417.421875,34.828125 C419.453125,34.828125 421.40625,35.1171875 423.28125,35.6953125 C425.15625,36.2734375 427.203125,37.046875 429.421875,38.015625 L429.421875,38.015625 L434.8125,24.46875 C429.375,21.78125 423.578125,20.4375 417.421875,20.4375 C408.484375,20.4375 401.59375,22.859375 396.75,27.703125 C391.90625,32.546875 389.484375,39.375 389.484375,48.1875 C389.484375,56.96875 391.726562,63.703125 396.210938,68.390625 C400.695312,73.078125 407.28125,75.421875 415.96875,75.421875 Z M469.171875,75.421875 C473.421875,75.421875 477.078125,75.140625 480.140625,74.578125 C483.203125,74.015625 486.171875,73 489.046875,71.53125 L489.046875,71.53125 L489.046875,58.359375 C485.890625,59.828125 482.960938,60.8671875 480.257812,61.4765625 C477.554688,62.0859375 474.59375,62.390625 471.375,62.390625 C467.84375,62.390625 465.054688,61.546875 463.007812,59.859375 C460.960938,58.171875 459.875,55.84375 459.75,52.875 L459.75,52.875 L492.515625,52.875 L492.515625,44.71875 C492.515625,36.875 490.335938,30.8671875 485.976562,26.6953125 C481.617188,22.5234375 475.4375,20.4375 467.4375,20.4375 C459.03125,20.4375 452.5625,22.8359375 448.03125,27.6328125 C443.5,32.4296875 441.234375,39.3125 441.234375,48.28125 C441.234375,56.96875 443.679688,63.6640625 448.570312,68.3671875 C453.460938,73.0703125 460.328125,75.421875 469.171875,75.421875 Z M475.875,41.34375 L460.125,41.34375 C460.375,38.4375 461.226562,36.3046875 462.679688,34.9453125 C464.132812,33.5859375 465.9375,32.90625 468.09375,32.90625 C470.4375,32.90625 472.304688,33.671875 473.695312,35.203125 C475.085938,36.734375 475.8125,38.78125 475.875,41.34375 L475.875,41.34375 Z M521.203125,74.484375 L521.203125,48.375 C521.203125,44.9375 522.109375,42.3046875 523.921875,40.4765625 C525.734375,38.6484375 528.640625,37.734375 532.640625,37.734375 C535.296875,37.734375 537.375,37.921875 538.875,38.296875 L538.875,38.296875 L540.515625,21 L539.484375,20.8125 C538.046875,20.5625 536.53125,20.4375 534.9375,20.4375 C532.15625,20.4375 529.398438,21.3046875 526.664062,23.0390625 C523.929688,24.7734375 521.796875,27.046875 520.265625,29.859375 L520.265625,29.859375 L519.375,29.859375 L516.515625,21.375 L502.875,21.375 L502.875,74.484375 L521.203125,74.484375 Z" id="Juicer" fill="#872B12"></path>
            </g>
            <path d="M4.71972656,130 L4.71972656,117.739258 C4.71972656,115.875977 4.65820312,114.267578 4.53515625,112.914062 L4.53515625,112.914062 L4.640625,112.914062 L11.1796875,130 L12.9858398,130 L19.5776367,112.94043 L19.6831055,112.94043 C19.5600586,114.610352 19.4985352,116.157227 19.4985352,117.581055 L19.4985352,117.581055 L19.4985352,130 L21.7397461,130 L21.7397461,110.725586 L18.3911133,110.725586 L12.234375,126.625 L12.1289062,126.625 L6.02490234,110.725586 L2.64990234,110.725586 L2.64990234,130 L4.71972656,130 Z M31.9888281,130.263672 C33.0083594,130.263672 33.9158301,130.074707 34.7112402,129.696777 C35.5066504,129.318848 36.1284766,128.773926 36.5767187,128.062012 L36.5767187,128.062012 L36.6953711,128.062012 L37.0117773,130 L38.8179297,130 L38.8179297,115.550781 L36.6294531,115.550781 L36.6294531,123.144531 C36.6294531,125.016602 36.2800879,126.365723 35.5813574,127.191895 C34.882627,128.018066 33.7774023,128.431152 32.2656836,128.431152 C31.1231055,128.431152 30.28375,128.141113 29.7476172,127.561035 C29.2114844,126.980957 28.943418,126.102051 28.943418,124.924316 L28.943418,124.924316 L28.943418,115.550781 L26.7285742,115.550781 L26.7285742,125.003418 C26.7285742,126.840332 27.1658301,128.17627 28.0403418,129.01123 C28.9148535,129.846191 30.2310156,130.263672 31.9888281,130.263672 Z M45.8370313,130 L45.8370313,109.486328 L43.6485547,109.486328 L43.6485547,130 L45.8370313,130 Z M55.0182422,130.263672 C55.3873828,130.263672 55.802666,130.226318 56.2640918,130.151611 C56.7255176,130.076904 57.0748828,129.982422 57.3121875,129.868164 L57.3121875,129.868164 L57.3121875,128.193848 C57.10125,128.255371 56.8156055,128.314697 56.4552539,128.371826 C56.0949023,128.428955 55.7213672,128.45752 55.3346484,128.45752 C54.6139453,128.45752 54.0470508,128.224609 53.6339648,127.758789 C53.2208789,127.292969 53.0143359,126.625 53.0143359,125.754883 L53.0143359,125.754883 L53.0143359,117.251465 L57.2067188,117.251465 L57.2067188,115.550781 L53.0143359,115.550781 L53.0143359,112.202148 L51.7487109,112.202148 L50.8258594,115.287109 L48.7560352,116.196777 L48.7560352,117.251465 L50.8258594,117.251465 L50.8258594,125.847168 C50.8258594,128.791504 52.2233203,130.263672 55.0182422,130.263672 Z M61.4968164,113.098633 C61.8483789,113.098633 62.1516016,112.977783 62.4064844,112.736084 C62.6613672,112.494385 62.7888086,112.127441 62.7888086,111.635254 C62.7888086,111.143066 62.6613672,110.77832 62.4064844,110.541016 C62.1516016,110.303711 61.8483789,110.185059 61.4968164,110.185059 C61.1276758,110.185059 60.8200586,110.301514 60.5739648,110.534424 C60.3278711,110.767334 60.2048242,111.134277 60.2048242,111.635254 C60.2048242,112.127441 60.3278711,112.494385 60.5739648,112.736084 C60.8200586,112.977783 61.1276758,113.098633 61.4968164,113.098633 Z M62.5778711,130 L62.5778711,115.550781 L60.3893945,115.550781 L60.3893945,130 L62.5778711,130 Z M82.0345313,130.263672 C84.3548438,130.263672 86.1785742,129.635254 87.5057227,128.378418 C88.8328711,127.121582 89.4964453,125.394531 89.4964453,123.197266 L89.4964453,123.197266 L89.4964453,110.725586 L87.2552344,110.725586 L87.2552344,123.276367 C87.2552344,124.893555 86.8157813,126.13501 85.936875,127.000732 C85.0579688,127.866455 83.8055273,128.299316 82.1795508,128.299316 C80.4744727,128.299316 79.1824805,127.868652 78.3035742,127.007324 C77.424668,126.145996 76.9852148,124.911133 76.9852148,123.302734 L76.9852148,123.302734 L76.9852148,110.725586 L74.7440039,110.725586 L74.7440039,123.144531 C74.7440039,125.359375 75.3790137,127.099609 76.6490332,128.365234 C77.9190527,129.630859 79.7142188,130.263672 82.0345313,130.263672 Z M98.0580273,130.263672 C99.8685742,130.263672 101.274824,129.898926 102.276777,129.169434 C103.27873,128.439941 103.779707,127.402832 103.779707,126.058105 C103.779707,125.100098 103.478682,124.304688 102.876631,123.671875 C102.27458,123.039062 101.116621,122.410645 99.4027539,121.786621 C98.154707,121.320801 97.310957,120.964844 96.8715039,120.71875 C96.4320508,120.472656 96.1134473,120.213379 95.9156934,119.940918 C95.7179395,119.668457 95.6190625,119.338867 95.6190625,118.952148 C95.6190625,118.380859 95.8827344,117.932617 96.4100781,117.607422 C96.9374219,117.282227 97.7196484,117.119629 98.7567578,117.119629 C99.9344922,117.119629 101.248457,117.418457 102.698652,118.016113 L102.698652,118.016113 L103.476484,116.236328 C101.991133,115.603516 100.470625,115.287109 98.9149609,115.287109 C97.2450391,115.287109 95.9310742,115.627686 94.9730664,116.308838 C94.0150586,116.98999 93.5360547,117.919434 93.5360547,119.097168 C93.5360547,119.756348 93.6744824,120.323242 93.9513379,120.797852 C94.2281934,121.272461 94.6500684,121.696533 95.2169629,122.070068 C95.7838574,122.443604 96.739668,122.880859 98.0843945,123.381836 C99.4994336,123.926758 100.45085,124.39917 100.938643,124.799072 C101.426436,125.198975 101.670332,125.680176 101.670332,126.242676 C101.670332,126.989746 101.362715,127.545654 100.74748,127.9104 C100.132246,128.275146 99.2533398,128.45752 98.1107617,128.45752 C97.3724805,128.45752 96.6056348,128.356445 95.8102246,128.154297 C95.0148145,127.952148 94.2699414,127.675293 93.5756055,127.32373 L93.5756055,127.32373 L93.5756055,129.354004 C94.6478711,129.960449 96.1420117,130.263672 98.0580273,130.263672 Z M113.633281,130.263672 C114.608867,130.263672 115.441631,130.191162 116.131572,130.046143 C116.821514,129.901123 117.553203,129.661621 118.326641,129.327637 L118.326641,129.327637 L118.326641,127.376465 C116.806133,128.026855 115.268047,128.352051 113.712383,128.352051 C112.23582,128.352051 111.091045,127.912598 110.278057,127.033691 C109.465068,126.154785 109.036602,124.867188 108.992656,123.170898 L108.992656,123.170898 L118.94627,123.170898 L118.94627,121.786621 C118.94627,119.835449 118.418926,118.264404 117.364238,117.073486 C116.309551,115.882568 114.876934,115.287109 113.066387,115.287109 C111.132793,115.287109 109.59251,115.972656 108.445537,117.34375 C107.298564,118.714844 106.725078,120.564941 106.725078,122.894043 C106.725078,125.205566 107.34251,127.011719 108.577373,128.3125 C109.812236,129.613281 111.497539,130.263672 113.633281,130.263672 Z M116.59959,121.391113 L109.045391,121.391113 C109.168437,120.055176 109.574932,119.009277 110.264873,118.253418 C110.954814,117.497559 111.879863,117.119629 113.04002,117.119629 C114.182598,117.119629 115.061504,117.486572 115.676738,118.220459 C116.291973,118.954346 116.59959,120.01123 116.59959,121.391113 L116.59959,121.391113 Z M125.055703,130 L125.055703,122.248047 C125.055703,120.833008 125.470986,119.650879 126.301553,118.70166 C127.132119,117.752441 128.131875,117.277832 129.30082,117.277832 C129.757852,117.277832 130.285195,117.34375 130.882852,117.475586 L130.882852,117.475586 L131.186074,115.445312 C130.676309,115.339844 130.100625,115.287109 129.459023,115.287109 C128.55375,115.287109 127.723184,115.541992 126.967324,116.051758 C126.211465,116.561523 125.565469,117.286621 125.029336,118.227051 L125.029336,118.227051 L124.923867,118.227051 L124.673379,115.550781 L122.867227,115.550781 L122.867227,130 L125.055703,130 Z M143.853184,130 L143.853184,122.419434 L146.120762,122.419434 C148.599277,122.419434 150.504307,121.894287 151.83585,120.843994 C153.167393,119.793701 153.833164,118.292969 153.833164,116.341797 C153.833164,112.597656 151.424961,110.725586 146.608555,110.725586 L146.608555,110.725586 L141.611973,110.725586 L141.611973,130 L143.853184,130 Z M145.870273,120.494629 L143.853184,120.494629 L143.853184,112.663574 L146.358066,112.663574 C148.124668,112.663574 149.425449,112.975586 150.26041,113.599609 C151.095371,114.223633 151.512852,115.172852 151.512852,116.447266 C151.512852,117.862305 151.069004,118.890625 150.181309,119.532227 C149.293613,120.173828 147.856602,120.494629 145.870273,120.494629 L145.870273,120.494629 Z M159.91623,130 L159.91623,109.486328 L157.727754,109.486328 L157.727754,130 L159.91623,130 Z M168.253691,130.263672 C169.325957,130.263672 170.220244,130.103271 170.936553,129.782471 C171.652861,129.46167 172.371367,128.848633 173.09207,127.943359 L173.09207,127.943359 L173.197539,127.943359 L173.632598,130 L175.25418,130 L175.25418,120.138672 C175.25418,118.451172 174.838896,117.225098 174.00833,116.460449 C173.177764,115.695801 171.901152,115.313477 170.178496,115.313477 C169.325957,115.313477 168.475615,115.42334 167.627471,115.643066 C166.779326,115.862793 165.999297,116.166016 165.287383,116.552734 L165.287383,116.552734 L165.959746,118.227051 C167.480254,117.48877 168.842559,117.119629 170.04666,117.119629 C171.118926,117.119629 171.898955,117.389893 172.386748,117.93042 C172.874541,118.470947 173.118437,119.308105 173.118437,120.441895 L173.118437,120.441895 L173.118437,121.338379 L170.666289,121.41748 C165.999297,121.558105 163.665801,123.087402 163.665801,126.005371 C163.665801,127.367676 164.072295,128.417969 164.885283,129.15625 C165.698271,129.894531 166.821074,130.263672 168.253691,130.263672 Z M168.68875,128.45752 C167.827422,128.45752 167.157256,128.250977 166.678252,127.837891 C166.199248,127.424805 165.959746,126.822754 165.959746,126.031738 C165.959746,125.020996 166.344268,124.276123 167.113311,123.797119 C167.882354,123.318115 169.136992,123.047852 170.877227,122.986328 L170.877227,122.986328 L173.065703,122.894043 L173.065703,124.199219 C173.065703,125.543945 172.676787,126.589844 171.898955,127.336914 C171.121123,128.083984 170.051055,128.45752 168.68875,128.45752 Z M184.303555,130.263672 C184.672695,130.263672 185.087979,130.226318 185.549404,130.151611 C186.01083,130.076904 186.360195,129.982422 186.5975,129.868164 L186.5975,129.868164 L186.5975,128.193848 C186.386562,128.255371 186.100918,128.314697 185.740566,128.371826 C185.380215,128.428955 185.00668,128.45752 184.619961,128.45752 C183.899258,128.45752 183.332363,128.224609 182.919277,127.758789 C182.506191,127.292969 182.299648,126.625 182.299648,125.754883 L182.299648,125.754883 L182.299648,117.251465 L186.492031,117.251465 L186.492031,115.550781 L182.299648,115.550781 L182.299648,112.202148 L181.034023,112.202148 L180.111172,115.287109 L178.041348,116.196777 L178.041348,117.251465 L180.111172,117.251465 L180.111172,125.847168 C180.111172,128.791504 181.508633,130.263672 184.303555,130.263672 Z M194.025293,130.263672 C194.394434,130.263672 194.809717,130.226318 195.271143,130.151611 C195.732568,130.076904 196.081934,129.982422 196.319238,129.868164 L196.319238,129.868164 L196.319238,128.193848 C196.108301,128.255371 195.822656,128.314697 195.462305,128.371826 C195.101953,128.428955 194.728418,128.45752 194.341699,128.45752 C193.620996,128.45752 193.054102,128.224609 192.641016,127.758789 C192.22793,127.292969 192.021387,126.625 192.021387,125.754883 L192.021387,125.754883 L192.021387,117.251465 L196.21377,117.251465 L196.21377,115.550781 L192.021387,115.550781 L192.021387,112.202148 L190.755762,112.202148 L189.83291,115.287109 L187.763086,116.196777 L187.763086,117.251465 L189.83291,117.251465 L189.83291,125.847168 C189.83291,128.791504 191.230371,130.263672 194.025293,130.263672 Z M202.230918,130 L202.230918,117.251465 L205.909141,117.251465 L205.909141,115.550781 L202.230918,115.550781 L202.230918,114.614746 C202.230918,113.401855 202.428672,112.520752 202.82418,111.971436 C203.219687,111.422119 203.830527,111.147461 204.656699,111.147461 C205.254355,111.147461 205.975059,111.283691 206.818809,111.556152 L206.818809,111.556152 L207.385703,109.802734 C206.357383,109.495117 205.460898,109.341309 204.69625,109.341309 C201.593711,109.341309 200.042441,111.116699 200.042441,114.66748 L200.042441,114.66748 L200.042441,115.47168 L197.458457,116.262695 L197.458457,117.251465 L200.042441,117.251465 L200.042441,130 L202.230918,130 Z M214.510273,130.263672 C216.60207,130.263672 218.24123,129.602295 219.427754,128.279541 C220.614277,126.956787 221.207539,125.117676 221.207539,122.762207 C221.207539,120.468262 220.61208,118.648926 219.421162,117.304199 C218.230244,115.959473 216.624043,115.287109 214.602559,115.287109 C212.510762,115.287109 210.875996,115.944092 209.698262,117.258057 C208.520527,118.572021 207.93166,120.406738 207.93166,122.762207 C207.93166,124.282715 208.204121,125.609863 208.749043,126.743652 C209.293965,127.877441 210.067402,128.747559 211.069355,129.354004 C212.071309,129.960449 213.218281,130.263672 214.510273,130.263672 Z M214.563008,128.431152 C213.130391,128.431152 212.044941,127.947754 211.30666,126.980957 C210.568379,126.01416 210.199238,124.60791 210.199238,122.762207 C210.199238,120.898926 210.563984,119.49707 211.293477,118.556641 C212.022969,117.616211 213.104023,117.145996 214.536641,117.145996 C215.986836,117.145996 217.083271,117.622803 217.825947,118.576416 C218.568623,119.530029 218.939961,120.925293 218.939961,122.762207 C218.939961,124.616699 218.568623,126.025146 217.825947,126.987549 C217.083271,127.949951 215.995625,128.431152 214.563008,128.431152 Z M227.422441,130 L227.422441,122.248047 C227.422441,120.833008 227.837725,119.650879 228.668291,118.70166 C229.498857,117.752441 230.498613,117.277832 231.667559,117.277832 C232.12459,117.277832 232.651934,117.34375 233.24959,117.475586 L233.24959,117.475586 L233.552812,115.445312 C233.043047,115.339844 232.467363,115.287109 231.825762,115.287109 C230.920488,115.287109 230.089922,115.541992 229.334062,116.051758 C228.578203,116.561523 227.932207,117.286621 227.396074,118.227051 L227.396074,118.227051 L227.290605,118.227051 L227.040117,115.550781 L225.233965,115.550781 L225.233965,130 L227.422441,130 Z M238.633926,130 L238.633926,122.419434 C238.633926,120.547363 238.952529,119.200439 239.589736,118.378662 C240.226943,117.556885 241.231094,117.145996 242.602188,117.145996 C243.648086,117.145996 244.417129,117.433838 244.909316,118.009521 C245.401504,118.585205 245.647598,119.44873 245.647598,120.600098 L245.647598,120.600098 L245.647598,130 L247.836074,130 L247.836074,121.931641 C247.836074,120.305664 248.16127,119.101562 248.81166,118.319336 C249.462051,117.537109 250.468398,117.145996 251.830703,117.145996 C252.867813,117.145996 253.632461,117.433838 254.124648,118.009521 C254.616836,118.585205 254.86293,119.44873 254.86293,120.600098 L254.86293,120.600098 L254.86293,130 L257.051406,130 L257.051406,120.57373 C257.051406,118.728027 256.644912,117.385498 255.831924,116.546143 C255.018936,115.706787 253.795059,115.287109 252.160293,115.287109 C251.114395,115.287109 250.182754,115.506836 249.365371,115.946289 C248.547988,116.385742 247.923965,116.983398 247.493301,117.739258 L247.493301,117.739258 L247.387832,117.739258 C246.693496,116.104492 245.216934,115.287109 242.958145,115.287109 C242.026504,115.287109 241.184951,115.484863 240.433486,115.880371 C239.682021,116.275879 239.099746,116.825195 238.68666,117.52832 L238.68666,117.52832 L238.581191,117.52832 L238.225234,115.550781 L236.445449,115.550781 L236.445449,130 L238.633926,130 Z M271.78834,130 L271.78834,117.251465 L275.466563,117.251465 L275.466563,115.550781 L271.78834,115.550781 L271.78834,114.614746 C271.78834,113.401855 271.986094,112.520752 272.381602,111.971436 C272.777109,111.422119 273.387949,111.147461 274.214121,111.147461 C274.811777,111.147461 275.53248,111.283691 276.37623,111.556152 L276.37623,111.556152 L276.943125,109.802734 C275.914805,109.495117 275.01832,109.341309 274.253672,109.341309 C271.151133,109.341309 269.599863,111.116699 269.599863,114.66748 L269.599863,114.66748 L269.599863,115.47168 L267.015879,116.262695 L267.015879,117.251465 L269.599863,117.251465 L269.599863,130 L271.78834,130 Z M284.067695,130.263672 C286.159492,130.263672 287.798652,129.602295 288.985176,128.279541 C290.171699,126.956787 290.764961,125.117676 290.764961,122.762207 C290.764961,120.468262 290.169502,118.648926 288.978584,117.304199 C287.787666,115.959473 286.181465,115.287109 284.15998,115.287109 C282.068184,115.287109 280.433418,115.944092 279.255684,117.258057 C278.077949,118.572021 277.489082,120.406738 277.489082,122.762207 C277.489082,124.282715 277.761543,125.609863 278.306465,126.743652 C278.851387,127.877441 279.624824,128.747559 280.626777,129.354004 C281.62873,129.960449 282.775703,130.263672 284.067695,130.263672 Z M284.12043,128.431152 C282.687813,128.431152 281.602363,127.947754 280.864082,126.980957 C280.125801,126.01416 279.75666,124.60791 279.75666,122.762207 C279.75666,120.898926 280.121406,119.49707 280.850898,118.556641 C281.580391,117.616211 282.661445,117.145996 284.094063,117.145996 C285.544258,117.145996 286.640693,117.622803 287.383369,118.576416 C288.126045,119.530029 288.497383,120.925293 288.497383,122.762207 C288.497383,124.616699 288.126045,126.025146 287.383369,126.987549 C286.640693,127.949951 285.553047,128.431152 284.12043,128.431152 Z M296.979863,130 L296.979863,122.248047 C296.979863,120.833008 297.395146,119.650879 298.225713,118.70166 C299.056279,117.752441 300.056035,117.277832 301.22498,117.277832 C301.682012,117.277832 302.209355,117.34375 302.807012,117.475586 L302.807012,117.475586 L303.110234,115.445312 C302.600469,115.339844 302.024785,115.287109 301.383184,115.287109 C300.47791,115.287109 299.647344,115.541992 298.891484,116.051758 C298.135625,116.561523 297.489629,117.286621 296.953496,118.227051 L296.953496,118.227051 L296.848027,118.227051 L296.597539,115.550781 L294.791387,115.550781 L294.791387,130 L296.979863,130 Z M321.419922,130.263672 C324.197266,130.263672 326.365967,129.380371 327.926025,127.61377 C329.486084,125.847168 330.266113,123.421387 330.266113,120.336426 C330.266113,117.242676 329.488281,114.816895 327.932617,113.059082 C326.376953,111.30127 324.214844,110.422363 321.446289,110.422363 C318.598633,110.422363 316.401367,111.285889 314.854492,113.012939 C313.307617,114.73999 312.53418,117.172363 312.53418,120.310059 C312.53418,123.474121 313.30542,125.924072 314.8479,127.659912 C316.390381,129.395752 318.581055,130.263672 321.419922,130.263672 Z M321.419922,128.299316 C319.301758,128.299316 317.686768,127.624756 316.574951,126.275635 C315.463135,124.926514 314.907227,122.946777 314.907227,120.336426 C314.907227,117.76123 315.463135,115.799072 316.574951,114.449951 C317.686768,113.10083 319.310547,112.42627 321.446289,112.42627 C323.573242,112.42627 325.179443,113.096436 326.264893,114.436768 C327.350342,115.7771 327.893066,117.743652 327.893066,120.336426 C327.893066,122.955566 327.348145,124.9375 326.258301,126.282227 C325.168457,127.626953 323.555664,128.299316 321.419922,128.299316 Z M339.539609,130 L343.310117,117.172363 C343.731992,115.79248 344.039609,114.522461 344.232969,113.362305 C344.241758,113.538086 344.36041,114.061035 344.588926,114.931152 C344.817441,115.80127 345.023984,116.521973 345.208555,117.093262 L345.208555,117.093262 L349.097715,130 L351.312559,130 L356.467344,110.725586 L354.094297,110.725586 L351.06207,122.604004 C350.59625,124.396973 350.279844,125.91748 350.112852,127.165527 C349.822812,125.45166 349.466855,123.913574 349.04498,122.55127 L349.04498,122.55127 L345.419492,110.725586 L343.046445,110.725586 L339.592344,122.445801 C339.126523,123.983887 338.774961,125.557129 338.537656,127.165527 C338.344297,125.812012 338.03668,124.300293 337.614805,122.630371 L337.614805,122.630371 L334.569395,110.725586 L332.196348,110.725586 L337.324766,130 L339.539609,130 Z M358.213008,130 L360.586055,123.869629 L368.311641,123.869629 L370.711055,130 L373.031367,130 L365.450801,110.646484 L363.565547,110.646484 L355.94543,130 L358.213008,130 Z M367.61291,121.852539 L361.37707,121.852539 L363.644648,115.880371 C364.005,114.869629 364.281855,113.942383 364.475215,113.098633 C364.782832,114.197266 365.08166,115.124512 365.371699,115.880371 L365.371699,115.880371 L367.61291,121.852539 Z M379.892266,130.263672 C382.001641,130.263672 383.671562,129.789062 384.902031,128.839844 C386.1325,127.890625 386.747734,126.567871 386.747734,124.871582 C386.747734,123.553223 386.367607,122.480957 385.607354,121.654785 C384.8471,120.828613 383.45623,120.055176 381.434746,119.334473 C380.230645,118.903809 379.336357,118.510498 378.751885,118.154541 C378.167412,117.798584 377.752129,117.407471 377.506035,116.981201 C377.259941,116.554932 377.136895,116.007812 377.136895,115.339844 C377.136895,114.43457 377.470879,113.727051 378.138848,113.217285 C378.806816,112.70752 379.734062,112.452637 380.920586,112.452637 C382.423516,112.452637 383.970391,112.786621 385.561211,113.45459 L385.561211,113.45459 L386.259941,111.503418 C384.651543,110.800293 382.889336,110.44873 380.97332,110.44873 C379.136406,110.44873 377.659844,110.888184 376.543633,111.76709 C375.427422,112.645996 374.869316,113.828125 374.869316,115.313477 C374.869316,116.728516 375.253838,117.875488 376.022881,118.754395 C376.791924,119.633301 378.07293,120.393555 379.865898,121.035156 C381.149102,121.492188 382.104912,121.900879 382.73333,122.26123 C383.361748,122.621582 383.80999,123.014893 384.078057,123.441162 C384.346123,123.867432 384.480156,124.414551 384.480156,125.08252 C384.480156,126.093262 384.102227,126.88208 383.346367,127.448975 C382.590508,128.015869 381.465508,128.299316 379.971367,128.299316 C379.057305,128.299316 378.134453,128.202637 377.202812,128.009277 C376.271172,127.815918 375.409844,127.552246 374.618828,127.218262 L374.618828,127.218262 L374.618828,129.380371 C375.849297,129.969238 377.607109,130.263672 379.892266,130.263672 Z M393.12084,130 L393.12084,122.419434 L395.388418,122.419434 C397.866934,122.419434 399.771963,121.894287 401.103506,120.843994 C402.435049,119.793701 403.10082,118.292969 403.10082,116.341797 C403.10082,112.597656 400.692617,110.725586 395.876211,110.725586 L395.876211,110.725586 L390.879629,110.725586 L390.879629,130 L393.12084,130 Z M395.13793,120.494629 L393.12084,120.494629 L393.12084,112.663574 L395.625723,112.663574 C397.392324,112.663574 398.693105,112.975586 399.528066,113.599609 C400.363027,114.223633 400.780508,115.172852 400.780508,116.447266 C400.780508,117.862305 400.33666,118.890625 399.448965,119.532227 C398.56127,120.173828 397.124258,120.494629 395.13793,120.494629 L395.13793,120.494629 Z M411.720566,135.075684 C413.302598,135.075684 414.515488,134.616455 415.359238,133.697998 C416.202988,132.779541 416.624863,131.485352 416.624863,129.81543 L416.624863,129.81543 L416.624863,110.725586 L414.383652,110.725586 L414.383652,130 C414.383652,130.993164 414.157334,131.753418 413.704697,132.280762 C413.252061,132.808105 412.590684,133.071777 411.720566,133.071777 C411.043809,133.071777 410.393418,132.983887 409.769395,132.808105 L409.769395,132.808105 L409.769395,134.719727 C410.244004,134.957031 410.894395,135.075684 411.720566,135.075684 Z M426.702559,130.263672 C427.72209,130.263672 428.629561,130.074707 429.424971,129.696777 C430.220381,129.318848 430.842207,128.773926 431.290449,128.062012 L431.290449,128.062012 L431.409102,128.062012 L431.725508,130 L433.53166,130 L433.53166,115.550781 L431.343184,115.550781 L431.343184,123.144531 C431.343184,125.016602 430.993818,126.365723 430.295088,127.191895 C429.596357,128.018066 428.491133,128.431152 426.979414,128.431152 C425.836836,128.431152 424.99748,128.141113 424.461348,127.561035 C423.925215,126.980957 423.657148,126.102051 423.657148,124.924316 L423.657148,124.924316 L423.657148,115.550781 L421.442305,115.550781 L421.442305,125.003418 C421.442305,126.840332 421.879561,128.17627 422.754072,129.01123 C423.628584,129.846191 424.944746,130.263672 426.702559,130.263672 Z M439.469707,113.098633 C439.82127,113.098633 440.124492,112.977783 440.379375,112.736084 C440.634258,112.494385 440.761699,112.127441 440.761699,111.635254 C440.761699,111.143066 440.634258,110.77832 440.379375,110.541016 C440.124492,110.303711 439.82127,110.185059 439.469707,110.185059 C439.100566,110.185059 438.792949,110.301514 438.546855,110.534424 C438.300762,110.767334 438.177715,111.134277 438.177715,111.635254 C438.177715,112.127441 438.300762,112.494385 438.546855,112.736084 C438.792949,112.977783 439.100566,113.098633 439.469707,113.098633 Z M440.550762,130 L440.550762,115.550781 L438.362285,115.550781 L438.362285,130 L440.550762,130 Z M451.155801,130.263672 C452.623574,130.263672 453.840859,130.013184 454.807656,129.512207 L454.807656,129.512207 L454.807656,127.574219 C453.542031,128.092773 452.307168,128.352051 451.103066,128.352051 C449.696816,128.352051 448.635537,127.877441 447.919229,126.928223 C447.20292,125.979004 446.844766,124.616699 446.844766,122.841309 C446.844766,119.097168 448.312539,117.225098 451.248086,117.225098 C451.687539,117.225098 452.19291,117.288818 452.764199,117.41626 C453.335488,117.543701 453.862832,117.704102 454.34623,117.897461 L454.34623,117.897461 L455.018594,116.038574 C454.623086,115.836426 454.078164,115.660645 453.383828,115.51123 C452.689492,115.361816 451.995156,115.287109 451.30082,115.287109 C449.1475,115.287109 447.488564,115.946289 446.324014,117.264648 C445.159463,118.583008 444.577187,120.450684 444.577187,122.867676 C444.577187,125.223145 445.150674,127.044678 446.297646,128.332275 C447.444619,129.619873 449.064004,130.263672 451.155801,130.263672 Z M464.529395,130.263672 C465.50498,130.263672 466.337744,130.191162 467.027686,130.046143 C467.717627,129.901123 468.449316,129.661621 469.222754,129.327637 L469.222754,129.327637 L469.222754,127.376465 C467.702246,128.026855 466.16416,128.352051 464.608496,128.352051 C463.131934,128.352051 461.987158,127.912598 461.17417,127.033691 C460.361182,126.154785 459.932715,124.867188 459.88877,123.170898 L459.88877,123.170898 L469.842383,123.170898 L469.842383,121.786621 C469.842383,119.835449 469.315039,118.264404 468.260352,117.073486 C467.205664,115.882568 465.773047,115.287109 463.9625,115.287109 C462.028906,115.287109 460.488623,115.972656 459.34165,117.34375 C458.194678,118.714844 457.621191,120.564941 457.621191,122.894043 C457.621191,125.205566 458.238623,127.011719 459.473486,128.3125 C460.70835,129.613281 462.393652,130.263672 464.529395,130.263672 Z M467.495703,121.391113 L459.941504,121.391113 C460.064551,120.055176 460.471045,119.009277 461.160986,118.253418 C461.850928,117.497559 462.775977,117.119629 463.936133,117.119629 C465.078711,117.119629 465.957617,117.486572 466.572852,118.220459 C467.188086,118.954346 467.495703,120.01123 467.495703,121.391113 L467.495703,121.391113 Z M485.317598,130.263672 C487.426973,130.263672 489.096895,129.789062 490.327363,128.839844 C491.557832,127.890625 492.173066,126.567871 492.173066,124.871582 C492.173066,123.553223 491.792939,122.480957 491.032686,121.654785 C490.272432,120.828613 488.881562,120.055176 486.860078,119.334473 C485.655977,118.903809 484.761689,118.510498 484.177217,118.154541 C483.592744,117.798584 483.177461,117.407471 482.931367,116.981201 C482.685273,116.554932 482.562227,116.007812 482.562227,115.339844 C482.562227,114.43457 482.896211,113.727051 483.56418,113.217285 C484.232148,112.70752 485.159395,112.452637 486.345918,112.452637 C487.848848,112.452637 489.395723,112.786621 490.986543,113.45459 L490.986543,113.45459 L491.685273,111.503418 C490.076875,110.800293 488.314668,110.44873 486.398652,110.44873 C484.561738,110.44873 483.085176,110.888184 481.968965,111.76709 C480.852754,112.645996 480.294648,113.828125 480.294648,115.313477 C480.294648,116.728516 480.67917,117.875488 481.448213,118.754395 C482.217256,119.633301 483.498262,120.393555 485.29123,121.035156 C486.574434,121.492188 487.530244,121.900879 488.158662,122.26123 C488.78708,122.621582 489.235322,123.014893 489.503389,123.441162 C489.771455,123.867432 489.905488,124.414551 489.905488,125.08252 C489.905488,126.093262 489.527559,126.88208 488.771699,127.448975 C488.01584,128.015869 486.89084,128.299316 485.396699,128.299316 C484.482637,128.299316 483.559785,128.202637 482.628145,128.009277 C481.696504,127.815918 480.835176,127.552246 480.04416,127.218262 L480.04416,127.218262 L480.04416,129.380371 C481.274629,129.969238 483.032441,130.263672 485.317598,130.263672 Z M498.163848,130 L498.163848,122.445801 C498.163848,120.564941 498.513213,119.211426 499.211943,118.385254 C499.910674,117.559082 501.020293,117.145996 502.540801,117.145996 C503.683379,117.145996 504.522734,117.436035 505.058867,118.016113 C505.595,118.596191 505.863066,119.475098 505.863066,120.652832 L505.863066,120.652832 L505.863066,130 L508.051543,130 L508.051543,120.57373 C508.051543,118.745605 507.609893,117.411865 506.726592,116.57251 C505.843291,115.733154 504.51834,115.313477 502.751738,115.313477 C501.732207,115.313477 500.824736,115.513428 500.029326,115.91333 C499.233916,116.313232 498.620879,116.860352 498.190215,117.554688 L498.190215,117.554688 L498.058379,117.554688 C498.128691,117.0625 498.163848,116.442871 498.163848,115.695801 L498.163848,115.695801 L498.163848,109.486328 L495.975371,109.486328 L495.975371,130 L498.163848,130 Z M518.511562,130.263672 C520.603359,130.263672 522.24252,129.602295 523.429043,128.279541 C524.615566,126.956787 525.208828,125.117676 525.208828,122.762207 C525.208828,120.468262 524.613369,118.648926 523.422451,117.304199 C522.231533,115.959473 520.625332,115.287109 518.603848,115.287109 C516.512051,115.287109 514.877285,115.944092 513.699551,117.258057 C512.521816,118.572021 511.932949,120.406738 511.932949,122.762207 C511.932949,124.282715 512.20541,125.609863 512.750332,126.743652 C513.295254,127.877441 514.068691,128.747559 515.070645,129.354004 C516.072598,129.960449 517.21957,130.263672 518.511562,130.263672 Z M518.564297,128.431152 C517.13168,128.431152 516.04623,127.947754 515.307949,126.980957 C514.569668,126.01416 514.200527,124.60791 514.200527,122.762207 C514.200527,120.898926 514.565273,119.49707 515.294766,118.556641 C516.024258,117.616211 517.105312,117.145996 518.53793,117.145996 C519.988125,117.145996 521.084561,117.622803 521.827236,118.576416 C522.569912,119.530029 522.94125,120.925293 522.94125,122.762207 C522.94125,124.616699 522.569912,126.025146 521.827236,126.987549 C521.084561,127.949951 519.996914,128.431152 518.564297,128.431152 Z M531.42373,136.486328 L531.42373,130.540527 C531.42373,129.784668 531.370996,128.984863 531.265527,128.141113 L531.265527,128.141113 L531.42373,128.141113 C531.951074,128.861816 532.603662,129.395752 533.381494,129.74292 C534.159326,130.090088 535.018457,130.263672 535.958887,130.263672 C537.839746,130.263672 539.309717,129.606689 540.368799,128.292725 C541.427881,126.97876 541.957422,125.135254 541.957422,122.762207 C541.957422,120.397949 541.43667,118.561035 540.395166,117.251465 C539.353662,115.941895 537.874902,115.287109 535.958887,115.287109 C534.99209,115.287109 534.135156,115.462891 533.388086,115.814453 C532.641016,116.166016 531.98623,116.737305 531.42373,117.52832 L531.42373,117.52832 L531.318262,117.52832 L531.015039,115.550781 L529.235254,115.550781 L529.235254,136.486328 L531.42373,136.486328 Z M535.695215,128.431152 C534.201074,128.431152 533.115625,127.993896 532.438867,127.119385 C531.762109,126.244873 531.42373,124.79248 531.42373,122.762207 L531.42373,122.762207 L531.42373,122.274414 C531.441309,120.490234 531.779688,119.189453 532.438867,118.37207 C533.098047,117.554688 534.165918,117.145996 535.64248,117.145996 C536.925684,117.145996 537.921045,117.627197 538.628564,118.5896 C539.336084,119.552002 539.689844,120.934082 539.689844,122.73584 C539.689844,124.51123 539.336084,125.904297 538.628564,126.915039 C537.921045,127.925781 536.943262,128.431152 535.695215,128.431152 Z" id="MultiUserPlattformforOWASPJuiceShop" fill="#872B12"></path>
        </g>
    </g>
</svg>