<?xml version="1.0" encoding="UTF-8"?>
<svg width="1280px" height="640px" viewBox="0 0 1280 640" version="1.1" xmlns="http://www.w3.org/2000/svg" xmlns:xlink="http://www.w3.org/1999/xlink">
    <!-- Generator: Sketch 56.3 (81716) - https://sketch.com -->
    <title>cover</title>
    <desc>Created with Sketch.</desc>
    <g id="cover" stroke="none" stroke-width="1" fill="none" fill-rule="evenodd">
        <g id="Man" transform="translate(116.000000, 114.645805)">
            <path d="M131.475093,120.273354 C131.475093,120.273354 131.475093,120.273354 131.475093,120.273354 L63.7891163,58.887504 C57.1862758,66.8952124 47.1892814,72 36,72 C16.117749,72 0,55.882251 0,36 C0,16.117749 16.117749,0 36,0 C55.882251,0 72,16.117749 72,36 C72,44.6929696 68.918873,52.6663034 63.7891163,58.887504 L131.475093,120.273354 Z" id="Combined-Shape" stroke="#D8D8D8" stroke-width="4" stroke-linecap="square"></path>
            <g id="1-468" transform="translate(17.000000, 12.000000)">
                <path d="M9,26 C6,26 5,19 5,12 C5,6 10,0 19,0 C28,0 33,6 33,12 C33,19 32,26 29,26" id="Path" fill="#F1B31C" fill-rule="nonzero"></path>
                <path d="M0.1,49 L0.1,45.2 C0.1,40.2 5.1,36.2 10.1,36.2 C16.1,41.2 22.1,41.2 28.1,36.2 C33.1,36.2 38.1,40.2 38.1,45.2 L38.1,49 L0.1,49 Z" id="Path" fill="#D9614F" fill-rule="nonzero"></path>
                <path d="M24.9,18 C24.9,19.1 24,20 22.9,20 C21.8,20 20.9,19.1 20.9,18 C20.9,16.9 21.8,16 22.9,16 C24,16 24.9,16.9 24.9,18" id="Path" fill="#040404" fill-rule="nonzero"></path>
                <path d="M16.9,18 C16.9,19.1 16,20 14.9,20 C13.8,20 12.9,19.1 12.9,18 C12.9,16.9 13.8,16 14.9,16 C16,16 16.9,16.9 16.9,18" id="Path" fill="#040404" fill-rule="nonzero"></path>
                <path d="M7.9,19 C7.8,27 12,33 18.9,33 C26,33 30,27 30,19 C30,14 27,9 27,9 C19,9 17,12 11,10 C11,10 8,14 7.9,19 Z" id="Path" fill="#FCEA2B" fill-rule="nonzero"></path>
                <path d="M15.9,26.2 C18,27 20,27 21.9,26.2" id="Path" stroke="#040404" stroke-width="2" stroke-linecap="round" stroke-linejoin="round"></path>
                <path d="M9,26 C6,26 5,19 5,12 C5,6 10,0 19,0 C28,0 33,6 33,12 C33,19 32,26 29,26" id="Path" stroke="#040404" stroke-width="2" stroke-linecap="round" stroke-linejoin="round"></path>
                <path d="M0,48 L0,45 C0,40 5,36 10,36 C16,41 22,41 28,36 C33,36 38,40 38,45 L38,48" id="Path" stroke="#040404" stroke-width="2" stroke-linecap="round" stroke-linejoin="round"></path>
                <path d="M24.9,18 C24.9,19.1 24,20 22.9,20 C21.8,20 20.9,19.1 20.9,18 C20.9,16.9 21.8,16 22.9,16 C24,16 24.9,16.9 24.9,18" id="Path" fill="#040404" fill-rule="nonzero"></path>
                <path d="M16.9,18 C16.9,19.1 16,20 14.9,20 C13.8,20 12.9,19.1 12.9,18 C12.9,16.9 13.8,16 14.9,16 C16,16 16.9,16.9 16.9,18" id="Path" fill="#040404" fill-rule="nonzero"></path>
                <path d="M7.9,19 C7.8,27 12.8,33 18.9,33 C24.9,33 30,27 30,19 C30,14 27,8 27,8 C19,8 17,11 11,9 C11,9 8,14 7.9,19 Z" id="Path" stroke="#040404" stroke-width="2" stroke-linejoin="round"></path>
                <path d="M15.9,26.2 C18,27 20,27 21.9,26.2" id="Path" stroke="#040404" stroke-width="2" stroke-linecap="round" stroke-linejoin="round"></path>
            </g>
        </g>
        <g id="Man" transform="translate(468.500000, 377.645805)">
            <path d="M0.964337728,0.525473084 C0.964337728,0.525473084 0.964337728,0.525473084 0.964337728,0.525473084 L50.7640654,23.0004096 C56.452021,10.6070103 68.970873,2 83.5,2 C103.382251,2 119.5,18.117749 119.5,38 C119.5,57.882251 103.382251,74 83.5,74 C63.617749,74 47.5,57.882251 47.5,38 C47.5,32.646876 48.6683902,27.5666442 50.7640654,23.0004096 L0.964337728,0.525473084 Z" id="Combined-Shape" stroke="#D8D8D8" stroke-width="4" stroke-linecap="square"></path>
            <g id="1-468" transform="translate(64.500000, 14.000000)">
                <path d="M9,26 C6,26 5,19 5,12 C5,6 10,0 19,0 C28,0 33,6 33,12 C33,19 32,26 29,26" id="Path" fill="#F1B31C" fill-rule="nonzero"></path>
                <path d="M0.1,49 L0.1,45.2 C0.1,40.2 5.1,36.2 10.1,36.2 C16.1,41.2 22.1,41.2 28.1,36.2 C33.1,36.2 38.1,40.2 38.1,45.2 L38.1,49 L0.1,49 Z" id="Path" fill="#E4805A" fill-rule="nonzero"></path>
                <path d="M24.9,18 C24.9,19.1 24,20 22.9,20 C21.8,20 20.9,19.1 20.9,18 C20.9,16.9 21.8,16 22.9,16 C24,16 24.9,16.9 24.9,18" id="Path" fill="#040404" fill-rule="nonzero"></path>
                <path d="M16.9,18 C16.9,19.1 16,20 14.9,20 C13.8,20 12.9,19.1 12.9,18 C12.9,16.9 13.8,16 14.9,16 C16,16 16.9,16.9 16.9,18" id="Path" fill="#040404" fill-rule="nonzero"></path>
                <path d="M7.9,19 C7.8,27 12,33 18.9,33 C26,33 30,27 30,19 C30,14 27,9 27,9 C19,9 17,12 11,10 C11,10 8,14 7.9,19 Z" id="Path" fill="#FCEA2B" fill-rule="nonzero"></path>
                <path d="M15.9,26.2 C18,27 20,27 21.9,26.2" id="Path" stroke="#040404" stroke-width="2" stroke-linecap="round" stroke-linejoin="round"></path>
                <path d="M9,26 C6,26 5,19 5,12 C5,6 10,0 19,0 C28,0 33,6 33,12 C33,19 32,26 29,26" id="Path" stroke="#040404" stroke-width="2" stroke-linecap="round" stroke-linejoin="round"></path>
                <path d="M0,48 L0,45 C0,40 5,36 10,36 C16,41 22,41 28,36 C33,36 38,40 38,45 L38,48" id="Path" stroke="#040404" stroke-width="2" stroke-linecap="round" stroke-linejoin="round"></path>
                <path d="M24.9,18 C24.9,19.1 24,20 22.9,20 C21.8,20 20.9,19.1 20.9,18 C20.9,16.9 21.8,16 22.9,16 C24,16 24.9,16.9 24.9,18" id="Path" fill="#040404" fill-rule="nonzero"></path>
                <path d="M16.9,18 C16.9,19.1 16,20 14.9,20 C13.8,20 12.9,19.1 12.9,18 C12.9,16.9 13.8,16 14.9,16 C16,16 16.9,16.9 16.9,18" id="Path" fill="#040404" fill-rule="nonzero"></path>
                <path d="M7.9,19 C7.8,27 12.8,33 18.9,33 C24.9,33 30,27 30,19 C30,14 27,8 27,8 C19,8 17,11 11,9 C11,9 8,14 7.9,19 Z" id="Path" stroke="#040404" stroke-width="2" stroke-linejoin="round"></path>
                <path d="M15.9,26.2 C18,27 20,27 21.9,26.2" id="Path" stroke="#040404" stroke-width="2" stroke-linecap="round" stroke-linejoin="round"></path>
            </g>
        </g>
        <g id="Men" transform="translate(172.000000, 406.645805)">
            <path d="M77.5268965,0.147581802 C77.5268965,0.147581802 77.5268965,0.147581802 77.5268965,0.147581802 L63.2375683,13.4594641 C68.6972262,19.7709788 72,27.9997873 72,37 C72,56.882251 55.882251,73 36,73 C16.117749,73 -1.8189894e-12,56.882251 -1.8189894e-12,37 C-1.8189894e-12,17.117749 16.117749,1 36,1 C46.8820383,1 56.636368,5.82829489 63.2375683,13.4594641 L77.5268965,0.147581802 Z" id="Combined-Shape" stroke="#D8D8D8" stroke-width="4" stroke-linecap="square"></path>
            <g id="1-468" transform="translate(17.000000, 13.000000)">
                <path d="M9,26 C6,26 5,19 5,12 C5,6 10,0 19,0 C28,0 33,6 33,12 C33,19 32,26 29,26" id="Path" fill="#F1B31C" fill-rule="nonzero"></path>
                <path d="M0.1,49 L0.1,45.2 C0.1,40.2 5.1,36.2 10.1,36.2 C16.1,41.2 22.1,41.2 28.1,36.2 C33.1,36.2 38.1,40.2 38.1,45.2 L38.1,49 L0.1,49 Z" id="Path" fill="#92D3F5" fill-rule="nonzero"></path>
                <path d="M24.9,18 C24.9,19.1 24,20 22.9,20 C21.8,20 20.9,19.1 20.9,18 C20.9,16.9 21.8,16 22.9,16 C24,16 24.9,16.9 24.9,18" id="Path" fill="#040404" fill-rule="nonzero"></path>
                <path d="M16.9,18 C16.9,19.1 16,20 14.9,20 C13.8,20 12.9,19.1 12.9,18 C12.9,16.9 13.8,16 14.9,16 C16,16 16.9,16.9 16.9,18" id="Path" fill="#040404" fill-rule="nonzero"></path>
                <path d="M7.9,19 C7.8,27 12,33 18.9,33 C26,33 30,27 30,19 C30,14 27,9 27,9 C19,9 17,12 11,10 C11,10 8,14 7.9,19 Z" id="Path" fill="#FCEA2B" fill-rule="nonzero"></path>
                <path d="M15.9,26.2 C18,27 20,27 21.9,26.2" id="Path" stroke="#040404" stroke-width="2" stroke-linecap="round" stroke-linejoin="round"></path>
                <path d="M9,26 C6,26 5,19 5,12 C5,6 10,0 19,0 C28,0 33,6 33,12 C33,19 32,26 29,26" id="Path" stroke="#040404" stroke-width="2" stroke-linecap="round" stroke-linejoin="round"></path>
                <path d="M0,48 L0,45 C0,40 5,36 10,36 C16,41 22,41 28,36 C33,36 38,40 38,45 L38,48" id="Path" stroke="#040404" stroke-width="2" stroke-linecap="round" stroke-linejoin="round"></path>
                <path d="M24.9,18 C24.9,19.1 24,20 22.9,20 C21.8,20 20.9,19.1 20.9,18 C20.9,16.9 21.8,16 22.9,16 C24,16 24.9,16.9 24.9,18" id="Path" fill="#040404" fill-rule="nonzero"></path>
                <path d="M16.9,18 C16.9,19.1 16,20 14.9,20 C13.8,20 12.9,19.1 12.9,18 C12.9,16.9 13.8,16 14.9,16 C16,16 16.9,16.9 16.9,18" id="Path" fill="#040404" fill-rule="nonzero"></path>
                <path d="M7.9,19 C7.8,27 12.8,33 18.9,33 C24.9,33 30,27 30,19 C30,14 27,8 27,8 C19,8 17,11 11,9 C11,9 8,14 7.9,19 Z" id="Path" stroke="#040404" stroke-width="2" stroke-linejoin="round"></path>
                <path d="M15.9,26.2 C18,27 20,27 21.9,26.2" id="Path" stroke="#040404" stroke-width="2" stroke-linecap="round" stroke-linejoin="round"></path>
            </g>
        </g>
        <g id="Women" transform="translate(346.000000, 450.645805)">
            <path d="M23.9666875,0.511208253 C23.9666875,0.511208253 23.9666875,0.511208253 23.9666875,0.511208253 L28.9342458,23.6931471 C31.2189819,23.2384591 33.5816434,23 36,23 C55.882251,23 72,39.117749 72,59 C72,78.882251 55.882251,95 36,95 C16.117749,95 0,78.882251 0,59 C0,41.5361056 12.4352774,26.9766259 28.9342458,23.6931471 L23.9666875,0.511208253 Z" id="Combined-Shape" stroke="#D8D8D8" stroke-width="4" stroke-linecap="square"></path>
            <g id="1-467" transform="translate(17.000000, 35.000000)">
                <path d="M35.6,34.7 C38.5,31.6 39.3,27.9 37.6,23.9 C35.2,18.2 34.6,18.3 34.2,11.1 C34.2,6.9 31,3.4 26.8,3.1 C26.8,3.1 24.2,0.1 18.8,0.1 C12.4,0.1 6.6,3.6 5.1,9.1 C3.6,14.7 5.4,16.9 3.8,21.1 C2,25.8 -2,29.5 2.5,35 C5.3,38.5 11.7,42.1 19.7,42.1 C25.7,42 32.6,37.9 35.6,34.7 Z" id="Path" fill="#F1B31C" fill-rule="nonzero"></path>
                <path d="M1,48.9 L1,45 C1,40 4.8,36 9.8,36 C15.8,41 21.8,41 27.8,36 C32.8,36 37,40 37,45 L37,48.9 L1,48.9 Z" id="Path" fill="#FDE071" fill-rule="nonzero"></path>
                <path d="M8,20 C8,28 12.8,32.9 18.8,32.9 C24.8,32.9 30,28 30,20 C30,16 29,14 29,14 C27,12 25,10 25,10 C25,10 13,12 9,14 C9,14 8,16 8,20 Z" id="Path" fill="#FCEA2B" fill-rule="nonzero"></path>
                <path d="M1,48 L1,44.9 C1,39.9 4.8,35.9 9.8,35.9 C15.8,40.9 21.8,40.9 27.8,35.9 C32.8,35.9 37,39.9 37,44.9 L37,48" id="Path" stroke="#040404" stroke-width="2" stroke-linecap="round" stroke-linejoin="round"></path>
                <path d="M25,19 C25,20.1 24.1,21 23,21 C21.9,21 21,20.1 21,19 C21,17.9 21.9,17 23,17 C24.1,17 25,17.9 25,19" id="Path" fill="#040404" fill-rule="nonzero"></path>
                <path d="M17,19 C17,20.1 16.1,21 15,21 C13.9,21 13,20.1 13,19 C13,17.9 13.9,17 15,17 C16.1,17 17,17.9 17,19" id="Path" fill="#040404" fill-rule="nonzero"></path>
                <path d="M8,20 C8,28 12.8,32.9 18.8,32.9 C24.8,32.9 30,28 30,20 C30,16 29,14 29,14 C27,12 25,10 25,10 C25,10 13,12 9,14 C9,14 8,16 8,20 Z" id="Path" stroke="#040404" stroke-width="2" stroke-linejoin="round"></path>
                <path d="M15.8,26.2 C17.7,27.2 19.9,27.2 21.8,26.2" id="Path" stroke="#040404" stroke-width="2" stroke-linecap="round" stroke-linejoin="round"></path>
                <path d="M3,34 C-1,28 1.2,25.7 3.1,21 C4.7,16.8 2.9,14.5 4.4,9 C5.9,3.5 11.7,0 18.1,0 C23.5,0 26.1,3 26.1,3 C30.3,3.4 33.5,6.9 33.5,11 C33.9,18.2 34.5,18.2 36.9,23.8 C38.7,27.9 37.9,30.6 35,33.9" id="Path" stroke="#040404" stroke-width="2" stroke-linecap="round" stroke-linejoin="round"></path>
            </g>
        </g>
        <g id="Women" transform="translate(382.000000, 95.000000)">
            <path d="M11.1647403,98.8068722 C11.1647403,98.8068722 11.1647403,98.8068722 11.1647403,98.8068722 L22.9601346,69.5657342 C9.52367262,64.3421179 0,51.2832454 0,36 C0,16.117749 16.117749,0 36,0 C55.882251,0 72,16.117749 72,36 C72,55.882251 55.882251,72 36,72 C31.4009944,72 27.0034096,71.1376151 22.9601346,69.5657342 L11.1647403,98.8068722 Z" id="Combined-Shape" stroke="#D8D8D8" stroke-width="4" stroke-linecap="square"></path>
            <g id="1-467" transform="translate(17.000000, 12.000000)">
                <path d="M35.6,34.7 C38.5,31.6 39.3,27.9 37.6,23.9 C35.2,18.2 34.6,18.3 34.2,11.1 C34.2,6.9 31,3.4 26.8,3.1 C26.8,3.1 24.2,0.1 18.8,0.1 C12.4,0.1 6.6,3.6 5.1,9.1 C3.6,14.7 5.4,16.9 3.8,21.1 C2,25.8 -2,29.5 2.5,35 C5.3,38.5 11.7,42.1 19.7,42.1 C25.7,42 32.6,37.9 35.6,34.7 Z" id="Path" fill="#F1B31C" fill-rule="nonzero"></path>
                <path d="M1,48.9 L1,45 C1,40 4.8,36 9.8,36 C15.8,41 21.8,41 27.8,36 C32.8,36 37,40 37,45 L37,48.9 L1,48.9 Z" id="Path" fill="#92D3F5" fill-rule="nonzero"></path>
                <path d="M8,20 C8,28 12.8,32.9 18.8,32.9 C24.8,32.9 30,28 30,20 C30,16 29,14 29,14 C27,12 25,10 25,10 C25,10 13,12 9,14 C9,14 8,16 8,20 Z" id="Path" fill="#FCEA2B" fill-rule="nonzero"></path>
                <path d="M1,48 L1,44.9 C1,39.9 4.8,35.9 9.8,35.9 C15.8,40.9 21.8,40.9 27.8,35.9 C32.8,35.9 37,39.9 37,44.9 L37,48" id="Path" stroke="#040404" stroke-width="2" stroke-linecap="round" stroke-linejoin="round"></path>
                <path d="M25,19 C25,20.1 24.1,21 23,21 C21.9,21 21,20.1 21,19 C21,17.9 21.9,17 23,17 C24.1,17 25,17.9 25,19" id="Path" fill="#040404" fill-rule="nonzero"></path>
                <path d="M17,19 C17,20.1 16.1,21 15,21 C13.9,21 13,20.1 13,19 C13,17.9 13.9,17 15,17 C16.1,17 17,17.9 17,19" id="Path" fill="#040404" fill-rule="nonzero"></path>
                <path d="M8,20 C8,28 12.8,32.9 18.8,32.9 C24.8,32.9 30,28 30,20 C30,16 29,14 29,14 C27,12 25,10 25,10 C25,10 13,12 9,14 C9,14 8,16 8,20 Z" id="Path" stroke="#040404" stroke-width="2" stroke-linejoin="round"></path>
                <path d="M15.8,26.2 C17.7,27.2 19.9,27.2 21.8,26.2" id="Path" stroke="#040404" stroke-width="2" stroke-linecap="round" stroke-linejoin="round"></path>
                <path d="M3,34 C-1,28 1.2,25.7 3.1,21 C4.7,16.8 2.9,14.5 4.4,9 C5.9,3.5 11.7,0 18.1,0 C23.5,0 26.1,3 26.1,3 C30.3,3.4 33.5,6.9 33.5,11 C33.9,18.2 34.5,18.2 36.9,23.8 C38.7,27.9 37.9,30.6 35,33.9" id="Path" stroke="#040404" stroke-width="2" stroke-linecap="round" stroke-linejoin="round"></path>
            </g>
        </g>
        <g id="Women" transform="translate(467.000000, 193.000000)">
            <path d="M0.0100075717,63.3650908 C0.0100075717,63.3650908 0.0100075717,63.3650908 0.0100075717,63.3650908 L19.1839813,53.5057464 C16.5131025,48.4760539 15,42.7376315 15,36.645805 C15,16.763554 31.117749,0.645804954 51,0.645804954 C70.882251,0.645804954 87,16.763554 87,36.645805 C87,56.5280559 70.882251,72.645805 51,72.645805 C37.2095755,72.645805 25.2302063,64.8917557 19.1839813,53.5057464 L0.0100075717,63.3650908 Z" id="Combined-Shape" stroke="#D8D8D8" stroke-width="4" stroke-linecap="square"></path>
            <g id="1-467" transform="translate(32.000000, 12.645805)">
                <path d="M35.6,34.7 C38.5,31.6 39.3,27.9 37.6,23.9 C35.2,18.2 34.6,18.3 34.2,11.1 C34.2,6.9 31,3.4 26.8,3.1 C26.8,3.1 24.2,0.1 18.8,0.1 C12.4,0.1 6.6,3.6 5.1,9.1 C3.6,14.7 5.4,16.9 3.8,21.1 C2,25.8 -2,29.5 2.5,35 C5.3,38.5 11.7,42.1 19.7,42.1 C25.7,42 32.6,37.9 35.6,34.7 Z" id="Path" fill="#F1B31C" fill-rule="nonzero"></path>
                <path d="M1,48.9 L1,45 C1,40 4.8,36 9.8,36 C15.8,41 21.8,41 27.8,36 C32.8,36 37,40 37,45 L37,48.9 L1,48.9 Z" id="Path" fill="#D9614F" fill-rule="nonzero"></path>
                <path d="M8,20 C8,28 12.8,32.9 18.8,32.9 C24.8,32.9 30,28 30,20 C30,16 29,14 29,14 C27,12 25,10 25,10 C25,10 13,12 9,14 C9,14 8,16 8,20 Z" id="Path" fill="#FCEA2B" fill-rule="nonzero"></path>
                <path d="M1,48 L1,44.9 C1,39.9 4.8,35.9 9.8,35.9 C15.8,40.9 21.8,40.9 27.8,35.9 C32.8,35.9 37,39.9 37,44.9 L37,48" id="Path" stroke="#040404" stroke-width="2" stroke-linecap="round" stroke-linejoin="round"></path>
                <path d="M25,19 C25,20.1 24.1,21 23,21 C21.9,21 21,20.1 21,19 C21,17.9 21.9,17 23,17 C24.1,17 25,17.9 25,19" id="Path" fill="#040404" fill-rule="nonzero"></path>
                <path d="M17,19 C17,20.1 16.1,21 15,21 C13.9,21 13,20.1 13,19 C13,17.9 13.9,17 15,17 C16.1,17 17,17.9 17,19" id="Path" fill="#040404" fill-rule="nonzero"></path>
                <path d="M8,20 C8,28 12.8,32.9 18.8,32.9 C24.8,32.9 30,28 30,20 C30,16 29,14 29,14 C27,12 25,10 25,10 C25,10 13,12 9,14 C9,14 8,16 8,20 Z" id="Path" stroke="#040404" stroke-width="2" stroke-linejoin="round"></path>
                <path d="M15.8,26.2 C17.7,27.2 19.9,27.2 21.8,26.2" id="Path" stroke="#040404" stroke-width="2" stroke-linecap="round" stroke-linejoin="round"></path>
                <path d="M3,34 C-1,28 1.2,25.7 3.1,21 C4.7,16.8 2.9,14.5 4.4,9 C5.9,3.5 11.7,0 18.1,0 C23.5,0 26.1,3 26.1,3 C30.3,3.4 33.5,6.9 33.5,11 C33.9,18.2 34.5,18.2 36.9,23.8 C38.7,27.9 37.9,30.6 35,33.9" id="Path" stroke="#040404" stroke-width="2" stroke-linecap="round" stroke-linejoin="round"></path>
            </g>
        </g>
        <g id="JuiceShop" transform="translate(225.000000, 194.645805)">
            <circle id="Oval" stroke="#D8D8D8" stroke-width="4" fill="#FFFFFF" cx="125" cy="125" r="125"></circle>
            <g id="logo" transform="translate(47.000000, 37.000000)">
                <g id="Layer_3" transform="translate(0.000000, 122.000000)" fill="#CF3A23">
                    <path d="M156.753714,26.1159385 C159.264665,3.38012849 124.111646,-0.478759777 80.8645878,0.225653631 C43.8118387,0.829005587 35.6148807,8.00436872 23.3648359,22.6575251 C15.0483302,32.6054413 0.121195611,33.4100112 0.121195611,42.5607486 C0.121195611,54.4268715 35.0145954,43.2828101 67.532771,45.2940838 C83.2615344,46.266838 90.3524513,55.2314413 104.33474,53.8278939 C115.48129,52.7089777 110.523805,48.2928939 128.004587,42.0587598 C143.072392,36.6851564 155.446629,37.9523464 156.753714,26.1159385 Z" id="Path"></path>
                </g>
                <g id="Layer_4" transform="translate(21.000000, 122.000000)">
                    <path d="M135.754573,26.1159385 C138.256764,3.38012849 103.215491,-0.981050279 60.130213,0.225653631 C51.5041405,0.467296089 83.0636048,20.4468436 77.2653172,22.6575251 C72.5480132,24.4561173 46.7940022,25.5670391 34.2539363,22.6575251 C22.7557409,19.9898045 10.7071262,31.3878771 7.64093085,35.5223464 C-2.84375851,49.6593352 21.6093699,31.2264804 52.7654621,40.4496201 C68.3908321,45.0752179 69.5849748,55.2314413 83.5184808,53.8278939 C94.6261427,52.7089777 89.6859539,48.2928939 107.105748,42.0587598 C122.120984,36.6851564 134.452048,37.9523464 135.754573,26.1159385 Z" id="Path" fill="#DD6031"></path>
                    <path d="M125.270332,29.4826425 C122.772918,28.8863799 124.984299,26.622905 125.746854,23.3610335 C126.509409,20.099162 125.534718,17.0750112 128.032281,17.6709721 C130.529695,18.2672346 131.935824,21.3945587 131.17312,24.6564302 C130.410564,27.918 127.767745,30.0787542 125.270332,29.4826425 Z" id="Path" fill="#FFFFFF"></path>
                    <ellipse id="Oval" fill="#DD6031" cx="36.8913809" cy="19.9232849" rx="4.52830735" ry="2.04928492"></ellipse>
                    <ellipse id="Oval" fill="#DD6031" cx="42.4148321" cy="16.2150838" rx="2.68715697" ry="1"></ellipse>
                    <ellipse id="Oval" fill="#DD6031" cx="2.15733919" cy="43.0140168" rx="2.13972338" ry="1.45830168"></ellipse>
                    <ellipse id="Oval" fill="#FFFFFF" cx="118.613199" cy="31.567676" rx="2.87376509" ry="2.43905028"></ellipse>
                    <ellipse id="Oval" fill="#CF3A23" transform="translate(76.121281, 47.937098) rotate(18.663247) translate(-76.121281, -47.937098) " cx="76.1212814" cy="47.9370983" rx="6.22280836" ry="2.81018843"></ellipse>
                    <ellipse id="Oval" fill="#CF3A23" transform="translate(84.916098, 45.566353) rotate(18.663247) translate(-84.916098, -45.566353) " cx="84.9160976" cy="45.5663534" rx="3.69273513" ry="1"></ellipse>
                </g>
                <g id="Juice_Box" transform="translate(52.000000, 0.000000)">
                    <polygon id="Path" fill="#FDD84E" points="25.6015288 0.104597523 71.7548654 5.81092363 72.5496875 11.8962848 92.9326346 38.6124974 46.755601 40.8264035 25.1025481 8.92146543"></polygon>
                    <polygon id="Path" fill="#CCA941" points="28.4343029 13.7916099 47.5110769 41.674257 2.99850481 37.8675955 1.79829808 37.6769556"></polygon>
                    <polygon id="Path" fill="#BF8C3A" points="25.6015288 0.104597523 23.5777356 0.104597523 23.4664038 8.90335913 0.116846154 37.5591899 1.79829808 37.6769556 28.4343029 13.7916099 25.1025481 8.92146543"></polygon>
                    <path d="M63.9170817,23.7750619 C65.4857115,25.1381218 70.3884808,28.4812023 73.1164808,25.9548504 C73.1164808,25.9548504 68.9997404,30.4824716 68.1268221,31.4950774 C66.5443317,33.3308462 62.4255048,32.3550516 58.9274231,29.315289 C55.4294904,26.275676 53.8769567,22.3231166 55.4595962,20.4871981 C56.00925,19.8497368 60.4492548,14.9469711 60.4492548,14.9469711 C58.7634808,17.1336429 61.6339615,21.791001 63.9170817,23.7750619 Z" id="Path" fill="#712012"></path>
                    <ellipse id="Oval" fill="#CF3A23" transform="translate(66.778073, 20.452623) rotate(-49.124009) translate(-66.778073, -20.452623) " cx="66.7780728" cy="20.4526233" rx="4.38870548" ry="8.39085407"></ellipse>
                    <polygon id="Path" fill="#CCA941" points="8.463 133.003607 46.4350192 144.881935 84.6413269 134.151486 92.9326346 38.6124974 46.755601 40.8264035 0.116846154 37.5591899"></polygon>
                    <polygon id="Path" fill="#FDD84E" points="80.5976154 131.158261 46.755601 140.136589 47.5168894 44.6264809 88.7947308 42.422451"></polygon>
                </g>
                <g id="Layer_5" transform="translate(67.000000, 57.000000)" fill="#FFFFFF">
                    <polygon id="Path" points="63.2010354 60.0571435 36.6420708 65.8929567 36.6420708 54.74918 55.5310265 49.9385467 55.4404602 40.6170615 36.9739469 44.7265011 37.4779292 2.53070159 67.9905221 0.0879498861 67.0783894 11.5080547 46.3135664 14.4255854 46.2240531 31.4964328 65.7534425 28.0952528"></polygon>
                    <polygon id="Path" points="0.912283186 60.0571435 27.4713982 65.8929567 27.4713982 54.74918 27.1393717 44.7265011 26.6353894 2.53070159 17.3186372 1.82695216 17.7997522 14.4255854 18.221292 54.2482415 0.144424779 50.4414396"></polygon>
                </g>
                <g id="Layer_7" transform="translate(72.000000, 59.000000)">
                    <path d="M0.117090909,3.42692881 C0.117090909,1.54686102 0.817545455,0.0226711864 1.68168831,0.0226711864 L3.50705195,0.0226711864 C4.37104545,0.0226711864 5.0717987,1.54671186 5.0717987,3.42692881 L5.0717987,81.5382644 C5.0717987,83.4181831 4.37119481,84.9422237 3.50705195,84.9422237 L1.68168831,84.9422237 C0.817694805,84.9422237 0.117090909,83.4180339 0.117090909,81.5382644 L0.117090909,3.42692881 Z" id="Path" fill="#CF3A23"></path>
                    <path d="M41.0445455,53.1749695 C41.0445455,52.3735729 41.745,51.7238644 42.6091429,51.7238644 L44.4345065,51.7238644 C45.2985,51.7238644 45.9992532,52.3734237 45.9992532,53.1749695 L45.9992532,78.0810576 L45.9992532,80.3763661 L45.9992532,86.4738712 C45.9992532,87.2752678 45.2986494,87.9251254 44.4345065,87.9251254 L42.6091429,87.9251254 C41.7451494,87.9251254 41.0445455,87.2752678 41.0445455,86.4738712 L41.0445455,81.7603525 L41.0445455,79.6471593 L41.0445455,53.1749695 Z" id="Path" fill="#DD6031"></path>
                </g>
                <g id="Layer_6" transform="translate(2.000000, 17.000000)">
                    <path d="M39.8592569,0.00791517324 C39.8592569,0.00791517324 40.2533955,0.245519713 38.4996141,1.67906213 C36.7458326,3.11260454 36.0674392,3.10737754 36.0674392,3.10737754 L71.2748987,45.6238053 C71.2748987,45.6238053 72.8045533,46.0721326 74.091291,44.9770012 C75.3780288,43.8818698 75.3031695,42.8098865 75.3031695,42.8098865 L39.8592569,0.00791517324 Z" id="Path" fill="#050402"></path>
                    <path d="M140.030136,120.974462 L115.767013,91.6741338 C115.767013,91.6741338 115.03736,91.4090502 113.083203,92.2189367 C111.261777,92.9741637 111.523334,94.2280466 111.523334,94.2280466 L136.238319,124.073925 L140.967531,124.999701 L140.030136,120.974462 Z" id="Path" fill="#050402"></path>
                    <g id="Group" transform="translate(0.000000, 2.986858)" fill-rule="nonzero">
                        <polygon id="Path" fill="#712012" points="8.96492431 37.2979391 0.0637356077 52.5341995 30.2571269 72.6142473 39.8777463 57.8260155"></polygon>
                        <path d="M2.85246908,38.0053763 C2.85246908,38.0053763 10.9718443,26.5141876 17.0922665,19.765681 C23.2129893,13.0171744 36.0672889,0.120669056 36.0672889,0.120669056 L61.4157217,30.7314815 C61.4157217,30.7314815 49.2300448,40.3015233 45.1503646,44.3615591 C41.0706844,48.421595 32.0853166,60.0008961 32.0853166,60.0008961 L2.85246908,38.0053763 Z" id="Path" fill="#CF3A23"></path>
                    </g>
                </g>
            </g>
        </g>
        <path d="M697.015625,329.515625 C693.640608,329.515625 690.437515,329.187503 687.40625,328.53125 L687.40625,314.140625 C688.40625,314.328126 689.468744,314.539061 690.59375,314.773438 C691.718756,315.007814 692.937493,315.125 694.25,315.125 C697.312515,315.125 699.499993,314.203134 700.8125,312.359375 C702.125007,310.515616 702.78125,307.359397 702.78125,302.890625 L702.78125,239.46875 L721.390625,239.46875 L721.390625,301.296875 C721.390625,310.578171 719.359395,317.601539 715.296875,322.367188 C711.234355,327.132836 705.140666,329.515625 697.015625,329.515625 Z M772.953125,308 L770.65625,301.390625 L769.578125,301.390625 C768.046867,303.828137 765.914076,305.695306 763.179688,306.992188 C760.445299,308.289069 757.234393,308.9375 753.546875,308.9375 C747.703096,308.9375 743.156266,307.242204 739.90625,303.851562 C736.656234,300.460921 735.03125,295.671906 735.03125,289.484375 L735.03125,254.890625 L753.359375,254.890625 L753.359375,283.90625 C753.359375,287.375017 753.851558,289.999991 754.835938,291.78125 C755.820317,293.562509 757.437489,294.453125 759.6875,294.453125 C762.843766,294.453125 765.093743,293.21095 766.4375,290.726562 C767.781257,288.242175 768.453125,284.046905 768.453125,278.140625 L768.453125,254.890625 L786.78125,254.890625 L786.78125,308 L772.953125,308 Z M817.859375,308 L799.53125,308 L799.53125,254.890625 L817.859375,254.890625 L817.859375,308 Z M799.0625,241.671875 C799.0625,238.921861 799.828117,236.875007 801.359375,235.53125 C802.890633,234.187493 805.359358,233.515625 808.765625,233.515625 C812.171892,233.515625 814.656242,234.203118 816.21875,235.578125 C817.781258,236.953132 818.5625,238.984362 818.5625,241.671875 C818.5625,247.046902 815.296908,249.734375 808.765625,249.734375 C802.296843,249.734375 799.0625,247.046902 799.0625,241.671875 Z M854.84375,308.9375 C846.156207,308.9375 839.570335,306.593773 835.085938,301.90625 C830.60154,297.218727 828.359375,290.484419 828.359375,281.703125 C828.359375,272.890581 830.781226,266.062524 835.625,261.21875 C840.468774,256.374976 847.35933,253.953125 856.296875,253.953125 C862.453156,253.953125 868.249973,255.296862 873.6875,257.984375 L868.296875,271.53125 C866.078114,270.562495 864.031259,269.789065 862.15625,269.210938 C860.281241,268.63281 858.328135,268.34375 856.296875,268.34375 C853.32811,268.34375 851.031258,269.499988 849.40625,271.8125 C847.781242,274.125012 846.96875,277.390604 846.96875,281.609375 C846.96875,290.109418 850.109344,294.359375 856.390625,294.359375 C861.765652,294.359375 866.92185,292.796891 871.859375,289.671875 L871.859375,304.25 C867.140601,307.375016 861.468783,308.9375 854.84375,308.9375 Z M875.984375,254.890625 L895.296875,254.890625 L904.296875,285.359375 C904.734377,286.953133 905.031249,288.874989 905.1875,291.125 L905.5625,291.125 C905.812501,288.968739 906.187498,287.078133 906.6875,285.453125 L915.921875,254.890625 L934.625,254.890625 L913.625,311.375 C910.937487,318.562536 907.632832,323.64061 903.710938,326.609375 C899.789043,329.57814 894.671907,331.0625 888.359375,331.0625 C885.921863,331.0625 883.421888,330.796878 880.859375,330.265625 L880.859375,315.875 C882.515633,316.250002 884.406239,316.4375 886.53125,316.4375 C888.156258,316.4375 889.578119,316.125003 890.796875,315.5 C892.015631,314.874997 893.07812,313.992193 893.984375,312.851562 C894.89063,311.710932 895.85937,309.843763 896.890625,307.25 L875.984375,254.890625 Z M972.546875,253.671875 C968.140603,253.671875 964.703137,255.476544 962.234375,259.085938 C959.765613,262.695331 958.53125,267.671843 958.53125,274.015625 C958.53125,287.203191 963.546825,293.796875 973.578125,293.796875 C976.60939,293.796875 979.546861,293.375004 982.390625,292.53125 C985.234389,291.687496 988.093736,290.671881 990.96875,289.484375 L990.96875,305.140625 C985.249971,307.671888 978.781286,308.9375 971.5625,308.9375 C961.218698,308.9375 953.28909,305.93753 947.773438,299.9375 C942.257785,293.93747 939.5,285.265682 939.5,273.921875 C939.5,266.82809 940.835924,260.593777 943.507812,255.21875 C946.179701,249.843723 950.023412,245.710952 955.039062,242.820312 C960.054713,239.929673 965.953091,238.484375 972.734375,238.484375 C980.140662,238.484375 987.218716,240.093734 993.96875,243.3125 L988.296875,257.890625 C985.765612,256.703119 983.234388,255.703129 980.703125,254.890625 C978.171862,254.078121 975.45314,253.671875 972.546875,253.671875 Z M1034.5625,308 L1016.04688,308 L1016.04688,254.609375 L999.3125,254.609375 L999.3125,239.46875 L1051.25,239.46875 L1051.25,254.609375 L1034.5625,254.609375 L1034.5625,308 Z M1079.28125,308 L1061.04688,308 L1061.04688,239.46875 L1101.54688,239.46875 L1101.54688,254.328125 L1079.28125,254.328125 L1079.28125,267.40625 L1099.8125,267.40625 L1099.8125,282.265625 L1079.28125,282.265625 L1079.28125,308 Z" id="JuicyCTF" fill="#CF3A23" fill-rule="nonzero"></path>
        <path d="M696.179688,364 L689.640625,346.914062 L689.535156,346.914062 C689.658204,348.267585 689.719727,349.875967 689.719727,351.739258 L689.719727,364 L687.649902,364 L687.649902,344.725586 L691.024902,344.725586 L697.128906,360.625 L697.234375,360.625 L703.391113,344.725586 L706.739746,344.725586 L706.739746,364 L704.498535,364 L704.498535,351.581055 C704.498535,350.157219 704.560058,348.61036 704.683105,346.94043 L704.577637,346.94043 L697.98584,364 L696.179688,364 Z M714.753418,349.550781 L714.753418,358.924316 C714.753418,360.102057 715.021482,360.980954 715.557617,361.561035 C716.093753,362.141116 716.9331,362.431152 718.075684,362.431152 C719.58741,362.431152 720.692623,362.018071 721.391357,361.191895 C722.090091,360.365719 722.439453,359.016611 722.439453,357.144531 L722.439453,349.550781 L724.62793,349.550781 L724.62793,364 L722.821777,364 L722.505371,362.062012 L722.386719,362.062012 C721.938474,362.773929 721.316654,363.318846 720.52124,363.696777 C719.725826,364.074709 718.818364,364.263672 717.798828,364.263672 C716.041007,364.263672 714.724858,363.846196 713.850342,363.01123 C712.975826,362.176265 712.538574,360.840341 712.538574,359.003418 L712.538574,349.550781 L714.753418,349.550781 Z M732.457031,364 L730.268555,364 L730.268555,343.486328 L732.457031,343.486328 L732.457031,364 Z M742.764648,362.45752 C743.151369,362.45752 743.524901,362.428955 743.885254,362.371826 C744.245607,362.314697 744.531249,362.255371 744.742188,362.193848 L744.742188,363.868164 C744.504882,363.982422 744.15552,364.076904 743.694092,364.151611 C743.232664,364.226319 742.817385,364.263672 742.448242,364.263672 C739.653306,364.263672 738.255859,362.791519 738.255859,359.847168 L738.255859,351.251465 L736.186035,351.251465 L736.186035,350.196777 L738.255859,349.287109 L739.178711,346.202148 L740.444336,346.202148 L740.444336,349.550781 L744.636719,349.550781 L744.636719,351.251465 L740.444336,351.251465 L740.444336,359.754883 C740.444336,360.625004 740.650877,361.292966 741.063965,361.758789 C741.477053,362.224612 742.043942,362.45752 742.764648,362.45752 Z M750.817871,364 L748.629395,364 L748.629395,349.550781 L750.817871,349.550781 L750.817871,364 Z M748.444824,345.635254 C748.444824,345.134275 748.56787,344.767335 748.813965,344.534424 C749.06006,344.301513 749.367674,344.185059 749.736816,344.185059 C750.088381,344.185059 750.3916,344.30371 750.646484,344.541016 C750.901368,344.778321 751.028809,345.143064 751.028809,345.635254 C751.028809,346.127444 750.901368,346.494384 750.646484,346.736084 C750.3916,346.977784 750.088381,347.098633 749.736816,347.098633 C749.367674,347.098633 749.06006,346.977784 748.813965,346.736084 C748.56787,346.494384 748.444824,346.127444 748.444824,345.635254 Z M779.356445,344.725586 L779.356445,357.197266 C779.356445,359.394542 778.692878,361.121576 777.365723,362.378418 C776.038568,363.63526 774.214855,364.263672 771.894531,364.263672 C769.574207,364.263672 767.779059,363.630866 766.509033,362.365234 C765.239007,361.099603 764.604004,359.359386 764.604004,357.144531 L764.604004,344.725586 L766.845215,344.725586 L766.845215,357.302734 C766.845215,358.911141 767.284664,360.145992 768.163574,361.007324 C769.042485,361.868657 770.334464,362.299316 772.039551,362.299316 C773.665535,362.299316 774.917964,361.866459 775.796875,361.000732 C776.675786,360.135005 777.115234,358.893563 777.115234,357.276367 L777.115234,344.725586 L779.356445,344.725586 Z M794.449707,360.058105 C794.449707,361.402839 793.948735,362.439938 792.946777,363.169434 C791.944819,363.898929 790.538583,364.263672 788.728027,364.263672 C786.812002,364.263672 785.317876,363.960452 784.245605,363.354004 L784.245605,361.32373 C784.939945,361.675295 785.68481,361.952147 786.480225,362.154297 C787.275639,362.356446 788.042477,362.45752 788.780762,362.45752 C789.923346,362.45752 790.802243,362.275148 791.41748,361.9104 C792.032718,361.545652 792.340332,360.98975 792.340332,360.242676 C792.340332,359.680173 792.096438,359.198977 791.608643,358.799072 C791.120847,358.399168 790.169441,357.926761 788.754395,357.381836 C787.409661,356.880857 786.45386,356.443605 785.886963,356.070068 C785.320066,355.696531 784.898195,355.272463 784.621338,354.797852 C784.344481,354.32324 784.206055,353.756351 784.206055,353.097168 C784.206055,351.919428 784.685054,350.989994 785.643066,350.308838 C786.601079,349.627682 787.915031,349.287109 789.584961,349.287109 C791.140633,349.287109 792.661125,349.603512 794.146484,350.236328 L793.368652,352.016113 C791.91845,351.418454 790.604498,351.119629 789.426758,351.119629 C788.389643,351.119629 787.607425,351.282225 787.080078,351.607422 C786.552732,351.932619 786.289062,352.380857 786.289062,352.952148 C786.289062,353.338869 786.387938,353.668456 786.585693,353.940918 C786.783448,354.21338 787.102049,354.472655 787.541504,354.71875 C787.980959,354.964845 788.824701,355.320798 790.072754,355.786621 C791.78663,356.410648 792.944577,357.039059 793.546631,357.671875 C794.148685,358.304691 794.449707,359.100093 794.449707,360.058105 Z M805.113281,364.263672 C802.977528,364.263672 801.292243,363.613288 800.057373,362.3125 C798.822504,361.011712 798.205078,359.205578 798.205078,356.894043 C798.205078,354.56493 798.778559,352.714851 799.925537,351.34375 C801.072516,349.972649 802.612783,349.287109 804.546387,349.287109 C806.356943,349.287109 807.789546,349.882562 808.844238,351.073486 C809.898931,352.26441 810.42627,353.835439 810.42627,355.786621 L810.42627,357.170898 L800.472656,357.170898 C800.516602,358.867196 800.945064,360.154781 801.758057,361.033691 C802.571049,361.912602 803.715813,362.352051 805.192383,362.352051 C806.748055,362.352051 808.286125,362.026859 809.806641,361.376465 L809.806641,363.327637 C809.033199,363.661623 808.301517,363.901122 807.611572,364.046143 C806.921627,364.191163 806.088872,364.263672 805.113281,364.263672 Z M804.52002,351.119629 C803.359857,351.119629 802.434818,351.497555 801.744873,352.253418 C801.054928,353.009281 800.648438,354.055169 800.525391,355.391113 L808.07959,355.391113 C808.07959,354.011224 807.771976,352.954349 807.156738,352.220459 C806.541501,351.486569 805.662603,351.119629 804.52002,351.119629 Z M821.749023,349.287109 C822.390628,349.287109 822.966306,349.339843 823.476074,349.445312 L823.172852,351.475586 C822.575192,351.343749 822.047854,351.277832 821.59082,351.277832 C820.421869,351.277832 819.422123,351.752437 818.591553,352.70166 C817.760982,353.650884 817.345703,354.833001 817.345703,356.248047 L817.345703,364 L815.157227,364 L815.157227,349.550781 L816.963379,349.550781 L817.213867,352.227051 L817.319336,352.227051 C817.855471,351.286616 818.501461,350.561526 819.257324,350.051758 C820.013187,349.54199 820.843745,349.287109 821.749023,349.287109 Z M832.713867,369.075684 C831.887691,369.075684 831.237307,368.957032 830.762695,368.719727 L830.762695,366.808105 C831.386722,366.983888 832.037106,367.071777 832.713867,367.071777 C833.583989,367.071777 834.245359,366.808108 834.697998,366.280762 C835.150637,365.753415 835.376953,364.993169 835.376953,364 L835.376953,344.725586 L837.618164,344.725586 L837.618164,363.81543 C837.618164,365.48536 837.196293,366.779536 836.352539,367.697998 C835.508785,368.61646 834.295906,369.075684 832.713867,369.075684 Z M845.460449,349.550781 L845.460449,358.924316 C845.460449,360.102057 845.728513,360.980954 846.264648,361.561035 C846.800784,362.141116 847.640131,362.431152 848.782715,362.431152 C850.294441,362.431152 851.399655,362.018071 852.098389,361.191895 C852.797123,360.365719 853.146484,359.016611 853.146484,357.144531 L853.146484,349.550781 L855.334961,349.550781 L855.334961,364 L853.528809,364 L853.212402,362.062012 L853.09375,362.062012 C852.645506,362.773929 852.023686,363.318846 851.228271,363.696777 C850.432857,364.074709 849.525396,364.263672 848.505859,364.263672 C846.748038,364.263672 845.431889,363.846196 844.557373,363.01123 C843.682857,362.176265 843.245605,360.840341 843.245605,359.003418 L843.245605,349.550781 L845.460449,349.550781 Z M863.164062,364 L860.975586,364 L860.975586,349.550781 L863.164062,349.550781 L863.164062,364 Z M860.791016,345.635254 C860.791016,345.134275 860.914061,344.767335 861.160156,344.534424 C861.406251,344.301513 861.713865,344.185059 862.083008,344.185059 C862.434572,344.185059 862.737792,344.30371 862.992676,344.541016 C863.24756,344.778321 863.375,345.143064 863.375,345.635254 C863.375,346.127444 863.24756,346.494384 862.992676,346.736084 C862.737792,346.977784 862.434572,347.098633 862.083008,347.098633 C861.713865,347.098633 861.406251,346.977784 861.160156,346.736084 C860.914061,346.494384 860.791016,346.127444 860.791016,345.635254 Z M874.579102,364.263672 C872.487294,364.263672 870.867926,363.619879 869.720947,362.332275 C868.573969,361.044671 868.000488,359.223156 868.000488,356.867676 C868.000488,354.450672 868.582758,352.583014 869.747314,351.264648 C870.911871,349.946282 872.57079,349.287109 874.724121,349.287109 C875.418461,349.287109 876.112789,349.361816 876.807129,349.51123 C877.501468,349.660645 878.046385,349.836425 878.441895,350.038574 L877.769531,351.897461 C877.28613,351.704101 876.758792,351.543702 876.1875,351.41626 C875.616208,351.288818 875.110842,351.225098 874.671387,351.225098 C871.735825,351.225098 870.268066,353.097149 870.268066,356.841309 C870.268066,358.616708 870.626217,359.978999 871.342529,360.928223 C872.058841,361.877446 873.12011,362.352051 874.526367,362.352051 C875.730475,362.352051 876.965326,362.092776 878.230957,361.574219 L878.230957,363.512207 C877.264155,364.013186 876.046882,364.263672 874.579102,364.263672 Z M888.762695,364.263672 C886.626942,364.263672 884.941657,363.613288 883.706787,362.3125 C882.471918,361.011712 881.854492,359.205578 881.854492,356.894043 C881.854492,354.56493 882.427973,352.714851 883.574951,351.34375 C884.72193,349.972649 886.262197,349.287109 888.195801,349.287109 C890.006357,349.287109 891.43896,349.882562 892.493652,351.073486 C893.548345,352.26441 894.075684,353.835439 894.075684,355.786621 L894.075684,357.170898 L884.12207,357.170898 C884.166016,358.867196 884.594478,360.154781 885.407471,361.033691 C886.220463,361.912602 887.365227,362.352051 888.841797,362.352051 C890.397469,362.352051 891.935539,362.026859 893.456055,361.376465 L893.456055,363.327637 C892.682613,363.661623 891.950931,363.901122 891.260986,364.046143 C890.571041,364.191163 889.738286,364.263672 888.762695,364.263672 Z M888.169434,351.119629 C887.009272,351.119629 886.084232,351.497555 885.394287,352.253418 C884.704342,353.009281 884.297852,354.055169 884.174805,355.391113 L891.729004,355.391113 C891.729004,354.011224 891.42139,352.954349 890.806152,352.220459 C890.190915,351.486569 889.312017,351.119629 888.169434,351.119629 Z M918.026367,358.871582 C918.026367,360.56788 917.411139,361.89062 916.180664,362.839844 C914.950189,363.789067 913.280284,364.263672 911.170898,364.263672 C908.885731,364.263672 907.127936,363.969241 905.897461,363.380371 L905.897461,361.218262 C906.688481,361.552248 907.5498,361.815917 908.481445,362.009277 C909.413091,362.202638 910.335933,362.299316 911.25,362.299316 C912.744148,362.299316 913.869137,362.015872 914.625,361.448975 C915.380863,360.882077 915.758789,360.093267 915.758789,359.08252 C915.758789,358.414547 915.624757,357.867434 915.356689,357.441162 C915.088622,357.01489 914.640384,356.621584 914.011963,356.26123 C913.383542,355.900877 912.427741,355.49219 911.144531,355.035156 C909.351554,354.393551 908.07056,353.633305 907.301514,352.754395 C906.532467,351.875484 906.147949,350.728523 906.147949,349.313477 C906.147949,347.828118 906.706049,346.646 907.822266,345.76709 C908.938482,344.888179 910.41503,344.44873 912.251953,344.44873 C914.167978,344.44873 915.930168,344.800289 917.538574,345.503418 L916.839844,347.45459 C915.249015,346.786618 913.702156,346.452637 912.199219,346.452637 C911.012689,346.452637 910.085453,346.707517 909.41748,347.217285 C908.749508,347.727053 908.415527,348.434566 908.415527,349.339844 C908.415527,350.007816 908.538573,350.55493 908.784668,350.981201 C909.030763,351.407473 909.446042,351.798582 910.030518,352.154541 C910.614993,352.5105 911.509271,352.903806 912.713379,353.334473 C914.734873,354.055179 916.125729,354.828609 916.885986,355.654785 C917.646244,356.480961 918.026367,357.553216 918.026367,358.871582 Z M932.526367,364 L932.526367,354.652832 C932.526367,353.475092 932.258303,352.596194 931.722168,352.016113 C931.186032,351.436032 930.346685,351.145996 929.204102,351.145996 C927.683586,351.145996 926.573978,351.559078 925.875244,352.385254 C925.17651,353.21143 924.827148,354.564932 924.827148,356.445801 L924.827148,364 L922.638672,364 L922.638672,343.486328 L924.827148,343.486328 L924.827148,349.695801 C924.827148,350.442875 924.791993,351.062498 924.72168,351.554688 L924.853516,351.554688 C925.284182,350.860348 925.897213,350.313234 926.692627,349.91333 C927.488041,349.513426 928.395503,349.313477 929.415039,349.313477 C931.181649,349.313477 932.506587,349.73315 933.389893,350.57251 C934.273198,351.411869 934.714844,352.745596 934.714844,354.57373 L934.714844,364 L932.526367,364 Z M952.682129,356.762207 C952.682129,359.117688 952.088873,360.95678 950.902344,362.279541 C949.715814,363.602302 948.076671,364.263672 945.984863,364.263672 C944.692865,364.263672 943.545903,363.960452 942.543945,363.354004 C941.541987,362.747556 940.768557,361.877447 940.223633,360.743652 C939.678708,359.609858 939.40625,358.282722 939.40625,356.762207 C939.40625,354.406727 939.995111,352.572028 941.172852,351.258057 C942.350592,349.944085 943.985341,349.287109 946.077148,349.287109 C948.098643,349.287109 949.704828,349.959466 950.895752,351.304199 C952.086676,352.648933 952.682129,354.46825 952.682129,356.762207 Z M941.673828,356.762207 C941.673828,358.607919 942.042965,360.014155 942.78125,360.980957 C943.519535,361.947759 944.604973,362.431152 946.037598,362.431152 C947.470222,362.431152 948.557858,361.949956 949.300537,360.987549 C950.043217,360.025142 950.414551,358.616708 950.414551,356.762207 C950.414551,354.925284 950.043217,353.530034 949.300537,352.576416 C948.557858,351.622798 947.461433,351.145996 946.01123,351.145996 C944.578606,351.145996 943.497562,351.616206 942.768066,352.556641 C942.038571,353.497075 941.673828,354.898916 941.673828,356.762207 Z M964.242188,364.263672 C963.301753,364.263672 962.442631,364.09009 961.664795,363.74292 C960.886959,363.39575 960.234378,362.86182 959.707031,362.141113 L959.548828,362.141113 C959.654297,362.984868 959.707031,363.784664 959.707031,364.540527 L959.707031,370.486328 L957.518555,370.486328 L957.518555,349.550781 L959.29834,349.550781 L959.601562,351.52832 L959.707031,351.52832 C960.269534,350.737301 960.924313,350.166017 961.671387,349.814453 C962.418461,349.462889 963.275386,349.287109 964.242188,349.287109 C966.158213,349.287109 967.636958,349.941888 968.678467,351.251465 C969.719976,352.561042 970.240723,354.397937 970.240723,356.762207 C970.240723,359.135266 969.711187,360.978753 968.6521,362.292725 C967.593012,363.606696 966.123056,364.263672 964.242188,364.263672 Z M963.925781,351.145996 C962.449211,351.145996 961.381351,351.554683 960.722168,352.37207 C960.062985,353.189457 959.724609,354.490225 959.707031,356.274414 L959.707031,356.762207 C959.707031,358.792491 960.045407,360.244869 960.722168,361.119385 C961.398929,361.993901 962.484368,362.431152 963.978516,362.431152 C965.226569,362.431152 966.204342,361.925786 966.911865,360.915039 C967.619388,359.904292 967.973145,358.511239 967.973145,356.73584 C967.973145,354.934073 967.619388,353.552007 966.911865,352.5896 C966.204342,351.627192 965.208991,351.145996 963.925781,351.145996 Z M995.628418,350.341797 C995.628418,352.292979 994.962653,353.793696 993.631104,354.843994 C992.299554,355.894292 990.394544,356.419434 987.916016,356.419434 L985.648438,356.419434 L985.648438,364 L983.407227,364 L983.407227,344.725586 L988.403809,344.725586 C993.220239,344.725586 995.628418,346.597638 995.628418,350.341797 Z M985.648438,354.494629 L987.665527,354.494629 C989.651865,354.494629 991.088863,354.173831 991.976562,353.532227 C992.864262,352.890622 993.308105,351.862312 993.308105,350.447266 C993.308105,349.172845 992.890629,348.223636 992.055664,347.599609 C991.220699,346.975583 989.919931,346.663574 988.15332,346.663574 L985.648438,346.663574 L985.648438,354.494629 Z M1002.52148,364 L1000.33301,364 L1000.33301,343.486328 L1002.52148,343.486328 L1002.52148,364 Z M1017.04785,364 L1016.61279,361.943359 L1016.50732,361.943359 C1015.78662,362.848637 1015.06812,363.461668 1014.35181,363.782471 C1013.63549,364.103273 1012.74122,364.263672 1011.66895,364.263672 C1010.23632,364.263672 1009.11353,363.894535 1008.30054,363.15625 C1007.48754,362.417965 1007.08105,361.367683 1007.08105,360.005371 C1007.08105,357.087388 1009.41453,355.558106 1014.08154,355.41748 L1016.53369,355.338379 L1016.53369,354.441895 C1016.53369,353.3081 1016.2898,352.47095 1015.802,351.93042 C1015.31421,351.38989 1014.53419,351.119629 1013.46191,351.119629 C1012.25781,351.119629 1010.89552,351.488766 1009.375,352.227051 L1008.70264,350.552734 C1009.41455,350.166014 1010.19458,349.862794 1011.04272,349.643066 C1011.89087,349.423339 1012.74121,349.313477 1013.59375,349.313477 C1015.31641,349.313477 1016.59301,349.695797 1017.42358,350.460449 C1018.25415,351.225101 1018.66943,352.451163 1018.66943,354.138672 L1018.66943,364 L1017.04785,364 Z M1012.104,362.45752 C1013.46632,362.45752 1014.53637,362.083988 1015.31421,361.336914 C1016.09204,360.58984 1016.48096,359.543952 1016.48096,358.199219 L1016.48096,356.894043 L1014.29248,356.986328 C1012.55224,357.047852 1011.29761,357.318113 1010.52856,357.797119 C1009.75952,358.276125 1009.375,359.020991 1009.375,360.031738 C1009.375,360.822758 1009.6145,361.424803 1010.09351,361.837891 C1010.57251,362.250979 1011.24267,362.45752 1012.104,362.45752 Z M1028.84521,362.45752 C1029.23194,362.45752 1029.60547,362.428955 1029.96582,362.371826 C1030.32617,362.314697 1030.61182,362.255371 1030.82275,362.193848 L1030.82275,363.868164 C1030.58545,363.982422 1030.23609,364.076904 1029.77466,364.151611 C1029.31323,364.226319 1028.89795,364.263672 1028.52881,364.263672 C1025.73387,364.263672 1024.33643,362.791519 1024.33643,359.847168 L1024.33643,351.251465 L1022.2666,351.251465 L1022.2666,350.196777 L1024.33643,349.287109 L1025.25928,346.202148 L1026.5249,346.202148 L1026.5249,349.550781 L1030.71729,349.550781 L1030.71729,351.251465 L1026.5249,351.251465 L1026.5249,359.754883 C1026.5249,360.625004 1026.73144,361.292966 1027.14453,361.758789 C1027.55762,362.224612 1028.12451,362.45752 1028.84521,362.45752 Z M1039.37695,362.45752 C1039.76367,362.45752 1040.13721,362.428955 1040.49756,362.371826 C1040.85791,362.314697 1041.14355,362.255371 1041.35449,362.193848 L1041.35449,363.868164 C1041.11719,363.982422 1040.76782,364.076904 1040.3064,364.151611 C1039.84497,364.226319 1039.42969,364.263672 1039.06055,364.263672 C1036.26561,364.263672 1034.86816,362.791519 1034.86816,359.847168 L1034.86816,351.251465 L1032.79834,351.251465 L1032.79834,350.196777 L1034.86816,349.287109 L1035.79102,346.202148 L1037.05664,346.202148 L1037.05664,349.550781 L1041.24902,349.550781 L1041.24902,351.251465 L1037.05664,351.251465 L1037.05664,359.754883 C1037.05664,360.625004 1037.26318,361.292966 1037.67627,361.758789 C1038.08936,362.224612 1038.65625,362.45752 1039.37695,362.45752 Z M1051.75439,351.251465 L1048.07617,351.251465 L1048.07617,364 L1045.8877,364 L1045.8877,351.251465 L1043.30371,351.251465 L1043.30371,350.262695 L1045.8877,349.47168 L1045.8877,348.66748 C1045.8877,345.116681 1047.43895,343.341309 1050.5415,343.341309 C1051.30616,343.341309 1052.20263,343.495116 1053.23096,343.802734 L1052.66406,345.556152 C1051.82031,345.28369 1051.09961,345.147461 1050.50195,345.147461 C1049.67578,345.147461 1049.06494,345.422116 1048.66943,345.971436 C1048.27392,346.520755 1048.07617,347.401849 1048.07617,348.614746 L1048.07617,349.550781 L1051.75439,349.550781 L1051.75439,351.251465 Z M1067.86279,356.762207 C1067.86279,359.117688 1067.26954,360.95678 1066.08301,362.279541 C1064.89648,363.602302 1063.25733,364.263672 1061.16553,364.263672 C1059.87353,364.263672 1058.72657,363.960452 1057.72461,363.354004 C1056.72265,362.747556 1055.94922,361.877447 1055.4043,360.743652 C1054.85937,359.609858 1054.58691,358.282722 1054.58691,356.762207 C1054.58691,354.406727 1055.17578,352.572028 1056.35352,351.258057 C1057.53126,349.944085 1059.16601,349.287109 1061.25781,349.287109 C1063.27931,349.287109 1064.88549,349.959466 1066.07642,351.304199 C1067.26734,352.648933 1067.86279,354.46825 1067.86279,356.762207 Z M1056.85449,356.762207 C1056.85449,358.607919 1057.22363,360.014155 1057.96191,360.980957 C1058.7002,361.947759 1059.78564,362.431152 1061.21826,362.431152 C1062.65089,362.431152 1063.73852,361.949956 1064.4812,360.987549 C1065.22388,360.025142 1065.59521,358.616708 1065.59521,356.762207 C1065.59521,354.925284 1065.22388,353.530034 1064.4812,352.576416 C1063.73852,351.622798 1062.6421,351.145996 1061.19189,351.145996 C1059.75927,351.145996 1058.67823,351.616206 1057.94873,352.556641 C1057.21923,353.497075 1056.85449,354.898916 1056.85449,356.762207 Z M1079.29102,349.287109 C1079.93262,349.287109 1080.5083,349.339843 1081.01807,349.445312 L1080.71484,351.475586 C1080.11718,351.343749 1079.58985,351.277832 1079.13281,351.277832 C1077.96386,351.277832 1076.96412,351.752437 1076.13354,352.70166 C1075.30297,353.650884 1074.8877,354.833001 1074.8877,356.248047 L1074.8877,364 L1072.69922,364 L1072.69922,349.550781 L1074.50537,349.550781 L1074.75586,352.227051 L1074.86133,352.227051 C1075.39746,351.286616 1076.04345,350.561526 1076.79932,350.051758 C1077.55518,349.54199 1078.38574,349.287109 1079.29102,349.287109 Z M1103.13818,364 L1103.13818,354.600098 C1103.13818,353.448725 1102.89209,352.585208 1102.3999,352.009521 C1101.90771,351.433835 1101.14307,351.145996 1100.10596,351.145996 C1098.74365,351.145996 1097.73731,351.537105 1097.08691,352.319336 C1096.43652,353.101566 1096.11133,354.305656 1096.11133,355.931641 L1096.11133,364 L1093.92285,364 L1093.92285,354.600098 C1093.92285,353.448725 1093.67676,352.585208 1093.18457,352.009521 C1092.69238,351.433835 1091.92335,351.145996 1090.87744,351.145996 C1089.50634,351.145996 1088.5022,351.556881 1087.86499,352.378662 C1087.22778,353.200444 1086.90918,354.547354 1086.90918,356.419434 L1086.90918,364 L1084.7207,364 L1084.7207,349.550781 L1086.50049,349.550781 L1086.85645,351.52832 L1086.96191,351.52832 C1087.375,350.825192 1087.95727,350.275881 1088.70874,349.880371 C1089.46021,349.484861 1090.30175,349.287109 1091.2334,349.287109 C1093.4922,349.287109 1094.96875,350.104484 1095.66309,351.739258 L1095.76855,351.739258 C1096.19922,350.983395 1096.82324,350.385744 1097.64062,349.946289 C1098.45801,349.506834 1099.38964,349.287109 1100.43555,349.287109 C1102.07032,349.287109 1103.29419,349.706783 1104.10718,350.546143 C1104.92017,351.385502 1105.32666,352.728018 1105.32666,354.57373 L1105.32666,364 L1103.13818,364 Z" id="MultiUserJuiceShopPlattform" fill="#DD6031" fill-rule="nonzero"></path>
    </g>
</svg>