<?xml version="1.0" encoding="utf-8"?>
<!-- Generator: Adobe Illustrator 19.2.1, SVG Export Plug-In . SVG Version: 6.00 Build 0)  -->
<svg version="1.1" id="Layer_1" xmlns="http://www.w3.org/2000/svg" xmlns:xlink="http://www.w3.org/1999/xlink" x="0px" y="0px"
	 viewBox="0 0 327 375.6" style="enable-background:new 0 0 327 375.6;" xml:space="preserve">
<style type="text/css">
	.st0{fill:#FFFFFF;}
</style>
<g>
	<path class="st0" d="M163.5,0L0,93.9v187.8l163.5,93.9L327,281.7V93.9L163.5,0z M241.6,291.7H85.7V174.6h20v-34.1
		c0-31.3,25.3-56.6,56.6-56.6c0.3,0,0.7,0,1,0c0.4,0,0.7,0,1.1,0c31.3,0,56.6,25.3,56.6,56.6v34.1h20.6V291.7z"/>
	<path class="st0" d="M164.4,112.2c-0.2,0-0.7,0-0.7,0s-1,0-1.4,0c-15.6,0-28.3,12.7-28.3,28.3v34.1h58.7v-34.1
		C192.7,124.9,180,112.2,164.4,112.2z"/>
</g>
</svg>
