<svg width="249" height="385" xmlns="http://www.w3.org/2000/svg"><g fill="none" fill-rule="evenodd"><path d="M175.776 276.307l-2.045 1.483-.276-2.548c-.759 3.418-1.702 6.823-2.878 10.018-2.699 7.338-7.468 12.898-13.568 16.192-.358 17.59-16.722 27.081-32.14 27.081-15.546 0-32.048-9.482-32.411-27.067-6.113-3.3-10.888-8.86-13.59-16.206-1.396-3.799-2.468-7.886-3.292-11.945l-.529 4.89-1.312-.919-5.268 48.611-11.781-8.232 8.557-78.985c-6.353-8.253-13.864-18.55-15.816-23.538-3.132-7.975.855-48.784 2.944-67.57l-13.062-34.457v-1.122c0-16.86 22.168-59.996 29.637-74.071a557.786 557.786 0 0 1 8.383-16.188L85.422 7s7.392 51.206 7.386 51.252l3.986 27.663 3.703 30.45c4.494-1.438 10.91-3.141 17.82-3.854 1.823-4.407 3.8-7.33 5.97-7.33 4.104 0 8.195 3.831 11.903 8.044 4.353.75 8.338 1.794 11.533 2.767l4.143-30.076L163.219 7l5.805 10.792.088-.608 9.047 16.772c3.234 5.974 31.532 58.91 31.532 78.037h-.002v1.12l-12.829 34.461c2.086 18.784 6.234 59.599 3.103 67.573-1.934 4.932-9.303 15.079-15.607 23.295l8.536 78.458-11.781 8.524-5.335-49.117z" fill="#FFF"/><path d="M240.272 295.171l-116.137 82.102L8 295.17V103.72s42.942-15.974 116.293-15.974c73.35 0 115.979 15.973 115.979 15.973V295.17z" fill="#FFF"/><path fill="#3B3B63" d="M174.312 244.21h-50.078v-83.718l-50.812 81.271-7.9 83.454 57.93 41.312.782.56 59.244-42.17z"/><path d="M123.043 365.633L15.281 289.308V111.326s39.846-14.85 107.908-14.85c68.063 0 107.617 14.85 107.617 14.85v177.982l-107.763 76.325z" fill="#DBDBDB"/><path d="M124.648 96.476l-.148.002v269.155h.002l107.76-76.326v-177.98s-39.553-14.85-107.614-14.85z" fill="#C6C6C6"/><path fill="#3B3B63" d="M182.75 324.849l-9.11-80.7h-49.868v122.94z"/><path fill="#53537A" d="M65.522 325.217l58.978 41.871V160.492l-51.042 81.271z"/><path d="M149.256 300.89c0 13.618-13.032 20.369-24.988 20.369s-25.252-6.751-25.252-20.369" fill="#BC9375"/><path d="M141.975 293.616c0 16.062-8.833 20.368-17.838 20.368s-17.84-4.306-17.84-20.368" fill="#083251"/><path d="M124.137 308.165c-9.554 0-14.2-6.904-14.2-21.096h4.556c0 16.615 6.512 16.615 9.644 16.615 3.13 0 9.644 0 9.644-16.615h4.553c0 14.192-4.645 21.096-14.197 21.096z" fill="#FFF"/><path d="M200.225 122.333c0-17.464-29.795-72.413-29.795-72.413l-10.08 69.687-9.046 14.712-27.112 1.092-.107.216v-.216l-27.117-1.092-9.043-14.712-10.08-69.687s-29.798 54.949-29.798 72.413l12.589 33.557s-6.353 56.366-3.453 63.746C60.075 227.017 80.16 251.7 80.16 251.7s-.06 20.75 5.439 35.67c3.923 10.653 12.568 14.974 20.845 14.974 12.677 0 17.638-11.521 17.638-11.521s5.079 11.521 17.757 11.521c8.275 0 16.91-4.314 20.843-14.975 5.493-14.912 5.438-35.67 5.438-35.67s20.08-24.683 22.977-32.064c2.9-7.382-3.455-63.746-3.455-63.746l12.583-33.557z" fill="#C49A7E"/><path d="M123.77 135.521l-.051.105v-.215l-26.987-1.092-9-14.712L77.7 49.92s-29.652 54.949-29.652 72.413l12.525 33.557s-6.32 56.366-3.438 63.746c2.883 7.381 22.864 32.065 22.864 32.065s-.052 20.75 5.414 35.67c3.91 10.653 12.513 14.974 20.743 14.974 12.624 0 17.56-11.521 17.56-11.521s.023.04.057.116V135.52h-.002z" fill="#D8B7A0"/><path d="M187.874 158.407c-2.304-4.785.972-16.108.972-16.108-18.773-19.096-23.468-58.917-23.468-58.917-3.505 12.548-11.123 49.543-11.123 49.543s-14.01-5.178-29.949-5.203h-.119a96.97 96.97 0 0 0-2.6.055v156.107l1.19 1.73v-.855h.737v.855l.007-.855h1.453v.855-.855h.743v.855l12.977-18.805 2.82-52.805 16.157 18.289 20.813 6.034s7.787-5.51 7.787-5.489c3.306-4.594 4.403-8.508 5.203-10.538 2.89-7.389-3.6-63.893-3.6-63.893z" fill="#3B3B63"/><path d="M94.602 132.927S87.009 95.932 83.52 83.382c0 0-4.674 39.822-23.379 58.92 0 0 3.264 11.323.969 16.108 0 0-6.466 56.508-3.587 63.885.796 2.032 1.897 5.944 5.186 10.539 0-.02 7.763 5.49 7.763 5.49l20.73-6.036 16.092-18.286 2.818 52.806 12.92 18.806v-.855h.74v.855-.855h.727V127.725c-15.938.027-29.897 5.202-29.897 5.202z" fill="#53537A"/><path d="M162.016 193.955h-24.41v.25c0 8.302 7.371 15.026 16.018 15.026 8.649 0 16.02-6.726 16.02-15.025v-.251h-7.628z" fill="#333152"/><path d="M143.431 193.955v.258c0 5.081 4.058 9.199 9.103 9.199 5.044 0 9.1-4.118 9.1-9.199v-.258h-18.203z" fill="#FFF"/><path d="M155.358 193.955h-4.286c-.042 0-.078.02-.115.028.532.109.826 1.29.712 2.077-.172 1.201-1.216 2.036-2.413 2.056.348 1.57 1.655 2.834 3.39 3.073 2.218.308 4.267-1.183 4.58-3.354.227-1.599-.557-3.88-1.868-3.88zm-51.594 0H79.356v.25c0 8.302 7.372 15.026 16.017 15.026 8.649 0 16.02-6.726 16.02-15.025v-.251h-7.63z" fill="#333152"/><path d="M85.181 193.955v.258c0 5.081 4.062 9.199 9.1 9.199 5.046 0 9.103-4.118 9.103-9.199v-.258H85.181z" fill="#FFF"/><path d="M97.112 193.955h-4.29c-.038 0-.078.02-.112.028.53.109.823 1.29.711 2.077-.172 1.201-1.211 2.036-2.415 2.056.353 1.57 1.66 2.834 3.391 3.073 2.216.308 4.27-1.183 4.579-3.354.23-1.599-.554-3.88-1.864-3.88z" fill="#333152"/><path d="M160.44 186.68c1.03-1.114 9.775-10.911-1.92-10.911-10.567 0-18.17 8.42-20.186 10.911h22.107z" fill="#C49A7E"/><path d="M110.666 186.68c-2.014-2.492-9.618-10.911-20.19-10.911-11.69 0-2.945 9.797-1.92 10.911h22.11z" fill="#D8B7A0"/><path fill="#53537A" d="M73.531 189.59h44.416v4.365H73.531z"/><path d="M206.05 121.764c0-18.456-27.21-69.537-30.319-75.301l-8.699-16.185-12.461 86.683-5.752 9.415c-5.553-1.853-15.003-4.44-24.518-4.44-9.505 0-18.891 2.578-24.42 4.434l-5.755-9.411-4.374-30.385c.006-.05.013-.118.013-.149l-.034-.004-8.086-56.143-8.882 16.185c-3.114 5.764-30.541 56.845-30.541 75.3v1.084l12.559 33.249c-2.009 18.129-5.842 57.507-2.83 65.203 1.876 4.812 9.098 14.749 15.207 22.713l-8.228 76.217 11.328 7.943 5.987-55.443c.86 5.392 2.13 11.086 4.014 16.23 2.598 7.088 7.19 12.453 13.067 15.638.35 16.968 16.216 26.119 31.165 26.119 14.825 0 30.56-9.158 30.903-26.133 5.866-3.178 10.452-8.544 13.047-15.624 1.962-5.35 3.25-11.307 4.106-16.887l6.022 55.644 11.329-8.226-8.208-75.708c6.061-7.929 13.147-17.72 15.006-22.479 3.012-7.694-.977-47.078-2.983-65.204l12.336-33.253v-1.082h.001zM54.6 120.41c.68-9.524 10.594-32.345 20.051-51.578l2.52 17.585c-.96 6.575-5.354 32.36-17.14 48.613L54.6 120.41zm70.023 197.938c-6.602 0-15.99-2.92-18.326-10.66.24.007.474.028.718.028a25.7 25.7 0 0 0 3.628-.28c3.349 4.625 8.565 6.044 13.851 6.044 5.295 0 10.521-1.406 13.876-6.038 1.149.156 2.332.274 3.598.274.248 0 .487-.02.735-.028-2.312 7.74-11.575 10.66-18.08 10.66zm-8.132-12.652a23.93 23.93 0 0 0 4.433-2.624c1.195.36 2.342.36 3.222.36.875 0 2.01.007 3.196-.353a24.499 24.499 0 0 0 4.44 2.617c-2.06 1.58-4.598 2.468-7.63 2.468-3.05 0-5.599-.882-7.661-2.468zm68.782-88.857c-1.762 4.491-13.922 20.539-22 30.503l-1.348 1.67.006 2.132c0 .193-.006 19.863-5.06 33.629-3.653 9.949-11.768 11.024-15.084 11.024-8.394 0-12.017-7.638-12.144-7.913l-.48-7.155H118.96l-.46 7.113c-.146.325-3.68 7.936-12.032 7.936-3.323 0-11.435-1.064-15.092-11.013-5.037-13.717-5.061-33.428-5.061-33.629l.007-2.131-1.347-1.663c-8.074-9.957-20.236-26.004-21.953-30.387-1.373-4.74.893-35.395 3.778-61.082l.16-1.426-2.277-6.082c7.82-8.14 13.31-19.34 17.095-30.002l.368 2.595 12.422 20.26 4.853-2.067c.122-.052 12.568-5.308 24.653-5.308 12.008 0 24.658 5.26 24.777 5.312l4.846 2.05 12.407-20.251.487-3.382c3.745 10.766 9.228 22.168 17.086 30.488l-2.383 6.383.158 1.424c2.884 25.693 5.15 56.348 3.822 60.972zm3.05-81.809c-12.845-17.986-16.874-47.226-17.223-49.898l2.343-16.3c9.537 19.333 19.543 42.275 20.229 51.85l-5.35 14.348z" fill="#333152"/><path d="M138.93 260.153h-28.765s-3.868 6.661-3.868 8.822c0 6.42 17.705 16.639 17.705 16.639s18.701-10.524 18.701-16.639c0-2.916-3.772-8.822-3.772-8.822z" fill="#333152"/><path d="M133.079 280.015c-1.556-2.705-3.564-3.199-4.486-1.113-.918 2.088-.393 5.973 1.163 8.672 1.555 2.707 3.565 3.2 4.482 1.113.922-2.086.4-5.972-1.16-8.672z" fill="#C49A7E"/><path d="M115.92 280.015c-1.56 2.7-2.078 6.586-1.16 8.672.919 2.087 2.925 1.594 4.488-1.113 1.556-2.698 2.077-6.584 1.155-8.672-.917-2.086-2.924-1.592-4.483 1.113z" fill="#D8B7A0"/></g></svg>