<svg xmlns="http://www.w3.org/2000/svg" width="32" height="32" viewBox="0 0 32 32"><title>Group</title><g fill="none"><path fill="#FBBC05" d="M20.68 27.37h6.62v-6.64l4.67-4.7-4.67-4.67V4.72h-6.62L16 .02l-4.67 4.7H4.7v6.64L.04 16.04l4.67 4.7v6.63h6.63L16 32.05l4.68-4.68"/><path fill="#FFF" d="M16 5.8c5.63 0 10.2 4.6 10.2 10.24 0 5.65-4.57 10.24-10.2 10.24-5.63 0-10.2-4.6-10.2-10.24C5.8 10.4 10.36 5.8 16 5.8m0-.57c-5.96 0-10.8 4.84-10.8 10.8 0 6 4.84 10.83 10.8 10.83 5.96 0 10.8-4.84 10.8-10.82 0-5.97-4.84-10.8-10.8-10.8"/><path fill="#FFF" d="M16.5 11.04v.06l-2.18 9.58-.08.37h1.34v-.07l2.18-9.58.08-.36H16.5zm-3.43 1.3l-.18.14-3.92 3.05-.25.2v.63l.26.2 3.9 3.05.17.15V18.1l-2.63-2.06L13.07 14v-1.66zm5.85 0V14l2.63 2.04-2.63 2.06v1.64l.18-.13 3.9-3.04.26-.2v-.63l-.25-.2-3.9-3.05-.18-.14zM25.95 16.04c0 2.76-1.12 5.24-2.92 7.05-1.8 1.8-4.28 2.9-7.03 2.9s-5.23-1.1-7.03-2.9c-1.8-1.82-2.9-4.3-2.9-7.06S7.16 10.8 8.96 9c1.8-1.8 4.28-2.93 7.03-2.93S21.23 7.2 23.03 9c1.8 1.8 2.92 4.3 2.92 7.04h1.45c0-3.15-1.28-6-3.34-8.08C22 5.9 19.16 4.62 16 4.62c-3.14 0-6 1.28-8.06 3.34-2.06 2.07-3.34 4.93-3.34 8.08 0 3.16 1.28 6.02 3.34 8.08C10 26.2 12.86 27.47 16 27.47c3.15 0 6-1.28 8.06-3.35 2.06-2.06 3.34-4.92 3.34-8.08h-1.46z"/></g></svg>
