<svg xmlns="http://www.w3.org/2000/svg" xmlns:xlink="http://www.w3.org/1999/xlink" width="1024" height="400">\n<path  d="M 0 0
L 1024 0
L 1024 400
L 0 400
L 0 0" style="stroke-width:0;stroke:rgba(255,255,255,1.0);fill:rgba(255,255,255,1.0)"/><path  d="M 38 11
L 957 11
L 957 351
L 38 351
L 38 11" style="stroke-width:0;stroke:rgba(255,255,255,1.0);fill:rgba(255,255,255,1.0)"/><path  d="M 38 351
L 957 351" style="stroke-width:2;stroke:rgba(85,85,85,1.0);fill:none"/><path  d="M 38 351
L 38 356" style="stroke-width:2;stroke:rgba(85,85,85,1.0);fill:none"/><text x="5" y="373" style="stroke-width:0;stroke:none;fill:rgba(51,51,51,1.0);font-size:12.8px;font-family:'Roboto Medium',sans-serif">2014-10-01</text><path  d="M 153 351
L 153 356" style="stroke-width:2;stroke:rgba(85,85,85,1.0);fill:none"/><text x="120" y="373" style="stroke-width:0;stroke:none;fill:rgba(51,51,51,1.0);font-size:12.8px;font-family:'Roboto Medium',sans-serif">2015-11-11</text><path  d="M 268 351
L 268 356" style="stroke-width:2;stroke:rgba(85,85,85,1.0);fill:none"/><text x="235" y="373" style="stroke-width:0;stroke:none;fill:rgba(51,51,51,1.0);font-size:12.8px;font-family:'Roboto Medium',sans-serif">2016-12-22</text><path  d="M 383 351
L 383 356" style="stroke-width:2;stroke:rgba(85,85,85,1.0);fill:none"/><text x="350" y="373" style="stroke-width:0;stroke:none;fill:rgba(51,51,51,1.0);font-size:12.8px;font-family:'Roboto Medium',sans-serif">2018-02-01</text><path  d="M 498 351
L 498 356" style="stroke-width:2;stroke:rgba(85,85,85,1.0);fill:none"/><text x="465" y="373" style="stroke-width:0;stroke:none;fill:rgba(51,51,51,1.0);font-size:12.8px;font-family:'Roboto Medium',sans-serif">2019-03-14</text><path  d="M 613 351
L 613 356" style="stroke-width:2;stroke:rgba(85,85,85,1.0);fill:none"/><text x="580" y="373" style="stroke-width:0;stroke:none;fill:rgba(51,51,51,1.0);font-size:12.8px;font-family:'Roboto Medium',sans-serif">2020-04-23</text><path  d="M 728 351
L 728 356" style="stroke-width:2;stroke:rgba(85,85,85,1.0);fill:none"/><text x="695" y="373" style="stroke-width:0;stroke:none;fill:rgba(51,51,51,1.0);font-size:12.8px;font-family:'Roboto Medium',sans-serif">2021-06-03</text><path  d="M 843 351
L 843 356" style="stroke-width:2;stroke:rgba(85,85,85,1.0);fill:none"/><text x="810" y="373" style="stroke-width:0;stroke:none;fill:rgba(51,51,51,1.0);font-size:12.8px;font-family:'Roboto Medium',sans-serif">2022-07-15</text><path  d="M 957 351
L 957 356" style="stroke-width:2;stroke:rgba(85,85,85,1.0);fill:none"/><text x="924" y="373" style="stroke-width:0;stroke:none;fill:rgba(51,51,51,1.0);font-size:12.8px;font-family:'Roboto Medium',sans-serif">2023-08-25</text><text x="483" y="395" style="stroke-width:0;stroke:none;fill:rgba(51,51,51,1.0);font-size:12.8px;font-family:'Roboto Medium',sans-serif">Time</text><path  d="M 959 351
L 959 11" style="stroke-width:2;stroke:rgba(85,85,85,1.0);fill:none"/><path  d="M 959 351
L 964 351" style="stroke-width:2;stroke:rgba(85,85,85,1.0);fill:none"/><text x="969" y="357" style="stroke-width:0;stroke:none;fill:rgba(51,51,51,1.0);font-size:12.8px;font-family:'Roboto Medium',sans-serif">0</text><path  d="M 959 308
L 964 308" style="stroke-width:2;stroke:rgba(85,85,85,1.0);fill:none"/><text x="969" y="314" style="stroke-width:0;stroke:none;fill:rgba(51,51,51,1.0);font-size:12.8px;font-family:'Roboto Medium',sans-serif">1080</text><path  d="M 959 266
L 964 266" style="stroke-width:2;stroke:rgba(85,85,85,1.0);fill:none"/><text x="969" y="272" style="stroke-width:0;stroke:none;fill:rgba(51,51,51,1.0);font-size:12.8px;font-family:'Roboto Medium',sans-serif">2150</text><path  d="M 959 223
L 964 223" style="stroke-width:2;stroke:rgba(85,85,85,1.0);fill:none"/><text x="969" y="229" style="stroke-width:0;stroke:none;fill:rgba(51,51,51,1.0);font-size:12.8px;font-family:'Roboto Medium',sans-serif">3230</text><path  d="M 959 181
L 964 181" style="stroke-width:2;stroke:rgba(85,85,85,1.0);fill:none"/><text x="969" y="187" style="stroke-width:0;stroke:none;fill:rgba(51,51,51,1.0);font-size:12.8px;font-family:'Roboto Medium',sans-serif">4300</text><path  d="M 959 138
L 964 138" style="stroke-width:2;stroke:rgba(85,85,85,1.0);fill:none"/><text x="969" y="144" style="stroke-width:0;stroke:none;fill:rgba(51,51,51,1.0);font-size:12.8px;font-family:'Roboto Medium',sans-serif">5380</text><path  d="M 959 96
L 964 96" style="stroke-width:2;stroke:rgba(85,85,85,1.0);fill:none"/><text x="969" y="102" style="stroke-width:0;stroke:none;fill:rgba(51,51,51,1.0);font-size:12.8px;font-family:'Roboto Medium',sans-serif">6450</text><path  d="M 959 53
L 964 53" style="stroke-width:2;stroke:rgba(85,85,85,1.0);fill:none"/><text x="969" y="59" style="stroke-width:0;stroke:none;fill:rgba(51,51,51,1.0);font-size:12.8px;font-family:'Roboto Medium',sans-serif">7530</text><path  d="M 959 11
L 964 11" style="stroke-width:2;stroke:rgba(85,85,85,1.0);fill:none"/><text x="969" y="17" style="stroke-width:0;stroke:none;fill:rgba(51,51,51,1.0);font-size:12.8px;font-family:'Roboto Medium',sans-serif">8600</text><text x="1009" y="150" style="stroke-width:0;stroke:none;fill:rgba(51,51,51,1.0);font-size:12.8px;font-family:'Roboto Medium',sans-serif" transform="rotate(90.00,1009,150)">Stargazers</text><path  d="M 38 351
L 43 350
L 43 350
L 43 350
L 44 350
L 44 350
L 44 350
L 44 350
L 44 350
L 45 350
L 45 350
L 45 350
L 45 350
L 46 350
L 47 350
L 48 350
L 49 350
L 49 350
L 50 350
L 51 350
L 53 350
L 54 350
L 54 350
L 55 350
L 57 350
L 58 350
L 58 349
L 62 349
L 71 349
L 72 349
L 75 349
L 76 349
L 79 349
L 82 349
L 84 349
L 85 349
L 86 349
L 86 349
L 86 349
L 86 349
L 88 349
L 88 349
L 89 349
L 94 349
L 97 349
L 97 349
L 97 349
L 97 349
L 97 349
L 98 349
L 99 349
L 99 348
L 108 348
L 109 348
L 110 348
L 111 348
L 112 348
L 112 348
L 112 348
L 115 348
L 116 348
L 116 348
L 128 348
L 133 348
L 139 348
L 143 348
L 146 348
L 148 348
L 149 348
L 149 348
L 149 348
L 149 348
L 149 348
L 151 348
L 152 348
L 152 348
L 152 347
L 153 347
L 154 347
L 154 347
L 155 347
L 155 347
L 158 347
L 158 347
L 160 347
L 161 347
L 162 347
L 163 347
L 166 347
L 167 347
L 168 347
L 169 347
L 171 347
L 171 347
L 172 347
L 172 347
L 172 347
L 174 347
L 175 347
L 175 347
L 177 347
L 177 347
L 177 346
L 177 346
L 178 346
L 178 346
L 179 346
L 179 346
L 180 346
L 182 346
L 182 346
L 187 346
L 187 346
L 187 346
L 187 346
L 187 346
L 190 346
L 194 346
L 195 346
L 197 346
L 199 346
L 200 346
L 201 346
L 202 346
L 203 346
L 207 346
L 207 346
L 208 345
L 208 345
L 209 345
L 215 345
L 215 345
L 217 345
L 217 345
L 219 345
L 219 345
L 220 345
L 220 345
L 224 345
L 224 345
L 228 345
L 229 345
L 229 345
L 230 345
L 231 345
L 232 345
L 234 345
L 234 345
L 234 345
L 234 345
L 236 345
L 236 345
L 236 344
L 237 344
L 237 344
L 238 344
L 238 344
L 239 344
L 239 344
L 239 344
L 239 344
L 239 344
L 240 344
L 240 344
L 242 344
L 242 344
L 244 344
L 245 344
L 246 344
L 247 344
L 248 344
L 249 344
L 250 344
L 250 344
L 253 344
L 254 344
L 254 344
L 255 344
L 255 343
L 256 343
L 257 343
L 257 343
L 258 343
L 260 343
L 260 343
L 260 343
L 260 343
L 261 343
L 261 343
L 261 343
L 261 343
L 261 343
L 262 343
L 262 343
L 262 343
L 263 343
L 264 343
L 265 343
L 265 343
L 266 343
L 267 343
L 267 343
L 268 343
L 268 342
L 268 342
L 268 342
L 269 342
L 270 342
L 270 342
L 271 342
L 272 342
L 272 342
L 272 342
L 272 342
L 272 342
L 272 342
L 272 342
L 273 342
L 273 342
L 273 342
L 273 342
L 274 342
L 275 342
L 276 342
L 276 342
L 276 342
L 277 342
L 278 342
L 278 341
L 278 341
L 280 341
L 280 341
L 280 341
L 280 341
L 280 341
L 281 341
L 281 341
L 281 341
L 282 341
L 283 341
L 284 341
L 284 341
L 284 341
L 284 341
L 284 341
L 284 341
L 284 341
L 285 341
L 285 341
L 285 341
L 285 341
L 286 341
L 286 341
L 286 340
L 286 340
L 286 340
L 286 340
L 287 340
L 287 340
L 287 340
L 288 340
L 288 340
L 289 340
L 289 340
L 289 340
L 290 340
L 291 340
L 291 340
L 292 340
L 294 340
L 295 340
L 296 340
L 296 340
L 296 340
L 296 340
L 296 340
L 296 340
L 297 340
L 297 340
L 297 339
L 298 339
L 298 339
L 299 339
L 299 339
L 299 339
L 301 339
L 302 339
L 302 339
L 302 339
L 303 339
L 303 339
L 303 339
L 304 339
L 305 339
L 305 339
L 306 339
L 306 339
L 306 339
L 307 339
L 308 339
L 308 339
L 308 339
L 308 339
L 309 339
L 309 338
L 309 338
L 310 338
L 311 338
L 311 338
L 312 338
L 312 338
L 313 338
L 313 338
L 314 338
L 314 338
L 314 338
L 314 338
L 314 338
L 314 338
L 314 338
L 314 338
L 314 338
L 315 338
L 315 338
L 315 338
L 315 338
L 315 338
L 315 338
L 315 338
L 315 337
L 316 337
L 316 337
L 316 337
L 316 337
L 316 337
L 316 337
L 316 337
L 317 337
L 317 337
L 317 337
L 317 337
L 318 337
L 318 337
L 319 337
L 319 337
L 319 337
L 321 337
L 321 337
L 321 337
L 321 337
L 322 337
L 322 337
L 322 337
L 323 337
L 323 337
L 324 336
L 324 336
L 324 336
L 324 336
L 324 336
L 325 336
L 325 336
L 325 336
L 325 336
L 325 336
L 325 336
L 325 336
L 325 336
L 325 336
L 325 336
L 325 336
L 326 336
L 327 336
L 329 336
L 329 336
L 330 336
L 330 336
L 330 336
L 331 336
L 331 336
L 331 335
L 332 335
L 333 335
L 334 335
L 335 335
L 335 335
L 336 335
L 336 335
L 337 335
L 337 335
L 339 335
L 339 335
L 339 335
L 339 335
L 339 335
L 339 335
L 339 335
L 339 335
L 339 335
L 340 335
L 340 335
L 341 335
L 341 335
L 341 335
L 341 335
L 342 334
L 342 334
L 342 334
L 342 334
L 342 334
L 343 334
L 343 334
L 343 334
L 343 334
L 343 334
L 343 334
L 344 334
L 344 334
L 344 334
L 344 334
L 345 334
L 345 334
L 345 334
L 345 334
L 346 334
L 346 334
L 347 334
L 347 334
L 348 334
L 348 334
L 348 334
L 348 333
L 349 333
L 349 333
L 349 333
L 349 333
L 350 333
L 350 333
L 350 333
L 350 333
L 350 333
L 350 333
L 350 333
L 350 333
L 350 333
L 350 333
L 350 333
L 350 333
L 351 333
L 351 333
L 351 333
L 351 333
L 351 333
L 351 333
L 351 333
L 351 333
L 351 332
L 351 332
L 351 332
L 351 332
L 351 332
L 352 332
L 352 332
L 352 332
L 352 332
L 352 332
L 352 332
L 352 332
L 353 332
L 353 332
L 353 332
L 353 332
L 353 332
L 353 332
L 353 332
L 353 332
L 353 332
L 354 332
L 354 332
L 355 332
L 355 332
L 355 331
L 355 331
L 355 331
L 355 331
L 355 331
L 355 331
L 355 331
L 356 331
L 356 331
L 356 331
L 356 331
L 356 331
L 356 331
L 356 331
L 356 331
L 356 331
L 356 331
L 357 331
L 357 331
L 357 331
L 357 331
L 357 331
L 357 331
L 357 331
L 357 331
L 357 330
L 357 330
L 357 330
L 357 330
L 357 330
L 357 330
L 357 330
L 357 330
L 357 330
L 357 330
L 357 330
L 357 330
L 358 330
L 358 330
L 358 330
L 358 330
L 358 330
L 358 330
L 358 330
L 359 330
L 359 330
L 359 330
L 359 330
L 359 330
L 359 330
L 359 330
L 361 329
L 361 329
L 361 329
L 361 329
L 361 329
L 361 329
L 361 329
L 361 329
L 361 329
L 361 329
L 361 329
L 361 329
L 362 329
L 362 329
L 362 329
L 362 329
L 362 329
L 363 329
L 363 329
L 363 329
L 363 329
L 363 329
L 363 329
L 363 329
L 363 329
L 363 328
L 363 328
L 363 328
L 363 328
L 363 328
L 363 328
L 363 328
L 363 328
L 363 328
L 364 328
L 364 328
L 365 328
L 365 328
L 365 328
L 365 328
L 365 328
L 365 328
L 365 328
L 365 328
L 365 328
L 365 328
L 365 328
L 365 328
L 365 328
L 365 328
L 365 327
L 365 327
L 365 327
L 365 327
L 365 327
L 365 327
L 365 327
L 365 327
L 365 327
L 365 327
L 365 327
L 365 327
L 365 327
L 365 327
L 365 327
L 365 327
L 365 327
L 365 327
L 365 327
L 365 327
L 365 327
L 365 327
L 365 327
L 366 327
L 366 327
L 366 327
L 366 326
L 366 326
L 366 326
L 366 326
L 366 326
L 366 326
L 366 326
L 366 326
L 366 326
L 366 326
L 366 326
L 366 326
L 366 326
L 366 326
L 366 326
L 366 326
L 366 326
L 366 326
L 366 326
L 366 326
L 367 326
L 367 326
L 367 326
L 367 326
L 367 326
L 367 325
L 367 325
L 367 325
L 367 325
L 367 325
L 367 325
L 367 325
L 367 325
L 367 325
L 367 325
L 367 325
L 367 325
L 367 325
L 367 325
L 367 325
L 367 325
L 368 325
L 368 325
L 368 325
L 369 325
L 369 325
L 369 325
L 370 325
L 370 325
L 370 325
L 371 324
L 371 324
L 371 324
L 371 324
L 371 324
L 371 324
L 371 324
L 371 324
L 371 324
L 371 324
L 371 324
L 372 324
L 372 324
L 372 324
L 373 324
L 373 324
L 373 324
L 373 324
L 374 324
L 374 324
L 375 324
L 375 324
L 375 324
L 375 324
L 375 324
L 375 323
L 375 323
L 376 323
L 376 323
L 376 323
L 376 323
L 376 323
L 376 323
L 377 323
L 377 323
L 377 323
L 377 323
L 377 323
L 377 323
L 378 323
L 379 323
L 379 323
L 380 323
L 380 323
L 380 323
L 381 323
L 381 323
L 381 323
L 381 323
L 381 323
L 381 323
L 381 322
L 382 322
L 382 322
L 382 322
L 382 322
L 383 322
L 383 322
L 383 322
L 383 322
L 383 322
L 383 322
L 383 322
L 383 322
L 383 322
L 383 322
L 384 322
L 384 322
L 385 322
L 385 322
L 385 322
L 385 322
L 385 322
L 385 322
L 385 322
L 385 322
L 385 321
L 385 321
L 385 321
L 385 321
L 385 321
L 385 321
L 386 321
L 386 321
L 386 321
L 386 321
L 387 321
L 387 321
L 387 321
L 387 321
L 387 321
L 388 321
L 388 321
L 389 321
L 389 321
L 389 321
L 389 321
L 389 321
L 390 321
L 390 321
L 390 321
L 390 320
L 390 320
L 390 320
L 391 320
L 391 320
L 391 320
L 391 320
L 393 320
L 393 320
L 393 320
L 393 320
L 393 320
L 393 320
L 393 320
L 393 320
L 393 320
L 393 320
L 393 320
L 393 320
L 393 320
L 393 320
L 394 320
L 394 320
L 394 320
L 394 320
L 394 320
L 394 319
L 394 319
L 395 319
L 395 319
L 395 319
L 395 319
L 395 319
L 395 319
L 395 319
L 395 319
L 395 319
L 395 319
L 395 319
L 395 319
L 396 319
L 396 319
L 396 319
L 396 319
L 396 319
L 396 319
L 396 319
L 396 319
L 397 319
L 397 319
L 397 319
L 397 318
L 397 318
L 397 318
L 397 318
L 397 318
L 397 318
L 397 318
L 397 318
L 398 318
L 398 318
L 399 318
L 399 318
L 399 318
L 399 318
L 400 318
L 400 318
L 400 318
L 400 318
L 400 318
L 401 318
L 401 318
L 401 318
L 401 318
L 402 318
L 402 318
L 402 317
L 402 317
L 402 317
L 402 317
L 402 317
L 402 317
L 403 317
L 403 317
L 403 317
L 403 317
L 403 317
L 403 317
L 403 317
L 403 317
L 403 317
L 403 317
L 404 317
L 404 317
L 404 317
L 404 317
L 405 317
L 405 317
L 405 317
L 405 317
L 405 317
L 405 317
L 405 316
L 405 316
L 406 316
L 406 316
L 406 316
L 407 316
L 407 316
L 407 316
L 407 316
L 407 316
L 407 316
L 409 316
L 409 316
L 409 316
L 409 316
L 410 316
L 410 316
L 411 316
L 411 316
L 411 316
L 411 316
L 411 316
L 412 316
L 412 316
L 412 316
L 412 315
L 412 315
L 412 315
L 412 315
L 412 315
L 412 315
L 412 315
L 412 315
L 412 315
L 412 315
L 413 315
L 413 315
L 413 315
L 413 315
L 413 315
L 413 315
L 413 315
L 413 315
L 413 315
L 413 315
L 413 315
L 413 315
L 413 315
L 413 315
L 413 315
L 413 314
L 413 314
L 413 314
L 413 314
L 413 314
L 413 314
L 413 314
L 413 314
L 413 314
L 413 314
L 413 314
L 413 314
L 413 314
L 413 314
L 413 314
L 413 314
L 413 314
L 413 314
L 413 314
L 413 314
L 414 314
L 414 314
L 414 314
L 414 314
L 414 314
L 414 313
L 414 313
L 414 313
L 414 313
L 414 313
L 414 313
L 414 313
L 414 313
L 414 313
L 414 313
L 414 313
L 414 313
L 414 313
L 414 313
L 414 313
L 414 313
L 414 313
L 414 313
L 414 313
L 414 313
L 414 313
L 414 313
L 414 313
L 414 313
L 414 313
L 414 313
L 415 312
L 415 312
L 415 312
L 415 312
L 415 312
L 415 312
L 415 312
L 415 312
L 415 312
L 415 312
L 415 312
L 415 312
L 415 312
L 415 312
L 415 312
L 415 312
L 415 312
L 415 312
L 415 312
L 415 312
L 415 312
L 415 312
L 415 312
L 415 312
L 416 312
L 416 311
L 416 311
L 416 311
L 416 311
L 416 311
L 416 311
L 416 311
L 416 311
L 416 311
L 416 311
L 416 311
L 416 311
L 416 311
L 416 311
L 416 311
L 417 311
L 417 311
L 417 311
L 417 311
L 417 311
L 417 311
L 417 311
L 418 311
L 418 311
L 418 311
L 418 310
L 418 310
L 418 310
L 418 310
L 419 310
L 419 310
L 419 310
L 419 310
L 419 310
L 419 310
L 419 310
L 419 310
L 419 310
L 419 310
L 419 310
L 420 310
L 420 310
L 420 310
L 420 310
L 420 310
L 421 310
L 421 310
L 421 310
L 421 310
L 421 310
L 421 310
L 421 309
L 421 309
L 421 309
L 421 309
L 421 309
L 421 309
L 422 309
L 422 309
L 422 309
L 422 309
L 423 309
L 423 309
L 423 309
L 423 309
L 423 309
L 424 309
L 424 309
L 424 309
L 424 309
L 424 309
L 424 309
L 425 309
L 425 309
L 426 309
L 426 309
L 426 308
L 426 308
L 426 308
L 426 308
L 426 308
L 426 308
L 427 308
L 427 308
L 427 308
L 428 308
L 428 308
L 428 308
L 428 308
L 428 308
L 429 308
L 429 308
L 429 308
L 429 308
L 430 308
L 430 308
L 430 308
L 430 308
L 430 308
L 430 308
L 430 308
L 430 307
L 430 307
L 430 307
L 430 307
L 430 307
L 430 307
L 430 307
L 431 307
L 431 307
L 431 307
L 431 307
L 431 307
L 431 307
L 431 307
L 431 307
L 431 307
L 431 307
L 431 307
L 432 307
L 432 307
L 432 307
L 432 307
L 433 307
L 433 307
L 433 307
L 433 306
L 433 306
L 433 306
L 433 306
L 433 306
L 434 306
L 434 306
L 434 306
L 434 306
L 435 306
L 435 306
L 435 306
L 435 306
L 435 306
L 436 306
L 436 306
L 436 306
L 436 306
L 436 306
L 436 306
L 436 306
L 436 306
L 436 306
L 437 306
L 437 306
L 437 306
L 437 305
L 437 305
L 438 305
L 438 305
L 438 305
L 438 305
L 438 305
L 438 305
L 438 305
L 438 305
L 438 305
L 438 305
L 439 305
L 439 305
L 439 305
L 439 305
L 439 305
L 439 305
L 439 305
L 440 305
L 440 305
L 440 305
L 440 305
L 440 305
L 440 305
L 440 304
L 440 304
L 441 304
L 441 304
L 441 304
L 441 304
L 441 304
L 442 304
L 442 304
L 442 304
L 442 304
L 442 304
L 442 304
L 442 304
L 442 304
L 442 304
L 442 304
L 442 304
L 443 304
L 443 304
L 443 304
L 443 304
L 443 304
L 443 304
L 444 304
L 444 303
L 445 303
L 445 303
L 446 303
L 446 303
L 446 303
L 446 303
L 446 303
L 446 303
L 447 303
L 447 303
L 447 303
L 447 303
L 448 303
L 448 303
L 448 303
L 448 303
L 448 303
L 448 303
L 449 303
L 449 303
L 449 303
L 449 303
L 449 303
L 449 303
L 449 303
L 449 302
L 449 302
L 449 302
L 450 302
L 450 302
L 450 302
L 450 302
L 450 302
L 450 302
L 451 302
L 451 302
L 451 302
L 451 302
L 451 302
L 451 302
L 452 302
L 452 302
L 452 302
L 452 302
L 453 302
L 453 302
L 453 302
L 453 302
L 454 302
L 454 302
L 454 301
L 454 301
L 454 301
L 454 301
L 454 301
L 454 301
L 454 301
L 454 301
L 454 301
L 454 301
L 454 301
L 455 301
L 455 301
L 455 301
L 455 301
L 455 301
L 455 301
L 455 301
L 455 301
L 455 301
L 455 301
L 455 301
L 456 301
L 456 301
L 456 301
L 456 300
L 456 300
L 456 300
L 456 300
L 456 300
L 456 300
L 456 300
L 456 300
L 456 300
L 457 300
L 457 300
L 457 300
L 457 300
L 457 300
L 457 300
L 457 300
L 457 300
L 458 300
L 458 300
L 458 300
L 458 300
L 458 300
L 458 300
L 458 300
L 458 300
L 458 300
L 458 299
L 458 299
L 459 299
L 459 299
L 459 299
L 459 299
L 459 299
L 459 299
L 459 299
L 459 299
L 459 299
L 459 299
L 460 299
L 460 299
L 460 299
L 460 299
L 460 299
L 460 299
L 460 299
L 460 299
L 460 299
L 460 299
L 460 299
L 460 299
L 460 299
L 461 298
L 461 298
L 461 298
L 461 298
L 461 298
L 461 298
L 461 298
L 462 298
L 462 298
L 462 298
L 462 298
L 462 298
L 462 298
L 462 298
L 462 298
L 462 298
L 462 298
L 463 298
L 463 298
L 463 298
L 463 298
L 463 298
L 463 298
L 464 298
L 464 298
L 464 297
L 464 297
L 464 297
L 464 297
L 464 297
L 464 297
L 464 297
L 464 297
L 464 297
L 464 297
L 464 297
L 464 297
L 464 297
L 464 297
L 464 297
L 464 297
L 464 297
L 464 297
L 464 297
L 464 297
L 464 297
L 464 297
L 465 297
L 465 297
L 465 297
L 465 296
L 465 296
L 465 296
L 465 296
L 465 296
L 465 296
L 465 296
L 465 296
L 465 296
L 465 296
L 466 296
L 466 296
L 466 296
L 466 296
L 466 296
L 466 296
L 466 296
L 466 296
L 466 296
L 466 296
L 466 296
L 466 296
L 466 296
L 466 296
L 466 296
L 466 296
L 466 295
L 466 295
L 466 295
L 467 295
L 467 295
L 467 295
L 467 295
L 467 295
L 467 295
L 467 295
L 467 295
L 467 295
L 468 295
L 468 295
L 468 295
L 468 295
L 468 295
L 468 295
L 468 295
L 468 295
L 468 295
L 469 295
L 469 295
L 469 295
L 469 295
L 469 294
L 469 294
L 469 294
L 469 294
L 469 294
L 469 294
L 469 294
L 469 294
L 469 294
L 469 294
L 470 294
L 470 294
L 470 294
L 470 294
L 470 294
L 470 294
L 470 294
L 470 294
L 470 294
L 470 294
L 470 294
L 470 294
L 470 294
L 470 294
L 470 294
L 471 293
L 471 293
L 471 293
L 471 293
L 471 293
L 471 293
L 472 293
L 472 293
L 472 293
L 472 293
L 472 293
L 472 293
L 472 293
L 472 293
L 473 293
L 473 293
L 473 293
L 473 293
L 473 293
L 473 293
L 473 293
L 473 293
L 474 293
L 474 293
L 474 293
L 474 293
L 474 292
L 475 292
L 475 292
L 476 292
L 476 292
L 476 292
L 476 292
L 477 292
L 478 292
L 478 292
L 478 292
L 478 292
L 478 292
L 478 292
L 478 292
L 479 292
L 479 292
L 480 292
L 480 292
L 480 292
L 480 292
L 480 292
L 480 292
L 480 292
L 480 292
L 480 291
L 480 291
L 481 291
L 481 291
L 481 291
L 481 291
L 481 291
L 481 291
L 481 291
L 481 291
L 481 291
L 481 291
L 481 291
L 481 291
L 481 291
L 481 291
L 482 291
L 482 291
L 482 291
L 482 291
L 482 291
L 482 291
L 482 291
L 482 291
L 482 291
L 483 290
L 483 290
L 483 290
L 483 290
L 483 290
L 484 290
L 484 290
L 484 290
L 484 290
L 484 290
L 484 290
L 484 290
L 484 290
L 485 290
L 485 290
L 485 290
L 485 290
L 485 290
L 485 290
L 485 290
L 486 290
L 486 290
L 486 290
L 486 290
L 486 290
L 486 289
L 486 289
L 486 289
L 486 289
L 486 289
L 487 289
L 487 289
L 487 289
L 487 289
L 487 289
L 487 289
L 487 289
L 488 289
L 488 289
L 488 289
L 488 289
L 488 289
L 488 289
L 488 289
L 489 289
L 490 289
L 490 289
L 490 289
L 490 289
L 490 289
L 490 289
L 491 288
L 491 288
L 491 288
L 491 288
L 491 288
L 491 288
L 491 288
L 492 288
L 492 288
L 492 288
L 492 288
L 492 288
L 492 288
L 492 288
L 492 288
L 492 288
L 492 288
L 493 288
L 493 288
L 493 288
L 493 288
L 493 288
L 493 288
L 493 288
L 494 288
L 494 287
L 494 287
L 494 287
L 494 287
L 494 287
L 494 287
L 494 287
L 494 287
L 494 287
L 494 287
L 494 287
L 494 287
L 495 287
L 495 287
L 495 287
L 495 287
L 495 287
L 496 287
L 496 287
L 496 287
L 496 287
L 496 287
L 496 287
L 496 287
L 496 287
L 496 286
L 497 286
L 497 286
L 497 286
L 497 286
L 497 286
L 497 286
L 497 286
L 497 286
L 497 286
L 497 286
L 498 286
L 498 286
L 498 286
L 498 286
L 498 286
L 498 286
L 498 286
L 498 286
L 498 286
L 499 286
L 499 286
L 499 286
L 499 286
L 499 286
L 499 286
L 500 285
L 500 285
L 500 285
L 500 285
L 500 285
L 500 285
L 500 285
L 500 285
L 500 285
L 500 285
L 500 285
L 500 285
L 500 285
L 500 285
L 500 285
L 500 285
L 500 285
L 500 285
L 500 285
L 500 285
L 501 285
L 501 285
L 501 285
L 501 285
L 501 285
L 501 284
L 501 284
L 501 284
L 501 284
L 502 284
L 502 284
L 502 284
L 502 284
L 502 284
L 502 284
L 502 284
L 502 284
L 502 284
L 502 284
L 502 284
L 502 284
L 502 284
L 503 284
L 503 284
L 503 284
L 503 284
L 503 284
L 503 284
L 503 284
L 503 284
L 503 283
L 503 283
L 503 283
L 503 283
L 503 283
L 504 283
L 504 283
L 504 283
L 504 283
L 504 283
L 504 283
L 504 283
L 504 283
L 504 283
L 504 283
L 504 283
L 504 283
L 505 283
L 505 283
L 505 283
L 505 283
L 506 283
L 506 283
L 506 283
L 506 283
L 506 283
L 506 282
L 506 282
L 506 282
L 506 282
L 506 282
L 506 282
L 506 282
L 506 282
L 506 282
L 506 282
L 506 282
L 506 282
L 506 282
L 506 282
L 506 282
L 507 282
L 507 282
L 507 282
L 507 282
L 507 282
L 507 282
L 507 282
L 507 282
L 508 282
L 508 282
L 508 281
L 508 281
L 508 281
L 508 281
L 508 281
L 509 281
L 509 281
L 509 281
L 509 281
L 509 281
L 509 281
L 509 281
L 509 281
L 509 281
L 509 281
L 510 281
L 510 281
L 510 281
L 510 281
L 510 281
L 510 281
L 510 281
L 510 281
L 510 281
L 510 281
L 511 280
L 511 280
L 511 280
L 511 280
L 511 280
L 511 280
L 511 280
L 511 280
L 511 280
L 512 280
L 512 280
L 512 280
L 512 280
L 512 280
L 512 280
L 512 280
L 512 280
L 512 280
L 512 280
L 513 280
L 513 280
L 513 280
L 513 280
L 514 280
L 514 280
L 514 279
L 514 279
L 514 279
L 514 279
L 514 279
L 514 279
L 514 279
L 514 279
L 514 279
L 514 279
L 515 279
L 515 279
L 515 279
L 515 279
L 515 279
L 515 279
L 515 279
L 515 279
L 515 279
L 515 279
L 515 279
L 515 279
L 515 279
L 515 279
L 515 279
L 515 279
L 515 278
L 515 278
L 516 278
L 516 278
L 516 278
L 516 278
L 516 278
L 516 278
L 516 278
L 516 278
L 516 278
L 516 278
L 516 278
L 516 278
L 516 278
L 516 278
L 517 278
L 517 278
L 517 278
L 517 278
L 517 278
L 517 278
L 517 278
L 517 278
L 517 278
L 517 277
L 517 277
L 517 277
L 518 277
L 518 277
L 518 277
L 518 277
L 518 277
L 518 277
L 518 277
L 518 277
L 518 277
L 518 277
L 518 277
L 518 277
L 518 277
L 518 277
L 518 277
L 518 277
L 519 277
L 519 277
L 519 277
L 519 277
L 519 277
L 519 277
L 519 276
L 519 276
L 519 276
L 519 276
L 519 276
L 519 276
L 519 276
L 520 276
L 520 276
L 520 276
L 520 276
L 520 276
L 520 276
L 520 276
L 520 276
L 520 276
L 521 276
L 521 276
L 521 276
L 521 276
L 521 276
L 521 276
L 521 276
L 521 276
L 521 276
L 521 276
L 521 275
L 521 275
L 521 275
L 521 275
L 521 275
L 521 275
L 522 275
L 522 275
L 522 275
L 522 275
L 522 275
L 522 275
L 522 275
L 522 275
L 522 275
L 523 275
L 523 275
L 523 275
L 523 275
L 523 275
L 523 275
L 523 275
L 523 275
L 523 275
L 523 275
L 523 274
L 524 274
L 524 274
L 524 274
L 524 274
L 524 274
L 524 274
L 524 274
L 524 274
L 524 274
L 524 274
L 524 274
L 524 274
L 524 274
L 524 274
L 524 274
L 524 274
L 524 274
L 524 274
L 524 274
L 525 274
L 525 274
L 525 274
L 525 274
L 525 274
L 525 273
L 525 273
L 525 273
L 526 273
L 526 273
L 526 273
L 526 273
L 526 273
L 526 273
L 526 273
L 526 273
L 526 273
L 526 273
L 526 273
L 526 273
L 526 273
L 527 273
L 527 273
L 527 273
L 527 273
L 527 273
L 527 273
L 527 273
L 527 273
L 527 273
L 528 272
L 528 272
L 528 272
L 528 272
L 528 272
L 529 272
L 529 272
L 529 272
L 529 272
L 529 272
L 529 272
L 529 272
L 529 272
L 529 272
L 529 272
L 529 272
L 529 272
L 530 272
L 530 272
L 530 272
L 530 272
L 530 272
L 530 272
L 530 272
L 531 272
L 531 272
L 531 271
L 531 271
L 531 271
L 531 271
L 531 271
L 531 271
L 531 271
L 531 271
L 531 271
L 532 271
L 532 271
L 532 271
L 532 271
L 532 271
L 532 271
L 532 271
L 532 271
L 532 271
L 532 271
L 532 271
L 532 271
L 532 271
L 532 271
L 532 271
L 532 271
L 532 270
L 532 270
L 532 270
L 532 270
L 532 270
L 532 270
L 532 270
L 532 270
L 533 270
L 533 270
L 533 270
L 533 270
L 533 270
L 533 270
L 533 270
L 533 270
L 533 270
L 533 270
L 533 270
L 533 270
L 534 270
L 535 270
L 535 270
L 535 270
L 535 270
L 535 269
L 535 269
L 535 269
L 535 269
L 535 269
L 535 269
L 535 269
L 535 269
L 535 269
L 535 269
L 536 269
L 536 269
L 536 269
L 536 269
L 536 269
L 536 269
L 537 269
L 537 269
L 537 269
L 537 269
L 537 269
L 537 269
L 537 269
L 537 269
L 538 269
L 538 269
L 538 268
L 538 268
L 538 268
L 538 268
L 538 268
L 538 268
L 538 268
L 538 268
L 538 268
L 538 268
L 539 268
L 539 268
L 539 268
L 539 268
L 539 268
L 539 268
L 539 268
L 540 268
L 540 268
L 540 268
L 540 268
L 540 268
L 540 268
L 540 268
L 541 268
L 541 267
L 541 267
L 541 267
L 541 267
L 541 267
L 541 267
L 541 267
L 541 267
L 541 267
L 541 267
L 541 267
L 541 267
L 541 267
L 541 267
L 541 267
L 541 267
L 541 267
L 541 267
L 541 267
L 541 267
L 541 267
L 541 267
L 542 267
L 542 267
L 542 267
L 542 266
L 542 266
L 542 266
L 542 266
L 542 266
L 542 266
L 542 266
L 542 266
L 542 266
L 542 266
L 542 266
L 542 266
L 542 266
L 542 266
L 542 266
L 542 266
L 542 266
L 542 266
L 542 266
L 542 266
L 542 266
L 542 266
L 542 266
L 542 266
L 542 266
L 543 266
L 543 265
L 543 265
L 543 265
L 543 265
L 543 265
L 543 265
L 543 265
L 543 265
L 543 265
L 543 265
L 543 265
L 543 265
L 544 265
L 544 265
L 544 265
L 544 265
L 544 265
L 544 265
L 544 265
L 544 265
L 544 265
L 544 265
L 544 265
L 544 265
L 544 265
L 544 264
L 545 264
L 545 264
L 545 264
L 545 264
L 545 264
L 545 264
L 545 264
L 545 264
L 545 264
L 546 264
L 546 264
L 546 264
L 546 264
L 546 264
L 546 264
L 546 264
L 546 264
L 546 264
L 546 264
L 546 264
L 546 264
L 546 264
L 546 264
L 546 264
L 547 263
L 547 263
L 547 263
L 547 263
L 547 263
L 547 263
L 547 263
L 547 263
L 547 263
L 547 263
L 547 263
L 547 263
L 547 263
L 547 263
L 547 263
L 548 263
L 548 263
L 548 263
L 548 263
L 548 263
L 548 263
L 548 263
L 548 263
L 548 263
L 549 263
L 549 262
L 549 262
L 549 262
L 549 262
L 549 262
L 549 262
L 549 262
L 549 262
L 549 262
L 549 262
L 549 262
L 549 262
L 549 262
L 549 262
L 549 262
L 549 262
L 549 262
L 550 262
L 550 262
L 550 262
L 550 262
L 550 262
L 550 262
L 550 262
L 550 262
L 550 262
L 550 261
L 550 261
L 550 261
L 551 261
L 551 261
L 551 261
L 551 261
L 551 261
L 551 261
L 551 261
L 551 261
L 551 261
L 551 261
L 551 261
L 551 261
L 552 261
L 552 261
L 552 261
L 552 261
L 552 261
L 552 261
L 552 261
L 552 261
L 552 261
L 552 261
L 552 260
L 553 260
L 553 260
L 553 260
L 553 260
L 553 260
L 553 260
L 553 260
L 554 260
L 554 260
L 554 260
L 554 260
L 555 260
L 555 260
L 555 260
L 555 260
L 555 260
L 555 260
L 555 260
L 555 260
L 555 260
L 555 260
L 555 260
L 555 260
L 555 260
L 556 259
L 556 259
L 556 259
L 556 259
L 556 259
L 556 259
L 556 259
L 556 259
L 556 259
L 556 259
L 556 259
L 557 259
L 557 259
L 557 259
L 557 259
L 557 259
L 557 259
L 557 259
L 557 259
L 557 259
L 557 259
L 557 259
L 557 259
L 557 259
L 557 259
L 557 259
L 557 258
L 558 258
L 558 258
L 558 258
L 558 258
L 558 258
L 558 258
L 558 258
L 558 258
L 558 258
L 558 258
L 558 258
L 559 258
L 559 258
L 559 258
L 559 258
L 559 258
L 559 258
L 559 258
L 559 258
L 559 258
L 559 258
L 559 258
L 560 258
L 560 258
L 560 257
L 560 257
L 560 257
L 560 257
L 560 257
L 560 257
L 561 257
L 561 257
L 561 257
L 561 257
L 561 257
L 561 257
L 561 257
L 561 257
L 561 257
L 561 257
L 561 257
L 561 257
L 561 257
L 561 257
L 561 257
L 561 257
L 562 257
L 562 257
L 562 257
L 562 256
L 562 256
L 562 256
L 562 256
L 562 256
L 562 256
L 562 256
L 562 256
L 562 256
L 562 256
L 562 256
L 562 256
L 562 256
L 563 256
L 563 256
L 563 256
L 563 256
L 563 256
L 563 256
L 563 256
L 563 256
L 564 256
L 564 256
L 564 256
L 564 256
L 564 255
L 564 255
L 564 255
L 564 255
L 565 255
L 565 255
L 565 255
L 565 255
L 565 255
L 565 255
L 565 255
L 565 255
L 565 255
L 565 255
L 565 255
L 565 255
L 565 255
L 565 255
L 565 255
L 565 255
L 565 255
L 565 255
L 566 255
L 566 255
L 566 255
L 566 255
L 566 254
L 567 254
L 567 254
L 567 254
L 567 254
L 567 254
L 567 254
L 567 254
L 567 254
L 567 254
L 567 254
L 567 254
L 567 254
L 568 254
L 568 254
L 568 254
L 568 254
L 568 254
L 568 254
L 569 254
L 569 254
L 569 254
L 569 254
L 569 254
L 569 254
L 569 253
L 569 253
L 569 253
L 569 253
L 569 253
L 570 253
L 570 253
L 570 253
L 570 253
L 570 253
L 570 253
L 570 253
L 570 253
L 570 253
L 570 253
L 570 253
L 570 253
L 570 253
L 570 253
L 570 253
L 571 253
L 571 253
L 571 253
L 571 253
L 571 253
L 571 252
L 571 252
L 571 252
L 571 252
L 571 252
L 571 252
L 571 252
L 571 252
L 571 252
L 571 252
L 572 252
L 572 252
L 572 252
L 572 252
L 572 252
L 572 252
L 573 252
L 573 252
L 573 252
L 573 252
L 573 252
L 573 252
L 573 252
L 573 252
L 573 252
L 573 252
L 573 251
L 573 251
L 573 251
L 573 251
L 574 251
L 574 251
L 574 251
L 574 251
L 574 251
L 574 251
L 574 251
L 574 251
L 574 251
L 574 251
L 574 251
L 574 251
L 574 251
L 574 251
L 575 251
L 575 251
L 575 251
L 575 251
L 575 251
L 575 251
L 575 251
L 575 250
L 575 250
L 575 250
L 575 250
L 575 250
L 575 250
L 575 250
L 575 250
L 576 250
L 576 250
L 576 250
L 576 250
L 576 250
L 576 250
L 576 250
L 576 250
L 576 250
L 576 250
L 576 250
L 577 250
L 577 250
L 577 250
L 577 250
L 577 250
L 577 250
L 577 249
L 577 249
L 577 249
L 577 249
L 577 249
L 577 249
L 577 249
L 578 249
L 578 249
L 578 249
L 578 249
L 578 249
L 578 249
L 578 249
L 578 249
L 578 249
L 578 249
L 578 249
L 578 249
L 578 249
L 579 249
L 579 249
L 579 249
L 579 249
L 579 249
L 579 249
L 579 248
L 579 248
L 579 248
L 580 248
L 580 248
L 581 248
L 581 248
L 581 248
L 581 248
L 581 248
L 581 248
L 581 248
L 581 248
L 582 248
L 582 248
L 582 248
L 582 248
L 582 248
L 582 248
L 582 248
L 582 248
L 583 248
L 583 248
L 583 248
L 583 248
L 583 247
L 583 247
L 583 247
L 583 247
L 584 247
L 584 247
L 584 247
L 584 247
L 584 247
L 584 247
L 584 247
L 584 247
L 584 247
L 584 247
L 584 247
L 584 247
L 585 247
L 585 247
L 585 247
L 585 247
L 585 247
L 585 247
L 585 247
L 585 247
L 585 247
L 586 246
L 586 246
L 586 246
L 586 246
L 586 246
L 586 246
L 586 246
L 586 246
L 586 246
L 586 246
L 587 246
L 587 246
L 587 246
L 587 246
L 587 246
L 587 246
L 587 246
L 587 246
L 587 246
L 587 246
L 587 246
L 587 246
L 587 246
L 587 246
L 588 246
L 588 245
L 588 245
L 588 245
L 588 245
L 588 245
L 588 245
L 588 245
L 588 245
L 588 245
L 588 245
L 588 245
L 588 245
L 589 245
L 589 245
L 589 245
L 589 245
L 589 245
L 589 245
L 589 245
L 589 245
L 589 245
L 589 245
L 589 245
L 589 245
L 589 245
L 590 245
L 590 244
L 590 244
L 590 244
L 590 244
L 590 244
L 590 244
L 590 244
L 590 244
L 590 244
L 591 244
L 591 244
L 591 244
L 591 244
L 591 244
L 591 244
L 591 244
L 591 244
L 591 244
L 591 244
L 591 244
L 591 244
L 591 244
L 591 244
L 591 244
L 591 244
L 591 243
L 591 243
L 591 243
L 591 243
L 592 243
L 592 243
L 592 243
L 592 243
L 592 243
L 592 243
L 592 243
L 592 243
L 592 243
L 592 243
L 593 243
L 593 243
L 593 243
L 593 243
L 593 243
L 593 243
L 593 243
L 593 243
L 594 243
L 594 243
L 594 243
L 594 242
L 594 242
L 594 242
L 594 242
L 594 242
L 594 242
L 594 242
L 594 242
L 594 242
L 594 242
L 594 242
L 594 242
L 594 242
L 595 242
L 595 242
L 595 242
L 595 242
L 595 242
L 595 242
L 595 242
L 595 242
L 595 242
L 595 242
L 595 242
L 595 242
L 596 242
L 596 241
L 596 241
L 596 241
L 596 241
L 596 241
L 596 241
L 596 241
L 597 241
L 597 241
L 597 241
L 597 241
L 597 241
L 597 241
L 597 241
L 597 241
L 597 241
L 597 241
L 597 241
L 597 241
L 597 241
L 597 241
L 597 241
L 598 241
L 598 241
L 598 241
L 598 240
L 598 240
L 598 240
L 598 240
L 598 240
L 598 240
L 598 240
L 598 240
L 598 240
L 598 240
L 598 240
L 598 240
L 598 240
L 598 240
L 599 240
L 599 240
L 599 240
L 599 240
L 599 240
L 599 240
L 599 240
L 599 240
L 599 240
L 599 240
L 600 240
L 600 239
L 600 239
L 600 239
L 600 239
L 600 239
L 600 239
L 600 239
L 600 239
L 600 239
L 600 239
L 600 239
L 601 239
L 601 239
L 601 239
L 601 239
L 601 239
L 601 239
L 601 239
L 602 239
L 602 239
L 602 239
L 602 239
L 602 239
L 602 239
L 602 239
L 602 238
L 602 238
L 603 238
L 603 238
L 603 238
L 603 238
L 603 238
L 603 238
L 603 238
L 603 238
L 603 238
L 603 238
L 603 238
L 603 238
L 603 238
L 603 238
L 603 238
L 603 238
L 603 238
L 604 238
L 604 238
L 604 238
L 604 238
L 604 238
L 604 238
L 604 238
L 604 237
L 604 237
L 604 237
L 605 237
L 605 237
L 605 237
L 605 237
L 605 237
L 605 237
L 605 237
L 605 237
L 605 237
L 606 237
L 606 237
L 606 237
L 606 237
L 606 237
L 606 237
L 606 237
L 606 237
L 606 237
L 606 237
L 606 237
L 606 237
L 606 237
L 606 236
L 606 236
L 606 236
L 606 236
L 607 236
L 607 236
L 607 236
L 607 236
L 607 236
L 607 236
L 607 236
L 607 236
L 607 236
L 607 236
L 608 236
L 608 236
L 608 236
L 608 236
L 608 236
L 608 236
L 608 236
L 608 236
L 608 236
L 608 236
L 608 236
L 608 235
L 608 235
L 608 235
L 609 235
L 609 235
L 609 235
L 609 235
L 609 235
L 609 235
L 609 235
L 609 235
L 609 235
L 609 235
L 609 235
L 609 235
L 609 235
L 609 235
L 610 235
L 610 235
L 610 235
L 610 235
L 610 235
L 610 235
L 610 235
L 610 235
L 610 235
L 610 234
L 610 234
L 610 234
L 610 234
L 610 234
L 610 234
L 610 234
L 610 234
L 610 234
L 610 234
L 610 234
L 610 234
L 610 234
L 610 234
L 611 234
L 611 234
L 611 234
L 611 234
L 611 234
L 611 234
L 611 234
L 612 234
L 612 234
L 612 234
L 612 234
L 612 233
L 612 233
L 612 233
L 612 233
L 612 233
L 612 233
L 612 233
L 612 233
L 612 233
L 612 233
L 612 233
L 612 233
L 612 233
L 612 233
L 612 233
L 612 233
L 612 233
L 612 233
L 612 233
L 612 233
L 612 233
L 612 233
L 612 233
L 612 233
L 612 233
L 613 232
L 613 232
L 613 232
L 613 232
L 613 232
L 613 232
L 613 232
L 613 232
L 613 232
L 613 232
L 613 232
L 614 232
L 614 232
L 614 232
L 614 232
L 614 232
L 614 232
L 614 232
L 614 232
L 614 232
L 614 232
L 614 232
L 614 232
L 614 232
L 615 232
L 615 232
L 615 231
L 615 231
L 615 231
L 615 231
L 615 231
L 615 231
L 615 231
L 616 231
L 616 231
L 616 231
L 616 231
L 616 231
L 616 231
L 616 231
L 616 231
L 616 231
L 616 231
L 617 231
L 617 231
L 617 231
L 617 231
L 617 231
L 617 231
L 617 231
L 617 231
L 617 230
L 617 230
L 617 230
L 618 230
L 618 230
L 618 230
L 618 230
L 618 230
L 618 230
L 618 230
L 618 230
L 618 230
L 619 230
L 619 230
L 619 230
L 619 230
L 619 230
L 619 230
L 619 230
L 619 230
L 619 230
L 619 230
L 619 230
L 619 230
L 619 230
L 620 229
L 620 229
L 620 229
L 620 229
L 620 229
L 620 229
L 620 229
L 620 229
L 620 229
L 620 229
L 620 229
L 620 229
L 620 229
L 620 229
L 620 229
L 620 229
L 620 229
L 620 229
L 620 229
L 621 229
L 621 229
L 621 229
L 621 229
L 621 229
L 621 229
L 621 228
L 621 228
L 621 228
L 621 228
L 621 228
L 621 228
L 621 228
L 621 228
L 621 228
L 622 228
L 622 228
L 622 228
L 622 228
L 622 228
L 622 228
L 622 228
L 622 228
L 622 228
L 622 228
L 622 228
L 622 228
L 622 228
L 622 228
L 622 228
L 622 228
L 622 228
L 622 227
L 622 227
L 622 227
L 623 227
L 623 227
L 623 227
L 623 227
L 623 227
L 623 227
L 623 227
L 623 227
L 623 227
L 623 227
L 623 227
L 623 227
L 623 227
L 623 227
L 623 227
L 624 227
L 624 227
L 624 227
L 624 227
L 624 227
L 624 227
L 624 227
L 624 226
L 624 226
L 624 226
L 624 226
L 624 226
L 624 226
L 624 226
L 625 226
L 625 226
L 625 226
L 625 226
L 625 226
L 625 226
L 625 226
L 625 226
L 625 226
L 625 226
L 625 226
L 625 226
L 625 226
L 626 226
L 626 226
L 626 226
L 626 226
L 626 226
L 626 225
L 626 225
L 626 225
L 627 225
L 627 225
L 627 225
L 627 225
L 627 225
L 627 225
L 627 225
L 627 225
L 627 225
L 627 225
L 627 225
L 627 225
L 627 225
L 627 225
L 627 225
L 627 225
L 627 225
L 627 225
L 627 225
L 627 225
L 627 225
L 628 225
L 628 225
L 628 224
L 628 224
L 628 224
L 628 224
L 628 224
L 628 224
L 628 224
L 628 224
L 628 224
L 628 224
L 628 224
L 628 224
L 628 224
L 628 224
L 628 224
L 628 224
L 628 224
L 628 224
L 628 224
L 629 224
L 629 224
L 629 224
L 629 224
L 629 224
L 629 224
L 629 223
L 629 223
L 629 223
L 629 223
L 629 223
L 629 223
L 629 223
L 629 223
L 629 223
L 629 223
L 630 223
L 630 223
L 630 223
L 630 223
L 630 223
L 630 223
L 630 223
L 630 223
L 630 223
L 631 223
L 631 223
L 631 223
L 631 223
L 631 223
L 631 223
L 631 222
L 631 222
L 631 222
L 631 222
L 631 222
L 631 222
L 631 222
L 632 222
L 632 222
L 632 222
L 632 222
L 632 222
L 632 222
L 632 222
L 632 222
L 632 222
L 632 222
L 632 222
L 632 222
L 632 222
L 632 222
L 633 222
L 633 222
L 633 222
L 633 222
L 633 221
L 633 221
L 633 221
L 633 221
L 633 221
L 633 221
L 633 221
L 633 221
L 633 221
L 633 221
L 633 221
L 633 221
L 633 221
L 633 221
L 634 221
L 634 221
L 634 221
L 634 221
L 634 221
L 634 221
L 634 221
L 634 221
L 634 221
L 634 221
L 634 221
L 635 221
L 635 220
L 635 220
L 635 220
L 635 220
L 635 220
L 635 220
L 635 220
L 635 220
L 635 220
L 635 220
L 635 220
L 635 220
L 635 220
L 636 220
L 636 220
L 636 220
L 636 220
L 636 220
L 636 220
L 636 220
L 636 220
L 637 220
L 637 220
L 637 220
L 637 220
L 637 219
L 637 219
L 637 219
L 637 219
L 637 219
L 637 219
L 637 219
L 637 219
L 638 219
L 638 219
L 638 219
L 638 219
L 638 219
L 638 219
L 638 219
L 638 219
L 638 219
L 638 219
L 638 219
L 638 219
L 638 219
L 638 219
L 639 219
L 639 219
L 639 219
L 639 218
L 639 218
L 639 218
L 639 218
L 639 218
L 639 218
L 639 218
L 639 218
L 639 218
L 640 218
L 640 218
L 640 218
L 640 218
L 640 218
L 640 218
L 640 218
L 640 218
L 640 218
L 640 218
L 640 218
L 640 218
L 640 218
L 640 218
L 640 218
L 640 218
L 640 218
L 640 217
L 640 217
L 640 217
L 640 217
L 641 217
L 641 217
L 641 217
L 641 217
L 641 217
L 641 217
L 641 217
L 641 217
L 641 217
L 641 217
L 641 217
L 642 217
L 642 217
L 642 217
L 642 217
L 642 217
L 642 217
L 642 217
L 642 217
L 642 217
L 642 217
L 642 216
L 642 216
L 642 216
L 643 216
L 643 216
L 643 216
L 643 216
L 643 216
L 643 216
L 643 216
L 643 216
L 643 216
L 643 216
L 644 216
L 644 216
L 644 216
L 644 216
L 644 216
L 644 216
L 644 216
L 644 216
L 644 216
L 644 216
L 644 216
L 644 216
L 644 215
L 645 215
L 645 215
L 645 215
L 645 215
L 645 215
L 645 215
L 645 215
L 645 215
L 645 215
L 645 215
L 645 215
L 646 215
L 646 215
L 646 215
L 646 215
L 646 215
L 646 215
L 646 215
L 646 215
L 646 215
L 646 215
L 646 215
L 647 215
L 647 215
L 647 215
L 647 214
L 647 214
L 647 214
L 647 214
L 647 214
L 648 214
L 648 214
L 648 214
L 648 214
L 648 214
L 648 214
L 648 214
L 648 214
L 649 214
L 649 214
L 649 214
L 649 214
L 649 214
L 649 214
L 649 214
L 650 214
L 650 214
L 650 214
L 650 214
L 650 214
L 650 213
L 650 213
L 650 213
L 650 213
L 650 213
L 650 213
L 651 213
L 651 213
L 651 213
L 651 213
L 651 213
L 651 213
L 651 213
L 651 213
L 651 213
L 651 213
L 651 213
L 652 213
L 652 213
L 652 213
L 652 213
L 652 213
L 652 213
L 652 213
L 652 213
L 653 212
L 653 212
L 653 212
L 653 212
L 653 212
L 653 212
L 653 212
L 653 212
L 653 212
L 653 212
L 654 212
L 654 212
L 654 212
L 654 212
L 654 212
L 654 212
L 654 212
L 654 212
L 654 212
L 654 212
L 655 212
L 655 212
L 655 212
L 655 212
L 655 212
L 655 211
L 655 211
L 655 211
L 655 211
L 655 211
L 655 211
L 656 211
L 656 211
L 656 211
L 656 211
L 656 211
L 656 211
L 656 211
L 656 211
L 656 211
L 656 211
L 656 211
L 656 211
L 656 211
L 657 211
L 657 211
L 657 211
L 657 211
L 657 211
L 657 211
L 657 211
L 657 210
L 657 210
L 657 210
L 657 210
L 657 210
L 657 210
L 657 210
L 657 210
L 657 210
L 657 210
L 657 210
L 657 210
L 657 210
L 657 210
L 657 210
L 657 210
L 657 210
L 657 210
L 657 210
L 657 210
L 657 210
L 657 210
L 657 210
L 657 210
L 657 210
L 657 209
L 657 209
L 657 209
L 657 209
L 657 209
L 657 209
L 657 209
L 657 209
L 657 209
L 657 209
L 657 209
L 657 209
L 658 209
L 658 209
L 658 209
L 658 209
L 658 209
L 658 209
L 658 209
L 658 209
L 658 209
L 658 209
L 658 209
L 658 209
L 658 209
L 658 208
L 658 208
L 658 208
L 658 208
L 658 208
L 658 208
L 658 208
L 658 208
L 658 208
L 658 208
L 659 208
L 659 208
L 659 208
L 659 208
L 659 208
L 659 208
L 659 208
L 659 208
L 659 208
L 659 208
L 659 208
L 659 208
L 659 208
L 659 208
L 659 208
L 659 208
L 659 207
L 659 207
L 659 207
L 659 207
L 659 207
L 659 207
L 659 207
L 659 207
L 660 207
L 660 207
L 660 207
L 660 207
L 660 207
L 660 207
L 660 207
L 660 207
L 660 207
L 660 207
L 660 207
L 661 207
L 661 207
L 661 207
L 661 207
L 661 207
L 661 207
L 661 206
L 661 206
L 661 206
L 661 206
L 661 206
L 661 206
L 661 206
L 661 206
L 662 206
L 662 206
L 662 206
L 662 206
L 662 206
L 662 206
L 662 206
L 662 206
L 662 206
L 662 206
L 662 206
L 662 206
L 662 206
L 663 206
L 663 206
L 663 206
L 663 206
L 663 205
L 663 205
L 663 205
L 663 205
L 663 205
L 663 205
L 663 205
L 663 205
L 663 205
L 664 205
L 664 205
L 664 205
L 664 205
L 664 205
L 664 205
L 664 205
L 664 205
L 664 205
L 664 205
L 664 205
L 664 205
L 664 205
L 664 205
L 664 205
L 664 205
L 665 204
L 665 204
L 665 204
L 665 204
L 665 204
L 665 204
L 665 204
L 665 204
L 665 204
L 665 204
L 665 204
L 665 204
L 665 204
L 665 204
L 665 204
L 665 204
L 665 204
L 665 204
L 665 204
L 665 204
L 665 204
L 665 204
L 666 204
L 666 204
L 666 204
L 666 204
L 666 203
L 666 203
L 666 203
L 666 203
L 666 203
L 666 203
L 666 203
L 666 203
L 666 203
L 666 203
L 666 203
L 666 203
L 666 203
L 666 203
L 666 203
L 666 203
L 667 203
L 667 203
L 667 203
L 667 203
L 667 203
L 667 203
L 667 203
L 667 203
L 668 203
L 668 202
L 668 202
L 668 202
L 668 202
L 668 202
L 668 202
L 668 202
L 668 202
L 668 202
L 668 202
L 668 202
L 668 202
L 668 202
L 668 202
L 668 202
L 669 202
L 669 202
L 669 202
L 669 202
L 669 202
L 669 202
L 669 202
L 669 202
L 669 202
L 669 202
L 669 201
L 670 201
L 670 201
L 670 201
L 670 201
L 670 201
L 670 201
L 670 201
L 670 201
L 671 201
L 671 201
L 671 201
L 671 201
L 671 201
L 671 201
L 671 201
L 671 201
L 671 201
L 671 201
L 671 201
L 671 201
L 671 201
L 671 201
L 671 201
L 671 201
L 671 201
L 671 200
L 671 200
L 671 200
L 671 200
L 671 200
L 671 200
L 672 200
L 672 200
L 672 200
L 672 200
L 673 200
L 673 200
L 673 200
L 673 200
L 674 200
L 674 200
L 674 200
L 674 200
L 674 200
L 674 200
L 674 200
L 674 200
L 674 200
L 674 200
L 674 200
L 674 199
L 674 199
L 674 199
L 674 199
L 674 199
L 674 199
L 674 199
L 675 199
L 675 199
L 675 199
L 675 199
L 675 199
L 675 199
L 675 199
L 675 199
L 675 199
L 675 199
L 675 199
L 675 199
L 675 199
L 676 199
L 676 199
L 676 199
L 676 199
L 676 199
L 676 198
L 676 198
L 676 198
L 676 198
L 676 198
L 676 198
L 676 198
L 676 198
L 676 198
L 677 198
L 677 198
L 677 198
L 677 198
L 677 198
L 677 198
L 678 198
L 678 198
L 678 198
L 678 198
L 678 198
L 678 198
L 678 198
L 679 198
L 679 198
L 679 198
L 679 198
L 679 197
L 679 197
L 679 197
L 680 197
L 680 197
L 680 197
L 680 197
L 680 197
L 680 197
L 680 197
L 680 197
L 680 197
L 680 197
L 680 197
L 680 197
L 680 197
L 680 197
L 680 197
L 681 197
L 681 197
L 681 197
L 681 197
L 681 197
L 681 197
L 681 197
L 681 196
L 681 196
L 682 196
L 682 196
L 682 196
L 682 196
L 682 196
L 682 196
L 682 196
L 683 196
L 683 196
L 683 196
L 683 196
L 683 196
L 683 196
L 683 196
L 683 196
L 683 196
L 683 196
L 683 196
L 683 196
L 684 196
L 684 196
L 684 196
L 684 196
L 684 195
L 684 195
L 684 195
L 684 195
L 684 195
L 684 195
L 685 195
L 685 195
L 685 195
L 685 195
L 685 195
L 686 195
L 686 195
L 686 195
L 686 195
L 686 195
L 686 195
L 686 195
L 686 195
L 686 195
L 686 195
L 686 195
L 686 195
L 687 195
L 687 195
L 687 194
L 687 194
L 687 194
L 687 194
L 687 194
L 688 194
L 688 194
L 688 194
L 688 194
L 688 194
L 688 194
L 688 194
L 688 194
L 688 194
L 688 194
L 688 194
L 688 194
L 688 194
L 688 194
L 688 194
L 688 194
L 688 194
L 689 194
L 689 194
L 689 194
L 689 194
L 689 193
L 689 193
L 689 193
L 689 193
L 689 193
L 689 193
L 689 193
L 689 193
L 689 193
L 689 193
L 689 193
L 689 193
L 689 193
L 690 193
L 690 193
L 690 193
L 690 193
L 690 193
L 690 193
L 690 193
L 690 193
L 690 193
L 690 193
L 690 193
L 690 193
L 690 192
L 691 192
L 691 192
L 691 192
L 691 192
L 691 192
L 691 192
L 691 192
L 691 192
L 691 192
L 691 192
L 691 192
L 692 192
L 692 192
L 692 192
L 692 192
L 692 192
L 692 192
L 693 192
L 693 192
L 693 192
L 693 192
L 693 192
L 693 192
L 694 192
L 694 191
L 694 191
L 694 191
L 694 191
L 694 191
L 694 191
L 694 191
L 694 191
L 694 191
L 694 191
L 694 191
L 694 191
L 694 191
L 694 191
L 695 191
L 695 191
L 695 191
L 695 191
L 695 191
L 695 191
L 695 191
L 695 191
L 695 191
L 695 191
L 695 191
L 695 191
L 695 190
L 695 190
L 695 190
L 695 190
L 695 190
L 695 190
L 695 190
L 696 190
L 696 190
L 696 190
L 696 190
L 696 190
L 696 190
L 696 190
L 696 190
L 696 190
L 696 190
L 696 190
L 696 190
L 696 190
L 696 190
L 696 190
L 696 190
L 696 190
L 696 190
L 697 189
L 697 189
L 697 189
L 697 189
L 697 189
L 697 189
L 697 189
L 697 189
L 697 189
L 697 189
L 697 189
L 698 189
L 698 189
L 698 189
L 698 189
L 698 189
L 698 189
L 698 189
L 698 189
L 698 189
L 698 189
L 698 189
L 698 189
L 698 189
L 698 189
L 698 188
L 698 188
L 698 188
L 698 188
L 698 188
L 698 188
L 699 188
L 699 188
L 699 188
L 699 188
L 699 188
L 699 188
L 699 188
L 699 188
L 699 188
L 699 188
L 700 188
L 700 188
L 700 188
L 700 188
L 700 188
L 700 188
L 700 188
L 700 188
L 700 188
L 700 187
L 701 187
L 701 187
L 701 187
L 701 187
L 701 187
L 701 187
L 701 187
L 701 187
L 702 187
L 702 187
L 702 187
L 702 187
L 702 187
L 703 187
L 703 187
L 703 187
L 703 187
L 703 187
L 703 187
L 703 187
L 704 187
L 704 187
L 704 187
L 704 187
L 704 187
L 704 186
L 704 186
L 704 186
L 704 186
L 704 186
L 704 186
L 704 186
L 704 186
L 704 186
L 704 186
L 704 186
L 704 186
L 704 186
L 705 186
L 705 186
L 705 186
L 705 186
L 705 186
L 705 186
L 705 186
L 705 186
L 705 186
L 705 186
L 705 186
L 706 186
L 706 185
L 706 185
L 706 185
L 706 185
L 706 185
L 706 185
L 706 185
L 706 185
L 706 185
L 706 185
L 706 185
L 707 185
L 707 185
L 707 185
L 707 185
L 707 185
L 707 185
L 707 185
L 707 185
L 707 185
L 707 185
L 707 185
L 708 185
L 708 185
L 708 185
L 708 184
L 708 184
L 708 184
L 708 184
L 708 184
L 708 184
L 708 184
L 708 184
L 708 184
L 709 184
L 709 184
L 709 184
L 709 184
L 709 184
L 709 184
L 709 184
L 709 184
L 709 184
L 709 184
L 709 184
L 709 184
L 710 184
L 710 184
L 710 184
L 710 184
L 710 184
L 710 183
L 710 183
L 710 183
L 710 183
L 710 183
L 710 183
L 711 183
L 711 183
L 711 183
L 712 183
L 712 183
L 712 183
L 712 183
L 712 183
L 712 183
L 712 183
L 712 183
L 712 183
L 712 183
L 712 183
L 712 183
L 712 183
L 712 183
L 713 183
L 713 183
L 713 182
L 713 182
L 713 182
L 713 182
L 713 182
L 713 182
L 713 182
L 713 182
L 713 182
L 713 182
L 713 182
L 713 182
L 713 182
L 713 182
L 713 182
L 713 182
L 713 182
L 713 182
L 713 182
L 714 182
L 714 182
L 714 182
L 714 182
L 714 182
L 714 182
L 714 181
L 714 181
L 714 181
L 715 181
L 715 181
L 715 181
L 715 181
L 715 181
L 715 181
L 715 181
L 715 181
L 715 181
L 715 181
L 715 181
L 715 181
L 715 181
L 715 181
L 715 181
L 715 181
L 716 181
L 716 181
L 716 181
L 716 181
L 716 181
L 716 181
L 716 181
L 716 180
L 716 180
L 716 180
L 716 180
L 717 180
L 717 180
L 717 180
L 717 180
L 717 180
L 717 180
L 717 180
L 717 180
L 717 180
L 718 180
L 718 180
L 718 180
L 718 180
L 718 180
L 718 180
L 718 180
L 718 180
L 718 180
L 719 180
L 719 180
L 719 180
L 719 179
L 719 179
L 719 179
L 719 179
L 719 179
L 719 179
L 719 179
L 720 179
L 720 179
L 720 179
L 720 179
L 720 179
L 720 179
L 721 179
L 721 179
L 721 179
L 721 179
L 721 179
L 721 179
L 721 179
L 721 179
L 721 179
L 722 179
L 722 179
L 722 179
L 722 178
L 722 178
L 722 178
L 722 178
L 722 178
L 722 178
L 722 178
L 723 178
L 723 178
L 723 178
L 723 178
L 723 178
L 723 178
L 723 178
L 723 178
L 723 178
L 723 178
L 723 178
L 723 178
L 723 178
L 723 178
L 723 178
L 723 178
L 723 178
L 723 178
L 723 177
L 723 177
L 723 177
L 723 177
L 724 177
L 724 177
L 724 177
L 724 177
L 724 177
L 724 177
L 724 177
L 724 177
L 724 177
L 724 177
L 725 177
L 725 177
L 725 177
L 725 177
L 725 177
L 725 177
L 725 177
L 725 177
L 725 177
L 725 177
L 725 177
L 725 177
L 725 176
L 725 176
L 726 176
L 726 176
L 726 176
L 726 176
L 726 176
L 726 176
L 726 176
L 726 176
L 726 176
L 727 176
L 727 176
L 727 176
L 727 176
L 727 176
L 727 176
L 727 176
L 727 176
L 727 176
L 727 176
L 727 176
L 728 176
L 728 176
L 728 176
L 728 175
L 728 175
L 728 175
L 728 175
L 728 175
L 728 175
L 728 175
L 728 175
L 728 175
L 728 175
L 729 175
L 729 175
L 729 175
L 729 175
L 729 175
L 729 175
L 729 175
L 729 175
L 729 175
L 729 175
L 729 175
L 730 175
L 730 175
L 730 175
L 730 175
L 730 174
L 730 174
L 730 174
L 730 174
L 730 174
L 730 174
L 730 174
L 730 174
L 731 174
L 731 174
L 731 174
L 731 174
L 731 174
L 731 174
L 731 174
L 731 174
L 731 174
L 731 174
L 731 174
L 731 174
L 731 174
L 731 174
L 732 174
L 732 174
L 732 174
L 732 174
L 732 173
L 732 173
L 732 173
L 732 173
L 732 173
L 732 173
L 732 173
L 732 173
L 733 173
L 733 173
L 733 173
L 733 173
L 733 173
L 733 173
L 733 173
L 733 173
L 733 173
L 733 173
L 733 173
L 734 173
L 734 173
L 734 173
L 734 173
L 734 173
L 734 173
L 734 172
L 734 172
L 734 172
L 734 172
L 734 172
L 734 172
L 734 172
L 735 172
L 735 172
L 735 172
L 735 172
L 735 172
L 735 172
L 735 172
L 735 172
L 735 172
L 735 172
L 735 172
L 735 172
L 735 172
L 735 172
L 735 172
L 735 172
L 735 172
L 736 172
L 736 171
L 736 171
L 736 171
L 736 171
L 736 171
L 737 171
L 737 171
L 737 171
L 737 171
L 737 171
L 737 171
L 737 171
L 737 171
L 737 171
L 738 171
L 738 171
L 738 171
L 738 171
L 738 171
L 738 171
L 738 171
L 738 171
L 738 171
L 738 171
L 738 171
L 739 170
L 739 170
L 739 170
L 739 170
L 739 170
L 739 170
L 739 170
L 739 170
L 739 170
L 739 170
L 739 170
L 739 170
L 740 170
L 740 170
L 740 170
L 740 170
L 740 170
L 740 170
L 740 170
L 740 170
L 741 170
L 741 170
L 741 170
L 741 170
L 741 170
L 741 170
L 741 169
L 741 169
L 741 169
L 741 169
L 741 169
L 741 169
L 741 169
L 741 169
L 741 169
L 742 169
L 742 169
L 742 169
L 742 169
L 742 169
L 742 169
L 742 169
L 742 169
L 742 169
L 742 169
L 742 169
L 742 169
L 742 169
L 742 169
L 743 169
L 743 169
L 743 168
L 743 168
L 743 168
L 743 168
L 743 168
L 743 168
L 743 168
L 743 168
L 743 168
L 744 168
L 744 168
L 744 168
L 744 168
L 744 168
L 744 168
L 745 168
L 745 168
L 745 168
L 745 168
L 745 168
L 745 168
L 745 168
L 745 168
L 745 168
L 745 168
L 745 167
L 745 167
L 745 167
L 745 167
L 746 167
L 746 167
L 746 167
L 746 167
L 746 167
L 746 167
L 747 167
L 747 167
L 747 167
L 747 167
L 747 167
L 747 167
L 747 167
L 747 167
L 747 167
L 747 167
L 747 167
L 747 167
L 747 167
L 747 167
L 747 167
L 747 167
L 747 166
L 747 166
L 747 166
L 747 166
L 747 166
L 747 166
L 747 166
L 748 166
L 748 166
L 748 166
L 748 166
L 748 166
L 748 166
L 748 166
L 748 166
L 749 166
L 749 166
L 749 166
L 749 166
L 749 166
L 749 166
L 749 166
L 749 166
L 749 166
L 749 166
L 749 165
L 750 165
L 750 165
L 750 165
L 750 165
L 750 165
L 750 165
L 750 165
L 750 165
L 751 165
L 751 165
L 751 165
L 751 165
L 751 165
L 751 165
L 751 165
L 751 165
L 751 165
L 751 165
L 751 165
L 751 165
L 751 165
L 751 165
L 751 165
L 751 165
L 751 164
L 752 164
L 752 164
L 752 164
L 752 164
L 752 164
L 752 164
L 752 164
L 752 164
L 752 164
L 752 164
L 752 164
L 752 164
L 752 164
L 752 164
L 753 164
L 753 164
L 753 164
L 753 164
L 753 164
L 753 164
L 753 164
L 753 164
L 753 164
L 753 164
L 753 163
L 753 163
L 753 163
L 753 163
L 754 163
L 754 163
L 754 163
L 754 163
L 754 163
L 754 163
L 755 163
L 755 163
L 755 163
L 755 163
L 755 163
L 755 163
L 755 163
L 755 163
L 755 163
L 755 163
L 755 163
L 755 163
L 755 163
L 755 163
L 755 163
L 755 163
L 755 162
L 756 162
L 756 162
L 756 162
L 756 162
L 756 162
L 756 162
L 757 162
L 757 162
L 757 162
L 757 162
L 757 162
L 757 162
L 757 162
L 757 162
L 757 162
L 757 162
L 758 162
L 758 162
L 758 162
L 758 162
L 758 162
L 758 162
L 758 162
L 758 162
L 758 161
L 758 161
L 758 161
L 758 161
L 759 161
L 759 161
L 759 161
L 759 161
L 759 161
L 759 161
L 759 161
L 759 161
L 759 161
L 759 161
L 759 161
L 759 161
L 759 161
L 759 161
L 759 161
L 759 161
L 759 161
L 759 161
L 759 161
L 759 161
L 759 161
L 759 160
L 759 160
L 759 160
L 759 160
L 759 160
L 759 160
L 759 160
L 759 160
L 759 160
L 759 160
L 759 160
L 759 160
L 759 160
L 759 160
L 759 160
L 759 160
L 759 160
L 759 160
L 759 160
L 759 160
L 759 160
L 759 160
L 759 160
L 759 160
L 759 160
L 759 160
L 759 159
L 759 159
L 759 159
L 759 159
L 759 159
L 759 159
L 759 159
L 759 159
L 759 159
L 759 159
L 759 159
L 759 159
L 759 159
L 759 159
L 759 159
L 759 159
L 759 159
L 759 159
L 759 159
L 759 159
L 759 159
L 759 159
L 759 159
L 759 159
L 759 159
L 759 158
L 759 158
L 759 158
L 759 158
L 759 158
L 759 158
L 759 158
L 759 158
L 759 158
L 759 158
L 759 158
L 759 158
L 759 158
L 759 158
L 759 158
L 759 158
L 759 158
L 759 158
L 759 158
L 759 158
L 759 158
L 759 158
L 759 158
L 759 158
L 759 158
L 759 157
L 759 157
L 759 157
L 759 157
L 759 157
L 759 157
L 759 157
L 759 157
L 759 157
L 759 157
L 759 157
L 759 157
L 759 157
L 759 157
L 759 157
L 759 157
L 759 157
L 759 157
L 759 157
L 759 157
L 759 157
L 759 157
L 759 157
L 759 157
L 759 157
L 759 157
L 759 156
L 759 156
L 759 156
L 759 156
L 759 156
L 759 156
L 759 156
L 759 156
L 759 156
L 759 156
L 759 156
L 759 156
L 759 156
L 759 156
L 759 156
L 759 156
L 759 156
L 759 156
L 759 156
L 759 156
L 759 156
L 759 156
L 759 156
L 759 156
L 759 156
L 759 155
L 759 155
L 759 155
L 759 155
L 759 155
L 759 155
L 759 155
L 759 155
L 759 155
L 759 155
L 759 155
L 759 155
L 759 155
L 759 155
L 759 155
L 759 155
L 759 155
L 759 155
L 759 155
L 759 155
L 759 155
L 759 155
L 759 155
L 759 155
L 759 155
L 759 154
L 759 154
L 759 154
L 759 154
L 759 154
L 759 154
L 759 154
L 759 154
L 759 154
L 759 154
L 759 154
L 759 154
L 759 154
L 759 154
L 759 154
L 759 154
L 759 154
L 759 154
L 759 154
L 759 154
L 759 154
L 759 154
L 759 154
L 759 154
L 759 154
L 759 153
L 759 153
L 759 153
L 759 153
L 759 153
L 759 153
L 759 153
L 759 153
L 759 153
L 759 153
L 759 153
L 759 153
L 759 153
L 759 153
L 759 153
L 759 153
L 759 153
L 759 153
L 759 153
L 759 153
L 759 153
L 759 153
L 759 153
L 759 153
L 759 153
L 759 153
L 759 152
L 759 152
L 759 152
L 759 152
L 759 152
L 759 152
L 759 152
L 759 152
L 759 152
L 759 152
L 759 152
L 759 152
L 759 152
L 759 152
L 759 152
L 759 152
L 759 152
L 759 152
L 759 152
L 759 152
L 759 152
L 759 152
L 759 152
L 759 152
L 759 152
L 759 151
L 759 151
L 759 151
L 759 151
L 759 151
L 759 151
L 759 151
L 759 151
L 759 151
L 759 151
L 759 151
L 759 151
L 759 151
L 759 151
L 759 151
L 759 151
L 759 151
L 759 151
L 759 151
L 759 151
L 759 151
L 759 151
L 759 151
L 759 151
L 759 151
L 759 150
L 759 150
L 759 150
L 759 150
L 759 150
L 759 150
L 759 150
L 759 150
L 759 150
L 759 150
L 759 150
L 759 150
L 759 150
L 759 150
L 759 150
L 759 150
L 759 150
L 759 150
L 759 150
L 759 150
L 759 150
L 759 150
L 759 150
L 759 150
L 759 150
L 759 150
L 759 149
L 759 149
L 759 149
L 759 149
L 759 149
L 759 149
L 759 149
L 759 149
L 759 149
L 759 149
L 759 149
L 759 149
L 759 149
L 759 149
L 759 149
L 759 149
L 759 149
L 759 149
L 759 149
L 759 149
L 759 149
L 759 149
L 759 149
L 759 149
L 759 149
L 759 148
L 759 148
L 759 148
L 759 148
L 759 148
L 759 148
L 759 148
L 759 148
L 759 148
L 759 148
L 759 148
L 759 148
L 759 148
L 759 148
L 759 148
L 759 148
L 759 148
L 759 148
L 759 148
L 759 148
L 759 148
L 759 148
L 759 148
L 759 148
L 759 148
L 759 147
L 759 147
L 759 147
L 759 147
L 759 147
L 759 147
L 759 147
L 759 147
L 759 147
L 759 147
L 759 147
L 759 147
L 759 147
L 759 147
L 759 147
L 759 147
L 759 147
L 759 147
L 759 147
L 759 147
L 759 147
L 759 147
L 759 147
L 759 147
L 759 147
L 759 147
L 759 146
L 759 146
L 759 146
L 759 146
L 759 146
L 759 146
L 759 146
L 759 146
L 759 146
L 759 146
L 759 146
L 759 146
L 759 146
L 759 146
L 759 146
L 759 146
L 759 146
L 759 146
L 759 146
L 759 146
L 759 146
L 759 146
L 759 146
L 759 146
L 759 146
L 759 145
L 759 145
L 759 145
L 759 145
L 759 145
L 759 145
L 759 145
L 759 145
L 759 145
L 759 145
L 759 145
L 759 145
L 759 145
L 759 145
L 759 145
L 759 145
L 759 145
L 759 145
L 759 145
L 759 145
L 759 145
L 759 145
L 759 145
L 759 145
L 759 145
L 759 144
L 759 144
L 759 144
L 759 144
L 759 144
L 759 144
L 759 144
L 759 144
L 759 144
L 759 144
L 759 144
L 759 144
L 759 144
L 759 144
L 759 144
L 759 144
L 759 144
L 759 144
L 759 144
L 759 144
L 759 144
L 759 144
L 759 144
L 759 144
L 759 144
L 759 143
L 759 143
L 759 143
L 759 143
L 759 143
L 759 143
L 759 143
L 759 143
L 759 143
L 759 143
L 759 143
L 759 143
L 759 143
L 759 143
L 759 143
L 759 143
L 759 143
L 759 143
L 759 143
L 759 143
L 759 143
L 759 143
L 759 143
L 759 143
L 759 143
L 759 143
L 759 142
L 759 142
L 759 142
L 759 142
L 759 142
L 759 142
L 759 142
L 759 142
L 759 142
L 759 142
L 759 142
L 759 142
L 759 142
L 759 142
L 759 142
L 759 142
L 759 142
L 759 142
L 759 142
L 759 142
L 759 142
L 759 142
L 759 142
L 759 142
L 759 142
L 759 141
L 759 141
L 759 141
L 759 141
L 759 141
L 759 141
L 759 141
L 759 141
L 759 141
L 759 141
L 759 141
L 759 141
L 759 141
L 759 141
L 759 141
L 759 141
L 759 141
L 759 141
L 760 141
L 760 141
L 760 141
L 760 141
L 760 141
L 760 141
L 760 141
L 760 140
L 760 140
L 760 140
L 760 140
L 760 140
L 760 140
L 760 140
L 760 140
L 760 140
L 760 140
L 760 140
L 760 140
L 760 140
L 760 140
L 760 140
L 760 140
L 760 140
L 760 140
L 760 140
L 760 140
L 760 140
L 760 140
L 760 140
L 760 140
L 760 140
L 760 140
L 760 139
L 760 139
L 760 139
L 760 139
L 760 139
L 760 139
L 760 139
L 760 139
L 760 139
L 760 139
L 760 139
L 760 139
L 760 139
L 760 139
L 760 139
L 760 139
L 760 139
L 760 139
L 760 139
L 760 139
L 760 139
L 760 139
L 760 139
L 760 139
L 760 139
L 760 138
L 760 138
L 760 138
L 760 138
L 760 138
L 760 138
L 760 138
L 760 138
L 760 138
L 760 138
L 760 138
L 760 138
L 760 138
L 760 138
L 760 138
L 760 138
L 760 138
L 760 138
L 760 138
L 760 138
L 760 138
L 760 138
L 760 138
L 760 138
L 760 138
L 760 137
L 760 137
L 760 137
L 760 137
L 760 137
L 760 137
L 760 137
L 760 137
L 760 137
L 760 137
L 760 137
L 760 137
L 760 137
L 760 137
L 760 137
L 760 137
L 760 137
L 760 137
L 760 137
L 760 137
L 760 137
L 760 137
L 760 137
L 760 137
L 760 137
L 760 136
L 760 136
L 760 136
L 760 136
L 760 136
L 760 136
L 760 136
L 760 136
L 760 136
L 760 136
L 760 136
L 760 136
L 760 136
L 760 136
L 760 136
L 760 136
L 760 136
L 760 136
L 760 136
L 760 136
L 760 136
L 760 136
L 760 136
L 760 136
L 760 136
L 760 136
L 760 135
L 760 135
L 760 135
L 760 135
L 760 135
L 760 135
L 760 135
L 760 135
L 760 135
L 760 135
L 760 135
L 760 135
L 760 135
L 760 135
L 760 135
L 760 135
L 760 135
L 760 135
L 760 135
L 760 135
L 760 135
L 760 135
L 760 135
L 760 135
L 760 135
L 760 134
L 760 134
L 760 134
L 760 134
L 760 134
L 760 134
L 760 134
L 760 134
L 760 134
L 760 134
L 760 134
L 760 134
L 760 134
L 760 134
L 760 134
L 760 134
L 760 134
L 760 134
L 760 134
L 760 134
L 760 134
L 760 134
L 760 134
L 760 134
L 760 134
L 760 133
L 760 133
L 760 133
L 760 133
L 760 133
L 760 133
L 760 133
L 760 133
L 760 133
L 760 133
L 760 133
L 760 133
L 760 133
L 760 133
L 760 133
L 760 133
L 760 133
L 760 133
L 760 133
L 760 133
L 760 133
L 760 133
L 760 133
L 760 133
L 760 133
L 760 133
L 760 132
L 760 132
L 760 132
L 760 132
L 760 132
L 760 132
L 760 132
L 760 132
L 760 132
L 760 132
L 760 132
L 760 132
L 760 132
L 760 132
L 760 132
L 760 132
L 760 132
L 760 132
L 760 132
L 760 132
L 760 132
L 760 132
L 760 132
L 760 132
L 760 132
L 760 131
L 760 131
L 760 131
L 760 131
L 760 131
L 760 131
L 760 131
L 760 131
L 760 131
L 760 131
L 760 131
L 760 131
L 760 131
L 760 131
L 760 131
L 760 131
L 760 131
L 760 131
L 760 131
L 760 131
L 760 131
L 760 131
L 760 131
L 760 131
L 760 131
L 760 130
L 760 130
L 760 130
L 760 130
L 760 130
L 760 130
L 760 130
L 760 130
L 760 130
L 760 130
L 760 130
L 760 130
L 760 130
L 760 130
L 760 130
L 760 130
L 760 130
L 760 130
L 760 130
L 760 130
L 760 130
L 760 130
L 760 130
L 760 130
L 760 130
L 760 130
L 760 129
L 760 129
L 760 129
L 760 129
L 760 129
L 760 129
L 760 129
L 760 129
L 760 129
L 760 129
L 760 129
L 760 129
L 760 129
L 760 129
L 760 129
L 760 129
L 760 129
L 760 129
L 760 129
L 760 129
L 760 129
L 760 129
L 760 129
L 760 129
L 760 129
L 760 128
L 760 128
L 760 128
L 760 128
L 760 128
L 760 128
L 760 128
L 760 128
L 760 128
L 760 128
L 760 128
L 760 128
L 760 128
L 760 128
L 760 128
L 760 128
L 760 128
L 760 128
L 760 128
L 760 128
L 760 128
L 760 128
L 760 128
L 760 128
L 760 128
L 760 127
L 760 127
L 760 127
L 760 127
L 760 127
L 760 127
L 760 127
L 760 127
L 760 127
L 760 127
L 760 127
L 760 127
L 760 127
L 760 127
L 760 127
L 760 127
L 760 127
L 760 127
L 760 127
L 760 127
L 760 127
L 760 127
L 760 127
L 760 127
L 760 127
L 760 126
L 760 126
L 760 126
L 760 126
L 760 126
L 760 126
L 760 126
L 760 126
L 760 126
L 760 126
L 760 126
L 760 126
L 760 126
L 760 126
L 760 126
L 760 126
L 760 126
L 760 126
L 760 126
L 760 126
L 760 126
L 760 126
L 760 126
L 760 126
L 760 126
L 760 126
L 760 125
L 760 125
L 760 125
L 760 125
L 760 125
L 760 125
L 760 125
L 760 125
L 760 125
L 760 125
L 760 125
L 760 125
L 760 125
L 760 125
L 760 125
L 760 125
L 760 125
L 760 125
L 760 125
L 760 125
L 760 125
L 760 125
L 760 125
L 760 125
L 760 125
L 760 124
L 760 124
L 760 124
L 760 124
L 760 124
L 760 124
L 760 124
L 760 124
L 760 124
L 760 124
L 760 124
L 760 124
L 760 124
L 760 124
L 760 124
L 760 124
L 760 124
L 760 124
L 760 124
L 760 124
L 760 124
L 760 124
L 760 124
L 760 124
L 760 124
L 760 123
L 760 123
L 760 123
L 760 123
L 760 123
L 760 123
L 760 123
L 760 123
L 760 123
L 760 123
L 760 123
L 760 123
L 760 123
L 760 123
L 760 123
L 760 123
L 760 123
L 760 123
L 761 123
L 761 123
L 761 123
L 761 123
L 761 123
L 761 123
L 761 123
L 761 123
L 761 122
L 761 122
L 761 122
L 761 122
L 761 122
L 761 122
L 761 122
L 761 122
L 761 122
L 761 122
L 762 122
L 762 122
L 762 122
L 762 122
L 762 122
L 762 122
L 762 122
L 762 122
L 762 122
L 762 122
L 762 122
L 762 122
L 762 122
L 762 122
L 762 122
L 762 121
L 762 121
L 762 121
L 762 121
L 762 121
L 762 121
L 762 121
L 762 121
L 762 121
L 762 121
L 763 121
L 763 121
L 763 121
L 763 121
L 763 121
L 763 121
L 763 121
L 763 121
L 763 121
L 763 121
L 763 121
L 763 121
L 763 121
L 763 121
L 763 121
L 763 120
L 763 120
L 763 120
L 764 120
L 764 120
L 764 120
L 764 120
L 764 120
L 764 120
L 764 120
L 764 120
L 764 120
L 764 120
L 764 120
L 765 120
L 765 120
L 765 120
L 765 120
L 765 120
L 765 120
L 765 120
L 765 120
L 765 120
L 765 120
L 765 120
L 765 119
L 765 119
L 765 119
L 765 119
L 765 119
L 765 119
L 765 119
L 766 119
L 766 119
L 766 119
L 766 119
L 766 119
L 766 119
L 766 119
L 766 119
L 766 119
L 766 119
L 766 119
L 766 119
L 766 119
L 766 119
L 766 119
L 766 119
L 766 119
L 766 119
L 766 119
L 766 118
L 767 118
L 767 118
L 767 118
L 767 118
L 767 118
L 767 118
L 767 118
L 767 118
L 767 118
L 767 118
L 767 118
L 767 118
L 767 118
L 767 118
L 767 118
L 767 118
L 768 118
L 768 118
L 768 118
L 768 118
L 768 118
L 769 118
L 769 118
L 769 118
L 769 117
L 769 117
L 769 117
L 769 117
L 769 117
L 769 117
L 769 117
L 769 117
L 769 117
L 769 117
L 769 117
L 769 117
L 769 117
L 769 117
L 769 117
L 770 117
L 770 117
L 770 117
L 770 117
L 770 117
L 770 117
L 770 117
L 770 117
L 770 117
L 770 117
L 770 116
L 770 116
L 770 116
L 770 116
L 771 116
L 771 116
L 771 116
L 771 116
L 771 116
L 771 116
L 771 116
L 771 116
L 771 116
L 771 116
L 771 116
L 771 116
L 772 116
L 772 116
L 772 116
L 772 116
L 772 116
L 772 116
L 772 116
L 772 116
L 772 116
L 772 116
L 773 115
L 773 115
L 773 115
L 773 115
L 773 115
L 773 115
L 773 115
L 773 115
L 773 115
L 773 115
L 773 115
L 773 115
L 773 115
L 774 115
L 774 115
L 774 115
L 774 115
L 774 115
L 774 115
L 774 115
L 774 115
L 774 115
L 775 115
L 775 115
L 775 115
L 775 114
L 775 114
L 775 114
L 775 114
L 775 114
L 775 114
L 775 114
L 776 114
L 776 114
L 776 114
L 776 114
L 776 114
L 777 114
L 777 114
L 777 114
L 777 114
L 777 114
L 777 114
L 777 114
L 777 114
L 777 114
L 777 114
L 777 114
L 777 114
L 777 114
L 777 113
L 778 113
L 778 113
L 778 113
L 778 113
L 778 113
L 778 113
L 779 113
L 779 113
L 779 113
L 779 113
L 779 113
L 779 113
L 779 113
L 780 113
L 780 113
L 780 113
L 780 113
L 780 113
L 780 113
L 780 113
L 781 113
L 781 113
L 781 113
L 781 113
L 781 113
L 781 112
L 781 112
L 781 112
L 781 112
L 781 112
L 781 112
L 781 112
L 781 112
L 781 112
L 781 112
L 781 112
L 781 112
L 781 112
L 781 112
L 781 112
L 782 112
L 782 112
L 782 112
L 782 112
L 782 112
L 782 112
L 782 112
L 782 112
L 782 112
L 782 112
L 783 111
L 783 111
L 783 111
L 783 111
L 783 111
L 783 111
L 783 111
L 783 111
L 783 111
L 783 111
L 783 111
L 783 111
L 783 111
L 783 111
L 783 111
L 783 111
L 784 111
L 784 111
L 784 111
L 784 111
L 784 111
L 784 111
L 784 111
L 784 111
L 784 111
L 784 110
L 785 110
L 785 110
L 785 110
L 785 110
L 785 110
L 785 110
L 785 110
L 785 110
L 785 110
L 785 110
L 785 110
L 785 110
L 785 110
L 785 110
L 786 110
L 786 110
L 786 110
L 786 110
L 786 110
L 786 110
L 786 110
L 786 110
L 786 110
L 786 110
L 786 109
L 786 109
L 787 109
L 787 109
L 787 109
L 787 109
L 787 109
L 787 109
L 787 109
L 787 109
L 787 109
L 787 109
L 787 109
L 787 109
L 787 109
L 787 109
L 787 109
L 787 109
L 787 109
L 787 109
L 787 109
L 787 109
L 787 109
L 788 109
L 788 109
L 788 109
L 788 108
L 788 108
L 788 108
L 788 108
L 788 108
L 788 108
L 788 108
L 788 108
L 788 108
L 788 108
L 788 108
L 789 108
L 789 108
L 789 108
L 789 108
L 789 108
L 789 108
L 789 108
L 789 108
L 789 108
L 789 108
L 789 108
L 789 108
L 789 108
L 789 108
L 789 107
L 789 107
L 789 107
L 789 107
L 790 107
L 790 107
L 790 107
L 790 107
L 790 107
L 790 107
L 790 107
L 790 107
L 790 107
L 790 107
L 790 107
L 790 107
L 790 107
L 791 107
L 791 107
L 791 107
L 791 107
L 791 107
L 791 107
L 791 107
L 791 107
L 791 106
L 792 106
L 792 106
L 792 106
L 792 106
L 792 106
L 792 106
L 792 106
L 792 106
L 792 106
L 792 106
L 792 106
L 792 106
L 792 106
L 792 106
L 792 106
L 792 106
L 792 106
L 792 106
L 793 106
L 793 106
L 793 106
L 793 106
L 793 106
L 793 106
L 793 106
L 793 105
L 793 105
L 793 105
L 793 105
L 793 105
L 793 105
L 794 105
L 794 105
L 794 105
L 794 105
L 794 105
L 794 105
L 794 105
L 794 105
L 794 105
L 794 105
L 794 105
L 794 105
L 794 105
L 794 105
L 795 105
L 795 105
L 795 105
L 795 105
L 795 105
L 795 104
L 795 104
L 795 104
L 795 104
L 795 104
L 795 104
L 795 104
L 796 104
L 796 104
L 796 104
L 796 104
L 796 104
L 796 104
L 796 104
L 796 104
L 796 104
L 796 104
L 796 104
L 796 104
L 796 104
L 797 104
L 797 104
L 797 104
L 797 104
L 797 104
L 797 103
L 797 103
L 797 103
L 797 103
L 797 103
L 797 103
L 797 103
L 798 103
L 798 103
L 798 103
L 798 103
L 798 103
L 798 103
L 798 103
L 798 103
L 798 103
L 798 103
L 798 103
L 798 103
L 798 103
L 798 103
L 798 103
L 798 103
L 798 103
L 798 103
L 798 102
L 798 102
L 799 102
L 799 102
L 799 102
L 799 102
L 799 102
L 799 102
L 799 102
L 799 102
L 799 102
L 799 102
L 799 102
L 799 102
L 799 102
L 799 102
L 799 102
L 799 102
L 799 102
L 799 102
L 799 102
L 799 102
L 800 102
L 800 102
L 800 102
L 800 102
L 800 101
L 800 101
L 800 101
L 800 101
L 800 101
L 800 101
L 800 101
L 800 101
L 801 101
L 801 101
L 801 101
L 801 101
L 801 101
L 801 101
L 801 101
L 801 101
L 801 101
L 802 101
L 802 101
L 802 101
L 802 101
L 802 101
L 802 101
L 802 101
L 802 101
L 803 100
L 803 100
L 803 100
L 803 100
L 803 100
L 803 100
L 803 100
L 803 100
L 803 100
L 803 100
L 803 100
L 803 100
L 803 100
L 803 100
L 803 100
L 803 100
L 803 100
L 803 100
L 803 100
L 803 100
L 803 100
L 804 100
L 804 100
L 804 100
L 804 100
L 804 99
L 804 99
L 804 99
L 804 99
L 804 99
L 804 99
L 804 99
L 804 99
L 804 99
L 804 99
L 805 99
L 805 99
L 805 99
L 805 99
L 805 99
L 805 99
L 805 99
L 805 99
L 805 99
L 805 99
L 805 99
L 805 99
L 805 99
L 806 99
L 806 99
L 806 99
L 806 98
L 806 98
L 806 98
L 806 98
L 806 98
L 807 98
L 807 98
L 807 98
L 807 98
L 807 98
L 807 98
L 807 98
L 807 98
L 807 98
L 807 98
L 807 98
L 807 98
L 807 98
L 807 98
L 808 98
L 808 98
L 808 98
L 808 98
L 808 98
L 808 98
L 808 97
L 808 97
L 808 97
L 808 97
L 808 97
L 808 97
L 808 97
L 808 97
L 809 97
L 809 97
L 809 97
L 809 97
L 809 97
L 809 97
L 810 97
L 810 97
L 810 97
L 810 97
L 810 97
L 810 97
L 810 97
L 810 97
L 810 97
L 810 97
L 810 97
L 811 96
L 811 96
L 811 96
L 811 96
L 811 96
L 811 96
L 811 96
L 811 96
L 811 96
L 812 96
L 812 96
L 812 96
L 812 96
L 812 96
L 812 96
L 812 96
L 812 96
L 813 96
L 813 96
L 813 96
L 813 96
L 813 96
L 813 96
L 813 96
L 813 96
L 813 96
L 813 95
L 813 95
L 813 95
L 813 95
L 814 95
L 814 95
L 814 95
L 814 95
L 814 95
L 814 95
L 814 95
L 814 95
L 814 95
L 814 95
L 814 95
L 814 95
L 815 95
L 815 95
L 815 95
L 815 95
L 815 95
L 815 95
L 815 95
L 816 95
L 816 95
L 816 94
L 816 94
L 816 94
L 816 94
L 816 94
L 816 94
L 816 94
L 816 94
L 816 94
L 816 94
L 816 94
L 816 94
L 816 94
L 816 94
L 816 94
L 816 94
L 816 94
L 817 94
L 817 94
L 817 94
L 817 94
L 817 94
L 817 94
L 817 94
L 817 94
L 817 93
L 817 93
L 817 93
L 818 93
L 818 93
L 818 93
L 818 93
L 818 93
L 818 93
L 818 93
L 818 93
L 818 93
L 818 93
L 818 93
L 818 93
L 818 93
L 818 93
L 818 93
L 819 93
L 819 93
L 819 93
L 819 93
L 819 93
L 819 93
L 819 93
L 819 92
L 819 92
L 819 92
L 819 92
L 819 92
L 819 92
L 819 92
L 819 92
L 819 92
L 819 92
L 819 92
L 820 92
L 820 92
L 820 92
L 820 92
L 820 92
L 820 92
L 820 92
L 820 92
L 820 92
L 820 92
L 820 92
L 820 92
L 820 92
L 820 92
L 820 92
L 820 91
L 820 91
L 820 91
L 820 91
L 821 91
L 821 91
L 821 91
L 821 91
L 821 91
L 821 91
L 821 91
L 821 91
L 821 91
L 821 91
L 821 91
L 821 91
L 821 91
L 821 91
L 821 91
L 821 91
L 821 91
L 822 91
L 822 91
L 822 91
L 822 91
L 822 90
L 822 90
L 822 90
L 822 90
L 822 90
L 822 90
L 822 90
L 822 90
L 822 90
L 822 90
L 823 90
L 823 90
L 823 90
L 823 90
L 823 90
L 823 90
L 823 90
L 823 90
L 823 90
L 823 90
L 823 90
L 824 90
L 824 90
L 824 90
L 824 90
L 824 89
L 824 89
L 824 89
L 824 89
L 824 89
L 824 89
L 824 89
L 824 89
L 824 89
L 824 89
L 824 89
L 824 89
L 824 89
L 824 89
L 824 89
L 825 89
L 825 89
L 825 89
L 825 89
L 825 89
L 825 89
L 825 89
L 825 89
L 825 89
L 825 89
L 825 89
L 826 88
L 826 88
L 826 88
L 826 88
L 826 88
L 826 88
L 826 88
L 826 88
L 826 88
L 826 88
L 826 88
L 827 88
L 827 88
L 827 88
L 827 88
L 827 88
L 827 88
L 827 88
L 827 88
L 827 88
L 827 88
L 827 88
L 827 88
L 827 88
L 827 88
L 827 87
L 827 87
L 827 87
L 827 87
L 827 87
L 827 87
L 827 87
L 827 87
L 827 87
L 827 87
L 828 87
L 828 87
L 828 87
L 828 87
L 828 87
L 828 87
L 828 87
L 828 87
L 828 87
L 828 87
L 828 87
L 828 87
L 828 87
L 828 87
L 828 87
L 828 86
L 828 86
L 828 86
L 829 86
L 829 86
L 829 86
L 829 86
L 830 86
L 830 86
L 830 86
L 830 86
L 830 86
L 830 86
L 830 86
L 830 86
L 830 86
L 830 86
L 830 86
L 830 86
L 830 86
L 830 86
L 830 86
L 831 86
L 831 86
L 831 86
L 831 85
L 831 85
L 831 85
L 831 85
L 831 85
L 831 85
L 831 85
L 831 85
L 831 85
L 832 85
L 832 85
L 832 85
L 832 85
L 832 85
L 832 85
L 832 85
L 832 85
L 832 85
L 832 85
L 832 85
L 832 85
L 832 85
L 832 85
L 832 85
L 832 85
L 832 85
L 832 84
L 832 84
L 832 84
L 832 84
L 833 84
L 833 84
L 833 84
L 833 84
L 833 84
L 833 84
L 833 84
L 833 84
L 833 84
L 833 84
L 834 84
L 834 84
L 834 84
L 834 84
L 834 84
L 834 84
L 834 84
L 834 84
L 834 84
L 834 84
L 834 84
L 834 83
L 834 83
L 834 83
L 834 83
L 834 83
L 834 83
L 834 83
L 834 83
L 834 83
L 835 83
L 835 83
L 835 83
L 835 83
L 835 83
L 835 83
L 835 83
L 835 83
L 835 83
L 835 83
L 835 83
L 835 83
L 835 83
L 835 83
L 835 83
L 835 83
L 835 82
L 835 82
L 835 82
L 835 82
L 835 82
L 835 82
L 835 82
L 835 82
L 835 82
L 836 82
L 836 82
L 836 82
L 836 82
L 836 82
L 836 82
L 836 82
L 836 82
L 836 82
L 836 82
L 836 82
L 836 82
L 837 82
L 837 82
L 837 82
L 837 82
L 837 82
L 837 81
L 837 81
L 838 81
L 838 81
L 838 81
L 838 81
L 838 81
L 838 81
L 838 81
L 838 81
L 838 81
L 838 81
L 839 81
L 839 81
L 839 81
L 839 81
L 839 81
L 839 81
L 839 81
L 839 81
L 840 81
L 840 81
L 840 81
L 840 81
L 840 81
L 840 80
L 840 80
L 840 80
L 840 80
L 840 80
L 840 80
L 840 80
L 841 80
L 841 80
L 841 80
L 841 80
L 841 80
L 841 80
L 841 80
L 841 80
L 842 80
L 842 80
L 842 80
L 842 80
L 842 80
L 842 80
L 842 80
L 842 80
L 842 80
L 842 80
L 842 79
L 842 79
L 842 79
L 842 79
L 843 79
L 843 79
L 843 79
L 843 79
L 843 79
L 843 79
L 843 79
L 843 79
L 843 79
L 843 79
L 843 79
L 843 79
L 843 79
L 844 79
L 844 79
L 844 79
L 844 79
L 844 79
L 844 79
L 844 79
L 844 79
L 844 79
L 844 78
L 844 78
L 844 78
L 844 78
L 844 78
L 844 78
L 844 78
L 844 78
L 844 78
L 844 78
L 844 78
L 844 78
L 844 78
L 844 78
L 845 78
L 845 78
L 845 78
L 845 78
L 845 78
L 845 78
L 845 78
L 845 78
L 845 78
L 845 78
L 845 78
L 845 77
L 846 77
L 846 77
L 846 77
L 846 77
L 846 77
L 846 77
L 846 77
L 846 77
L 846 77
L 846 77
L 846 77
L 846 77
L 846 77
L 846 77
L 846 77
L 846 77
L 846 77
L 846 77
L 847 77
L 847 77
L 847 77
L 847 77
L 847 77
L 847 77
L 847 76
L 847 76
L 848 76
L 848 76
L 848 76
L 848 76
L 848 76
L 848 76
L 848 76
L 848 76
L 848 76
L 848 76
L 848 76
L 848 76
L 849 76
L 849 76
L 849 76
L 849 76
L 849 76
L 849 76
L 849 76
L 850 76
L 850 76
L 850 76
L 850 76
L 850 75
L 850 75
L 850 75
L 850 75
L 850 75
L 850 75
L 850 75
L 850 75
L 850 75
L 851 75
L 851 75
L 851 75
L 851 75
L 851 75
L 851 75
L 851 75
L 852 75
L 852 75
L 852 75
L 852 75
L 852 75
L 852 75
L 852 75
L 852 75
L 852 75
L 852 75
L 852 74
L 852 74
L 852 74
L 853 74
L 853 74
L 853 74
L 853 74
L 853 74
L 853 74
L 853 74
L 853 74
L 854 74
L 854 74
L 854 74
L 854 74
L 854 74
L 854 74
L 854 74
L 854 74
L 854 74
L 854 74
L 855 74
L 855 74
L 855 74
L 855 74
L 855 73
L 855 73
L 855 73
L 855 73
L 856 73
L 856 73
L 856 73
L 856 73
L 856 73
L 856 73
L 856 73
L 856 73
L 856 73
L 857 73
L 857 73
L 857 73
L 857 73
L 857 73
L 858 73
L 858 73
L 858 73
L 858 73
L 858 73
L 858 73
L 858 73
L 858 72
L 858 72
L 858 72
L 859 72
L 859 72
L 859 72
L 859 72
L 859 72
L 859 72
L 859 72
L 859 72
L 859 72
L 860 72
L 860 72
L 860 72
L 860 72
L 860 72
L 860 72
L 860 72
L 860 72
L 860 72
L 861 72
L 861 72
L 861 72
L 861 72
L 861 72
L 861 71
L 861 71
L 861 71
L 861 71
L 862 71
L 862 71
L 862 71
L 862 71
L 862 71
L 862 71
L 862 71
L 862 71
L 862 71
L 862 71
L 862 71
L 862 71
L 862 71
L 863 71
L 863 71
L 863 71
L 863 71
L 863 71
L 863 71
L 863 71
L 863 71
L 863 70
L 863 70
L 863 70
L 864 70
L 864 70
L 864 70
L 864 70
L 864 70
L 864 70
L 864 70
L 864 70
L 864 70
L 864 70
L 864 70
L 864 70
L 864 70
L 864 70
L 864 70
L 864 70
L 864 70
L 864 70
L 865 70
L 865 70
L 865 70
L 865 70
L 865 69
L 865 69
L 865 69
L 865 69
L 865 69
L 865 69
L 865 69
L 865 69
L 865 69
L 865 69
L 866 69
L 866 69
L 866 69
L 866 69
L 866 69
L 866 69
L 866 69
L 866 69
L 866 69
L 866 69
L 866 69
L 866 69
L 866 69
L 866 69
L 866 69
L 866 68
L 866 68
L 866 68
L 866 68
L 866 68
L 866 68
L 866 68
L 866 68
L 866 68
L 867 68
L 867 68
L 867 68
L 867 68
L 867 68
L 867 68
L 867 68
L 867 68
L 867 68
L 867 68
L 867 68
L 867 68
L 867 68
L 868 68
L 868 68
L 868 68
L 868 68
L 868 67
L 868 67
L 868 67
L 868 67
L 868 67
L 869 67
L 869 67
L 869 67
L 869 67
L 869 67
L 869 67
L 869 67
L 869 67
L 869 67
L 869 67
L 869 67
L 869 67
L 869 67
L 869 67
L 869 67
L 870 67
L 870 67
L 870 67
L 870 67
L 870 67
L 870 66
L 870 66
L 870 66
L 870 66
L 870 66
L 870 66
L 870 66
L 870 66
L 870 66
L 870 66
L 870 66
L 870 66
L 870 66
L 870 66
L 871 66
L 871 66
L 871 66
L 871 66
L 871 66
L 871 66
L 871 66
L 871 66
L 871 66
L 871 66
L 871 66
L 872 65
L 872 65
L 872 65
L 872 65
L 872 65
L 872 65
L 872 65
L 872 65
L 873 65
L 873 65
L 873 65
L 873 65
L 874 65
L 874 65
L 874 65
L 874 65
L 874 65
L 874 65
L 874 65
L 874 65
L 874 65
L 874 65
L 874 65
L 874 65
L 875 65
L 875 65
L 875 64
L 875 64
L 875 64
L 875 64
L 875 64
L 875 64
L 875 64
L 875 64
L 875 64
L 875 64
L 875 64
L 875 64
L 876 64
L 876 64
L 876 64
L 876 64
L 876 64
L 876 64
L 876 64
L 876 64
L 876 64
L 876 64
L 876 64
L 876 64
L 876 64
L 876 63
L 876 63
L 876 63
L 876 63
L 876 63
L 877 63
L 877 63
L 877 63
L 877 63
L 877 63
L 877 63
L 877 63
L 877 63
L 877 63
L 877 63
L 877 63
L 877 63
L 878 63
L 878 63
L 878 63
L 878 63
L 878 63
L 878 63
L 878 63
L 878 63
L 878 62
L 878 62
L 878 62
L 878 62
L 878 62
L 878 62
L 878 62
L 878 62
L 878 62
L 878 62
L 878 62
L 878 62
L 878 62
L 878 62
L 878 62
L 879 62
L 879 62
L 879 62
L 879 62
L 879 62
L 879 62
L 879 62
L 880 62
L 880 62
L 880 62
L 880 62
L 880 61
L 880 61
L 880 61
L 880 61
L 880 61
L 880 61
L 880 61
L 880 61
L 880 61
L 881 61
L 881 61
L 881 61
L 881 61
L 881 61
L 881 61
L 881 61
L 881 61
L 881 61
L 881 61
L 881 61
L 881 61
L 881 61
L 882 61
L 882 61
L 882 61
L 882 60
L 882 60
L 882 60
L 882 60
L 882 60
L 882 60
L 882 60
L 882 60
L 882 60
L 883 60
L 883 60
L 883 60
L 883 60
L 883 60
L 883 60
L 883 60
L 883 60
L 883 60
L 883 60
L 883 60
L 883 60
L 883 60
L 884 60
L 884 60
L 884 60
L 884 59
L 884 59
L 884 59
L 884 59
L 884 59
L 884 59
L 884 59
L 884 59
L 884 59
L 884 59
L 884 59
L 884 59
L 884 59
L 884 59
L 884 59
L 884 59
L 884 59
L 884 59
L 884 59
L 884 59
L 884 59
L 884 59
L 885 59
L 885 59
L 885 59
L 885 58
L 885 58
L 885 58
L 885 58
L 885 58
L 885 58
L 885 58
L 885 58
L 886 58
L 886 58
L 886 58
L 886 58
L 886 58
L 886 58
L 886 58
L 886 58
L 886 58
L 886 58
L 886 58
L 886 58
L 886 58
L 886 58
L 887 58
L 887 58
L 887 58
L 887 58
L 887 57
L 887 57
L 887 57
L 887 57
L 887 57
L 887 57
L 887 57
L 888 57
L 888 57
L 888 57
L 888 57
L 888 57
L 888 57
L 888 57
L 888 57
L 888 57
L 888 57
L 888 57
L 888 57
L 889 57
L 889 57
L 889 57
L 889 57
L 889 57
L 889 57
L 890 56
L 890 56
L 890 56
L 890 56
L 890 56
L 890 56
L 890 56
L 890 56
L 891 56
L 891 56
L 891 56
L 891 56
L 891 56
L 891 56
L 891 56
L 891 56
L 891 56
L 891 56
L 891 56
L 892 56
L 892 56
L 892 56
L 892 56
L 892 56
L 892 56
L 892 55
L 892 55
L 892 55
L 892 55
L 892 55
L 892 55
L 892 55
L 892 55
L 893 55
L 893 55
L 893 55
L 893 55
L 893 55
L 893 55
L 893 55
L 893 55
L 893 55
L 894 55
L 894 55
L 894 55
L 894 55
L 894 55
L 894 55
L 894 55
L 894 55
L 894 55
L 894 54
L 894 54
L 894 54
L 894 54
L 894 54
L 894 54
L 894 54
L 894 54
L 894 54
L 894 54
L 895 54
L 895 54
L 895 54
L 895 54
L 895 54
L 895 54
L 895 54
L 896 54
L 896 54
L 896 54
L 896 54
L 896 54
L 896 54
L 896 54
L 896 54
L 897 53
L 897 53
L 897 53
L 897 53
L 897 53
L 897 53
L 897 53
L 897 53
L 897 53
L 897 53
L 897 53
L 897 53
L 897 53
L 897 53
L 897 53
L 897 53
L 897 53
L 897 53
L 897 53
L 897 53
L 897 53
L 897 53
L 897 53
L 897 53
L 897 53
L 897 52
L 897 52
L 897 52
L 897 52
L 897 52
L 897 52
L 897 52
L 897 52
L 897 52
L 897 52
L 897 52
L 897 52
L 897 52
L 897 52
L 897 52
L 897 52
L 897 52
L 897 52
L 897 52
L 897 52
L 897 52
L 897 52
L 897 52
L 897 52
L 897 52
L 897 51
L 897 51
L 897 51
L 897 51
L 897 51
L 897 51
L 897 51
L 897 51
L 897 51
L 897 51
L 897 51
L 897 51
L 897 51
L 897 51
L 897 51
L 898 51
L 898 51
L 898 51
L 898 51
L 898 51
L 898 51
L 898 51
L 898 51
L 898 51
L 898 51
L 898 51
L 898 50
L 898 50
L 898 50
L 898 50
L 898 50
L 898 50
L 898 50
L 898 50
L 898 50
L 898 50
L 898 50
L 899 50
L 899 50
L 899 50
L 899 50
L 899 50
L 899 50
L 899 50
L 899 50
L 899 50
L 899 50
L 899 50
L 899 50
L 899 50
L 900 50
L 900 49
L 900 49
L 900 49
L 900 49
L 900 49
L 900 49
L 900 49
L 900 49
L 900 49
L 900 49
L 900 49
L 901 49
L 901 49
L 901 49
L 901 49
L 901 49
L 901 49
L 901 49
L 901 49
L 901 49
L 901 49
L 901 49
L 901 49
L 901 49
L 901 49
L 901 48
L 901 48
L 901 48
L 901 48
L 901 48
L 901 48
L 902 48
L 902 48
L 902 48
L 902 48
L 902 48
L 902 48
L 902 48
L 902 48
L 902 48
L 902 48
L 902 48
L 902 48
L 902 48
L 903 48
L 903 48
L 903 48
L 903 48
L 903 48
L 903 48
L 903 48
L 903 47
L 904 47
L 904 47
L 904 47
L 904 47
L 904 47
L 904 47
L 904 47
L 904 47
L 904 47
L 904 47
L 904 47
L 904 47
L 904 47
L 904 47
L 904 47
L 905 47
L 905 47
L 905 47
L 905 47
L 905 47
L 905 47
L 905 47
L 905 47
L 905 47
L 905 46
L 905 46
L 905 46
L 905 46
L 905 46
L 906 46
L 906 46
L 906 46
L 906 46
L 906 46
L 906 46
L 906 46
L 906 46
L 906 46
L 906 46
L 906 46
L 906 46
L 906 46
L 906 46
L 906 46
L 906 46
L 906 46
L 906 46
L 906 46
L 906 46
L 906 45
L 906 45
L 906 45
L 906 45
L 906 45
L 906 45
L 906 45
L 907 45
L 907 45
L 907 45
L 907 45
L 907 45
L 907 45
L 907 45
L 907 45
L 907 45
L 907 45
L 907 45
L 907 45
L 908 45
L 908 45
L 908 45
L 908 45
L 908 45
L 908 45
L 908 45
L 908 44
L 908 44
L 908 44
L 908 44
L 908 44
L 908 44
L 908 44
L 908 44
L 909 44
L 909 44
L 909 44
L 909 44
L 909 44
L 909 44
L 909 44
L 909 44
L 909 44
L 909 44
L 910 44
L 910 44
L 910 44
L 910 44
L 910 44
L 910 44
L 910 44
L 910 43
L 910 43
L 910 43
L 910 43
L 910 43
L 910 43
L 910 43
L 910 43
L 910 43
L 910 43
L 910 43
L 910 43
L 910 43
L 910 43
L 910 43
L 910 43
L 910 43
L 911 43
L 911 43
L 911 43
L 911 43
L 911 43
L 911 43
L 911 43
L 911 43
L 911 42
L 911 42
L 911 42
L 912 42
L 912 42
L 912 42
L 912 42
L 912 42
L 912 42
L 912 42
L 912 42
L 912 42
L 912 42
L 912 42
L 912 42
L 912 42
L 912 42
L 913 42
L 913 42
L 913 42
L 913 42
L 913 42
L 913 42
L 913 42
L 913 42
L 913 41
L 913 41
L 913 41
L 913 41
L 913 41
L 913 41
L 913 41
L 913 41
L 913 41
L 914 41
L 914 41
L 914 41
L 914 41
L 914 41
L 915 41
L 915 41
L 915 41
L 915 41
L 915 41
L 915 41
L 915 41
L 915 41
L 915 41
L 915 41
L 915 41
L 915 41
L 915 40
L 915 40
L 916 40
L 916 40
L 916 40
L 916 40
L 916 40
L 916 40
L 916 40
L 916 40
L 916 40
L 916 40
L 916 40
L 916 40
L 916 40
L 916 40
L 916 40
L 917 40
L 917 40
L 917 40
L 917 40
L 917 40
L 917 40
L 917 40
L 917 40
L 917 39
L 917 39
L 917 39
L 917 39
L 917 39
L 917 39
L 918 39
L 918 39
L 918 39
L 918 39
L 918 39
L 918 39
L 918 39
L 918 39
L 918 39
L 918 39
L 918 39
L 918 39
L 918 39
L 918 39
L 918 39
L 919 39
L 919 39
L 919 39
L 919 39
L 919 38
L 919 38
L 919 38
L 919 38
L 919 38
L 919 38
L 919 38
L 919 38
L 919 38
L 919 38
L 919 38
L 920 38
L 920 38
L 920 38
L 920 38
L 920 38
L 920 38
L 920 38
L 920 38
L 920 38
L 920 38
L 920 38
L 920 38
L 921 38
L 921 38
L 921 38
L 921 37
L 921 37
L 921 37
L 921 37
L 921 37
L 921 37
L 921 37
L 921 37
L 921 37
L 921 37
L 921 37
L 921 37
L 921 37
L 922 37
L 922 37
L 922 37
L 922 37
L 922 37
L 922 37
L 922 37
L 922 37
L 922 37
L 922 37
L 923 37
L 923 37
L 923 36
L 923 36
L 923 36
L 923 36
L 923 36
L 923 36
L 923 36
L 923 36
L 923 36
L 923 36
L 923 36
L 923 36
L 923 36
L 923 36
L 923 36
L 924 36
L 924 36
L 924 36
L 924 36
L 925 36
L 925 36
L 925 36
L 925 36
L 925 36
L 925 36
L 925 35
L 925 35
L 925 35
L 925 35
L 925 35
L 925 35
L 926 35
L 926 35
L 926 35
L 926 35
L 926 35
L 926 35
L 926 35
L 926 35
L 926 35
L 926 35
L 926 35
L 926 35
L 927 35
L 927 35
L 927 35
L 927 35
L 927 35
L 927 35
L 927 35
L 927 34
L 927 34
L 927 34
L 927 34
L 927 34
L 927 34
L 927 34
L 927 34
L 927 34
L 927 34
L 927 34
L 927 34
L 927 34
L 927 34
L 927 34
L 928 34
L 928 34
L 928 34
L 929 34
L 929 34
L 929 34
L 929 34
L 929 34
L 929 34
L 929 34
L 929 34
L 929 33
L 929 33
L 929 33
L 929 33
L 929 33
L 929 33
L 929 33
L 929 33
L 929 33
L 929 33
L 929 33
L 930 33
L 930 33
L 930 33
L 930 33
L 930 33
L 930 33
L 930 33
L 931 33
L 931 33
L 931 33
L 931 33
L 931 33
L 931 33
L 931 33
L 931 32
L 931 32
L 931 32
L 931 32
L 931 32
L 931 32
L 931 32
L 931 32
L 932 32
L 932 32
L 932 32
L 932 32
L 932 32
L 932 32
L 932 32
L 932 32
L 932 32
L 932 32
L 932 32
L 932 32
L 932 32
L 932 32
L 932 32
L 933 32
L 933 32
L 933 31
L 933 31
L 933 31
L 933 31
L 933 31
L 933 31
L 933 31
L 933 31
L 933 31
L 933 31
L 933 31
L 933 31
L 933 31
L 933 31
L 934 31
L 934 31
L 934 31
L 934 31
L 934 31
L 934 31
L 934 31
L 934 31
L 934 31
L 934 31
L 934 31
L 934 31
L 934 30
L 934 30
L 934 30
L 934 30
L 934 30
L 934 30
L 934 30
L 934 30
L 934 30
L 934 30
L 934 30
L 934 30
L 934 30
L 934 30
L 934 30
L 934 30
L 934 30
L 934 30
L 934 30
L 934 30
L 934 30
L 934 30
L 934 30
L 934 30
L 934 30
L 934 29
L 934 29
L 934 29
L 934 29
L 934 29
L 934 29
L 934 29
L 934 29
L 934 29
L 934 29
L 934 29
L 934 29
L 934 29
L 934 29
L 934 29
L 934 29
L 934 29
L 934 29
L 934 29
L 934 29
L 934 29
L 934 29
L 934 29
L 934 29
L 934 29
L 934 28
L 934 28
L 934 28
L 934 28
L 934 28
L 934 28
L 934 28
L 934 28
L 934 28
L 934 28
L 934 28
L 934 28
L 934 28
L 934 28
L 934 28
L 934 28
L 934 28
L 934 28
L 934 28
L 934 28
L 934 28
L 934 28
L 934 28
L 934 28
L 934 28
L 934 28
L 934 27
L 934 27
L 934 27
L 934 27
L 934 27
L 934 27
L 934 27
L 934 27
L 934 27
L 934 27
L 934 27
L 934 27
L 934 27
L 934 27
L 934 27
L 934 27
L 934 27
L 934 27
L 934 27
L 934 27
L 934 27
L 934 27
L 934 27
L 934 27
L 934 27
L 934 26
L 934 26
L 934 26
L 934 26
L 934 26
L 934 26
L 934 26
L 935 26
L 935 26
L 935 26
L 935 26
L 935 26
L 935 26
L 935 26
L 935 26
L 935 26
L 935 26
L 935 26
L 935 26
L 935 26
L 935 26
L 935 26
L 935 26
L 935 26
L 935 26
L 935 25
L 935 25
L 935 25
L 935 25
L 935 25
L 935 25
L 935 25
L 935 25
L 935 25
L 935 25
L 935 25
L 935 25
L 935 25
L 935 25
L 935 25
L 935 25
L 935 25
L 935 25
L 935 25
L 935 25
L 935 25
L 935 25
L 935 25
L 935 25
L 935 25
L 935 24
L 935 24
L 935 24
L 935 24
L 935 24
L 935 24
L 935 24
L 935 24
L 935 24
L 935 24
L 935 24
L 935 24
L 936 24
L 936 24
L 936 24
L 936 24
L 936 24
L 936 24
L 936 24
L 936 24
L 936 24
L 936 24
L 936 24
L 936 24
L 936 24
L 936 24
L 936 23
L 936 23
L 936 23
L 936 23
L 936 23
L 936 23
L 936 23
L 936 23
L 936 23
L 937 23
L 937 23
L 937 23
L 937 23
L 937 23
L 937 23
L 937 23
L 937 23
L 937 23
L 937 23
L 937 23
L 937 23
L 937 23
L 937 23
L 937 23
L 937 23
L 937 22
L 937 22
L 937 22
L 937 22
L 937 22
L 937 22
L 937 22
L 937 22
L 937 22
L 937 22
L 937 22
L 938 22
L 938 22
L 938 22
L 938 22
L 938 22
L 938 22
L 938 22
L 938 22
L 938 22
L 938 22
L 938 22
L 938 22
L 938 22
L 939 22
L 939 21
L 939 21
L 939 21
L 939 21
L 939 21
L 939 21
L 939 21
L 939 21
L 939 21
L 939 21
L 939 21
L 939 21
L 939 21
L 939 21
L 939 21
L 939 21
L 939 21
L 939 21
L 939 21
L 940 21
L 940 21
L 940 21
L 940 21
L 940 21
L 940 21
L 940 21
L 940 20
L 940 20
L 941 20
L 941 20
L 941 20
L 941 20
L 941 20
L 941 20
L 941 20
L 941 20
L 941 20
L 941 20
L 941 20
L 941 20
L 941 20
L 941 20
L 941 20
L 941 20
L 942 20
L 942 20
L 942 20
L 942 20
L 942 20
L 942 20
L 942 20
L 942 19
L 942 19
L 942 19
L 942 19
L 942 19
L 942 19
L 942 19
L 942 19
L 942 19
L 942 19
L 942 19
L 943 19
L 943 19
L 943 19
L 943 19
L 943 19
L 943 19
L 943 19
L 943 19
L 943 19
L 943 19
L 944 19
L 944 19
L 944 19
L 944 19
L 944 18
L 944 18
L 944 18
L 944 18
L 944 18
L 944 18
L 944 18
L 945 18
L 945 18
L 945 18
L 945 18
L 945 18
L 945 18
L 945 18
L 945 18
L 945 18
L 945 18
L 945 18
L 945 18
L 946 18
L 946 18
L 946 18
L 946 18
L 946 18
L 946 18
L 946 17
L 947 17
L 947 17
L 947 17
L 947 17
L 947 17
L 947 17
L 947 17
L 948 17
L 948 17
L 948 17
L 948 17
L 948 17
L 948 17
L 948 17
L 948 17
L 948 17
L 948 17
L 949 17
L 949 17
L 949 17
L 949 17
L 949 17
L 949 17
L 949 17
L 949 17
L 949 16
L 949 16
L 949 16
L 949 16
L 949 16
L 949 16
L 950 16
L 950 16
L 950 16
L 950 16
L 950 16
L 950 16
L 950 16
L 950 16
L 950 16
L 950 16
L 950 16
L 950 16
L 950 16
L 951 16
L 951 16
L 951 16
L 951 16
L 951 16
L 952 16
L 952 15
L 952 15
L 952 15
L 952 15
L 952 15
L 952 15
L 952 15
L 952 15
L 952 15
L 953 15
L 953 15
L 953 15
L 953 15
L 953 15
L 953 15
L 953 15
L 953 15
L 953 15
L 953 15
L 953 15
L 953 15
L 953 15
L 953 15
L 953 15
L 953 15
L 953 14
L 953 14
L 953 14
L 953 14
L 953 14
L 953 14
L 954 14
L 954 14
L 954 14
L 954 14
L 954 14
L 954 14
L 954 14
L 954 14
L 954 14
L 954 14
L 954 14
L 954 14
L 954 14
L 954 14
L 955 14
L 955 14
L 955 14
L 955 14
L 955 14
L 955 14
L 955 13
L 955 13
L 956 13
L 956 13
L 956 13
L 956 13
L 956 13
L 956 13
L 956 13
L 956 13
L 956 13
L 956 13
L 956 13
L 957 13
L 957 13
L 957 13
L 957 13
L 957 13
L 957 13
L 957 13
L 957 13
L 957 13
L 957 13
L 957 13
L 957 13
L 957 12
L 957 12
L 957 12
L 957 12
L 957 12
L 957 12
L 957 12
L 957 12" style="stroke-width:2;stroke:rgba(129,199,239,1.0);fill:none"/></svg>